<?xml version="1.0" standalone="no"?>
<!DOCTYPE svg PUBLIC "-//W3C//DTD SVG 1.1//EN" "http://www.w3.org/Graphics/SVG/1.1/DTD/svg11.dtd" >
<svg>
<metadata>
Created by FontForge 20090914 at Mon Mar 23 22:10:03 2020
 By www-data
Copyright &#194;&#169; 2015 by Svet Simov. All rights reserved.
</metadata>
<defs>
<font id="Squad-LightItalic" horiz-adv-x="0" >
  <font-face 
    font-family="Squad"
    font-weight="300"
    font-style="italic"
    font-stretch="normal"
    units-per-em="1000"
    panose-1="0 0 4 0 0 0 0 0 0 0"
    ascent="768"
    descent="-232"
    x-height="506"
    cap-height="700"
    bbox="-478.4 -252.997 1057.05 937"
    underline-thickness="50"
    underline-position="-150"
    slope="-10"
    unicode-range="U+0020-U+25CA"
  />
<missing-glyph horiz-adv-x="772" 
d="M134 0v700h538v-700h-538zM355 208h53.999v27c0 20.667 4.83301 39.834 14.5 57.501s26.834 38.834 51.501 63.501c26.667 26.667 45.167 49.667 55.5 69s15.5 40.333 15.5 63c0 37.333 -13.333 67.833 -40 91.5s-61.334 35.5 -104.001 35.5
c-45.333 0 -87.666 -10.667 -126.999 -32v-61c33.333 24.667 73.333 37 120 37c57.333 0 86 -26.333 86 -79c0 -25.333 -18.333 -56.333 -55 -93c-26.667 -26.667 -45.5 -50.334 -56.5 -71.001s-16.5 -43 -16.5 -67c0 -12.667 0.666992 -26.334 2 -41.001zM427.999 123
c0 12.667 -4.16699 23.167 -12.5 31.5s-18.833 12.5 -31.5 12.5c-12 0 -22.333 -4.16699 -31 -12.5s-13 -18.833 -13 -31.5c0 -12 4.33301 -22.333 13 -31s19 -13 31 -13c12.667 0 23.167 4.33301 31.5 13s12.5 19 12.5 31z" />
    <glyph glyph-name=".notdef" horiz-adv-x="772" 
d="M134 0v700h538v-700h-538zM355 208h53.999v27c0 20.667 4.83301 39.834 14.5 57.501s26.834 38.834 51.501 63.501c26.667 26.667 45.167 49.667 55.5 69s15.5 40.333 15.5 63c0 37.333 -13.333 67.833 -40 91.5s-61.334 35.5 -104.001 35.5
c-45.333 0 -87.666 -10.667 -126.999 -32v-61c33.333 24.667 73.333 37 120 37c57.333 0 86 -26.333 86 -79c0 -25.333 -18.333 -56.333 -55 -93c-26.667 -26.667 -45.5 -50.334 -56.5 -71.001s-16.5 -43 -16.5 -67c0 -12.667 0.666992 -26.334 2 -41.001zM427.999 123
c0 12.667 -4.16699 23.167 -12.5 31.5s-18.833 12.5 -31.5 12.5c-12 0 -22.333 -4.16699 -31 -12.5s-13 -18.833 -13 -31.5c0 -12 4.33301 -22.333 13 -31s19 -13 31 -13c12.667 0 23.167 4.33301 31.5 13s12.5 19 12.5 31z" />
    <glyph glyph-name="space" unicode=" " horiz-adv-x="215" 
 />
    <glyph glyph-name="exclam" unicode="!" horiz-adv-x="270" 
d="M94 152l25 155l67 393h52l-71 -394l-31 -154h-42zM56 25c0 12.667 5 23.667 15 33s21 14 33 14c9.33301 0 17 -2.83301 23 -8.5s9 -13.167 9 -22.5c0 -12.667 -4.66699 -23.667 -14 -33s-20 -14 -32 -14c-10 0 -18.167 2.83301 -24.5 8.5s-9.5 13.167 -9.5 22.5z" />
    <glyph glyph-name="quotedbl" unicode="&#x22;" horiz-adv-x="280" 
d="M180 700l-39 -221h-43l39 221h43zM300 700l-39 -221h-43l39 221h43z" />
    <glyph glyph-name="numbersign" unicode="#" horiz-adv-x="618" 
d="M78 0l67 213h-108l13 44h109l59 187h-108l13 45h109l66 211h50l-67 -211h177l67 211h49l-67 -211h109l-14 -45h-108l-59 -187h108l-14 -44h-109l-67 -213h-48l66 213h-177l-67 -213h-49zM208 257h177l60 187h-177z" />
    <glyph glyph-name="dollar" unicode="$" horiz-adv-x="478" 
d="M157 -90l14 75.999c-68 2 -121.667 17 -161 45l6 46c46.667 -30.667 101 -46 163 -46l56 307c-43.333 23.333 -76.333 47.666 -99 72.999c-22 26 -33 61.667 -33 107c0 53.333 17.5 95.333 52.5 126s83.5 47 145.5 49l14 78h36l-14 -79c47.333 -4 88.333 -16.333 123 -37
l-5 -47c-36.667 24.667 -79 38 -127 40l-52 -281c52.667 -26.667 89.667 -53 111 -79s32 -59.667 32 -101c0 -57.333 -18.833 -103.666 -56.5 -138.999s-89.5 -55.666 -155.5 -60.999l-14 -77h-36zM244 383.999l49 262.999c-94 -5.33301 -141 -47.666 -141 -126.999
c0 -28.667 7 -53.5 21 -74.5s37.667 -41.5 71 -61.5zM370 182.998c0 30 -8 55.832 -24 77.499s-42 41.834 -78 60.501l-52 -287c47.333 4.66699 84.833 20.167 112.5 46.5s41.5 60.5 41.5 102.5z" />
    <glyph glyph-name="percent" unicode="%" horiz-adv-x="655" 
d="M19 -14l585 728h48l-585 -728h-48zM82 518c0 55.333 14.5 101.833 43.5 139.5s65.167 56.5 108.5 56.5c66 0 99 -40.333 99 -121c0 -55.333 -14.667 -102 -44 -140s-65.333 -57 -108 -57c-32 0 -56.5 10.5 -73.5 31.5s-25.5 51.167 -25.5 90.5zM292 594
c0 25.333 -5.33398 45.001 -16.001 59.001s-25.667 21 -45 21c-30 0 -55.5 -15.333 -76.5 -46s-31.5 -68.334 -31.5 -113.001c0 -52 20.333 -78 61 -78c30.667 0 56.334 15 77.001 45s31 67.333 31 112zM337.999 107.001c0 55.333 14.667 102 44 140s65 57 107 57
c32 0 56.5 -10.5 73.5 -31.5s25.5 -51.167 25.5 -90.5c0 -55.333 -14.667 -101.833 -44 -139.5s-65 -56.5 -107 -56.5c-66 0 -99 40.333 -99 121zM547.999 185.001c0 52 -20.667 77.999 -62 77.999c-30.667 0 -56.167 -15 -76.5 -45s-30.5 -67.333 -30.5 -112
c0 -25.333 5.33301 -45 16 -59s25.667 -21 45 -21c30 0 55.5 15.333 76.5 46s31.5 68.334 31.5 113.001z" />
    <glyph glyph-name="ampersand" unicode="&#x26;" horiz-adv-x="645" 
d="M51 135c0 50 15.333 95.833 46 137.5s77.334 82.834 140.001 123.501c-36.667 54.667 -55 108 -55 160c0 47.333 15 85.5 45 114.5s70.333 43.5 121 43.5c40 0 71.833 -9.5 95.5 -28.5s35.5 -45.5 35.5 -79.5c-2 -44.667 -15.167 -81 -39.5 -109
s-70.5 -65.333 -138.5 -112l155 -222c52.667 69.333 87 139.666 103 210.999h43c-21.333 -93.333 -61.333 -175 -120 -245l90 -129h-58l-66 91c-66.667 -70 -143.334 -105 -230.001 -105c-52 0 -92.833 13.333 -122.5 40s-44.5 63 -44.5 109zM432 601
c0 22 -7.83203 39.666 -23.499 52.999s-36.5 20 -62.5 20c-35.333 0 -63.833 -11 -85.5 -33s-32.5 -50.333 -32.5 -85c0 -35.333 16 -80.333 48 -135c57.333 36 97.666 66.833 120.999 92.5s35 54.834 35 87.501zM425.001 128.999l-164 231
c-54.667 -35.333 -95.167 -70.166 -121.5 -104.499s-39.5 -72.833 -39.5 -115.5c0 -34.667 10.333 -61.834 31 -81.501s50.667 -29.5 90 -29.5c74.667 0 142.667 33.333 204 100z" />
    <glyph glyph-name="quotesingle" unicode="'" horiz-adv-x="160" 
d="M180 700l-39 -221h-43l39 221h43z" />
    <glyph glyph-name="parenleft" unicode="(" horiz-adv-x="248" 
d="M68 93c0 230 70 451.333 210 664h51c-142 -214 -213 -434 -213 -660c0 -96.667 15.333 -192 46 -286h-50c-29.333 95.333 -44 189.333 -44 282z" />
    <glyph glyph-name="parenright" unicode=")" horiz-adv-x="248" 
d="M190 475c0 -230 -70 -451.333 -210 -664h-51c142.667 212.667 214 432.667 214 660c0 96.667 -15.667 192 -47 286h51c28.667 -90.667 43 -184.667 43 -282z" />
    <glyph glyph-name="asterisk" unicode="*" horiz-adv-x="276" 
d="M321 622l-92 -29l42 -74l-31 -20l-43 77l-71 -78l-27 21l69 75l-82 28l16 33l83 -29l16 93h37l-16 -92l94 29z" />
    <glyph glyph-name="plus" unicode="+" horiz-adv-x="434" 
d="M170 128l29 158h-163l8 46h163l28 157h48l-28 -157h163l-8 -46h-163l-29 -158h-48z" />
    <glyph glyph-name="comma" unicode="," horiz-adv-x="174" 
d="M-20 -128l75 223h50l-83 -223h-42z" />
    <glyph glyph-name="hyphen" unicode="-" horiz-adv-x="335" 
d="M36 260l8 44h266l-8 -44h-266z" />
    <glyph glyph-name="period" unicode="." horiz-adv-x="204" 
d="M23 26c0 13.333 4.83203 24.833 14.499 34.5s20.834 14.5 33.501 14.5c10 0 18.167 -3.16699 24.5 -9.5s9.5 -14.5 9.5 -24.5c0 -12 -5 -22.833 -15 -32.5s-21 -14.5 -33 -14.5c-10 0 -18.167 3 -24.5 9s-9.5 13.667 -9.5 23z" />
    <glyph glyph-name="slash" unicode="/" horiz-adv-x="433" 
d="M-57 -57l529 807h52l-529 -807h-52z" />
    <glyph glyph-name="zero" unicode="0" horiz-adv-x="585" 
d="M68 224c-0.666992 83.333 11.499 162.5 36.499 237.5s61.167 136.167 108.5 183.5s100.333 70.333 159 69c57.333 0 101.5 -20 132.5 -60s46.5 -99.333 46.5 -178c0.666992 -82.667 -11.5 -161.667 -36.5 -237s-61.167 -136.833 -108.5 -184.5s-100 -70.5 -158 -68.5
c-57.333 0 -101.666 20 -132.999 60s-47 99.333 -47 178zM500.999 477c0 62.667 -11.166 110.333 -33.499 143s-54.833 49 -97.5 49c-47.333 2 -90.833 -19 -130.5 -63s-70 -100.333 -91 -169s-31.167 -140 -30.5 -214c0 -62 11.333 -109.5 34 -142.5s55.667 -49.5 99 -49.5
c46.667 -2 89.667 19.167 129 63.5s69.666 100.833 90.999 169.5s31.333 139.667 30 213z" />
    <glyph glyph-name="one" unicode="1" horiz-adv-x="325" 
d="M294 710h11l-126 -710h-49l104 592c2 16 5 31 9 45l-42 -21l-122 -63l8 52z" />
    <glyph glyph-name="two" unicode="2" horiz-adv-x="460" 
d="M-28 0l2 10.999l302 347c78 89.333 117 163 117 221c0 28.667 -9.5 50.834 -28.5 66.501s-46.167 23.5 -81.5 23.5c-52 0 -109 -17.333 -171 -52l6 50c57.333 31.333 115 47 173 47c48 0 85.5 -11.5 112.5 -34.5s40.5 -54.833 40.5 -95.5
c0 -68 -41.667 -150.667 -125 -248l-199 -227l-56 -64c10 0.666992 37 1 81 1h238l-9 -46h-402z" />
    <glyph glyph-name="three" unicode="3" horiz-adv-x="478" 
d="M474 700l-0.99707 -10.998l-222 -274c53.333 -2.66699 94.166 -17.834 122.499 -45.501s42.5 -65.834 42.5 -114.501c0 -76.667 -25.667 -140.667 -77 -192s-115.333 -77 -192 -77c-57.333 0 -109.333 11.333 -156 34l7 49c43.333 -25.333 93.666 -38 150.999 -38
c61.333 0 112.833 21.167 154.5 63.5s62.5 94.833 62.5 157.5c0 83.333 -50.333 125 -151 125c-2.66699 0 -15.334 -0.666992 -38.001 -2l-4 11l218 270h-280l8 44h355z" />
    <glyph glyph-name="four" unicode="4" horiz-adv-x="491" 
d="M296 0l29 163h-322l2 10l301 527h53l-277 -492h251l58 310h46l-55 -310h85l-8 -45h-85l-28 -163h-50z" />
    <glyph glyph-name="five" unicode="5" horiz-adv-x="493" 
d="M478 655h-266.002l-52 -231c37.333 9.33301 71 14 101 14c58.667 0 103.834 -14.667 135.501 -44s47.5 -70.666 47.5 -123.999c0 -12.667 -1.66699 -30.667 -5 -54c-12.667 -70.667 -43.667 -126.667 -93 -168s-111.666 -62 -186.999 -62c-50 0 -95 9.66699 -135 29l9 49
c42 -20.667 87 -31 135 -31c58 0 106.667 17.167 146 51.5s64 80.5 74 138.5c2.66699 11.333 4 25.666 4 42.999c0 41.333 -12.833 73 -38.5 95s-63.5 33 -113.5 33c-48 0 -92.667 -9 -134 -27l-6 6l72 327h314z" />
    <glyph glyph-name="six" unicode="6" horiz-adv-x="548" 
d="M122 340c53.333 75.333 122.668 112.999 208.001 112.999c55.333 0 98 -15 128 -45s45 -72.333 45 -127c1.33301 -80 -23.834 -149.5 -75.501 -208.5s-113.834 -87.833 -186.501 -86.5c-57.333 0 -101.333 18 -132 54s-46 86.333 -46 151c0 89.333 13.667 174.333 41 255
c26.667 78.667 65 143.334 115 194.001c49.333 49.333 105.333 74 168 74c54 0 100.333 -10 139 -30l-6 -49c-41.333 22 -86.666 33 -135.999 33c-60 0.666992 -114.167 -31.333 -162.5 -96s-81.5 -142 -99.5 -232zM115.002 221.999
c-1.33301 -22.667 -2.00195 -35.001 -2.00195 -37.001c0 -48.667 11 -86.5 33 -113.5s54.333 -40.5 97 -40.5c60.667 0 110.834 24.333 150.501 73s59.5 107.334 59.5 176.001c0 40 -11.167 71.167 -33.5 93.5s-54.166 33.5 -95.499 33.5c-54.667 0 -102.167 -18 -142.5 -54
s-62.5 -79.667 -66.5 -131z" />
    <glyph glyph-name="seven" unicode="7" horiz-adv-x="396" 
d="M67 700l397 -0.000976562l-1 -11l-382 -689h-54l337 605c10.667 18.667 19.667 35.334 27 50.001h-58h-275z" />
    <glyph glyph-name="eight" unicode="8" horiz-adv-x="577" 
d="M507 215c0 -66 -24.5 -120.669 -73.5 -164.002s-111.5 -65 -187.5 -65c-64 0 -113.333 14.833 -148 44.5s-52 71.5 -52 125.5c0 52.667 15.833 98.5 47.5 137.5s74.834 66.167 129.501 81.5c-61.333 20 -92 64.333 -92 133c0 59.333 22 108.5 66 147.5
s99.333 58.5 166 58.5c55.333 0 99.666 -14.167 132.999 -42.5s50 -66.166 50 -113.499c0 -44 -13.833 -83.167 -41.5 -117.5s-63.5 -57.5 -107.5 -69.5c34 -11.333 60.833 -30.666 80.5 -57.999s29.5 -60 29.5 -98zM311 391.998c51.333 0 94.999 15.667 130.999 47
s54 69.666 54 114.999c0 34.667 -12.167 62.5 -36.5 83.5s-57.166 31.5 -98.499 31.5c-52.667 0 -96 -15.167 -130 -45.5s-51 -69.166 -51 -116.499c0 -36 11.5 -64.167 34.5 -84.5s55.167 -30.5 96.5 -30.5zM456.999 213.998c0 40 -13.832 72.168 -41.499 96.501
s-64.834 36.5 -111.501 36.5c-58.667 0 -108 -17.5 -148 -52.5s-60 -78.5 -60 -130.5c0 -43.333 13.167 -76.333 39.5 -99s64.5 -34 114.5 -34c60 0 109.5 17.167 148.5 51.5s58.5 78.166 58.5 131.499z" />
    <glyph glyph-name="nine" unicode="9" horiz-adv-x="545" 
d="M513 522c0 -72.667 -6.16504 -140.667 -18.498 -204s-31 -120.166 -56 -170.499s-58.5 -90 -100.5 -119s-89.667 -43.167 -143 -42.5c-62 0 -113.667 10.667 -155 32l6 49c40 -24 89.333 -36 148 -36c79.333 0 138.333 32.333 177 97s65.667 144 81 238
c-46.667 -76.667 -114.334 -115 -203.001 -115c-50.667 0 -91.334 15.667 -122.001 47s-46 74 -46 128c0 81.333 23.833 149.666 71.5 204.999s109.167 83 184.5 83c57.333 0 101 -16.5 131 -49.5s45 -80.5 45 -142.5zM465.002 525c0 46 -11.333 81.499 -34 106.499
s-55 37.5 -97 37.5c-60 0 -108.667 -23.167 -146 -69.5s-56 -103.166 -56 -170.499c0 -42 11.5 -74.667 34.5 -98s55.5 -35 97.5 -35c58 0 106 21.833 144 65.5s57 98.167 57 163.5z" />
    <glyph glyph-name="colon" unicode=":" horiz-adv-x="229" 
d="M103 413c0 12.667 5.00098 23.667 15.001 33s21.333 14 34 14c9.33301 0 17.166 -3.16699 23.499 -9.5s9.5 -14.166 9.5 -23.499c0 -12.667 -4.83301 -23.834 -14.5 -33.501s-20.5 -14.5 -32.5 -14.5c-10.667 0 -19.167 3.16699 -25.5 9.5s-9.5 14.5 -9.5 24.5z
M35.001 27c0 12.667 5 23.667 15 33s21 14 33 14c10 0 18.167 -3.16699 24.5 -9.5s9.5 -14.166 9.5 -23.499c0 -13.333 -4.66699 -24.5 -14 -33.5s-20.333 -13.5 -33 -13.5c-10.667 0 -19.167 3.16699 -25.5 9.5s-9.5 14.166 -9.5 23.499z" />
    <glyph glyph-name="semicolon" unicode=";" horiz-adv-x="230" 
d="M109 414c0 13.333 4.83301 24.668 14.5 34.001s20.834 14 33.501 14c9.33301 0 17.166 -3 23.499 -9s9.5 -13.667 9.5 -23c0 -12.667 -4.83301 -23.834 -14.5 -33.501s-20.5 -14.5 -32.5 -14.5c-10 0 -18.167 3 -24.5 9s-9.5 13.667 -9.5 23zM-5 -125.998l75 221h50
l-83 -221h-42z" />
    <glyph glyph-name="less" unicode="&#x3c;" horiz-adv-x="471" 
d="M390 171l-350 138l6 34l399 138l-9 -53l-314 -104l278 -103z" />
    <glyph glyph-name="equal" unicode="=" horiz-adv-x="455" 
d="M65 365l8 45h364l-8 -45h-364zM36 200l8 45h364l-8 -45h-364z" />
    <glyph glyph-name="greater" unicode="&#x3e;" horiz-adv-x="471" 
d="M52 172l9 53l315 104l-279 102l10 50l349 -138l-5 -34z" />
    <glyph glyph-name="question" unicode="?" horiz-adv-x="394" 
d="M252 401c42.667 38 73.334 70.667 92.001 98c16.667 24.667 25 51 25 79c0 60.667 -40.667 91 -122 91c-56 0 -107.333 -14.333 -154 -43l9 50c48.667 24.667 100.667 37 156 37c51.333 0 91.833 -11.5 121.5 -34.5s44.5 -54.833 44.5 -95.5
c0 -36 -9.66699 -69.667 -29 -101c-18.667 -29.333 -53 -65 -103 -107c-42 -34 -70.833 -65 -86.5 -93s-27.834 -71.333 -36.501 -130h-45c8 64 20.333 112 37 144s47 67 91 105zM91 34c2.66699 11.333 8.50098 20.832 17.501 28.499s19.167 11.5 30.5 11.5
c10 0 18.167 -3.16699 24.5 -9.5s9.5 -14.166 9.5 -23.499c0 -13.333 -4.83301 -24.5 -14.5 -33.5s-20.834 -13.5 -33.501 -13.5c-11.333 0 -20.333 3.83301 -27 11.5s-9 17.167 -7 28.5z" />
    <glyph glyph-name="at" unicode="@" horiz-adv-x="826" 
d="M793 358c0 -21.333 -2.33398 -45.667 -7.00098 -73c-12.667 -72.667 -38 -132.667 -76 -180c-37.333 -45.333 -81.333 -68 -132 -68c-26.667 0 -47.167 7.33301 -61.5 22s-21.833 35 -22.5 61c-20.667 -26.667 -46 -48 -76 -64s-61 -24 -93 -24
c-34.667 0 -61.5 11.833 -80.5 35.5s-28.5 54.834 -28.5 93.501c0 11.333 1.66699 27.666 5 48.999c13.333 72.667 42.333 133 87 181s96.334 72 155.001 72c55.333 0 89.666 -25.667 102.999 -77l12 40l9 28h44l-87 -278c-5.33301 -18 -8 -33 -8 -45c0 -34 17 -51 51 -51
c32 0 63 19.333 93 58s50.333 88.667 61 150c4 22 6 43 6 63c0 69.333 -21.5 123.833 -64.5 163.5s-104.833 59.5 -185.5 59.5c-103.333 0.666992 -191.166 -33 -263.499 -101s-117.166 -153.667 -134.499 -257c-4.66699 -28 -7 -52.667 -7 -74
c0 -72 20.667 -127.833 62 -167.5s99 -59.5 173 -59.5c82 0 162.667 15 242 45l-8 -45c-73.333 -29.333 -154 -44 -242 -44c-86.667 0 -153.834 23.667 -201.501 71s-71.5 112.333 -71.5 195c0 29.333 2.33301 56 7 80c21.333 122 72.333 219.167 153 291.5
s180 108.5 298 108.5c90.667 0 161.5 -23 212.5 -69s76.5 -109.333 76.5 -190zM532.999 289.999c2 13.333 2.99902 26 2.99902 38c0 29.333 -6.83301 52.333 -20.5 69s-33.5 25 -59.5 25c-45.333 0 -85.666 -20.667 -120.999 -62c-34 -40 -56.667 -91 -68 -153
c-2.66699 -16.667 -4 -30 -4 -40c0 -28.667 6.5 -51.167 19.5 -67.5s32.167 -24.5 57.5 -24.5c46 0 86.833 20.667 122.5 62s59.167 92.333 70.5 153z" />
    <glyph glyph-name="A" unicode="A" horiz-adv-x="604" 
d="M503 0l-42 188h-338l-109 -188h-52l412 706h13l166 -706h-50zM366 608l-12 -21c-26.667 -47.333 -42 -74.333 -46 -81l-160 -275h304l-65 276c-4 16 -10.667 49.667 -20 101h-1z" />
    <glyph glyph-name="B" unicode="B" horiz-adv-x="553" 
d="M497 236c0 -74.667 -21.834 -132.667 -65.501 -174s-106.167 -62 -187.5 -62h-187l123 700h164c57.333 0 101.333 -11.667 132 -35s46 -56.666 46 -99.999c0 -48.667 -12.167 -89.834 -36.5 -123.501s-58.166 -57.5 -101.499 -71.5c36 -6.66699 63.833 -21.667 83.5 -45
s29.5 -53 29.5 -89zM222.999 657l-47 -267h114c56.667 0 101 15 133 45s48 70.333 48 121c0 35.333 -10.333 61 -31 77s-52.667 24 -96 24h-121zM445.999 232c0 77.333 -51.667 116.001 -155 116.001h-122l-54 -305h126c67.333 0 118.333 16.167 153 48.5
s52 79.166 52 140.499z" />
    <glyph glyph-name="C" unicode="C" horiz-adv-x="513" 
d="M68 266c-2 128 31.667 234.331 101 318.998s155 126.334 257 125.001c42.667 0 80.667 -7 114 -21l-8 -45c-30 14.667 -65.667 22 -107 22c-87.333 1.33301 -160.333 -37.167 -219 -115.5s-87.334 -174.5 -86.001 -288.5c0 -77.333 15.833 -134.666 47.5 -171.999
s79.834 -56 144.501 -56c43.333 0 86.333 9.66699 129 29l-9 -49c-36.667 -16 -78 -24 -124 -24c-160 0 -240 92 -240 276z" />
    <glyph glyph-name="D" unicode="D" horiz-adv-x="624" 
d="M57 0l123.002 700h152c89.333 0 154.833 -21.833 196.5 -65.5s62.5 -110.167 62.5 -199.5c1.33301 -126 -32.834 -230.5 -102.501 -313.5s-160.834 -123.5 -273.501 -121.5h-158zM114.002 43h101.999c99.333 -1.33301 178.333 35.834 237 111.501
s87.334 170.167 86.001 283.5c0 75.333 -16 130.666 -48 165.999s-84.333 53 -157 53h-111z" />
    <glyph glyph-name="E" unicode="E" horiz-adv-x="508" 
d="M521 656h-298l-47 -265h277l-8 -45h-277l-53 -302h309l-8 -44h-359l123 700h349z" />
    <glyph glyph-name="F" unicode="F" horiz-adv-x="476" 
d="M508 656h-285l-50 -284h263l-8 -44h-263l-58 -328h-50l123 700h336z" />
    <glyph glyph-name="G" unicode="G" horiz-adv-x="561" 
d="M67 262c-1.33301 128.667 32.1689 235.999 100.502 321.999s153.833 128 256.5 126c50.667 0 94 -9 130 -27l-8 -44c-33.333 18 -74 27 -122 27c-87.333 2 -160.333 -36.167 -219 -114.5s-87.334 -175.833 -86.001 -292.5c0 -150 63 -225 189 -225
c36.667 0 69 5.66699 97 17l50 276h49l-54 -307c-47.333 -20.667 -96 -31 -146 -31c-76.667 0 -135.334 23.333 -176.001 70s-61 114.334 -61 203.001z" />
    <glyph glyph-name="H" unicode="H" horiz-adv-x="649" 
d="M576 700h50l-123 -700h-50l61 346h-346l-61 -346h-50l123 700h50l-55 -311h346z" />
    <glyph glyph-name="I" unicode="I" horiz-adv-x="253" 
d="M57 0l123 700h51l-123 -700h-51z" />
    <glyph glyph-name="J" unicode="J" horiz-adv-x="471" 
d="M-19 29l8.99902 45c37.333 -26.667 84.333 -40 141 -40c101.333 0 163 60 185 180l86 486h50l-88 -498c-12 -69.333 -37.833 -122 -77.5 -158s-91.167 -54 -154.5 -54c-61.333 0 -111.666 13 -150.999 39z" />
    <glyph glyph-name="K" unicode="K" horiz-adv-x="583" 
d="M180 700h50l-124 -700h-50zM633 700l-355 -336l252 -364h-58l-250 362l3 14l343 324h65z" />
    <glyph glyph-name="L" unicode="L" horiz-adv-x="478" 
d="M57 0l123 700h50l-116 -657h307l-9 -43h-355z" />
    <glyph glyph-name="M" unicode="M" horiz-adv-x="825" 
d="M716 706l14 -0.000976562l-8 -708h-50l8 472c0 36.667 1.33301 73.334 4 110.001c-27.333 -46 -46.333 -77.333 -57 -94l-234 -377h-13l-94 369l-27 102l-36 -115l-162 -467h-51l245 708h13l104 -398l28 -109l69 111z" />
    <glyph glyph-name="N" unicode="N" horiz-adv-x="669" 
d="M511 -3l-259.001 498l-43 82h-1l-16 -92l-86 -485h-49l124 704h11l262 -502l27 -54l14 -28h1c6.66699 44 12.334 77.333 17.001 100l86 480h49l-126 -703h-11z" />
    <glyph glyph-name="O" unicode="O" horiz-adv-x="664" 
d="M66 247c-0.666992 84.667 13.165 162.835 41.498 234.502s69 128.667 122 171s112.5 62.833 178.5 61.5c72.667 0 128.167 -23 166.5 -69s57.5 -110 57.5 -192c0.666992 -84.667 -13.166 -162.834 -41.499 -234.501s-69.166 -128.667 -122.499 -171
s-113 -62.833 -179 -61.5c-71.333 0 -126.333 23.167 -165 69.5s-58 110.166 -58 191.499zM580.999 449.001c0 70.667 -15.167 124.998 -45.5 162.998s-73.5 57 -129.5 57c-55.333 1.33301 -105.5 -17.5 -150.5 -56.5s-79.5 -90.667 -103.5 -155
s-35.667 -133.166 -35 -206.499c0 -70.667 15.167 -125 45.5 -163s73.833 -57 130.5 -57c54.667 -1.33301 104.334 17.334 149.001 56.001s79.167 90.167 103.5 154.5s36.166 133.5 35.499 207.5z" />
    <glyph glyph-name="P" unicode="P" horiz-adv-x="539" 
d="M548 550c0 -84 -25.833 -150.833 -77.5 -200.5s-121.5 -74.5 -209.5 -74.5h-106l-48 -275h-50l123 700h149c146 0 219 -50 219 -150zM497 545c0 39.333 -13.168 67.833 -39.501 85.5s-69.166 26.5 -128.499 26.5h-107l-59 -339h102c71.333 0 127.833 20.333 169.5 61
s62.5 96 62.5 166z" />
    <glyph glyph-name="Q" unicode="Q" horiz-adv-x="664" 
d="M540 -124l-38.001 -30.999c-30 42.667 -63.833 76.5 -101.5 101.5s-74.5 37.833 -110.5 38.5c-72.667 2.66699 -128.167 26.5 -166.5 71.5s-57.5 108.5 -57.5 190.5c-1.33301 133.333 30.834 245 96.501 335s147.167 134 244.5 132
c71.333 0 126.666 -22.833 165.999 -68.5s59 -109.834 59 -192.501c0 -110.667 -22.5 -207.167 -67.5 -289.5s-104.833 -135.833 -179.5 -160.5c27.333 -7.33301 55.333 -22.833 84 -46.5s52.334 -50.5 71.001 -80.5zM291.999 31.001c81.333 -2 150.167 37.833 206.5 119.5
s83.833 181.167 82.5 298.5c0 70 -15.333 124.167 -46 162.5s-74 57.5 -130 57.5c-52.667 1.33301 -101.334 -16.667 -146.001 -54s-79.667 -88.333 -105 -153s-37.666 -135 -36.999 -211c0 -70.667 15.167 -125 45.5 -163s73.5 -57 129.5 -57z" />
    <glyph glyph-name="R" unicode="R" horiz-adv-x="566" 
d="M312 323l-26 -0.000976562l202 -323h-56l-216 346l2 15h58c73.333 0 130 16 170 48s60 77.667 60 137c0 74 -48 111 -144 111h-140l-116 -657h-50l124 700h185c62 0 109.5 -12.667 142.5 -38s49.5 -61.666 49.5 -108.999c0 -70.667 -21.833 -126.667 -65.5 -168
s-103.5 -62 -179.5 -62z" />
    <glyph glyph-name="S" unicode="S" horiz-adv-x="500" 
d="M7 25l8.00098 45.9971c34.667 -14 63.667 -23.667 87 -29s51.666 -8 84.999 -8c62 0 111.667 15.333 149 46s56 72 56 124c0 32 -10.667 57.667 -32 77c-22 19.333 -56.667 40.333 -104 63c-52 23.333 -89.667 47.833 -113 73.5s-35 57.834 -35 96.501
c0 58.667 20.333 106 61 142s93 54 157 54c70.667 0 128 -10.333 172 -31l-8 -45c-54 21.333 -110 32 -168 32c-48 0 -87.167 -13.5 -117.5 -40.5s-45.5 -62.5 -45.5 -106.5c0 -30 10 -54.667 30 -74c18 -17.333 51.667 -38 101 -62
c56 -27.333 95.833 -53.666 119.5 -78.999s35.5 -57.666 35.5 -96.999c0 -66 -24.167 -118.833 -72.5 -158.5s-111.5 -59.5 -189.5 -59.5c-66 0 -124.667 12 -176 36z" />
    <glyph glyph-name="T" unicode="T" horiz-adv-x="496" 
d="M556 700l-8 -43h-203l-117 -657h-50l117 657h-205l7 43h459z" />
    <glyph glyph-name="U" unicode="U" horiz-adv-x="667" 
d="M92 179c0 20 2.66602 47 7.99902 81l78 440h50l-77 -435c-5.33301 -33.333 -8 -60 -8 -80c0 -51.333 12.5 -89.5 37.5 -114.5s63.5 -37.5 115.5 -37.5c63.333 0 113.333 19 150 57s61.667 96.333 75 175l77 435h50l-77 -439c-16 -92 -47.167 -160.5 -93.5 -205.5
s-109.166 -67.5 -188.499 -67.5c-131.333 0 -197 63.667 -197 191z" />
    <glyph glyph-name="V" unicode="V" horiz-adv-x="600" 
d="M245 -5l-158 705h51l103 -466l28 -139h1l78 143l266 462h54l-407 -705h-16z" />
    <glyph glyph-name="W" unicode="W" horiz-adv-x="895" 
d="M597 -7l-72 456.999l-17 109h-1c-8.66699 -17.333 -27 -51.333 -55 -102l-249 -464h-18l-93 707h50l60 -458c6 -48 11 -93.333 15 -136h1c16 32.667 35.667 70.334 59 113.001l238 445h19l65 -414c2 -12 6.33301 -39.667 13 -83l9 -61l69 145l216 449h54l-344 -707h-19z
" />
    <glyph glyph-name="X" unicode="X" horiz-adv-x="563" 
d="M588 700l-264 -324.999l185 -375h-56l-122 249c-10 19.333 -18.333 36.666 -25 51.999l-14 31l-52 -66l-18 -22l-194 -244h-62l301 375l-159 325h57l99 -205l37 -76l63 80l162 201h62z" />
    <glyph glyph-name="Y" unicode="Y" horiz-adv-x="554" 
d="M216 0l55 309l-183 391h56l99 -218c6 -14 25.333 -55.333 58 -124h2l100 132l160 210h60l-303 -394l-54 -306h-50z" />
    <glyph glyph-name="Z" unicode="Z" horiz-adv-x="554" 
d="M-9 0l2 16l427 541l78 100v1h-109h-255l7 42h439l-2 -16l-436 -554c-4 -2.66699 -27 -31.667 -69 -87l1 -1c12.667 0.666992 48 1 106 1h303l-8 -43h-484z" />
    <glyph glyph-name="bracketleft" unicode="[" horiz-adv-x="268" 
d="M27 -189l168 956h143l-7 -43h-96l-154 -870h96l-7 -43h-143z" />
    <glyph glyph-name="backslash" unicode="\" horiz-adv-x="433" 
d="M330 -57l-245 807h50l246 -807h-51z" />
    <glyph glyph-name="bracketright" unicode="]" horiz-adv-x="269" 
d="M254 767l-168 -956h-143l7 43h96l154 870h-96l7 43h143z" />
    <glyph glyph-name="asciicircum" unicode="^" horiz-adv-x="417" 
d="M43 406l237 294h15l133 -294h-51l-100 223l-176 -223h-58z" />
    <glyph glyph-name="underscore" unicode="_" horiz-adv-x="448" 
d="M-22 -73l6 39h378l-7 -39h-377z" />
    <glyph glyph-name="grave" unicode="`" horiz-adv-x="361" 
d="M188 763l-61 132h57l43 -132h-39z" />
    <glyph glyph-name="a" unicode="a" horiz-adv-x="531" 
d="M44 158c-1.33301 100 26.168 185.667 82.501 257s124.166 106.333 203.499 105c42.667 0 91.667 -8 147 -24l-88 -496h-42l16 114h-1c-53.333 -82 -121 -123 -203 -123c-76.667 0 -115 55.667 -115 167zM384.001 245l39 220.001c-34 8.66699 -65.333 13 -94 13
c-66 0 -121.667 -30.833 -167 -92.5s-68 -137.167 -68 -226.5c0 -43.333 6.5 -75.333 19.5 -96s33.5 -31 61.5 -31c44 0 87.333 21.667 130 65s69 92.666 79 147.999z" />
    <glyph glyph-name="b" unicode="b" horiz-adv-x="529" 
d="M486 352c1.33301 -100.667 -25.333 -186.833 -80 -258.5s-120.667 -106.5 -198 -104.5c-54 0 -104.667 11.333 -152 34l126 713h48l-58 -327l-3 -19c56 84.667 121.333 127 196 127c38.667 0 68.5 -14 89.5 -42s31.5 -69 31.5 -123zM436.001 351.001
c0 83.333 -27.998 125 -83.998 125c-42.667 1.33301 -85.834 -21.167 -129.501 -67.5s-69.167 -95.5 -76.5 -147.5l-37 -210c28 -13.333 61.667 -20 101 -20c61.333 -2 114.666 29 159.999 93s67.333 139.667 66 227z" />
    <glyph glyph-name="c" unicode="c" horiz-adv-x="432" 
d="M46 180c-0.666992 59.333 9.83301 114.833 31.5 166.5s53.5 93.5 95.5 125.5s89 47.333 141 46c41.333 0 75.666 -7.66699 102.999 -23l-7 -43c-21.333 16 -52 24 -92 24c-66 1.33301 -119.667 -27.5 -161 -86.5s-61.666 -128.167 -60.999 -207.5
c0 -47.333 11.333 -84.333 34 -111s56.334 -40 101.001 -40c48 0 91.333 10.333 130 31l-8 -47c-36 -16.667 -78.333 -25 -127 -25c-58.667 0 -103.334 16.667 -134.001 50s-46 80 -46 140z" />
    <glyph glyph-name="d" unicode="d" horiz-adv-x="529" 
d="M469 736l48.001 0.000976562l-130 -736h-41l17 117h-2c-25.333 -38.667 -55.333 -69.334 -90 -92.001s-71.667 -34 -111 -34c-78 0 -117 54.667 -117 164c-1.33301 101.333 26.167 188 82.5 260s124.166 107 203.499 105c34.667 0 68 -4 100 -12zM382.001 242.001
l39 223.001c-34 8.66699 -64.667 13 -92 13c-66.667 0 -122.667 -31 -168 -93s-68 -138.333 -68 -229c0 -42.667 6.5 -74 19.5 -94s33.5 -30 61.5 -30c44.667 -2 88.5 19.667 131.5 65s68.5 93.666 76.5 144.999z" />
    <glyph glyph-name="e" unicode="e" horiz-adv-x="467" 
d="M95 188c-1.33301 -50 9.66699 -88.833 33 -116.5s58.333 -41.5 105 -41.5c45.333 0 87.666 10.333 126.999 31l-7 -47c-33.333 -17.333 -76.666 -26 -129.999 -26c-56.667 0 -100.334 17 -131.001 51s-46 81.667 -46 143c-1.33301 91.333 23.5 171 74.5 239
s115.167 101 192.5 99c40.667 0 72.334 -10.333 95.001 -31s34 -50.667 34 -90c0 -70 -29.833 -123.333 -89.5 -160s-145.5 -53.667 -257.5 -51zM98 226c94.667 -0.666992 167.332 13.667 217.999 43s76 71.666 76 126.999c0 27.333 -7.16699 47.833 -21.5 61.5
s-34.166 20.5 -59.499 20.5c-55.333 0 -103.333 -24.667 -144 -74s-63.667 -108.666 -69 -177.999z" />
    <glyph glyph-name="f" unicode="f" horiz-adv-x="308" 
d="M223 612l-19.002 -106.001h133l-7 -40h-133l-96 -546c-17.333 -93.333 -63.666 -140 -138.999 -140c-20.667 0 -41 3.66699 -61 11l7 39c16 -6 33.667 -9 53 -9c49.333 0 80.333 35 93 105l95 540h-88l6 40h89l20 112c7.33301 42 22.833 74 46.5 96s52.834 33 87.501 33
c23.333 0 49 -4.66699 77 -14l-8 -42c-22 9.33301 -44.333 14 -67 14s-42 -8.16699 -58 -24.5s-26.333 -39.166 -31 -68.499z" />
    <glyph glyph-name="g" unicode="g" horiz-adv-x="530" 
d="M476 496l-90.999 -513.001c-12 -68 -38.333 -119.833 -79 -155.5s-94 -53.5 -160 -53.5c-47.333 0 -86.333 7.66699 -117 23l8 42c29.333 -15.333 66.666 -23 111.999 -23c51.333 0 93 14.333 125 43s53 70.334 63 125.001l27 144h-1
c-24.667 -40 -54.5 -71.667 -89.5 -95s-72.833 -35 -113.5 -35c-76.667 0 -115 56.333 -115 169c-1.33301 98.667 26 182.5 82 251.5s123.333 102.833 202 101.5c43.333 0 92.333 -8 147 -24zM386.001 258.999l36 206c-34 8.66699 -65 13 -93 13
c-66 0 -121.5 -29.333 -166.5 -88s-67.5 -132.667 -67.5 -222c0 -86 27 -129 81 -129c46 0 90 22.5 132 67.5s68 95.833 78 152.5z" />
    <glyph glyph-name="h" unicode="h" horiz-adv-x="543" 
d="M52 0l130.001 736h48l-49 -278c-4 -24.667 -8.33301 -46.667 -13 -66h1c22 38.667 51 69.334 87 92.001c36 24 71 36 105 36c76 0 114 -40 114 -120c0 -18 -2 -38 -6 -60l-61 -340h-48l58 330c4.66699 22.667 7 45 7 67c0 29.333 -6 50.166 -18 62.499
s-31.333 18.5 -58 18.5c-41.333 1.33301 -83.333 -21 -126 -67s-68.334 -97.333 -77.001 -154l-46 -257h-48z" />
    <glyph glyph-name="i" unicode="i" horiz-adv-x="246" 
d="M150 625c0 14 4.33301 25.168 13 33.501s20 12.5 34 12.5c9.33301 0 17 -2.83301 23 -8.5s9 -12.834 9 -21.501c0 -14 -4.16699 -25.333 -12.5 -34s-19.5 -13 -33.5 -13c-10 0 -18 2.83301 -24 8.5s-9 13.167 -9 22.5zM54 0.000976562l89 506h48l-89 -506h-48z" />
    <glyph glyph-name="j" unicode="j" horiz-adv-x="250" 
d="M154 625l1.00098 8.00098c1.33301 11.333 6.16602 20.5 14.499 27.5s18.833 10.5 31.5 10.5c9.33301 0 17 -2.83301 23 -8.5s9 -12.834 9 -21.501c0 -14 -4.16699 -25.333 -12.5 -34s-19.5 -13 -33.5 -13c-10 0 -18 2.83301 -24 8.5s-9 13.167 -9 22.5z
M-107.999 -208.999l7.99805 39c14.667 -6 32.334 -9 53.001 -9c49.333 0 80 35 92 105l102 580h49l-104 -586c-17.333 -93.333 -63.666 -140 -138.999 -140c-20.667 0 -41 3.66699 -61 11z" />
    <glyph glyph-name="k" unicode="k" horiz-adv-x="472" 
d="M182 736h48l-130 -736h-48zM488 506l-262 -243l187 -263h-55l-186 262l2 11l250 233h64z" />
    <glyph glyph-name="l" unicode="l" horiz-adv-x="279" 
d="M68 92c0 10 1.33301 23.333 4 40l107 604h48l-106 -603c-2.66699 -16.667 -4 -29 -4 -37c0 -42.667 19 -64 57 -64c18 0 36 3.66699 54 11l-7 -41c-22 -8 -42.667 -12 -62 -12c-28 0 -50.167 9 -66.5 27s-24.5 43 -24.5 75z" />
    <glyph glyph-name="m" unicode="m" horiz-adv-x="827" 
d="M758 398c0 -17.333 -2 -36.6689 -6 -58.002l-60 -340h-48l58 330c4 24.667 6 46 6 64c0 56 -21.333 84 -64 84c-42 1.33301 -84 -21 -126 -67s-67 -96.333 -75 -151l-46 -260h-48l58 330c4 24 6 45 6 63c0 56.667 -22 85 -66 85c-42 0 -83.5 -22.667 -124.5 -68
s-66.167 -95.666 -75.5 -150.999l-46 -259h-48l89 506h41l-16 -115c24 38.667 53.5 69.834 88.5 93.501s69.5 35.5 103.5 35.5c32 0 56.833 -10.167 74.5 -30.5s26.5 -49.5 26.5 -87.5l-1 -18c24 40.667 53.667 73.5 89 98.5s71 37.5 107 37.5
c33.333 0 58.833 -10.5 76.5 -31.5s26.5 -51.167 26.5 -90.5z" />
    <glyph glyph-name="n" unicode="n" horiz-adv-x="550" 
d="M480 395c0 -18 -2 -37.333 -6 -58l-59 -337h-48l57 327c4 24 6 45.333 6 64c0 29.333 -6.33301 50.666 -19 63.999s-33 20 -61 20c-42 1.33301 -84.167 -21.167 -126.5 -67.5s-68.166 -97.166 -77.499 -152.499l-45 -255h-48l89 506h42l-17 -121
c22 36.667 50.667 67.667 86 93c35.333 26 71.666 39 108.999 39c78.667 0 118 -40.667 118 -122z" />
    <glyph glyph-name="o" unicode="o" horiz-adv-x="517" 
d="M46 180c0 98.667 24.668 180 74.001 244s111.666 96 186.999 96c52 0 92 -17.167 120 -51.5s42 -82.5 42 -144.5c0 -98 -24.667 -178.833 -74 -242.5s-112 -95.5 -188 -95.5c-51.333 0 -91 16.833 -119 50.5s-42 81.5 -42 143.5zM419.001 324
c0 102.667 -38 153.999 -114 153.999c-58.667 1.33301 -108.5 -27 -149.5 -85s-60.833 -128.667 -59.5 -212c0 -49.333 9.83301 -87.166 29.5 -113.499s48.167 -39.5 85.5 -39.5c59.333 0 108.833 28.167 148.5 84.5s59.5 126.833 59.5 211.5z" />
    <glyph glyph-name="p" unicode="p" horiz-adv-x="527" 
d="M485 355c1.33301 -100.667 -24.8301 -187.167 -78.4971 -259.5s-117.834 -107.5 -192.501 -105.5c-42.667 0 -80 6.66699 -112 20l-39 -222h-48l126 718h42l-15 -115c25.333 40 55.166 71 89.499 93s70.166 33 107.499 33c80 0 120 -54 120 -162zM435.004 350
c0 84 -27.667 126 -83 126c-42 1.33301 -84.667 -20.5 -128 -65.5s-69 -94.167 -77 -147.5l-37 -212c28.667 -12.667 61.667 -19 99 -19c62 0 115.167 31 159.5 93s66.5 137 66.5 225z" />
    <glyph glyph-name="q" unicode="q" horiz-adv-x="530" 
d="M476 496l-124.999 -708h-48l57 326c-56.667 -85.333 -123.667 -128 -201 -128s-116 55.667 -116 167c-1.33301 102 26.167 189 82.5 261s124.166 107.333 203.499 106c43.333 0 92.333 -8 147 -24zM383.001 243l39 222c-35.333 8.66699 -66.333 13 -93 13
c-67.333 0 -123.5 -31 -168.5 -93s-67.5 -139 -67.5 -231c0 -44 6.66699 -76.167 20 -96.5s34 -30.5 62 -30.5c44 -1.33301 87.667 21 131 67s69 95.667 77 149z" />
    <glyph glyph-name="r" unicode="r" horiz-adv-x="364" 
d="M395 509l-7.99902 -41.999c-12 3.33301 -24.333 5 -37 5c-43.333 1.33301 -86 -20.834 -128 -66.501s-67 -95.5 -75 -149.5l-46 -256h-47l88 506h42l-17 -117c56 83.333 119.667 125 191 125c11.333 0 23.666 -1.66699 36.999 -5z" />
    <glyph glyph-name="s" unicode="s" horiz-adv-x="405" 
d="M7 18l7.99707 42.0029c48 -19.333 94 -29 138 -29c44.667 0 79.834 9 105.501 27s38.5 42.667 38.5 74c0 25.333 -8.33301 46.666 -25 63.999s-43 34.333 -79 51c-42.667 20 -73.667 40.667 -93 62s-29 47.666 -29 78.999c0 40 15.167 71.167 45.5 93.5
s71.833 33.5 124.5 33.5c48 0 91 -7.66699 129 -23l-7 -42c-36 15.333 -74.667 23 -116 23c-39.333 0 -70 -7.5 -92 -22.5s-33 -35.833 -33 -62.5c0 -22 7.33301 -40.5 22 -55.5s40.334 -30.833 77.001 -47.5c44.667 -20.667 76.834 -42.834 96.501 -66.501
s29.5 -52.5 29.5 -86.5c0 -44 -17.5 -78.667 -52.5 -104s-82.833 -38 -143.5 -38c-56.667 0 -104.667 9.33301 -144 28z" />
    <glyph glyph-name="t" unicode="t" horiz-adv-x="328" 
d="M199 466l-56 -316c-2.66699 -11.333 -4 -25.333 -4 -42c0 -50 20.667 -75 62 -75c24.667 0 47 4.33301 67 13l-7 -44c-20.667 -6.66699 -43.667 -10 -69 -10c-68.667 0 -103 35.667 -103 107c0 10.667 1.66699 27 5 49l57 318h-101l7 40h101l24 136l49 8l-25 -144h135
l-7 -40h-135z" />
    <glyph glyph-name="u" unicode="u" horiz-adv-x="547" 
d="M69 108c0 17.333 2.00098 36.333 6.00098 57l60 341h48l-58 -331c-4 -24 -6 -44.667 -6 -62c0 -57.333 24.333 -86 73 -86c44.667 -1.33301 88.5 21.5 131.5 68.5s68.833 98.5 77.5 154.5l45 256h48l-89 -506h-42l17 116c-25.333 -39.333 -55.333 -70.833 -90 -94.5
s-71.334 -35.5 -110.001 -35.5c-74 0 -111 40.667 -111 122z" />
    <glyph glyph-name="v" unicode="v" horiz-adv-x="458" 
d="M433 506h54l-294 -513h-20l-115 513h51l57 -270c9.33301 -46 19 -99 29 -159l87 160z" />
    <glyph glyph-name="w" unicode="w" horiz-adv-x="706" 
d="M685 506h49.999l-261 -514h-19l-56 295l-21 107l-58 -111l-159 -291h-18l-83 514h49l44 -294c4 -24 9.33301 -66 16 -126l13 25l43 80l159 294h16l56 -293c6 -27.333 13.333 -63 22 -107c18.667 42.667 40.334 88.667 65.001 138z" />
    <glyph glyph-name="x" unicode="x" horiz-adv-x="442" 
d="M449 506l-198 -237l132 -269h-53l-89 187l-23 48l-33 -42l-162 -193h-59l230 273l-115 233h52l71 -145c9.33301 -18 17.333 -36 24 -54l24 30l16 20l124 149h59z" />
    <glyph glyph-name="y" unicode="y" horiz-adv-x="465" 
d="M445 506l51.998 0.00195312l-281 -510c-31.333 -57.333 -57.666 -101 -78.999 -131c-40.667 -58 -98.667 -88.333 -174 -91l7 41c32.667 0 59.667 7.33301 81 22c22.667 15.333 41.667 34.666 57 57.999c17.333 25.333 39.333 62.666 66 111.999l-116 499h49l73 -319
l27 -122c20.667 41.333 43.334 84 68.001 128z" />
    <glyph glyph-name="z" unicode="z" horiz-adv-x="440" 
d="M432 491l-298 -367.001c-26.667 -34 -49.667 -61.667 -69 -83l81 1h221l-7 -42h-370l2 17l298 364c19.333 24.667 42.333 52.334 69 83.001h-89h-175l7 42h332z" />
    <glyph glyph-name="braceleft" unicode="{" horiz-adv-x="304" 
d="M83 -93c0 10.667 1.66602 27.6641 4.99902 50.9971l37 209c2 10.667 3 20.334 3 29.001c0 44.667 -23 67 -69 67l7 43c56 0 89.667 32 101 96l38 217c9.33301 53.333 25.833 89.833 49.5 109.5s63.167 29.167 118.5 28.5l-8 -43c-36.667 0 -63.167 -7.16699 -79.5 -21.5
s-27.833 -40.166 -34.5 -77.499l-39 -222c-8.66699 -56.667 -35 -93 -79 -109c29.333 -13.333 44 -39.666 44 -78.999c0 -9.33301 -1 -19 -3 -29l-39 -223c-2.66699 -11.333 -4 -24.333 -4 -39c0 -22 6.33301 -37.5 19 -46.5s33.667 -13.5 63 -13.5l-7 -43
c-43.333 0 -74.666 7.5 -93.999 22.5s-29 39.5 -29 73.5z" />
    <glyph glyph-name="bar" unicode="|" horiz-adv-x="247" 
d="M23 -192l172 977h45l-173 -977h-44z" />
    <glyph glyph-name="braceright" unicode="}" horiz-adv-x="303" 
d="M232 660c0 -10 -1.66699 -26.667 -5 -50l-38 -209c-2 -10 -3 -19.333 -3 -28c0 -45.333 23.333 -68 70 -68l-8 -43c-56 0 -89.333 -32 -100 -96l-38 -218c-10 -54 -26.833 -90.5 -50.5 -109.5s-63.167 -28.167 -118.5 -27.5l8 43c36.667 0 63.167 7.16699 79.5 21.5
s27.833 40.166 34.5 77.499l39 222c10 56 36.667 92 80 108c-29.333 14 -44 40.667 -44 80c0 10 0.666992 19.667 2 29l40 223c2.66699 16.667 4 29.334 4 38.001c0 22.667 -6.33301 38.5 -19 47.5s-34 13.5 -64 13.5l7 43c43.333 0 74.833 -7.66699 94.5 -23
s29.5 -40 29.5 -74z" />
    <glyph glyph-name="asciitilde" unicode="~" horiz-adv-x="419" 
d="M219 295c-40 14 -69.6689 21 -89.002 21c-17.333 0 -30.666 -2.83301 -39.999 -8.5s-17 -15.5 -23 -29.5l-37 9c5.33301 23.333 16.333 41.5 33 54.5s37.334 19.5 62.001 19.5c25.333 0 57 -7.33301 95 -22c40.667 -15.333 71 -22.333 91 -21c28.667 0 50 12.667 64 38
l36 -9c-5.33301 -23.333 -16.333 -41.5 -33 -54.5s-37.334 -19.5 -62.001 -19.5c-21.333 0 -53.666 7.33301 -96.999 22z" />
    <glyph glyph-name="uni00A0" unicode="&#xa0;" horiz-adv-x="215" 
 />
    <glyph glyph-name="exclamdown" unicode="&#xa1;" horiz-adv-x="241" 
d="M199 479c0 -12.667 -4.66797 -23.667 -14.001 -33s-20.666 -14 -33.999 -14c-9.33301 0 -17 2.83301 -23 8.5s-9 13.167 -9 22.5c0 12.667 4.66699 23.667 14 33s20 14 32 14c10 0 18.167 -2.83301 24.5 -8.5s9.5 -13.167 9.5 -22.5zM160.999 352l-25 -155l-67 -393h-52
l71 394l31 154h42z" />
    <glyph glyph-name="cent" unicode="&#xa2;" horiz-adv-x="433" 
d="M318 478h-1l-81 -451c46 0.666992 87.667 11 125 31l-8 -47c-35.333 -16.667 -76.666 -25 -123.999 -25l-14 -80h-36l14 82c-48 6.66699 -84.5 26.5 -109.5 59.5s-37.5 77.167 -37.5 132.5c0 88 22 164.5 66 229.5s102.333 101.5 175 109.5l14 80h37l-14 -79
c38 -1.33301 69 -9.33301 93 -24l-7 -43c-22.667 16.667 -53.334 25 -92.001 25zM201 29l78 445c-56 -11.333 -100.667 -44.833 -134 -100.5s-50 -119.5 -50 -191.5c0 -90 35.333 -141 106 -153z" />
    <glyph glyph-name="sterling" unicode="&#xa3;" horiz-adv-x="495" 
d="M216 417c0 -6 0.666992 -25.667 2 -59h197l-7 -38h-188v-24c0 -110 -34.333 -194.333 -103 -253l319 1l-8 -44h-402l2 18c98 70 147 163.667 147 281v21h-92l6 38h84c-2 20 -3 40.667 -3 62c0 89.333 19 157.333 57 204s93 70 165 70c54 0 98.333 -9.33301 133 -28
l-9 -46c-30.667 18.667 -71 28 -121 28c-59.333 0 -104 -20 -134 -60s-45 -97 -45 -171z" />
    <glyph glyph-name="currency" unicode="&#xa4;" horiz-adv-x="506" 
d="M393 226l63.002 -77.001l-33 -30l-62 77c-36.667 -26.667 -77.334 -40 -122.001 -40s-81.667 13.667 -111 41l-90 -78l-25 30l93 80c-12 22 -18 48.333 -18 79c0 54.667 17.667 103.334 53 146.001l-61 76l33 30l62 -76c35.333 26 75.666 39 120.999 39
c46.667 0 83.667 -14 111 -42l91 79l25 -30l-94 -82c11.333 -24 17 -50 17 -78c0 -56.667 -17.667 -104.667 -53 -144zM241.002 195.999c46.667 0 85.5 16.332 116.5 48.999s46.5 73 46.5 121c0 36.667 -9.83301 65.334 -29.5 86.001s-47.167 31 -82.5 31
c-46.667 0 -85.334 -16.667 -116.001 -50s-46 -74 -46 -122c0 -35.333 9.83301 -63.333 29.5 -84s46.834 -31 81.501 -31z" />
    <glyph glyph-name="yen" unicode="&#xa5;" horiz-adv-x="500" 
d="M581 700l-265 -342h128l-7 -37h-151l-14 -81h151l-6 -38h-151l-36 -202h-49l36 202h-152l7 38h151l14 81h-151l7 37h130l-146 342h55l137 -332l254 332h58z" />
    <glyph glyph-name="brokenbar" unicode="&#xa6;" horiz-adv-x="246" 
d="M121 365l74 420h44l-74 -420h-44zM23 -191l76 432h44l-76 -432h-44z" />
    <glyph glyph-name="section" unicode="&#xa7;" horiz-adv-x="430" 
d="M9 21l11.999 42c42 -24 85.667 -36 131 -36c46 0 83.167 11.167 111.5 33.5s42.5 51.5 42.5 87.5c0 23.333 -7.5 42 -22.5 56s-39.833 26.333 -74.5 37c-46 15.333 -79.667 32.666 -101 51.999s-32 45 -32 77c0 50 22.667 89.667 68 119c-21.333 23.333 -32 50 -32 80
c0 46 15.833 81.667 47.5 107s75.834 38 132.501 38c47.333 0 86.333 -8.33301 117 -25l-8 -44c-28.667 18 -65.667 27 -111 27c-40.667 0 -72.167 -8.5 -94.5 -25.5s-33.5 -41.5 -33.5 -73.5c0 -25.333 8 -44.833 24 -58.5s44 -27.167 84 -40.5
s70.167 -29.166 90.5 -47.499s30.5 -43.5 30.5 -75.5c0 -49.333 -20.667 -90.333 -62 -123c18.667 -18.667 28 -43 28 -73c0 -49.333 -19.5 -89.833 -58.5 -121.5s-88.833 -47.5 -149.5 -47.5c-54 0 -100.667 11.667 -140 35zM340.999 345c0 22 -8 40.167 -24 54.5
s-41.333 26.833 -76 37.5c-24 8 -45.333 16.667 -64 26c-34 -19.333 -51 -48.666 -51 -87.999c0 -24 7.33301 -42.333 22 -55s40 -25.334 76 -38.001c32 -10.667 55.333 -20.667 70 -30c31.333 22.667 47 53.667 47 93z" />
    <glyph glyph-name="dieresis" unicode="&#xa8;" horiz-adv-x="449" 
d="M113 861c0.666992 10.667 5.16797 19.667 13.501 27s18.166 11 29.499 11c8.66699 0 15.834 -2.66699 21.501 -8s8.5 -12.333 8.5 -21c0 -11.333 -4.33301 -21.333 -13 -30s-18.667 -13 -30 -13c-10 0 -17.833 3.33301 -23.5 10s-7.83398 14.667 -6.50098 24z
M268.001 861c0.666992 10.667 5.33691 19.667 14.0039 27s18.667 11 30 11c9.33301 0 16.666 -3.16699 21.999 -9.5s7.66602 -14.5 6.99902 -24.5c-1.33301 -10.667 -6 -19.667 -14 -27s-17.333 -11 -28 -11s-18.834 3.33301 -24.501 10s-7.83398 14.667 -6.50098 24z" />
    <glyph glyph-name="copyright" unicode="&#xa9;" horiz-adv-x="800" 
d="M55 270c-1.33301 127.333 37.502 233.5 116.502 318.5s179.167 126.833 300.5 125.5c98 0 173.833 -24.167 227.5 -72.5s80.5 -116.833 80.5 -205.5c1.33301 -130 -37.334 -237.667 -116.001 -323s-180.334 -127.333 -305.001 -126c-96 0 -170.667 25 -224 75
s-80 119.333 -80 208zM742.002 430c0 78.667 -23.3301 139.335 -69.9971 182.002s-113 64 -199 64c-111.333 1.33301 -202.833 -36.834 -274.5 -114.501s-106.834 -174.167 -105.501 -289.5c0 -78.667 23.167 -139.667 69.5 -183s112.166 -65 197.499 -65
c113.333 -1.33301 205.666 36.667 276.999 114s106.333 174.666 105 291.999zM254.005 294.001c0 73.333 18.998 136.502 56.998 189.502s87 79.833 147 80.5c32 0 59.667 -6.33301 83 -19l-2 -39c-21.333 13.333 -47.666 20 -78.999 20
c-49.333 -0.666992 -89.166 -23.834 -119.499 -69.501s-45.5 -99.5 -45.5 -161.5c0 -76.667 32.667 -115 98 -115c36.667 0 69 8 97 24l-6 -42c-30 -14 -62 -21 -96 -21c-44.667 0 -78.167 13.667 -100.5 41s-33.5 64.666 -33.5 111.999z" />
    <glyph glyph-name="ordfeminine" unicode="&#xaa;" horiz-adv-x="386" 
d="M382 683l-53 -310h-32l14 86c-33.333 -63.333 -76.333 -95 -129 -95c-50.667 0 -76 35.333 -76 106c0 65.333 16.5 121 49.5 167s74.833 69 125.5 69c31.333 0 65 -7.66699 101 -23zM327 558l18 104.999c-20 7.33301 -41 11 -63 11c-41.333 0 -75 -20.167 -101 -60.5
s-39 -88.166 -39 -143.499c0 -49.333 15.667 -74 47 -74c29.333 0 58 17.5 86 52.5s45.333 71.5 52 109.5zM77 266.999l7 38h236l-7 -38h-236z" />
    <glyph glyph-name="guillemotleft" unicode="&#xab;" horiz-adv-x="402" 
d="M50 295l2 11l119 157h52l-128 -167l62 -158h-45zM210 295l2 11l119 157h52l-128 -167l62 -158h-45z" />
    <glyph glyph-name="logicalnot" unicode="&#xac;" horiz-adv-x="515" 
d="M375 176l19 110h-318l8 46h364l-28 -156h-45z" />
    <glyph glyph-name="uni00AD" unicode="&#xad;" horiz-adv-x="335" 
d="M36 260l8 44h266l-8 -44h-266z" />
    <glyph glyph-name="registered" unicode="&#xae;" horiz-adv-x="652" 
d="M648 491c1.33301 -97.333 -30.333 -178.831 -95 -244.498s-146 -97.834 -244 -96.501c-75.333 0 -134.5 20 -177.5 60s-64.5 95 -64.5 165c-1.33301 96 30.5 176.667 95.5 242s146.167 97.666 243.5 96.999c74.667 0 133.667 -19.833 177 -59.5s65 -94.167 65 -163.5z
M609.001 486.002c0 61.333 -17.832 108.667 -53.499 142s-86.834 50 -153.501 50c-86 0 -156.833 -28.333 -212.5 -85s-83.5 -127.667 -83.5 -213c0 -61.333 18 -109 54 -143s87.333 -51 154 -51c86 0 156.667 28.5 212 85.5s83 128.5 83 214.5zM472.002 519.003
c0 -28 -8.5 -51 -25.5 -69s-38.5 -28.333 -64.5 -31l51 -129h-41l-53 143l2 10h12c25.333 0 45 6.33301 59 19s21 30 21 52c0 27.333 -21.333 41 -64 41h-42l-47 -265h-38l52 297h78c66.667 0 100 -22.667 100 -68z" />
    <glyph glyph-name="overscore" unicode="&#xaf;" horiz-adv-x="449" 
d="M205 600l7 39h229l-7 -39h-229z" />
    <glyph glyph-name="degree" unicode="&#xb0;" horiz-adv-x="296" 
d="M72 546c0 43.333 14.332 79.999 42.999 109.999s65.667 45 111 45c34.667 0 61.834 -9.16699 81.501 -27.5s29.5 -43.166 29.5 -74.499c0 -42 -14.167 -78.167 -42.5 -108.5s-64.833 -45.5 -109.5 -45.5c-35.333 0 -63 9.16699 -83 27.5s-30 42.833 -30 73.5z
M294.999 592.999c0 46 -24.667 69 -74 69c-31.333 0 -57 -10.5 -77 -31.5s-30 -47.5 -30 -79.5c0 -45.333 25 -68 75 -68c30 0 55.167 10.667 75.5 32s30.5 47.333 30.5 78z" />
    <glyph glyph-name="plusminus" unicode="&#xb1;" horiz-adv-x="455" 
d="M194 199l24 136h-163l8 46h162l24 135h49l-24 -135h163l-8 -46h-163l-24 -136h-48zM11 89l9 46h374l-9 -46h-374z" />
    <glyph glyph-name="uni00B2" unicode="&#xb2;" horiz-adv-x="320" 
d="M186 445l129.001 -0.000976562l-8 -38h-252l2 12l182 209c43.333 49.333 65 92.333 65 129c0 34 -20.333 51 -61 51c-30.667 0 -65.334 -10.667 -104.001 -32l5 41c34.667 18.667 71 28 109 28c30 0 53.333 -7.16699 70 -21.5s25 -34.166 25 -59.499
c0 -45.333 -24.333 -96.333 -73 -153l-146 -167c9.33301 0.666992 28.333 1 57 1z" />
    <glyph glyph-name="uni00B3" unicode="&#xb3;" horiz-adv-x="336" 
d="M365 831l-1.00098 -12.001l-129 -161c30.667 -2.66699 54.334 -12.5 71.001 -29.5s25 -40.5 25 -70.5c0 -47.333 -15.833 -86.666 -47.5 -117.999s-71.834 -47 -120.501 -47c-39.333 0 -71.666 7.33301 -96.999 22l4 37c27.333 -15.333 58.333 -23 93 -23
c37.333 0 67.666 12 90.999 36s35 54 35 90c0 48.667 -29 73 -87 73c-13.333 0 -21.666 -0.333008 -24.999 -1l-3 10l104 130l21 26h-40h-122l7 38h221z" />
    <glyph glyph-name="acute" unicode="&#xb4;" horiz-adv-x="370" 
d="M119 763l91 132h57l-109 -132h-39z" />
    <glyph glyph-name="uni00B5" unicode="&#xb5;" horiz-adv-x="556" 
d="M428 70c0 -26 10.334 -39 31.001 -39c9.33301 0 17.666 1.33301 24.999 4l-8 -42c-14 -4 -26.667 -6 -38 -6c-35.333 0 -53 21.667 -53 65c0 1.33301 0.666992 12 2 32c-15.333 -28 -40 -51.333 -74 -70c-33.333 -18.667 -67 -28 -101 -28c-54 0 -88.333 21.333 -103 64
l-46 -259h-48l126 715h48l-59 -333c-3.33301 -23.333 -5 -40.333 -5 -51c0 -63.333 30.667 -95 92 -95c44 0 83.333 14.667 118 44c34 30 55 67.333 63 112l57 323h48l-72 -406c-2 -10.667 -3 -20.667 -3 -30z" />
    <glyph glyph-name="paragraph" unicode="&#xb6;" horiz-adv-x="542" 
d="M112 -226l109 608.999c-44 0.666992 -77.5 12.834 -100.5 36.501s-34.5 55.5 -34.5 95.5c0 58 16.833 103.333 50.5 136s80.5 49 140.5 49h246l-164 -926h-49l156 880h-149l-156 -880h-49z" />
    <glyph glyph-name="middot" unicode="&#xb7;" horiz-adv-x="204" 
d="M75 320c0 13.333 4.83203 24.833 14.499 34.5s20.834 14.5 33.501 14.5c10 0 18.167 -3.16699 24.5 -9.5s9.5 -14.5 9.5 -24.5c0 -12.667 -5 -23.667 -15 -33s-21 -14 -33 -14c-10 0 -18.167 3 -24.5 9s-9.5 13.667 -9.5 23z" />
    <glyph glyph-name="cedilla" unicode="&#xb8;" horiz-adv-x="382" 
d="M33 -184l16.999 32.002c14.667 -10.667 33.334 -16 56.001 -16c16.667 0 30.5 4.66699 41.5 14s16.5 21.666 16.5 36.999c0 30.667 -22.333 45 -67 43l38 75h37l-27 -51c40.667 -8 61 -28.333 61 -61c0 -28.667 -9.16699 -51.334 -27.5 -68.001s-42.833 -25 -73.5 -25
c-25.333 0 -49.333 6.66699 -72 20z" />
    <glyph glyph-name="uni00B9" unicode="&#xb9;" horiz-adv-x="253" 
d="M149 405l67 380l-97 -48l7 41l130 65h11l-77 -438h-41z" />
    <glyph glyph-name="ordmasculine" unicode="&#xba;" horiz-adv-x="382" 
d="M105 485c0 62.667 16.167 115.167 48.5 157.5s72.166 63.5 119.499 63.5c32.667 0 57.667 -10.667 75 -32s26 -51.666 26 -90.999c0 -62.667 -16.167 -114.834 -48.5 -156.501s-72.166 -62.5 -119.499 -62.5c-32 0 -56.833 10.667 -74.5 32s-26.5 51 -26.5 89zM338 582
c0 61.333 -22.333 92 -67 92c-36 0 -66.833 -18.333 -92.5 -55s-38.5 -80.667 -38.5 -132c0 -61.333 23 -92 69 -92c36 0 66.5 18.333 91.5 55s37.5 80.667 37.5 132zM70 268l7 37h237l-7 -37h-237z" />
    <glyph glyph-name="guillemotright" unicode="&#xbb;" horiz-adv-x="402" 
d="M209 307l-2 -11l-119 -157h-52l128 167l-62 158h45zM369 307l-2 -11l-118 -157h-52l127 167l-62 158h45z" />
    <glyph glyph-name="onequarter" unicode="&#xbc;" horiz-adv-x="800" 
d="M126 272l67 380l-97 -48l7 41l130 65h11l-77 -438h-41zM55 0l578 700h46l-577 -700h-47zM633 -2l17 98h-196l1 11l183 322h42l-165 -297h141l34 183h39l-33 -183h51l-6 -36h-50l-18 -98h-40z" />
    <glyph glyph-name="onehalf" unicode="&#xbd;" horiz-adv-x="826" 
d="M126 272l67 380l-97 -48l7 41l130 65h11l-77 -438h-41zM55 0l578 700h46l-577 -700h-47zM620 38l129.001 -0.000976562l-8 -38h-252l2 12l182 209c43.333 49.333 65 92.333 65 129c0 34 -20.333 51 -61 51c-30.667 0 -65.334 -10.667 -104.001 -32l5 41
c34.667 18.667 71 28 109 28c30 0 53.333 -7.16699 70 -21.5s25 -34.166 25 -59.499c0 -45.333 -24.333 -96.333 -73 -153l-146 -167c9.33301 0.666992 28.333 1 57 1z" />
    <glyph glyph-name="threequarters" unicode="&#xbe;" horiz-adv-x="873" 
d="M342 700l-1.00098 -12.001l-129 -161c30.667 -2.66699 54.334 -12.5 71.001 -29.5s25 -40.5 25 -70.5c0 -47.333 -15.833 -86.666 -47.5 -117.999s-71.834 -47 -120.501 -47c-39.333 0 -71.666 7.33301 -96.999 22l4 37c27.333 -15.333 58.333 -23 93 -23
c37.333 0 67.666 12 90.999 36s35 54 35 90c0 48.667 -29 73 -87 73c-13.333 0 -21.666 -0.333008 -24.999 -1l-3 10l104 130l21 26h-40h-122l7 38h221zM126.999 -0.000976562l578 700h46l-577 -700h-47zM704.999 -2.00098l17 98h-196l1 11l183 322h42l-165 -297h141l34 183
h39l-33 -183h51l-6 -36h-50l-18 -98h-40z" />
    <glyph glyph-name="questiondown" unicode="&#xbf;" horiz-adv-x="330" 
d="M283 479c0 -12.667 -4.83496 -23.999 -14.502 -33.999s-21.167 -15 -34.5 -15c-9.33301 0 -17.166 3.16699 -23.499 9.5s-9.5 14.166 -9.5 23.499c0 12.667 4.83301 23.667 14.5 33s20.834 14 33.501 14c10 0 18.167 -2.83301 24.5 -8.5s9.5 -13.167 9.5 -22.5z
M120.998 103.001c-42.667 -38 -73.334 -70.666 -92.001 -97.999c-16.667 -24.667 -25 -51 -25 -79c0 -60.667 41 -91 123 -91c56 0 107.333 14.333 154 43l-9 -50c-48.667 -24.667 -101 -37 -157 -37c-51.333 0 -91.666 11.5 -120.999 34.5s-44 54.833 -44 95.5
c0 36 9.66699 69.333 29 100c19.333 31.333 53.333 67.333 102 108c42 34 71 65.167 87 93.5s28.333 71.5 37 129.5h44c-8 -64 -20.167 -111.833 -36.5 -143.5s-46.833 -66.834 -91.5 -105.501z" />
    <glyph glyph-name="Agrave" unicode="&#xc0;" horiz-adv-x="604" 
d="M503 0l-42 188h-338l-109 -188h-52l412 706h13l166 -706h-50zM366 608l-12 -21c-26.667 -47.333 -42 -74.333 -46 -81l-160 -275h304l-65 276c-4 16 -10.667 49.667 -20 101h-1zM365 771l-63 129h61l43 -129h-41z" />
    <glyph glyph-name="Aacute" unicode="&#xc1;" horiz-adv-x="604" 
d="M503 0l-42 188h-338l-109 -188h-52l412 706h13l166 -706h-50zM366 608l-12 -21c-26.667 -47.333 -42 -74.333 -46 -81l-160 -275h304l-65 276c-4 16 -10.667 49.667 -20 101h-1zM366 771l90 129h61l-109 -129h-42z" />
    <glyph glyph-name="Acircumflex" unicode="&#xc2;" horiz-adv-x="604" 
d="M503 0l-42 188h-338l-109 -188h-52l412 706h13l166 -706h-50zM366 608l-12 -21c-26.667 -47.333 -42 -74.333 -46 -81l-160 -275h304l-65 276c-4 16 -10.667 49.667 -20 101h-1zM272 771l112 129h57l66 -129h-41l-57 93l-92 -93h-45z" />
    <glyph glyph-name="Atilde" unicode="&#xc3;" horiz-adv-x="604" 
d="M503 0l-42 188h-338l-109 -188h-52l412 706h13l166 -706h-50zM366 608l-12 -21c-26.667 -47.333 -42 -74.333 -46 -81l-160 -275h304l-65 276c-4 16 -10.667 49.667 -20 101h-1zM394 813c-18.667 10.667 -34.0039 16 -46.0039 16c-21.333 0 -36 -12 -44 -36l-38 5
c2.66699 22 11.334 39.167 26.001 51.5s33.334 18.5 56.001 18.5c18.667 0 40.334 -6.66699 65.001 -20c20.667 -10.667 36.667 -16 48 -16c20 0 34.667 12 44 36l38 -5c-5.33301 -47.333 -32.666 -71 -81.999 -71c-18 0 -40.333 7 -67 21z" />
    <glyph glyph-name="Adieresis" unicode="&#xc4;" horiz-adv-x="604" 
d="M503 0l-42 188h-338l-109 -188h-52l412 706h13l166 -706h-50zM366 608l-12 -21c-26.667 -47.333 -42 -74.333 -46 -81l-160 -275h304l-65 276c-4 16 -10.667 49.667 -20 101h-1zM282 821c0 4 0.333008 6.66602 1 7.99902c2 10.667 7.16699 19.667 15.5 27
s18.166 11 29.499 11c10 0 18 -2.83301 24 -8.5s9 -13.167 9 -22.5c0 -12 -4.66699 -22.5 -14 -31.5s-20 -13.5 -32 -13.5c-9.33301 0 -17.166 2.83301 -23.499 8.5s-9.5 12.834 -9.5 21.501zM447 821.999c0 12 4.83301 22.5 14.5 31.5s20.5 13.5 32.5 13.5
c9.33301 0 17 -2.83301 23 -8.5s9 -13.167 9 -22.5c0 -12 -4.5 -22.5 -13.5 -31.5s-19.5 -13.5 -31.5 -13.5c-10 0 -18.167 2.83301 -24.5 8.5s-9.5 13.167 -9.5 22.5z" />
    <glyph glyph-name="Aring" unicode="&#xc5;" horiz-adv-x="604" 
d="M503 0l-42 188h-338l-109 -188h-52l412 706h13l166 -706h-50zM366 608l-12 -21c-26.667 -47.333 -42 -74.333 -46 -81l-160 -275h304l-65 276c-4 16 -10.667 49.667 -20 101h-1zM307 833c0 31.333 11.001 56.5 33.001 75.5s49.333 28.5 82 28.5
c24.667 0 44.834 -6.33301 60.501 -19s23.5 -30 23.5 -52l-2 -17c-4.66699 -26.667 -17.334 -47.667 -38.001 -63s-45.334 -23 -74.001 -23c-25.333 0 -45.833 6.33301 -61.5 19s-23.5 29.667 -23.5 51zM467.001 860c0 14 -4.49902 24.833 -13.499 32.5
s-21.5 11.5 -37.5 11.5c-20 0 -36.667 -6 -50 -18s-20 -27.667 -20 -47c0 -28.667 17.333 -43 52 -43c19.333 0 35.666 6 48.999 18s20 27.333 20 46z" />
    <glyph glyph-name="AE" unicode="&#xc6;" horiz-adv-x="809" 
d="M823 657h-300l-47 -268h278l-8 -42h-278l-53 -304h309l-8 -43h-357l33 187h-251l-138 -187h-54l513 700h368zM399 230l52 297l16 88l7 34h-1c-20 -34.667 -43.333 -70 -70 -106l-231 -313h227z" />
    <glyph glyph-name="Ccedilla" unicode="&#xc7;" horiz-adv-x="513" 
d="M120 262c0 -77.333 15.832 -134.667 47.499 -172s79.834 -56 144.501 -56c43.333 0 86.333 9.66699 129 29l-9 -49c-37.333 -16 -78.333 -24 -123 -24l-21 -39c40 -7.33301 60 -28 60 -62c0 -28.667 -9 -51.167 -27 -67.5s-42.333 -24.5 -73 -24.5
c-26.667 0 -50.667 6.66699 -72 20l17 31c16.667 -10.667 35.334 -16 56.001 -16c16.667 0 30.5 4.66699 41.5 14s16.5 22 16.5 38c0 29.333 -22.333 43.666 -67 42.999l33 65c-136.667 12.667 -205 104 -205 274c-2 128 31.667 234.333 101 319s155 126.334 257 125.001
c42.667 0 80.667 -7 114 -21l-8 -45c-30 14.667 -65.667 22 -107 22c-87.333 1.33301 -160.333 -37.167 -219 -115.5s-87.334 -174.5 -86.001 -288.5z" />
    <glyph glyph-name="Egrave" unicode="&#xc8;" horiz-adv-x="508" 
d="M521 656h-298l-47 -265h277l-8 -45h-277l-53 -302h309l-8 -44h-359l123 700h349zM336 771l-63 129h61l43 -129h-41z" />
    <glyph glyph-name="Eacute" unicode="&#xc9;" horiz-adv-x="508" 
d="M521 656h-298l-47 -265h277l-8 -45h-277l-53 -302h309l-8 -44h-359l123 700h349zM337 771l90 129h61l-109 -129h-42z" />
    <glyph glyph-name="Ecircumflex" unicode="&#xca;" horiz-adv-x="508" 
d="M521 656h-298l-47 -265h277l-8 -45h-277l-53 -302h309l-8 -44h-359l123 700h349zM244 771l112 129h57l66 -129h-41l-57 93l-92 -93h-45z" />
    <glyph glyph-name="Edieresis" unicode="&#xcb;" horiz-adv-x="508" 
d="M521 656h-298l-47 -265h277l-8 -45h-277l-53 -302h309l-8 -44h-359l123 700h349zM253 821c0 4 0.333008 6.66602 1 7.99902c2 10.667 7.16699 19.667 15.5 27s18.166 11 29.499 11c10 0 18 -2.83301 24 -8.5s9 -13.167 9 -22.5c0 -12 -4.66699 -22.5 -14 -31.5
s-20 -13.5 -32 -13.5c-9.33301 0 -17.166 2.83301 -23.499 8.5s-9.5 12.834 -9.5 21.501zM418 821.999c0 12 4.83301 22.5 14.5 31.5s20.5 13.5 32.5 13.5c9.33301 0 17 -2.83301 23 -8.5s9 -13.167 9 -22.5c0 -12 -4.5 -22.5 -13.5 -31.5s-19.5 -13.5 -31.5 -13.5
c-10 0 -18.167 2.83301 -24.5 8.5s-9.5 13.167 -9.5 22.5z" />
    <glyph glyph-name="Igrave" unicode="&#xcc;" horiz-adv-x="253" 
d="M57 0l123 700h51l-123 -700h-51zM191 771l-63 129h61l43 -129h-41z" />
    <glyph glyph-name="Iacute" unicode="&#xcd;" horiz-adv-x="253" 
d="M57 0l123 700h51l-123 -700h-51zM192 771l90 129h61l-109 -129h-42z" />
    <glyph glyph-name="Icircumflex" unicode="&#xce;" horiz-adv-x="253" 
d="M57 0l123 700h51l-123 -700h-51zM98 771l112 129h57l66 -129h-41l-57 93l-92 -93h-45z" />
    <glyph glyph-name="Idieresis" unicode="&#xcf;" horiz-adv-x="253" 
d="M57 0l123 700h51l-123 -700h-51zM124 829c2 10.667 6.83301 19.333 14.5 26s16.5 10 26.5 10s17.833 -3.33301 23.5 -10s7.5 -15.334 5.5 -26.001c-6 -24 -19.667 -36 -41 -36c-10 0 -17.667 3.33301 -23 10s-7.33301 15.334 -6 26.001zM262 820.999
c0 4 0.332031 6.66602 0.999023 7.99902c1.33301 10.667 5.83301 19.334 13.5 26.001s16.834 10 27.501 10c8.66699 0 15.667 -2.5 21 -7.5s8 -11.833 8 -20.5c0 -13.333 -3.83301 -24 -11.5 -32s-17.5 -12 -29.5 -12c-20 0 -30 9.33301 -30 28z" />
    <glyph glyph-name="Eth" unicode="&#xd0;" horiz-adv-x="628" 
d="M595 435c1.33301 -126 -32.832 -230.5 -102.499 -313.5s-160.834 -123.5 -273.501 -121.5h-158l60 339h-77l5 35h78l57 326h152c89.333 0 154.833 -21.833 196.5 -65.5s62.5 -110.167 62.5 -199.5zM543.002 438c0 75.333 -16.001 130.666 -48.001 165.999
s-84.333 53 -157 53h-111l-50 -283h171l-6 -35h-171l-53 -296h102c99.333 -1.33301 178.333 35.834 237 111.501s87.334 170.167 86.001 283.5z" />
    <glyph glyph-name="Ntilde" unicode="&#xd1;" horiz-adv-x="669" 
d="M511 -3l-259.001 498l-43 82h-1l-16 -92l-86 -485h-49l124 704h11l262 -502l27 -54l14 -28h1c6.66699 44 12.334 77.333 17.001 100l86 480h49l-126 -703h-11zM419.999 813c-18.667 10.667 -34.0049 16 -46.0049 16c-21.333 0 -36 -12 -44 -36l-38 5
c2.66699 22 11.334 39.167 26.001 51.5s33.334 18.5 56.001 18.5c18.667 0 40.334 -6.66699 65.001 -20c20.667 -10.667 36.667 -16 48 -16c20.667 0 35.334 12 44.001 36l38 -5c-5.33301 -47.333 -32.666 -71 -81.999 -71c-18 0 -40.333 7 -67 21z" />
    <glyph glyph-name="Ograve" unicode="&#xd2;" horiz-adv-x="664" 
d="M66 247c-0.666992 84.667 13.165 162.835 41.498 234.502s69 128.667 122 171s112.5 62.833 178.5 61.5c72.667 0 128.167 -23 166.5 -69s57.5 -110 57.5 -192c0.666992 -84.667 -13.166 -162.834 -41.499 -234.501s-69.166 -128.667 -122.499 -171
s-113 -62.833 -179 -61.5c-71.333 0 -126.333 23.167 -165 69.5s-58 110.166 -58 191.499zM580.999 449.001c0 70.667 -15.167 124.998 -45.5 162.998s-73.5 57 -129.5 57c-55.333 1.33301 -105.5 -17.5 -150.5 -56.5s-79.5 -90.667 -103.5 -155
s-35.667 -133.166 -35 -206.499c0 -70.667 15.167 -125 45.5 -163s73.833 -57 130.5 -57c54.667 -1.33301 104.334 17.334 149.001 56.001s79.167 90.167 103.5 154.5s36.166 133.5 35.499 207.5zM390.999 770.999l-63 129h61l43 -129h-41z" />
    <glyph glyph-name="Oacute" unicode="&#xd3;" horiz-adv-x="664" 
d="M66 247c-0.666992 84.667 13.165 162.835 41.498 234.502s69 128.667 122 171s112.5 62.833 178.5 61.5c72.667 0 128.167 -23 166.5 -69s57.5 -110 57.5 -192c0.666992 -84.667 -13.166 -162.834 -41.499 -234.501s-69.166 -128.667 -122.499 -171
s-113 -62.833 -179 -61.5c-71.333 0 -126.333 23.167 -165 69.5s-58 110.166 -58 191.499zM580.999 449.001c0 70.667 -15.167 124.998 -45.5 162.998s-73.5 57 -129.5 57c-55.333 1.33301 -105.5 -17.5 -150.5 -56.5s-79.5 -90.667 -103.5 -155
s-35.667 -133.166 -35 -206.499c0 -70.667 15.167 -125 45.5 -163s73.833 -57 130.5 -57c54.667 -1.33301 104.334 17.334 149.001 56.001s79.167 90.167 103.5 154.5s36.166 133.5 35.499 207.5zM391.999 770.999l90 129h61l-109 -129h-42z" />
    <glyph glyph-name="Ocircumflex" unicode="&#xd4;" horiz-adv-x="664" 
d="M66 247c-0.666992 84.667 13.165 162.835 41.498 234.502s69 128.667 122 171s112.5 62.833 178.5 61.5c72.667 0 128.167 -23 166.5 -69s57.5 -110 57.5 -192c0.666992 -84.667 -13.166 -162.834 -41.499 -234.501s-69.166 -128.667 -122.499 -171
s-113 -62.833 -179 -61.5c-71.333 0 -126.333 23.167 -165 69.5s-58 110.166 -58 191.499zM580.999 449.001c0 70.667 -15.167 124.998 -45.5 162.998s-73.5 57 -129.5 57c-55.333 1.33301 -105.5 -17.5 -150.5 -56.5s-79.5 -90.667 -103.5 -155
s-35.667 -133.166 -35 -206.499c0 -70.667 15.167 -125 45.5 -163s73.833 -57 130.5 -57c54.667 -1.33301 104.334 17.334 149.001 56.001s79.167 90.167 103.5 154.5s36.166 133.5 35.499 207.5zM297.999 770.999l112 129h57l66 -129h-41l-57 93l-92 -93h-45z" />
    <glyph glyph-name="Otilde" unicode="&#xd5;" horiz-adv-x="664" 
d="M66 247c-0.666992 84.667 13.165 162.835 41.498 234.502s69 128.667 122 171s112.5 62.833 178.5 61.5c72.667 0 128.167 -23 166.5 -69s57.5 -110 57.5 -192c0.666992 -84.667 -13.166 -162.834 -41.499 -234.501s-69.166 -128.667 -122.499 -171
s-113 -62.833 -179 -61.5c-71.333 0 -126.333 23.167 -165 69.5s-58 110.166 -58 191.499zM580.999 449.001c0 70.667 -15.167 124.998 -45.5 162.998s-73.5 57 -129.5 57c-55.333 1.33301 -105.5 -17.5 -150.5 -56.5s-79.5 -90.667 -103.5 -155
s-35.667 -133.166 -35 -206.499c0 -70.667 15.167 -125 45.5 -163s73.833 -57 130.5 -57c54.667 -1.33301 104.334 17.334 149.001 56.001s79.167 90.167 103.5 154.5s36.166 133.5 35.499 207.5zM418.999 812.999c-18.667 10.667 -34.0039 16 -46.0039 16
c-21.333 0 -36 -12 -44 -36l-38 5c2.66699 22 11.334 39.167 26.001 51.5s33.334 18.5 56.001 18.5c18.667 0 40.334 -6.66699 65.001 -20c20.667 -10.667 36.667 -16 48 -16c20 0 34.667 12 44 36l38 -5c-5.33301 -47.333 -32.666 -71 -81.999 -71c-18 0 -40.333 7 -67 21z
" />
    <glyph glyph-name="Odieresis" unicode="&#xd6;" horiz-adv-x="664" 
d="M66 247c-0.666992 84.667 13.165 162.835 41.498 234.502s69 128.667 122 171s112.5 62.833 178.5 61.5c72.667 0 128.167 -23 166.5 -69s57.5 -110 57.5 -192c0.666992 -84.667 -13.166 -162.834 -41.499 -234.501s-69.166 -128.667 -122.499 -171
s-113 -62.833 -179 -61.5c-71.333 0 -126.333 23.167 -165 69.5s-58 110.166 -58 191.499zM580.999 449.001c0 70.667 -15.167 124.998 -45.5 162.998s-73.5 57 -129.5 57c-55.333 1.33301 -105.5 -17.5 -150.5 -56.5s-79.5 -90.667 -103.5 -155
s-35.667 -133.166 -35 -206.499c0 -70.667 15.167 -125 45.5 -163s73.833 -57 130.5 -57c54.667 -1.33301 104.334 17.334 149.001 56.001s79.167 90.167 103.5 154.5s36.166 133.5 35.499 207.5zM307.999 820.999c0 4 0.333008 6.66602 1 7.99902
c2 10.667 7.16699 19.667 15.5 27s18.166 11 29.499 11c10 0 18 -2.83301 24 -8.5s9 -13.167 9 -22.5c0 -12 -4.66699 -22.5 -14 -31.5s-20 -13.5 -32 -13.5c-9.33301 0 -17.166 2.83301 -23.499 8.5s-9.5 12.834 -9.5 21.501zM472.999 821.998c0 12 4.83301 22.5 14.5 31.5
s20.5 13.5 32.5 13.5c9.33301 0 17 -2.83301 23 -8.5s9 -13.167 9 -22.5c0 -12 -4.5 -22.5 -13.5 -31.5s-19.5 -13.5 -31.5 -13.5c-10 0 -18.167 2.83301 -24.5 8.5s-9.5 13.167 -9.5 22.5z" />
    <glyph glyph-name="multiply" unicode="&#xd7;" horiz-adv-x="349" 
d="M52 160l-32 39l128 110l-89 107l38 34l90 -109l128 109l32 -39l-129 -109l90 -110l-38 -33l-90 110z" />
    <glyph glyph-name="Oslash" unicode="&#xd8;" horiz-adv-x="664" 
d="M677 714l-82.002 -99.999c24.667 -41.333 37 -95 37 -161c1.33301 -83.333 -11.667 -160.5 -39 -231.5s-67.666 -128.333 -120.999 -172s-114.333 -64.834 -183 -63.501c-67.333 0 -120.666 21 -159.999 63l-52 -63h-50l78 95c-26 43.333 -39 98.666 -39 165.999
c-0.666992 83.333 12.5 160.5 39.5 231.5s67.167 128.333 120.5 172s114 64.834 182 63.501c71.333 0 126 -22.333 164 -67l55 67h50zM116.998 251.001c0 -50 7.99902 -92.3311 23.999 -126.998l398 483c-30 41.333 -74.333 62 -133 62
c-56.667 1.33301 -107.667 -18.334 -153 -59.001s-79.666 -92.834 -102.999 -156.501s-34.333 -131.167 -33 -202.5zM580.997 449.003c0 46.667 -7 87 -21 121l-398 -481c30 -38.667 73.667 -58 131 -58c56.667 -1.33301 107.5 18.167 152.5 58.5s79 92.333 102 156
s34.167 131.5 33.5 203.5z" />
    <glyph glyph-name="Ugrave" unicode="&#xd9;" horiz-adv-x="667" 
d="M92 179c0 20 2.66602 47 7.99902 81l78 440h50l-77 -435c-5.33301 -33.333 -8 -60 -8 -80c0 -51.333 12.5 -89.5 37.5 -114.5s63.5 -37.5 115.5 -37.5c63.333 0 113.333 19 150 57s61.667 96.333 75 175l77 435h50l-77 -439c-16 -92 -47.167 -160.5 -93.5 -205.5
s-109.166 -67.5 -188.499 -67.5c-131.333 0 -197 63.667 -197 191zM397.999 771l-63 129h61l43 -129h-41z" />
    <glyph glyph-name="Uacute" unicode="&#xda;" horiz-adv-x="667" 
d="M92 179c0 20 2.66602 47 7.99902 81l78 440h50l-77 -435c-5.33301 -33.333 -8 -60 -8 -80c0 -51.333 12.5 -89.5 37.5 -114.5s63.5 -37.5 115.5 -37.5c63.333 0 113.333 19 150 57s61.667 96.333 75 175l77 435h50l-77 -439c-16 -92 -47.167 -160.5 -93.5 -205.5
s-109.166 -67.5 -188.499 -67.5c-131.333 0 -197 63.667 -197 191zM398.999 771l90 129h61l-109 -129h-42z" />
    <glyph glyph-name="Ucircumflex" unicode="&#xdb;" horiz-adv-x="667" 
d="M92 179c0 20 2.66602 47 7.99902 81l78 440h50l-77 -435c-5.33301 -33.333 -8 -60 -8 -80c0 -51.333 12.5 -89.5 37.5 -114.5s63.5 -37.5 115.5 -37.5c63.333 0 113.333 19 150 57s61.667 96.333 75 175l77 435h50l-77 -439c-16 -92 -47.167 -160.5 -93.5 -205.5
s-109.166 -67.5 -188.499 -67.5c-131.333 0 -197 63.667 -197 191zM305.999 771l112 129h57l66 -129h-41l-57 93l-92 -93h-45z" />
    <glyph glyph-name="Udieresis" unicode="&#xdc;" horiz-adv-x="667" 
d="M92 179c0 20 2.66602 47 7.99902 81l78 440h50l-77 -435c-5.33301 -33.333 -8 -60 -8 -80c0 -51.333 12.5 -89.5 37.5 -114.5s63.5 -37.5 115.5 -37.5c63.333 0 113.333 19 150 57s61.667 96.333 75 175l77 435h50l-77 -439c-16 -92 -47.167 -160.5 -93.5 -205.5
s-109.166 -67.5 -188.499 -67.5c-131.333 0 -197 63.667 -197 191zM314.999 821c0 4 0.333008 6.66602 1 7.99902c2 10.667 7.16699 19.667 15.5 27s18.166 11 29.499 11c10 0 18 -2.83301 24 -8.5s9 -13.167 9 -22.5c0 -12 -4.66699 -22.5 -14 -31.5s-20 -13.5 -32 -13.5
c-9.33301 0 -17.166 2.83301 -23.499 8.5s-9.5 12.834 -9.5 21.501zM479.999 821.999c0 12 4.83301 22.5 14.5 31.5s20.5 13.5 32.5 13.5c9.33301 0 17 -2.83301 23 -8.5s9 -13.167 9 -22.5c0 -12 -4.5 -22.5 -13.5 -31.5s-19.5 -13.5 -31.5 -13.5
c-10 0 -18.167 2.83301 -24.5 8.5s-9.5 13.167 -9.5 22.5z" />
    <glyph glyph-name="Yacute" unicode="&#xdd;" horiz-adv-x="554" 
d="M216 0l55 309l-183 391h56l99 -218c6 -14 25.333 -55.333 58 -124h2l100 132l160 210h60l-303 -394l-54 -306h-50zM340 771l90 129h61l-109 -129h-42z" />
    <glyph glyph-name="Thorn" unicode="&#xde;" horiz-adv-x="544" 
d="M524 414c0 -84.667 -25.833 -151.833 -77.5 -201.5s-121.5 -74.5 -209.5 -74.5h-106l-24 -138h-50l123 700h50l-24 -136h99c146 0 219 -50 219 -150zM473 409.001c0 39.333 -13.168 67.833 -39.501 85.5s-69.166 26.5 -128.499 26.5h-106l-60 -340h102
c71.333 0 127.833 20.5 169.5 61.5s62.5 96.5 62.5 166.5z" />
    <glyph glyph-name="germandbls" unicode="&#xdf;" horiz-adv-x="544" 
d="M382 410c34 -6.66699 60.5029 -22.834 79.5029 -48.501s28.5 -58.5 28.5 -98.5c0 -11.333 -1.66699 -27.666 -5 -48.999c-13.333 -73.333 -40.833 -129.333 -82.5 -168s-94.834 -58 -159.501 -58c-27.333 0 -52.333 4 -75 12l7 41c20.667 -8 45.667 -12 75 -12
c47.333 0 87.166 16 119.499 48s53.833 77.333 64.5 136c2.66699 13.333 4 29 4 47c0 39.333 -9.83301 69.166 -29.5 89.499s-46.834 30.5 -81.501 30.5c-14 0 -41.333 -3 -82 -9l7 43l58 9c40.667 6.66699 74.834 23.334 102.501 50.001s45.5 61.667 53.5 105
c2 12 3 23.333 3 34c0 60 -33.667 90 -101 90c-46.667 0 -84.834 -14.5 -114.501 -43.5s-49.167 -70.167 -58.5 -123.5l-94 -535h-48l94 535c11.333 67.333 36.5 119 75.5 155s89.5 54 151.5 54c47.333 0 83.5 -10.667 108.5 -32s37.5 -52 37.5 -92
c0 -9.33301 -1.33301 -22.333 -4 -39c-15.333 -84.667 -60 -141.667 -134 -171z" />
    <glyph glyph-name="agrave" unicode="&#xe0;" horiz-adv-x="531" 
d="M44 158c-1.33301 100 26.168 185.667 82.501 257s124.166 106.333 203.499 105c42.667 0 91.667 -8 147 -24l-88 -496h-42l16 114h-1c-53.333 -82 -121 -123 -203 -123c-76.667 0 -115 55.667 -115 167zM384.001 245l39 220.001c-34 8.66699 -65.333 13 -94 13
c-66 0 -121.667 -30.833 -167 -92.5s-68 -137.167 -68 -226.5c0 -43.333 6.5 -75.333 19.5 -96s33.5 -31 61.5 -31c44 0 87.333 21.667 130 65s69 92.666 79 147.999zM332.001 582.001l-61 132h57l43 -132h-39z" />
    <glyph glyph-name="aacute" unicode="&#xe1;" horiz-adv-x="531" 
d="M44 158c-1.33301 100 26.168 185.667 82.501 257s124.166 106.333 203.499 105c42.667 0 91.667 -8 147 -24l-88 -496h-42l16 114h-1c-53.333 -82 -121 -123 -203 -123c-76.667 0 -115 55.667 -115 167zM384.001 245l39 220.001c-34 8.66699 -65.333 13 -94 13
c-66 0 -121.667 -30.833 -167 -92.5s-68 -137.167 -68 -226.5c0 -43.333 6.5 -75.333 19.5 -96s33.5 -31 61.5 -31c44 0 87.333 21.667 130 65s69 92.666 79 147.999zM321.001 582.001l91 132h57l-109 -132h-39z" />
    <glyph glyph-name="acircumflex" unicode="&#xe2;" horiz-adv-x="531" 
d="M44 158c-1.33301 100 26.168 185.667 82.501 257s124.166 106.333 203.499 105c42.667 0 91.667 -8 147 -24l-88 -496h-42l16 114h-1c-53.333 -82 -121 -123 -203 -123c-76.667 0 -115 55.667 -115 167zM384.001 245l39 220.001c-34 8.66699 -65.333 13 -94 13
c-66 0 -121.667 -30.833 -167 -92.5s-68 -137.167 -68 -226.5c0 -43.333 6.5 -75.333 19.5 -96s33.5 -31 61.5 -31c44 0 87.333 21.667 130 65s69 92.666 79 147.999zM235.001 582.001l108 132h59l60 -132h-38l-55 97l-91 -97h-43z" />
    <glyph glyph-name="atilde" unicode="&#xe3;" horiz-adv-x="531" 
d="M44 158c-1.33301 100 26.168 185.667 82.501 257s124.166 106.333 203.499 105c42.667 0 91.667 -8 147 -24l-88 -496h-42l16 114h-1c-53.333 -82 -121 -123 -203 -123c-76.667 0 -115 55.667 -115 167zM384.001 245l39 220.001c-34 8.66699 -65.333 13 -94 13
c-66 0 -121.667 -30.833 -167 -92.5s-68 -137.167 -68 -226.5c0 -43.333 6.5 -75.333 19.5 -96s33.5 -31 61.5 -31c44 0 87.333 21.667 130 65s69 92.666 79 147.999zM349.001 619.001c-18.667 10.667 -34.0039 16 -46.0039 16c-21.333 0 -36 -12 -44 -36l-38 5
c2.66699 22 11.334 39.167 26.001 51.5s33.334 18.5 56.001 18.5c18.667 0 40.334 -6.66699 65.001 -20c20.667 -10.667 36.667 -16 48 -16c20 0 34.667 12 44 36l38 -5c-5.33301 -47.333 -32.666 -71 -81.999 -71c-18 0 -40.333 7 -67 21z" />
    <glyph glyph-name="adieresis" unicode="&#xe4;" horiz-adv-x="531" 
d="M44 158c-1.33301 100 26.168 185.667 82.501 257s124.166 106.333 203.499 105c42.667 0 91.667 -8 147 -24l-88 -496h-42l16 114h-1c-53.333 -82 -121 -123 -203 -123c-76.667 0 -115 55.667 -115 167zM384.001 245l39 220.001c-34 8.66699 -65.333 13 -94 13
c-66 0 -121.667 -30.833 -167 -92.5s-68 -137.167 -68 -226.5c0 -43.333 6.5 -75.333 19.5 -96s33.5 -31 61.5 -31c44 0 87.333 21.667 130 65s69 92.666 79 147.999zM235.001 633.001c0.666992 10.667 5.16797 19.667 13.501 27s18.166 11 29.499 11
c8.66699 0 15.834 -2.66699 21.501 -8s8.5 -12.333 8.5 -21c0 -11.333 -4.33301 -21.333 -13 -30s-18.667 -13 -30 -13c-10 0 -17.833 3.33301 -23.5 10s-7.83398 14.667 -6.50098 24zM390.002 633.001c0.666992 10.667 5.33691 19.667 14.0039 27s18.667 11 30 11
c9.33301 0 16.666 -3.16699 21.999 -9.5s7.66602 -14.5 6.99902 -24.5c-1.33301 -10.667 -6 -19.667 -14 -27s-17.333 -11 -28 -11s-18.834 3.33301 -24.501 10s-7.83398 14.667 -6.50098 24z" />
    <glyph glyph-name="aring" unicode="&#xe5;" horiz-adv-x="531" 
d="M44 158c-1.33301 100 26.168 185.667 82.501 257s124.166 106.333 203.499 105c42.667 0 91.667 -8 147 -24l-88 -496h-42l16 114h-1c-53.333 -82 -121 -123 -203 -123c-76.667 0 -115 55.667 -115 167zM384.001 245l39 220.001c-34 8.66699 -65.333 13 -94 13
c-66 0 -121.667 -30.833 -167 -92.5s-68 -137.167 -68 -226.5c0 -43.333 6.5 -75.333 19.5 -96s33.5 -31 61.5 -31c44 0 87.333 21.667 130 65s69 92.666 79 147.999zM261.001 644.001c0 28 10.668 51.499 32.001 70.499s48.333 28.5 81 28.5
c26.667 0 47.667 -6.66699 63 -20s23 -31.666 23 -54.999c0 -28.667 -10.5 -52.5 -31.5 -71.5s-47.833 -28.5 -80.5 -28.5c-26.667 0 -47.834 6.66699 -63.501 20s-23.5 32 -23.5 56zM420.002 665c0 29.333 -16 44 -48 44c-21.333 0 -38.5 -5.66699 -51.5 -17
s-19.5 -26.333 -19.5 -45c0 -13.333 4.33301 -24 13 -32s20.667 -12 36 -12c20.667 0 37.5 5.66699 50.5 17s19.5 26.333 19.5 45z" />
    <glyph glyph-name="ae" unicode="&#xe6;" horiz-adv-x="771" 
d="M406 251c-4.66699 -22.667 -7.00195 -47.334 -7.00195 -74.001c0 -48 11.167 -84.5 33.5 -109.5s54.166 -37.5 95.499 -37.5c47.333 0 89.333 9.33301 126 28l-7 -47c-36 -15.333 -78 -23 -126 -23c-45.333 0 -81.666 12 -108.999 36s-44 58 -50 102
c-17.333 -44 -43.5 -78 -78.5 -102s-75.833 -36 -122.5 -36c-42 0 -75.167 11.167 -99.5 33.5s-36.5 53.5 -36.5 93.5c0 58 21.167 105.167 63.5 141.5s99.833 54.5 172.5 54.5c24.667 0 60 -3.66699 106 -11c4 22 6 42 6 60c0 78 -40.333 117 -121 117
c-48 0 -95.667 -12 -143 -36l7 47c42.667 20.667 90 31 142 31c96 0 146.667 -44.667 152 -134c24 42.667 54 75.834 90 99.501s75 35.5 117 35.5c40.667 0 72.334 -10.667 95.001 -32s34 -51.333 34 -90c0 -53.333 -17 -94.333 -51 -123s-82 -43 -144 -43
c-43.333 0 -91.666 6.33301 -144.999 19zM414.998 291c51.333 -11.333 96 -17 134 -17c98 0 147 40.333 147 121c0 55.333 -27.333 83 -82 83c-43.333 0 -83.333 -17.333 -120 -52c-36.667 -33.333 -63 -78.333 -79 -135zM347.998 198l6.99902 40.001l4 21
c-39.333 6 -72 9 -98 9c-57.333 0 -102.666 -13.833 -135.999 -41.5s-50 -63.834 -50 -108.501c0 -28 8.16699 -49.667 24.5 -65s39.5 -23 69.5 -23c44.667 0 83.5 15.5 116.5 46.5s53.833 71.5 62.5 121.5z" />
    <glyph glyph-name="ccedilla" unicode="&#xe7;" horiz-adv-x="432" 
d="M96 182c0 -47.333 11.3301 -84.332 33.9971 -110.999s56.334 -40 101.001 -40c48 0 91.333 10.333 130 31l-8 -47c-35.333 -16 -74.666 -24.333 -117.999 -25l-21 -40c40 -7.33301 60 -27.666 60 -60.999c0 -28.667 -9 -51.334 -27 -68.001s-42.333 -25 -73 -25
c-25.333 0 -49.333 6.66699 -72 20l17 32c14.667 -10.667 33.334 -16 56.001 -16c16.667 0 30.5 4.66699 41.5 14s16.5 21.666 16.5 36.999c0 32 -22.333 46.333 -67 43l33 65c-50 5.33301 -88 24.5 -114 57.5s-39 76.833 -39 131.5
c-0.666992 59.333 9.83301 114.833 31.5 166.5s53.5 93.5 95.5 125.5s89 47.333 141 46c41.333 0 75.666 -7.66699 102.999 -23l-7 -43c-21.333 16 -52 24 -92 24c-66 1.33301 -119.667 -27.5 -161 -86.5s-61.666 -128.167 -60.999 -207.5z" />
    <glyph glyph-name="egrave" unicode="&#xe8;" horiz-adv-x="467" 
d="M95 188c-1.33301 -50 9.66699 -88.833 33 -116.5s58.333 -41.5 105 -41.5c45.333 0 87.666 10.333 126.999 31l-7 -47c-33.333 -17.333 -76.666 -26 -129.999 -26c-56.667 0 -100.334 17 -131.001 51s-46 81.667 -46 143c-1.33301 91.333 23.5 171 74.5 239
s115.167 101 192.5 99c40.667 0 72.334 -10.333 95.001 -31s34 -50.667 34 -90c0 -70 -29.833 -123.333 -89.5 -160s-145.5 -53.667 -257.5 -51zM98 226c94.667 -0.666992 167.332 13.667 217.999 43s76 71.666 76 126.999c0 27.333 -7.16699 47.833 -21.5 61.5
s-34.166 20.5 -59.499 20.5c-55.333 0 -103.333 -24.667 -144 -74s-63.667 -108.666 -69 -177.999zM302.998 582.001l-61 132h57l43 -132h-39z" />
    <glyph glyph-name="eacute" unicode="&#xe9;" horiz-adv-x="467" 
d="M95 188c-1.33301 -50 9.66699 -88.833 33 -116.5s58.333 -41.5 105 -41.5c45.333 0 87.666 10.333 126.999 31l-7 -47c-33.333 -17.333 -76.666 -26 -129.999 -26c-56.667 0 -100.334 17 -131.001 51s-46 81.667 -46 143c-1.33301 91.333 23.5 171 74.5 239
s115.167 101 192.5 99c40.667 0 72.334 -10.333 95.001 -31s34 -50.667 34 -90c0 -70 -29.833 -123.333 -89.5 -160s-145.5 -53.667 -257.5 -51zM98 226c94.667 -0.666992 167.332 13.667 217.999 43s76 71.666 76 126.999c0 27.333 -7.16699 47.833 -21.5 61.5
s-34.166 20.5 -59.499 20.5c-55.333 0 -103.333 -24.667 -144 -74s-63.667 -108.666 -69 -177.999zM292.998 582.001l91 132h57l-109 -132h-39z" />
    <glyph glyph-name="ecircumflex" unicode="&#xea;" horiz-adv-x="467" 
d="M95 188c-1.33301 -50 9.66699 -88.833 33 -116.5s58.333 -41.5 105 -41.5c45.333 0 87.666 10.333 126.999 31l-7 -47c-33.333 -17.333 -76.666 -26 -129.999 -26c-56.667 0 -100.334 17 -131.001 51s-46 81.667 -46 143c-1.33301 91.333 23.5 171 74.5 239
s115.167 101 192.5 99c40.667 0 72.334 -10.333 95.001 -31s34 -50.667 34 -90c0 -70 -29.833 -123.333 -89.5 -160s-145.5 -53.667 -257.5 -51zM98 226c94.667 -0.666992 167.332 13.667 217.999 43s76 71.666 76 126.999c0 27.333 -7.16699 47.833 -21.5 61.5
s-34.166 20.5 -59.499 20.5c-55.333 0 -103.333 -24.667 -144 -74s-63.667 -108.666 -69 -177.999zM205.998 582.001l108 132h59l60 -132h-38l-55 97l-91 -97h-43z" />
    <glyph glyph-name="edieresis" unicode="&#xeb;" horiz-adv-x="467" 
d="M95 188c-1.33301 -50 9.66699 -88.833 33 -116.5s58.333 -41.5 105 -41.5c45.333 0 87.666 10.333 126.999 31l-7 -47c-33.333 -17.333 -76.666 -26 -129.999 -26c-56.667 0 -100.334 17 -131.001 51s-46 81.667 -46 143c-1.33301 91.333 23.5 171 74.5 239
s115.167 101 192.5 99c40.667 0 72.334 -10.333 95.001 -31s34 -50.667 34 -90c0 -70 -29.833 -123.333 -89.5 -160s-145.5 -53.667 -257.5 -51zM98 226c94.667 -0.666992 167.332 13.667 217.999 43s76 71.666 76 126.999c0 27.333 -7.16699 47.833 -21.5 61.5
s-34.166 20.5 -59.499 20.5c-55.333 0 -103.333 -24.667 -144 -74s-63.667 -108.666 -69 -177.999zM206.998 633.001c0.666992 10.667 5.16797 19.667 13.501 27s18.166 11 29.499 11c8.66699 0 15.834 -2.66699 21.501 -8s8.5 -12.333 8.5 -21
c0 -11.333 -4.33301 -21.333 -13 -30s-18.667 -13 -30 -13c-10 0 -17.833 3.33301 -23.5 10s-7.83398 14.667 -6.50098 24zM361.999 633.001c0.666992 10.667 5.33691 19.667 14.0039 27s18.667 11 30 11c9.33301 0 16.666 -3.16699 21.999 -9.5
s7.66602 -14.5 6.99902 -24.5c-1.33301 -10.667 -6 -19.667 -14 -27s-17.333 -11 -28 -11s-18.834 3.33301 -24.501 10s-7.83398 14.667 -6.50098 24z" />
    <glyph glyph-name="igrave" unicode="&#xec;" horiz-adv-x="243" 
d="M53 0l89 506h48l-89 -506h-48zM162 582l-47 132h56l27 -132h-36z" />
    <glyph glyph-name="iacute" unicode="&#xed;" horiz-adv-x="243" 
d="M53 0l89 506h48l-89 -506h-48zM153 582l76 132h56l-96 -132h-36z" />
    <glyph glyph-name="icircumflex" unicode="&#xee;" horiz-adv-x="243" 
d="M53 0l89 506h48l-89 -506h-48zM77 582l98 132h56l49 -132h-38l-43 98l-79 -98h-43z" />
    <glyph glyph-name="idieresis" unicode="&#xef;" horiz-adv-x="243" 
d="M53 0l89 506h48l-89 -506h-48zM82 635c1.33301 10.667 6.00098 19.334 14.001 26.001s17.333 10 28 10c10 0 17.667 -3.33301 23 -10s7.33301 -15.334 6 -26.001c-2 -10.667 -6.83301 -19.334 -14.5 -26.001s-16.5 -10 -26.5 -10c-10.667 0 -18.834 3.33301 -24.501 10
s-7.5 15.334 -5.5 26.001zM223.001 635c1.33301 10.667 6.00098 19.334 14.001 26.001s17.333 10 28 10c10 0 17.667 -3.33301 23 -10s7.33301 -15.334 6 -26.001c-2 -10.667 -6.83301 -19.334 -14.5 -26.001s-16.5 -10 -26.5 -10c-10.667 0 -18.834 3.33301 -24.501 10
s-7.5 15.334 -5.5 26.001z" />
    <glyph glyph-name="eth" unicode="&#xf0;" horiz-adv-x="514" 
d="M43 170c-1.33301 81.333 21.502 152.833 68.502 214.5s105.167 91.834 174.5 90.501c40 0 72.333 -10 97 -30s41.667 -46.667 51 -80c1.33301 61.333 -5.33398 112.333 -20.001 153s-39.334 73.667 -74.001 99l-125 -84l-18 27l113 76
c-30.667 17.333 -66.667 30.333 -108 39l36 32c42.667 -11.333 78.667 -26.333 108 -45l74 50l18 -28l-63 -43c66 -52 99 -133.333 99 -244c0 -2.66699 -0.666992 -19.334 -2 -50.001c-6 -106 -31.667 -192.667 -77 -260s-106 -101 -182 -101
c-55.333 0 -97.5 16.667 -126.5 50s-43.5 78 -43.5 134zM416.002 296c0 39.333 -12.1641 72.001 -36.4971 98.001s-56.833 39 -97.5 39c-54.667 1.33301 -100.334 -24.834 -137.001 -78.501s-54.334 -114.5 -53.001 -182.5c0 -44.667 10.5 -79.834 31.5 -105.501
s51.167 -38.5 90.5 -38.5c37.333 -1.33301 72.166 12.5 104.499 41.5s56.833 64.333 73.5 106s24.667 81.834 24 120.501z" />
    <glyph glyph-name="ntilde" unicode="&#xf1;" horiz-adv-x="550" 
d="M480 395c0 -18 -2 -37.333 -6 -58l-59 -337h-48l57 327c4 24 6 45.333 6 64c0 29.333 -6.33301 50.666 -19 63.999s-33 20 -61 20c-42 1.33301 -84.167 -21.167 -126.5 -67.5s-68.166 -97.166 -77.499 -152.499l-45 -255h-48l89 506h42l-17 -121
c22 36.667 50.667 67.667 86 93c35.333 26 71.666 39 108.999 39c78.667 0 118 -40.667 118 -122zM349 619c-18.667 10.667 -34.0039 16 -46.0039 16c-21.333 0 -36 -12 -44 -36l-38 5c2.66699 22 11.334 39.167 26.001 51.5s33.334 18.5 56.001 18.5
c18.667 0 40.334 -6.66699 65.001 -20c20.667 -10.667 36.667 -16 48 -16c20 0 34.667 12 44 36l38 -5c-5.33301 -47.333 -32.666 -71 -81.999 -71c-18 0 -40.333 7 -67 21z" />
    <glyph glyph-name="ograve" unicode="&#xf2;" horiz-adv-x="517" 
d="M46 180c0 98.667 24.668 180 74.001 244s111.666 96 186.999 96c52 0 92 -17.167 120 -51.5s42 -82.5 42 -144.5c0 -98 -24.667 -178.833 -74 -242.5s-112 -95.5 -188 -95.5c-51.333 0 -91 16.833 -119 50.5s-42 81.5 -42 143.5zM419.001 324
c0 102.667 -38 153.999 -114 153.999c-58.667 1.33301 -108.5 -27 -149.5 -85s-60.833 -128.667 -59.5 -212c0 -49.333 9.83301 -87.166 29.5 -113.499s48.167 -39.5 85.5 -39.5c59.333 0 108.833 28.167 148.5 84.5s59.5 126.833 59.5 211.5zM302.001 581.999l-61 132h57
l43 -132h-39z" />
    <glyph glyph-name="oacute" unicode="&#xf3;" horiz-adv-x="517" 
d="M46 180c0 98.667 24.668 180 74.001 244s111.666 96 186.999 96c52 0 92 -17.167 120 -51.5s42 -82.5 42 -144.5c0 -98 -24.667 -178.833 -74 -242.5s-112 -95.5 -188 -95.5c-51.333 0 -91 16.833 -119 50.5s-42 81.5 -42 143.5zM419.001 324
c0 102.667 -38 153.999 -114 153.999c-58.667 1.33301 -108.5 -27 -149.5 -85s-60.833 -128.667 -59.5 -212c0 -49.333 9.83301 -87.166 29.5 -113.499s48.167 -39.5 85.5 -39.5c59.333 0 108.833 28.167 148.5 84.5s59.5 126.833 59.5 211.5zM291.001 581.999l91 132h57
l-109 -132h-39z" />
    <glyph glyph-name="ocircumflex" unicode="&#xf4;" horiz-adv-x="517" 
d="M46 180c0 98.667 24.668 180 74.001 244s111.666 96 186.999 96c52 0 92 -17.167 120 -51.5s42 -82.5 42 -144.5c0 -98 -24.667 -178.833 -74 -242.5s-112 -95.5 -188 -95.5c-51.333 0 -91 16.833 -119 50.5s-42 81.5 -42 143.5zM419.001 324
c0 102.667 -38 153.999 -114 153.999c-58.667 1.33301 -108.5 -27 -149.5 -85s-60.833 -128.667 -59.5 -212c0 -49.333 9.83301 -87.166 29.5 -113.499s48.167 -39.5 85.5 -39.5c59.333 0 108.833 28.167 148.5 84.5s59.5 126.833 59.5 211.5zM205.001 581.999l108 132h59
l60 -132h-38l-55 97l-91 -97h-43z" />
    <glyph glyph-name="otilde" unicode="&#xf5;" horiz-adv-x="517" 
d="M46 180c0 98.667 24.668 180 74.001 244s111.666 96 186.999 96c52 0 92 -17.167 120 -51.5s42 -82.5 42 -144.5c0 -98 -24.667 -178.833 -74 -242.5s-112 -95.5 -188 -95.5c-51.333 0 -91 16.833 -119 50.5s-42 81.5 -42 143.5zM419.001 324
c0 102.667 -38 153.999 -114 153.999c-58.667 1.33301 -108.5 -27 -149.5 -85s-60.833 -128.667 -59.5 -212c0 -49.333 9.83301 -87.166 29.5 -113.499s48.167 -39.5 85.5 -39.5c59.333 0 108.833 28.167 148.5 84.5s59.5 126.833 59.5 211.5zM319.001 618.999
c-18.667 10.667 -34.0039 16 -46.0039 16c-21.333 0 -36 -12 -44 -36l-38 5c2.66699 22 11.334 39.167 26.001 51.5s33.334 18.5 56.001 18.5c18.667 0 40.334 -6.66699 65.001 -20c20.667 -10.667 36.667 -16 48 -16c20 0 34.667 12 44 36l38 -5
c-5.33301 -47.333 -32.666 -71 -81.999 -71c-18 0 -40.333 7 -67 21z" />
    <glyph glyph-name="odieresis" unicode="&#xf6;" horiz-adv-x="517" 
d="M46 180c0 98.667 24.668 180 74.001 244s111.666 96 186.999 96c52 0 92 -17.167 120 -51.5s42 -82.5 42 -144.5c0 -98 -24.667 -178.833 -74 -242.5s-112 -95.5 -188 -95.5c-51.333 0 -91 16.833 -119 50.5s-42 81.5 -42 143.5zM419.001 324
c0 102.667 -38 153.999 -114 153.999c-58.667 1.33301 -108.5 -27 -149.5 -85s-60.833 -128.667 -59.5 -212c0 -49.333 9.83301 -87.166 29.5 -113.499s48.167 -39.5 85.5 -39.5c59.333 0 108.833 28.167 148.5 84.5s59.5 126.833 59.5 211.5zM205.001 632.999
c0.666992 10.667 5.16797 19.667 13.501 27s18.166 11 29.499 11c8.66699 0 15.834 -2.66699 21.501 -8s8.5 -12.333 8.5 -21c0 -11.333 -4.33301 -21.333 -13 -30s-18.667 -13 -30 -13c-10 0 -17.833 3.33301 -23.5 10s-7.83398 14.667 -6.50098 24zM360.002 632.999
c0.666992 10.667 5.33691 19.667 14.0039 27s18.667 11 30 11c9.33301 0 16.666 -3.16699 21.999 -9.5s7.66602 -14.5 6.99902 -24.5c-1.33301 -10.667 -6 -19.667 -14 -27s-17.333 -11 -28 -11s-18.834 3.33301 -24.501 10s-7.83398 14.667 -6.50098 24z" />
    <glyph glyph-name="divide" unicode="&#xf7;" horiz-adv-x="425" 
d="M207 445c0 12.667 4.83203 23.834 14.499 33.501s20.834 14.5 33.501 14.5c10 0 18 -3.16699 24 -9.5s9 -14.166 9 -23.499c0 -12.667 -4.66699 -23.834 -14 -33.501s-20.333 -14.5 -33 -14.5c-10 0 -18.167 3.16699 -24.5 9.5s-9.5 14.166 -9.5 23.499zM35.999 286l8 46
h364l-8 -46h-364zM155.999 158c0 13.333 4.83301 24.668 14.5 34.001s20.834 14 33.501 14c10 0 18.167 -3.16699 24.5 -9.5s9.5 -14.166 9.5 -23.499c0 -12.667 -4.83301 -23.834 -14.5 -33.501s-20.834 -14.5 -33.501 -14.5c-10 0 -18.167 3.16699 -24.5 9.5
s-9.5 14.166 -9.5 23.499z" />
    <glyph glyph-name="oslash" unicode="&#xf8;" horiz-adv-x="517" 
d="M495 520l-56.999 -67.999c20.667 -30.667 31 -73.334 31 -128.001c0 -98 -24.667 -178.833 -74 -242.5s-112 -95.5 -188 -95.5c-47.333 0 -85 15 -113 45l-37 -45h-47l61 75c-16.667 31.333 -25 71 -25 119c0 98.667 24.667 180 74 244s111.666 96 186.999 96
c46 0 82 -13.667 108 -41l33 41h47zM96.001 181.001c0 -30 4 -56 12 -78l277 342c-20 22 -46.667 33 -80 33c-58.667 1.33301 -108.5 -27 -149.5 -85s-60.833 -128.667 -59.5 -212zM419.001 324.001c0 33.333 -4.66797 62.333 -14.001 87l-280 -343
c18.667 -26.667 47.334 -40 86.001 -40c59.333 0 108.833 28.167 148.5 84.5s59.5 126.833 59.5 211.5z" />
    <glyph glyph-name="ugrave" unicode="&#xf9;" horiz-adv-x="547" 
d="M69 108c0 17.333 2.00098 36.333 6.00098 57l60 341h48l-58 -331c-4 -24 -6 -44.667 -6 -62c0 -57.333 24.333 -86 73 -86c44.667 -1.33301 88.5 21.5 131.5 68.5s68.833 98.5 77.5 154.5l45 256h48l-89 -506h-42l17 116c-25.333 -39.333 -55.333 -70.833 -90 -94.5
s-71.334 -35.5 -110.001 -35.5c-74 0 -111 40.667 -111 122zM307.001 582l-61 132h57l43 -132h-39z" />
    <glyph glyph-name="uacute" unicode="&#xfa;" horiz-adv-x="547" 
d="M69 108c0 17.333 2.00098 36.333 6.00098 57l60 341h48l-58 -331c-4 -24 -6 -44.667 -6 -62c0 -57.333 24.333 -86 73 -86c44.667 -1.33301 88.5 21.5 131.5 68.5s68.833 98.5 77.5 154.5l45 256h48l-89 -506h-42l17 116c-25.333 -39.333 -55.333 -70.833 -90 -94.5
s-71.334 -35.5 -110.001 -35.5c-74 0 -111 40.667 -111 122zM296.001 582l91 132h57l-109 -132h-39z" />
    <glyph glyph-name="ucircumflex" unicode="&#xfb;" horiz-adv-x="547" 
d="M69 108c0 17.333 2.00098 36.333 6.00098 57l60 341h48l-58 -331c-4 -24 -6 -44.667 -6 -62c0 -57.333 24.333 -86 73 -86c44.667 -1.33301 88.5 21.5 131.5 68.5s68.833 98.5 77.5 154.5l45 256h48l-89 -506h-42l17 116c-25.333 -39.333 -55.333 -70.833 -90 -94.5
s-71.334 -35.5 -110.001 -35.5c-74 0 -111 40.667 -111 122zM210.001 582l108 132h59l60 -132h-38l-55 97l-91 -97h-43z" />
    <glyph glyph-name="udieresis" unicode="&#xfc;" horiz-adv-x="547" 
d="M69 108c0 17.333 2.00098 36.333 6.00098 57l60 341h48l-58 -331c-4 -24 -6 -44.667 -6 -62c0 -57.333 24.333 -86 73 -86c44.667 -1.33301 88.5 21.5 131.5 68.5s68.833 98.5 77.5 154.5l45 256h48l-89 -506h-42l17 116c-25.333 -39.333 -55.333 -70.833 -90 -94.5
s-71.334 -35.5 -110.001 -35.5c-74 0 -111 40.667 -111 122zM210.001 633c0.666992 10.667 5.16797 19.667 13.501 27s18.166 11 29.499 11c8.66699 0 15.834 -2.66699 21.501 -8s8.5 -12.333 8.5 -21c0 -11.333 -4.33301 -21.333 -13 -30s-18.667 -13 -30 -13
c-10 0 -17.833 3.33301 -23.5 10s-7.83398 14.667 -6.50098 24zM365.002 633c0.666992 10.667 5.33691 19.667 14.0039 27s18.667 11 30 11c9.33301 0 16.666 -3.16699 21.999 -9.5s7.66602 -14.5 6.99902 -24.5c-1.33301 -10.667 -6 -19.667 -14 -27s-17.333 -11 -28 -11
s-18.834 3.33301 -24.501 10s-7.83398 14.667 -6.50098 24z" />
    <glyph glyph-name="yacute" unicode="&#xfd;" horiz-adv-x="465" 
d="M445 506l51.998 0.00195312l-281 -510c-31.333 -57.333 -57.666 -101 -78.999 -131c-40.667 -58 -98.667 -88.333 -174 -91l7 41c32.667 0 59.667 7.33301 81 22c22.667 15.333 41.667 34.666 57 57.999c17.333 25.333 39.333 62.666 66 111.999l-116 499h49l73 -319
l27 -122c20.667 41.333 43.334 84 68.001 128zM261.998 582.002l91 132h57l-109 -132h-39z" />
    <glyph glyph-name="thorn" unicode="&#xfe;" horiz-adv-x="527" 
d="M485 355c1.33301 -100.667 -24.832 -187.167 -78.499 -259.5s-117.834 -107.5 -192.501 -105.5c-42.667 0 -80 6.66699 -112 20l-39 -222h-48l167 948h48l-60 -345c25.333 40 55 71 89 93s69.333 33 106 33c80 0 120 -54 120 -162zM435.002 350c0 84 -27.667 126 -83 126
c-42 1.33301 -84.667 -20.5 -128 -65.5s-69 -94.167 -77 -147.5l-37 -212c28.667 -12.667 61.667 -19 99 -19c62 0 115.167 31 159.5 93s66.5 137 66.5 225z" />
    <glyph glyph-name="ydieresis" unicode="&#xff;" horiz-adv-x="465" 
d="M445 506l51.998 0.00195312l-281 -510c-31.333 -57.333 -57.666 -101 -78.999 -131c-40.667 -58 -98.667 -88.333 -174 -91l7 41c32.667 0 59.667 7.33301 81 22c22.667 15.333 41.667 34.666 57 57.999c17.333 25.333 39.333 62.666 66 111.999l-116 499h49l73 -319
l27 -122c20.667 41.333 43.334 84 68.001 128zM175.998 633.002c0.666992 10.667 5.16797 19.667 13.501 27s18.166 11 29.499 11c8.66699 0 15.834 -2.66699 21.501 -8s8.5 -12.333 8.5 -21c0 -11.333 -4.33301 -21.333 -13 -30s-18.667 -13 -30 -13
c-10 0 -17.833 3.33301 -23.5 10s-7.83398 14.667 -6.50098 24zM330.999 633.002c0.666992 10.667 5.33691 19.667 14.0039 27s18.667 11 30 11c9.33301 0 16.666 -3.16699 21.999 -9.5s7.66602 -14.5 6.99902 -24.5c-1.33301 -10.667 -6 -19.667 -14 -27
s-17.333 -11 -28 -11s-18.834 3.33301 -24.501 10s-7.83398 14.667 -6.50098 24z" />
    <glyph glyph-name="Amacron" unicode="&#x100;" horiz-adv-x="604" 
d="M503 0l-42 188h-338l-109 -188h-52l412 706h13l166 -706h-50zM366 608l-12 -21c-26.667 -47.333 -42 -74.333 -46 -81l-160 -275h304l-65 276c-4 16 -10.667 49.667 -20 101h-1zM282 794l7 39h229l-7 -39h-229z" />
    <glyph glyph-name="amacron" unicode="&#x101;" horiz-adv-x="531" 
d="M44 158c-1.33301 100 26.168 185.667 82.501 257s124.166 106.333 203.499 105c42.667 0 91.667 -8 147 -24l-88 -496h-42l16 114h-1c-53.333 -82 -121 -123 -203 -123c-76.667 0 -115 55.667 -115 167zM384.001 245l39 220.001c-34 8.66699 -65.333 13 -94 13
c-66 0 -121.667 -30.833 -167 -92.5s-68 -137.167 -68 -226.5c0 -43.333 6.5 -75.333 19.5 -96s33.5 -31 61.5 -31c44 0 87.333 21.667 130 65s69 92.666 79 147.999zM237.001 600.001l7 39h229l-7 -39h-229z" />
    <glyph glyph-name="Abreve" unicode="&#x102;" horiz-adv-x="604" 
d="M503 0l-42 188h-338l-109 -188h-52l412 706h13l166 -706h-50zM366 608l-12 -21c-26.667 -47.333 -42 -74.333 -46 -81l-160 -275h304l-65 276c-4 16 -10.667 49.667 -20 101h-1zM297 867c0 9.33301 0.667969 18.667 2.00098 28h42c-0.666992 -4 -1 -12.333 -1 -25
c0 -40.667 18.333 -61 55 -61c44.667 0 72.667 28.667 84 86h42c-18 -83.333 -61.667 -125 -131 -125c-28.667 0 -51.334 8.16699 -68.001 24.5s-25 40.5 -25 72.5z" />
    <glyph glyph-name="abreve" unicode="&#x103;" horiz-adv-x="531" 
d="M44 158c-1.33301 100 26.168 185.667 82.501 257s124.166 106.333 203.499 105c42.667 0 91.667 -8 147 -24l-88 -496h-42l16 114h-1c-53.333 -82 -121 -123 -203 -123c-76.667 0 -115 55.667 -115 167zM384.001 245l39 220.001c-34 8.66699 -65.333 13 -94 13
c-66 0 -121.667 -30.833 -167 -92.5s-68 -137.167 -68 -226.5c0 -43.333 6.5 -75.333 19.5 -96s33.5 -31 61.5 -31c44 0 87.333 21.667 130 65s69 92.666 79 147.999zM256.001 686.001c0 9.33301 0.666992 18.667 2 28h41c-0.666992 -4 -1 -12.333 -1 -25
c0 -40.667 18.667 -61 56 -61c42.667 0 70.667 28.667 84 86h42c-18 -83.333 -62 -125 -132 -125c-28.667 0 -51.167 8.16699 -67.5 24.5s-24.5 40.5 -24.5 72.5z" />
    <glyph glyph-name="Aogonek" unicode="&#x104;" horiz-adv-x="608" 
d="M387 706l166.001 -706.001h-3c-57.333 -54 -88.333 -99 -93 -135c-0.666992 -1.33301 -1 -4.33301 -1 -9c0 -14.667 9 -22 27 -22c14.667 0 30 3 46 9l-6 -36c-16.667 -7.33301 -33.334 -11 -50.001 -11c-18 0 -32.167 4.5 -42.5 13.5s-15.5 21.833 -15.5 38.5
c0 0.666992 0.666992 6.33398 2 17.001c7.33301 38 37 83 89 135h-3l-42 188h-338l-109 -188h-52l412 706h13zM366.001 607.999l-12 -21c-26.667 -47.333 -42 -74.333 -46 -81l-160 -275h304l-65 276c-4 16 -10.667 49.667 -20 101h-1z" />
    <glyph glyph-name="aogonek" unicode="&#x105;" horiz-adv-x="531" 
d="M477 496l-87.999 -496c-63.333 -58.667 -95 -106 -95 -142c0 -15.333 9.66699 -23 29 -23c14 0 28.333 3 43 9l-6 -36c-16 -8 -33.667 -12 -53 -12c-18 0 -31.833 4.66699 -41.5 14s-14.5 22 -14.5 38c0 42 32 92.667 96 152l16 114h-1c-53.333 -82 -121 -123 -203 -123
c-76.667 0 -115 55.667 -115 167c-1.33301 100 26.167 185.667 82.5 257s124.166 106.333 203.499 105c42.667 0 91.667 -8 147 -24zM384.001 245l39 220.001c-34 8.66699 -65.333 13 -94 13c-66 0 -121.667 -30.833 -167 -92.5s-68 -137.167 -68 -226.5
c0 -43.333 6.5 -75.333 19.5 -96s33.5 -31 61.5 -31c44 0 87.333 21.667 130 65s69 92.666 79 147.999z" />
    <glyph glyph-name="Cacute" unicode="&#x106;" horiz-adv-x="513" 
d="M68 266c-2 128 31.667 234.331 101 318.998s155 126.334 257 125.001c42.667 0 80.667 -7 114 -21l-8 -45c-30 14.667 -65.667 22 -107 22c-87.333 1.33301 -160.333 -37.167 -219 -115.5s-87.334 -174.5 -86.001 -288.5c0 -77.333 15.833 -134.666 47.5 -171.999
s79.834 -56 144.501 -56c43.333 0 86.333 9.66699 129 29l-9 -49c-36.667 -16 -78 -24 -124 -24c-160 0 -240 92 -240 276zM385 770.998l90 129h61l-109 -129h-42z" />
    <glyph glyph-name="cacute" unicode="&#x107;" horiz-adv-x="432" 
d="M46 180c-0.666992 59.333 9.83301 114.833 31.5 166.5s53.5 93.5 95.5 125.5s89 47.333 141 46c41.333 0 75.666 -7.66699 102.999 -23l-7 -43c-21.333 16 -52 24 -92 24c-66 1.33301 -119.667 -27.5 -161 -86.5s-61.666 -128.167 -60.999 -207.5
c0 -47.333 11.333 -84.333 34 -111s56.334 -40 101.001 -40c48 0 91.333 10.333 130 31l-8 -47c-36 -16.667 -78.333 -25 -127 -25c-58.667 0 -103.334 16.667 -134.001 50s-46 80 -46 140zM281 582l91 132h57l-109 -132h-39z" />
    <glyph glyph-name="Ccircumflex" unicode="&#x108;" horiz-adv-x="513" 
d="M68 266c-2 128 31.667 234.331 101 318.998s155 126.334 257 125.001c42.667 0 80.667 -7 114 -21l-8 -45c-30 14.667 -65.667 22 -107 22c-87.333 1.33301 -160.333 -37.167 -219 -115.5s-87.334 -174.5 -86.001 -288.5c0 -77.333 15.833 -134.666 47.5 -171.999
s79.834 -56 144.501 -56c43.333 0 86.333 9.66699 129 29l-9 -49c-36.667 -16 -78 -24 -124 -24c-160 0 -240 92 -240 276zM291 770.998l112 129h57l66 -129h-41l-57 93l-92 -93h-45z" />
    <glyph glyph-name="ccircumflex" unicode="&#x109;" horiz-adv-x="432" 
d="M46 180c-0.666992 59.333 9.83301 114.833 31.5 166.5s53.5 93.5 95.5 125.5s89 47.333 141 46c41.333 0 75.666 -7.66699 102.999 -23l-7 -43c-21.333 16 -52 24 -92 24c-66 1.33301 -119.667 -27.5 -161 -86.5s-61.666 -128.167 -60.999 -207.5
c0 -47.333 11.333 -84.333 34 -111s56.334 -40 101.001 -40c48 0 91.333 10.333 130 31l-8 -47c-36 -16.667 -78.333 -25 -127 -25c-58.667 0 -103.334 16.667 -134.001 50s-46 80 -46 140zM195 582l108 132h59l60 -132h-38l-55 97l-91 -97h-43z" />
    <glyph glyph-name="Cdotaccent" unicode="&#x10a;" horiz-adv-x="513" 
d="M68 266c-2 128 31.667 234.331 101 318.998s155 126.334 257 125.001c42.667 0 80.667 -7 114 -21l-8 -45c-30 14.667 -65.667 22 -107 22c-87.333 1.33301 -160.333 -37.167 -219 -115.5s-87.334 -174.5 -86.001 -288.5c0 -77.333 15.833 -134.666 47.5 -171.999
s79.834 -56 144.501 -56c43.333 0 86.333 9.66699 129 29l-9 -49c-36.667 -16 -78 -24 -124 -24c-160 0 -240 92 -240 276zM381 823.998c0 15.333 4.66895 27.333 14.002 36s21.333 13 36 13c11.333 0 20.166 -3.83301 26.499 -11.5s8.5 -17.5 6.5 -29.5
c-2.66699 -12.667 -8.33398 -22.667 -17.001 -30s-19 -11 -31 -11c-10.667 0 -19.167 3 -25.5 9s-9.5 14 -9.5 24z" />
    <glyph glyph-name="cdotaccent" unicode="&#x10b;" horiz-adv-x="432" 
d="M46 180c-0.666992 59.333 9.83301 114.833 31.5 166.5s53.5 93.5 95.5 125.5s89 47.333 141 46c41.333 0 75.666 -7.66699 102.999 -23l-7 -43c-21.333 16 -52 24 -92 24c-66 1.33301 -119.667 -27.5 -161 -86.5s-61.666 -128.167 -60.999 -207.5
c0 -47.333 11.333 -84.333 34 -111s56.334 -40 101.001 -40c48 0 91.333 10.333 130 31l-8 -47c-36 -16.667 -78.333 -25 -127 -25c-58.667 0 -103.334 16.667 -134.001 50s-46 80 -46 140zM289 638c5.33301 25.333 21 38.001 47 38.001c11.333 0 20 -3.66699 26 -11
s8 -16.333 6 -27c-5.33301 -26 -21 -39 -47 -39c-11.333 0 -20 3.66699 -26 11s-8 16.666 -6 27.999z" />
    <glyph glyph-name="Ccaron" unicode="&#x10c;" horiz-adv-x="513" 
d="M68 266c-2 128 31.667 234.331 101 318.998s155 126.334 257 125.001c42.667 0 80.667 -7 114 -21l-8 -45c-30 14.667 -65.667 22 -107 22c-87.333 1.33301 -160.333 -37.167 -219 -115.5s-87.334 -174.5 -86.001 -288.5c0 -77.333 15.833 -134.666 47.5 -171.999
s79.834 -56 144.501 -56c43.333 0 86.333 9.66699 129 29l-9 -49c-36.667 -16 -78 -24 -124 -24c-160 0 -240 92 -240 276zM383 770.998l-66 129h42l58 -94l92 94h43l-112 -129h-57z" />
    <glyph glyph-name="ccaron" unicode="&#x10d;" horiz-adv-x="432" 
d="M46 180c-0.666992 59.333 9.83301 114.833 31.5 166.5s53.5 93.5 95.5 125.5s89 47.333 141 46c41.333 0 75.666 -7.66699 102.999 -23l-7 -43c-21.333 16 -52 24 -92 24c-66 1.33301 -119.667 -27.5 -161 -86.5s-61.666 -128.167 -60.999 -207.5
c0 -47.333 11.333 -84.333 34 -111s56.334 -40 101.001 -40c48 0 91.333 10.333 130 31l-8 -47c-36 -16.667 -78.333 -25 -127 -25c-58.667 0 -103.334 16.667 -134.001 50s-46 80 -46 140zM278 582l-60 132h40l55 -99l92 99h41l-109 -132h-59z" />
    <glyph glyph-name="Dcaron" unicode="&#x10e;" horiz-adv-x="624" 
d="M57 0l123.002 700h152c89.333 0 154.833 -21.833 196.5 -65.5s62.5 -110.167 62.5 -199.5c1.33301 -126 -32.834 -230.5 -102.501 -313.5s-160.834 -123.5 -273.501 -121.5h-158zM114.002 43h101.999c99.333 -1.33301 178.333 35.834 237 111.501
s87.334 170.167 86.001 283.5c0 75.333 -16 130.666 -48 165.999s-84.333 53 -157 53h-111zM319.001 771l-66 129h42l58 -94l92 94h43l-112 -129h-57z" />
    <glyph glyph-name="dcaron" unicode="&#x10f;" horiz-adv-x="544" 
d="M429 508l40.001 228.001h48l-130 -736h-41l17 117h-2c-25.333 -38.667 -55.333 -69.334 -90 -92.001s-71.667 -34 -111 -34c-78 0 -117 54.667 -117 164c-1.33301 101.333 26.167 188 82.5 260s124.166 107 203.499 105c34.667 0 68 -4 100 -12zM616.001 736.001h43
l-57 -166h-37zM382.001 242.001l39 223.001c-34 8.66699 -64.667 13 -92 13c-66.667 0 -122.667 -31 -168 -93s-68 -138.333 -68 -229c0 -42.667 6.5 -74 19.5 -94s33.5 -30 61.5 -30c44.667 -2 88.5 19.667 131.5 65s68.5 93.666 76.5 144.999z" />
    <glyph glyph-name="Dcroat" unicode="&#x110;" horiz-adv-x="628" 
d="M595 435c1.33301 -126 -32.832 -230.5 -102.499 -313.5s-160.834 -123.5 -273.501 -121.5h-158l60 339h-77l5 35h78l57 326h152c89.333 0 154.833 -21.833 196.5 -65.5s62.5 -110.167 62.5 -199.5zM543.002 438c0 75.333 -16.001 130.666 -48.001 165.999
s-84.333 53 -157 53h-111l-50 -283h171l-6 -35h-171l-53 -296h102c99.333 -1.33301 178.333 35.834 237 111.501s87.334 170.167 86.001 283.5z" />
    <glyph glyph-name="dslash" unicode="&#x111;" horiz-adv-x="528" 
d="M579 643l-6.99902 -37.999h-78l-107 -605h-41l17 117h-2c-25.333 -38.667 -55.333 -69.334 -90 -92.001s-71.667 -34 -111 -34c-78 0 -117 54.667 -117 164c-1.33301 101.333 26.167 188 82.5 260s124.166 107 203.499 105c34.667 0 68 -4 100 -12l17 97h-160l7 38h160
l16 93h48l-16 -93h78zM382.001 242.001l39 223.001c-34 8.66699 -64.667 13 -92 13c-66.667 0 -122.667 -31 -168 -93s-68 -138.333 -68 -229c0 -42.667 6.5 -74 19.5 -94s33.5 -30 61.5 -30c44.667 -2 88.5 19.667 131.5 65s68.5 93.666 76.5 144.999z" />
    <glyph glyph-name="Emacron" unicode="&#x112;" horiz-adv-x="508" 
d="M521 656h-298l-47 -265h277l-8 -45h-277l-53 -302h309l-8 -44h-359l123 700h349zM253 794l7 39h229l-7 -39h-229z" />
    <glyph glyph-name="emacron" unicode="&#x113;" horiz-adv-x="467" 
d="M95 188c-1.33301 -50 9.66699 -88.833 33 -116.5s58.333 -41.5 105 -41.5c45.333 0 87.666 10.333 126.999 31l-7 -47c-33.333 -17.333 -76.666 -26 -129.999 -26c-56.667 0 -100.334 17 -131.001 51s-46 81.667 -46 143c-1.33301 91.333 23.5 171 74.5 239
s115.167 101 192.5 99c40.667 0 72.334 -10.333 95.001 -31s34 -50.667 34 -90c0 -70 -29.833 -123.333 -89.5 -160s-145.5 -53.667 -257.5 -51zM98 226c94.667 -0.666992 167.332 13.667 217.999 43s76 71.666 76 126.999c0 27.333 -7.16699 47.833 -21.5 61.5
s-34.166 20.5 -59.499 20.5c-55.333 0 -103.333 -24.667 -144 -74s-63.667 -108.666 -69 -177.999zM207.998 600.001l7 39h229l-7 -39h-229z" />
    <glyph glyph-name="Ebreve" unicode="&#x114;" horiz-adv-x="508" 
d="M521 656h-298l-47 -265h277l-8 -45h-277l-53 -302h309l-8 -44h-359l123 700h349zM268 867c0 9.33301 0.667969 18.667 2.00098 28h42c-0.666992 -4 -1 -12.333 -1 -25c0 -40.667 18.333 -61 55 -61c44.667 0 72.667 28.667 84 86h42c-18 -83.333 -61.667 -125 -131 -125
c-28.667 0 -51.334 8.16699 -68.001 24.5s-25 40.5 -25 72.5z" />
    <glyph glyph-name="ebreve" unicode="&#x115;" horiz-adv-x="467" 
d="M95 188c-1.33301 -50 9.66699 -88.833 33 -116.5s58.333 -41.5 105 -41.5c45.333 0 87.666 10.333 126.999 31l-7 -47c-33.333 -17.333 -76.666 -26 -129.999 -26c-56.667 0 -100.334 17 -131.001 51s-46 81.667 -46 143c-1.33301 91.333 23.5 171 74.5 239
s115.167 101 192.5 99c40.667 0 72.334 -10.333 95.001 -31s34 -50.667 34 -90c0 -70 -29.833 -123.333 -89.5 -160s-145.5 -53.667 -257.5 -51zM98 226c94.667 -0.666992 167.332 13.667 217.999 43s76 71.666 76 126.999c0 27.333 -7.16699 47.833 -21.5 61.5
s-34.166 20.5 -59.499 20.5c-55.333 0 -103.333 -24.667 -144 -74s-63.667 -108.666 -69 -177.999zM226.998 686.001c0 9.33301 0.666992 18.667 2 28h41c-0.666992 -4 -1 -12.333 -1 -25c0 -40.667 18.667 -61 56 -61c42.667 0 70.667 28.667 84 86h42
c-18 -83.333 -62 -125 -132 -125c-28.667 0 -51.167 8.16699 -67.5 24.5s-24.5 40.5 -24.5 72.5z" />
    <glyph glyph-name="Edotaccent" unicode="&#x116;" horiz-adv-x="508" 
d="M521 656h-298l-47 -265h277l-8 -45h-277l-53 -302h309l-8 -44h-359l123 700h349zM334 824c0 15.333 4.66895 27.333 14.002 36s21.333 13 36 13c11.333 0 20.166 -3.83301 26.499 -11.5s8.5 -17.5 6.5 -29.5c-2.66699 -12.667 -8.33398 -22.667 -17.001 -30
s-19 -11 -31 -11c-10.667 0 -19.167 3 -25.5 9s-9.5 14 -9.5 24z" />
    <glyph glyph-name="edotaccent" unicode="&#x117;" horiz-adv-x="467" 
d="M95 188c-1.33301 -50 9.66699 -88.833 33 -116.5s58.333 -41.5 105 -41.5c45.333 0 87.666 10.333 126.999 31l-7 -47c-33.333 -17.333 -76.666 -26 -129.999 -26c-56.667 0 -100.334 17 -131.001 51s-46 81.667 -46 143c-1.33301 91.333 23.5 171 74.5 239
s115.167 101 192.5 99c40.667 0 72.334 -10.333 95.001 -31s34 -50.667 34 -90c0 -70 -29.833 -123.333 -89.5 -160s-145.5 -53.667 -257.5 -51zM98 226c94.667 -0.666992 167.332 13.667 217.999 43s76 71.666 76 126.999c0 27.333 -7.16699 47.833 -21.5 61.5
s-34.166 20.5 -59.499 20.5c-55.333 0 -103.333 -24.667 -144 -74s-63.667 -108.666 -69 -177.999zM290.998 638.001c5.33301 25.333 21 38.001 47 38.001c11.333 0 20 -3.66699 26 -11s8 -16.333 6 -27c-5.33301 -26 -21 -39 -47 -39c-11.333 0 -20 3.66699 -26 11
s-8 16.666 -6 27.999z" />
    <glyph glyph-name="Eogonek" unicode="&#x118;" horiz-adv-x="508" 
d="M521 656h-299.001l-46 -265h277l-8 -45h-277l-53 -302h309l-8 -44c-67.333 -57.333 -101 -104.666 -101 -141.999c0 -16 9 -24 27 -24c14.667 0 28.334 3 41.001 9l-6 -36c-16 -6.66699 -33 -10 -51 -10c-34.667 0 -52 16.333 -52 49c0 47.333 33.333 98.666 100 153.999
h-317l123 700h349z" />
    <glyph glyph-name="eogonek" unicode="&#x119;" horiz-adv-x="467" 
d="M95 188c-1.33301 -49.333 9.66797 -88.001 33.001 -116.001s58.333 -42 105 -42c45.333 0 87.666 10.333 126.999 31l-7 -47c-26 -22.667 -50 -48.667 -72 -78c-21.333 -29.333 -32 -54.666 -32 -75.999c0 -9.33301 2.16699 -15.833 6.5 -19.5s11.5 -5.5 21.5 -5.5
c14 0 28 2.66699 42 8l-5 -35c-16 -8 -33.667 -12 -53 -12c-18 0 -31.833 4.66699 -41.5 14s-14.5 22 -14.5 38c0 41.333 29 91 87 149c-22 -6 -45 -9 -69 -9c-56.667 0 -100.334 17 -131.001 51s-46 81.667 -46 143c-1.33301 91.333 23.5 171 74.5 239
s115.167 101 192.5 99c40.667 0 72.334 -10.333 95.001 -31s34 -50.667 34 -90c0 -70 -29.833 -123.333 -89.5 -160s-145.5 -53.667 -257.5 -51zM98.001 225.999c94.667 -0.666992 167.332 13.6689 217.999 43.002s76 71.666 76 126.999
c0 27.333 -7.16699 47.833 -21.5 61.5s-34.166 20.5 -59.499 20.5c-54.667 0 -102.5 -24.833 -143.5 -74.5s-64.167 -108.834 -69.5 -177.501z" />
    <glyph glyph-name="Ecaron" unicode="&#x11a;" horiz-adv-x="508" 
d="M521 656h-298l-47 -265h277l-8 -45h-277l-53 -302h309l-8 -44h-359l123 700h349zM336 771l-66 129h42l58 -94l92 94h43l-112 -129h-57z" />
    <glyph glyph-name="ecaron" unicode="&#x11b;" horiz-adv-x="467" 
d="M95 188c-1.33301 -50 9.66699 -88.833 33 -116.5s58.333 -41.5 105 -41.5c45.333 0 87.666 10.333 126.999 31l-7 -47c-33.333 -17.333 -76.666 -26 -129.999 -26c-56.667 0 -100.334 17 -131.001 51s-46 81.667 -46 143c-1.33301 91.333 23.5 171 74.5 239
s115.167 101 192.5 99c40.667 0 72.334 -10.333 95.001 -31s34 -50.667 34 -90c0 -70 -29.833 -123.333 -89.5 -160s-145.5 -53.667 -257.5 -51zM98 226c94.667 -0.666992 167.332 13.667 217.999 43s76 71.666 76 126.999c0 27.333 -7.16699 47.833 -21.5 61.5
s-34.166 20.5 -59.499 20.5c-55.333 0 -103.333 -24.667 -144 -74s-63.667 -108.666 -69 -177.999zM289.998 582.001l-60 132h40l55 -99l92 99h41l-109 -132h-59z" />
    <glyph glyph-name="Gcircumflex" unicode="&#x11c;" horiz-adv-x="561" 
d="M67 262c-1.33301 128.667 32.1689 235.999 100.502 321.999s153.833 128 256.5 126c50.667 0 94 -9 130 -27l-8 -44c-33.333 18 -74 27 -122 27c-87.333 2 -160.333 -36.167 -219 -114.5s-87.334 -175.833 -86.001 -292.5c0 -150 63 -225 189 -225
c36.667 0 69 5.66699 97 17l50 276h49l-54 -307c-47.333 -20.667 -96 -31 -146 -31c-76.667 0 -135.334 23.333 -176.001 70s-61 114.334 -61 203.001zM297.002 770.999l112 129h57l66 -129h-41l-57 93l-92 -93h-45z" />
    <glyph glyph-name="gcircumflex" unicode="&#x11d;" horiz-adv-x="530" 
d="M476 496l-90.999 -513.001c-12 -68 -38.333 -119.833 -79 -155.5s-94 -53.5 -160 -53.5c-47.333 0 -86.333 7.66699 -117 23l8 42c29.333 -15.333 66.666 -23 111.999 -23c51.333 0 93 14.333 125 43s53 70.334 63 125.001l27 144h-1
c-24.667 -40 -54.5 -71.667 -89.5 -95s-72.833 -35 -113.5 -35c-76.667 0 -115 56.333 -115 169c-1.33301 98.667 26 182.5 82 251.5s123.333 102.833 202 101.5c43.333 0 92.333 -8 147 -24zM386.001 258.999l36 206c-34 8.66699 -65 13 -93 13
c-66 0 -121.5 -29.333 -166.5 -88s-67.5 -132.667 -67.5 -222c0 -86 27 -129 81 -129c46 0 90 22.5 132 67.5s68 95.833 78 152.5zM227.001 580.999l108 132h59l60 -132h-38l-55 97l-91 -97h-43z" />
    <glyph glyph-name="Gbreve" unicode="&#x11e;" horiz-adv-x="561" 
d="M67 262c-1.33301 128.667 32.1689 235.999 100.502 321.999s153.833 128 256.5 126c50.667 0 94 -9 130 -27l-8 -44c-33.333 18 -74 27 -122 27c-87.333 2 -160.333 -36.167 -219 -114.5s-87.334 -175.833 -86.001 -292.5c0 -150 63 -225 189 -225
c36.667 0 69 5.66699 97 17l50 276h49l-54 -307c-47.333 -20.667 -96 -31 -146 -31c-76.667 0 -135.334 23.333 -176.001 70s-61 114.334 -61 203.001zM321.002 866.999c0 9.33301 0.667969 18.667 2.00098 28h42c-0.666992 -4 -1 -12.333 -1 -25
c0 -40.667 18.333 -61 55 -61c44.667 0 72.667 28.667 84 86h42c-18 -83.333 -61.667 -125 -131 -125c-28.667 0 -51.334 8.16699 -68.001 24.5s-25 40.5 -25 72.5z" />
    <glyph glyph-name="gbreve" unicode="&#x11f;" horiz-adv-x="530" 
d="M476 496l-90.999 -513.001c-12 -68 -38.333 -119.833 -79 -155.5s-94 -53.5 -160 -53.5c-47.333 0 -86.333 7.66699 -117 23l8 42c29.333 -15.333 66.666 -23 111.999 -23c51.333 0 93 14.333 125 43s53 70.334 63 125.001l27 144h-1
c-24.667 -40 -54.5 -71.667 -89.5 -95s-72.833 -35 -113.5 -35c-76.667 0 -115 56.333 -115 169c-1.33301 98.667 26 182.5 82 251.5s123.333 102.833 202 101.5c43.333 0 92.333 -8 147 -24zM386.001 258.999l36 206c-34 8.66699 -65 13 -93 13
c-66 0 -121.5 -29.333 -166.5 -88s-67.5 -132.667 -67.5 -222c0 -86 27 -129 81 -129c46 0 90 22.5 132 67.5s68 95.833 78 152.5zM248.001 684.999c0 9.33301 0.666992 18.667 2 28h41c-0.666992 -4 -1 -12.333 -1 -25c0 -40.667 18.667 -61 56 -61
c42.667 0 70.667 28.667 84 86h42c-18 -83.333 -62 -125 -132 -125c-28.667 0 -51.167 8.16699 -67.5 24.5s-24.5 40.5 -24.5 72.5z" />
    <glyph glyph-name="Gdotaccent" unicode="&#x120;" horiz-adv-x="561" 
d="M67 262c-1.33301 128.667 32.1689 235.999 100.502 321.999s153.833 128 256.5 126c50.667 0 94 -9 130 -27l-8 -44c-33.333 18 -74 27 -122 27c-87.333 2 -160.333 -36.167 -219 -114.5s-87.334 -175.833 -86.001 -292.5c0 -150 63 -225 189 -225
c36.667 0 69 5.66699 97 17l50 276h49l-54 -307c-47.333 -20.667 -96 -31 -146 -31c-76.667 0 -135.334 23.333 -176.001 70s-61 114.334 -61 203.001zM387.002 823.999c0 15.333 4.66895 27.333 14.002 36s21.333 13 36 13c11.333 0 20.166 -3.83301 26.499 -11.5
s8.5 -17.5 6.5 -29.5c-2.66699 -12.667 -8.33398 -22.667 -17.001 -30s-19 -11 -31 -11c-10.667 0 -19.167 3 -25.5 9s-9.5 14 -9.5 24z" />
    <glyph glyph-name="gdotaccent" unicode="&#x121;" horiz-adv-x="530" 
d="M476 496l-90.999 -513.001c-12 -68 -38.333 -119.833 -79 -155.5s-94 -53.5 -160 -53.5c-47.333 0 -86.333 7.66699 -117 23l8 42c29.333 -15.333 66.666 -23 111.999 -23c51.333 0 93 14.333 125 43s53 70.334 63 125.001l27 144h-1
c-24.667 -40 -54.5 -71.667 -89.5 -95s-72.833 -35 -113.5 -35c-76.667 0 -115 56.333 -115 169c-1.33301 98.667 26 182.5 82 251.5s123.333 102.833 202 101.5c43.333 0 92.333 -8 147 -24zM386.001 258.999l36 206c-34 8.66699 -65 13 -93 13
c-66 0 -121.5 -29.333 -166.5 -88s-67.5 -132.667 -67.5 -222c0 -86 27 -129 81 -129c46 0 90 22.5 132 67.5s68 95.833 78 152.5zM311.001 636.999c5.33301 25.333 21 38.001 47 38.001c11.333 0 20 -3.66699 26 -11s8 -16.333 6 -27c-5.33301 -26 -21 -39 -47 -39
c-11.333 0 -20 3.66699 -26 11s-8 16.666 -6 27.999z" />
    <glyph glyph-name="uni0122" unicode="&#x122;" horiz-adv-x="561" 
d="M67 262c-1.33301 128.667 32.1689 235.999 100.502 321.999s153.833 128 256.5 126c50.667 0 94 -9 130 -27l-8 -44c-33.333 18 -74 27 -122 27c-87.333 2 -160.333 -36.167 -219 -114.5s-87.334 -175.833 -86.001 -292.5c0 -150 63 -225 189 -225
c36.667 0 69 5.66699 97 17l50 276h49l-54 -307c-47.333 -20.667 -96 -31 -146 -31c-76.667 0 -135.334 23.333 -176.001 70s-61 114.334 -61 203.001zM220.002 -252.001l58 166h45l-64 -166h-39z" />
    <glyph glyph-name="uni0123" unicode="&#x123;" horiz-adv-x="530" 
d="M476 496l-90.999 -513.001c-12 -68 -38.333 -119.833 -79 -155.5s-94 -53.5 -160 -53.5c-47.333 0 -86.333 7.66699 -117 23l8 42c29.333 -15.333 66.666 -23 111.999 -23c51.333 0 93 14.333 125 43s53 70.334 63 125.001l27 144h-1
c-24.667 -40 -54.5 -71.667 -89.5 -95s-72.833 -35 -113.5 -35c-76.667 0 -115 56.333 -115 169c-1.33301 98.667 26 182.5 82 251.5s123.333 102.833 202 101.5c43.333 0 92.333 -8 147 -24zM386.001 258.999l36 206c-34 8.66699 -65 13 -93 13
c-66 0 -121.5 -29.333 -166.5 -88s-67.5 -132.667 -67.5 -222c0 -86 27 -129 81 -129c46 0 90 22.5 132 67.5s68 95.833 78 152.5zM311.001 580.999l53 135h42l-48 -135h-47z" />
    <glyph glyph-name="Hcircumflex" unicode="&#x124;" horiz-adv-x="649" 
d="M576 700h50l-123 -700h-50l61 346h-346l-61 -346h-50l123 700h50l-55 -311h346zM296 771l112 129h57l66 -129h-41l-57 93l-92 -93h-45z" />
    <glyph glyph-name="hcircumflex" unicode="&#x125;" horiz-adv-x="543" 
d="M52 0l130.001 736h48l-49 -278c-4 -24.667 -8.33301 -46.667 -13 -66h1c22 38.667 51 69.334 87 92.001c36 24 71 36 105 36c76 0 114 -40 114 -120c0 -18 -2 -38 -6 -60l-61 -340h-48l58 330c4.66699 22.667 7 45 7 67c0 29.333 -6 50.166 -18 62.499
s-31.333 18.5 -58 18.5c-41.333 1.33301 -83.333 -21 -126 -67s-68.334 -97.333 -77.001 -154l-46 -257h-48zM99.001 807l112 129h57l66 -129h-41l-57 93l-92 -93h-45z" />
    <glyph glyph-name="Hbar" unicode="&#x126;" horiz-adv-x="656" 
d="M677 574l-6 -35h-70l-95 -539h-50l61 346h-346l-61 -346h-50l95 539h-69l6 35h69l22 126h50l-22 -126h346l22 126h50l-22 -126h70zM524 389l27 150h-346l-27 -150h346z" />
    <glyph glyph-name="hbar" unicode="&#x127;" horiz-adv-x="543" 
d="M475 400c0 -18 -1.99902 -38 -5.99902 -60l-61 -340h-48l58 330c4.66699 22.667 7 45 7 67c0 29.333 -6 50.166 -18 62.499s-31.333 18.5 -58 18.5c-41.333 1.33301 -83.333 -21 -126 -67s-68.334 -97.333 -77.001 -154l-46 -257h-48l107 605h-75l7 37h74l17 94h48
l-17 -94h163l-7 -37h-162l-26 -147c-2 -16.667 -6.33301 -38.667 -13 -66h1c22 38.667 51 69.334 87 92.001c36 24 71 36 105 36c76 0 114 -40 114 -120z" />
    <glyph glyph-name="Itilde" unicode="&#x128;" horiz-adv-x="253" 
d="M57 0l123 700h51l-123 -700h-51zM218 813c-18.667 10.667 -34.0049 16 -46.0049 16c-21.333 0 -36 -12 -44 -36l-38 5c2.66699 22 11.334 39.167 26.001 51.5s33.334 18.5 56.001 18.5c18.667 0 40.334 -6.66699 65.001 -20c20.667 -10.667 36.667 -16 48 -16
c20.667 0 35.334 12 44.001 36l38 -5c-5.33301 -47.333 -32.666 -71 -81.999 -71c-18 0 -40.333 7 -67 21z" />
    <glyph glyph-name="itilde" unicode="&#x129;" horiz-adv-x="243" 
d="M53 0l89 506h48l-89 -506h-48zM176 619c-13.333 10 -24.3311 15 -32.998 15c-16.667 0 -29.334 -11.667 -38.001 -35l-39 6c13.333 46 39.333 69 78 69c16 0 33.333 -7 52 -21c15.333 -10.667 27.333 -16 36 -16s15.667 2.66699 21 8s10.666 15 15.999 29l38 -7
c-14 -46 -39.333 -69 -76 -69c-18 0 -36.333 7 -55 21z" />
    <glyph glyph-name="Imacron" unicode="&#x12a;" horiz-adv-x="253" 
d="M57 0l123 700h51l-123 -700h-51zM107 794l7 39h229l-7 -39h-229z" />
    <glyph glyph-name="imacron" unicode="&#x12b;" horiz-adv-x="243" 
d="M53 0l89 506h48l-89 -506h-48zM76 600l6 39h215l-6 -39h-215z" />
    <glyph glyph-name="Ibreve" unicode="&#x12c;" horiz-adv-x="253" 
d="M57 0l123 700h51l-123 -700h-51zM122 867c0 9.33301 0.667969 18.667 2.00098 28h42c-0.666992 -4 -1 -12.333 -1 -25c0 -40.667 18.333 -61 55 -61c44.667 0 72.667 28.667 84 86h42c-18 -83.333 -61.667 -125 -131 -125c-28.667 0 -51.334 8.16699 -68.001 24.5
s-25 40.5 -25 72.5z" />
    <glyph glyph-name="ibreve" unicode="&#x12d;" horiz-adv-x="243" 
d="M53 0l89 506h48l-89 -506h-48zM98 669c0 11.333 1.00098 23.667 3.00098 37h41c-2 -12 -3 -22.667 -3 -32c0 -36 15.667 -54 47 -54c37.333 0 62.333 28.667 75 86h41c-8.66699 -44 -22.834 -75.833 -42.501 -95.5s-46.5 -29.5 -80.5 -29.5c-54 0 -81 29.333 -81 88z" />
    <glyph glyph-name="Iogonek" unicode="&#x12e;" horiz-adv-x="254" 
d="M24 -131c-0.666992 -1.33301 -1.00098 -4.33203 -1.00098 -8.99902c0 -17.333 10.333 -26 31 -26c13.333 0 29 3.66699 47 11l-6 -34c-17.333 -9.33301 -36.666 -14 -57.999 -14c-36.667 0 -55 17 -55 51c0 8 0.333008 13 1 15c8 43.333 36 89 84 137h-10l123 700h51
l-123 -700c-50.667 -56.667 -78.667 -100.334 -84 -131.001z" />
    <glyph glyph-name="iogonek" unicode="&#x12f;" horiz-adv-x="246" 
d="M228 633c-2 -10.667 -7.33301 -19.832 -16 -27.499s-18 -11.5 -28 -11.5c-10.667 0 -19.167 3.66699 -25.5 11s-8.83301 16.666 -7.5 27.999c2 10.667 7.33301 19.5 16 26.5s18.667 10.5 30 10.5c10 0 18 -3.5 24 -10.5s8.33301 -15.833 7 -26.5zM54 0.00195312
l89.001 505.999h48l-89 -506c-44 -50 -69.667 -93.333 -77 -130c-0.666992 -1.33301 -1 -4.66602 -1 -9.99902c0 -16.667 9.66699 -25 29 -25c14.667 0 30 4 46 12l-7 -39c-16.667 -8 -34.334 -12 -53.001 -12c-38.667 0 -58 17.667 -58 53c0 8 0.333008 13.333 1 16
c8 42.667 34 87.667 78 135h-6z" />
    <glyph glyph-name="Idot" unicode="&#x130;" horiz-adv-x="253" 
d="M57 0l123 700h51l-123 -700h-51zM188 824c0 15.333 4.66895 27.333 14.002 36s21.333 13 36 13c11.333 0 20.166 -3.83301 26.499 -11.5s8.5 -17.5 6.5 -29.5c-2.66699 -12.667 -8.33398 -22.667 -17.001 -30s-19 -11 -31 -11c-10.667 0 -19.167 3 -25.5 9
s-9.5 14 -9.5 24z" />
    <glyph glyph-name="dotlessi" unicode="&#x131;" horiz-adv-x="243" 
d="M53 0l89 506h48l-89 -506h-48z" />
    <glyph glyph-name="IJ" unicode="&#x132;" horiz-adv-x="724" 
d="M57 0l123 700h51l-123 -700h-51zM234 29l9 45c37.333 -26.667 84.333 -40 141 -40c101.333 0 163 60 185 180l86 486h50l-88 -498c-12 -69.333 -37.833 -122 -77.5 -158s-91.167 -54 -154.5 -54c-62 0 -112.333 13 -151 39z" />
    <glyph glyph-name="ij" unicode="&#x133;" horiz-adv-x="498" 
d="M150 625c0 14 4.33301 25.168 13 33.501s20 12.5 34 12.5c9.33301 0 17 -2.83301 23 -8.5s9 -12.834 9 -21.501c0 -14 -4.16699 -25.333 -12.5 -34s-19.5 -13 -33.5 -13c-10 0 -18 2.83301 -24 8.5s-9 13.167 -9 22.5zM54 0.000976562l89 506h48l-89 -506h-48z
M403 625.001l1.00098 8.00098c1.33301 11.333 6.16602 20.5 14.499 27.5s18.833 10.5 31.5 10.5c9.33301 0 17 -2.83301 23 -8.5s9 -12.834 9 -21.501c0 -14 -4.33301 -25.333 -13 -34s-19.667 -13 -33 -13c-10 0 -18 2.83301 -24 8.5s-9 13.167 -9 22.5zM141.001 -208.998
l7.99805 39c14.667 -6 32.334 -9 53.001 -9c49.333 0 80 35 92 105l102 580h49l-104 -586c-17.333 -93.333 -63.666 -140 -138.999 -140c-20.667 0 -41 3.66699 -61 11z" />
    <glyph glyph-name="Jcircumflex" unicode="&#x134;" horiz-adv-x="471" 
d="M-19 29l8.99902 45c37.333 -26.667 84.333 -40 141 -40c101.333 0 163 60 185 180l86 486h50l-88 -498c-12 -69.333 -37.833 -122 -77.5 -158s-91.167 -54 -154.5 -54c-61.333 0 -111.666 13 -150.999 39zM318.999 771l112 129h57l66 -129h-41l-57 93l-92 -93h-45z" />
    <glyph glyph-name="jcircumflex" unicode="&#x135;" horiz-adv-x="250" 
d="M-108 -209l8 40c14.667 -6 32 -9 52 -9c49.333 0 80 33.333 92 100l104 584h48l-104 -586c-17.333 -93.333 -64 -140 -140 -140c-20 0 -40 3.66699 -60 11zM83 582l98 132h56l49 -132h-38l-43 98l-79 -98h-43z" />
    <glyph glyph-name="uni0136" unicode="&#x136;" horiz-adv-x="583" 
d="M180 700h50l-124 -700h-50zM633 700l-355 -336l252 -364h-58l-250 362l3 14l343 324h65zM194 -252l58 166h45l-64 -166h-39z" />
    <glyph glyph-name="uni0137" unicode="&#x137;" horiz-adv-x="472" 
d="M182 736h48l-130 -736h-48zM488 506l-262 -243l187 -263h-55l-186 262l2 11l250 233h64zM134 -252l58 166h45l-64 -166h-39z" />
    <glyph glyph-name="kgreenlandic" unicode="&#x138;" horiz-adv-x="470" 
d="M142 506h46l-89 -506h-47zM488 506l-263 -244l187 -262h-55l-185 262l2 11l250 233h64z" />
    <glyph glyph-name="Lacute" unicode="&#x139;" horiz-adv-x="478" 
d="M57 0l123 700h50l-116 -657h307l-9 -43h-355zM192 771l90 129h61l-109 -129h-42z" />
    <glyph glyph-name="lacute" unicode="&#x13a;" horiz-adv-x="279" 
d="M68 92c0 10 1.33301 23.333 4 40l107 604h48l-106 -603c-2.66699 -16.667 -4 -29 -4 -37c0 -42.667 19 -64 57 -64c18 0 36 3.66699 54 11l-7 -41c-22 -8 -42.667 -12 -62 -12c-28 0 -50.167 9 -66.5 27s-24.5 43 -24.5 75zM190 807l90 129h61l-109 -129h-42z" />
    <glyph glyph-name="uni013B" unicode="&#x13b;" horiz-adv-x="478" 
d="M57 0l123 700h50l-116 -657h307l-9 -43h-355zM148 -252l58 166h45l-64 -166h-39z" />
    <glyph glyph-name="uni013C" unicode="&#x13c;" horiz-adv-x="279" 
d="M68 92c0 10 1.33301 23.333 4 40l107 604h48l-106 -603c-2.66699 -16.667 -4 -29 -4 -37c0 -42.667 19 -64 57 -64c18 0 36 3.66699 54 11l-7 -41c-22 -8 -42.667 -12 -62 -12c-28 0 -50.167 9 -66.5 27s-24.5 43 -24.5 75zM68 -252l58 166h45l-64 -166h-39z" />
    <glyph glyph-name="Lcaron" unicode="&#x13d;" horiz-adv-x="478" 
d="M57 0l123 700h50l-116 -657h307l-9 -43h-355zM387 534l58 166h45l-64 -166h-39z" />
    <glyph glyph-name="lcaron" unicode="&#x13e;" horiz-adv-x="281" 
d="M68 92c0 10 1.33301 23.333 4 40l107 604h48l-106 -604c-2.66699 -15.333 -4 -27.333 -4 -36c0 -43.333 19 -65 57 -65c18.667 0 36.667 4 54 12l-7 -41c-22 -8 -42.667 -12 -62 -12c-28 0 -50.167 9 -66.5 27s-24.5 43 -24.5 75zM273 570l51 166h43l-58 -166h-36z" />
    <glyph glyph-name="Ldot" unicode="&#x13f;" horiz-adv-x="478" 
d="M57 0l123 700h50l-116 -657h307l-9 -43h-355zM322 320c0 13.333 4.83203 24.833 14.499 34.5s20.834 14.5 33.501 14.5c10 0 18.167 -3.16699 24.5 -9.5s9.5 -14.5 9.5 -24.5c0 -12.667 -5 -23.667 -15 -33s-21 -14 -33 -14c-10 0 -18.167 3 -24.5 9s-9.5 13.667 -9.5 23
z" />
    <glyph glyph-name="ldot" unicode="&#x140;" horiz-adv-x="312" 
d="M67 90c0 9.33301 1.33301 22.333 4 39l107 607h48l-106 -606c-2.66699 -16.667 -4 -29 -4 -37c0 -42.667 19 -64 57 -64c18 0 36 3.66699 54 11l-7 -41c-24 -7.33301 -44.667 -11 -62 -11c-28 0 -50.167 9 -66.5 27s-24.5 43 -24.5 75zM229 323
c0 13.333 4.66699 24.333 14 33s20.333 13 33 13c10.667 0 19.167 -3 25.5 -9s9.5 -14 9.5 -24c0 -14 -4.5 -25.333 -13.5 -34s-20.5 -13 -34.5 -13c-10.667 0 -19 3.16699 -25 9.5s-9 14.5 -9 24.5z" />
    <glyph glyph-name="Lslash" unicode="&#x141;" horiz-adv-x="491" 
d="M127 43h307l-9 -43h-355l52 296l-90 -43l7 44l91 43l63 360h50l-59 -334l134 64l-7 -44l-135 -64z" />
    <glyph glyph-name="lslash" unicode="&#x142;" horiz-adv-x="300" 
d="M177 330l-35 -200c-2.66699 -16.667 -4 -29 -4 -37c0 -42.667 19 -64 57 -64c18 0 36 3.66699 54 11l-7 -41c-24 -7.33301 -44.667 -11 -62 -11c-28 0 -50.167 9 -66.5 27s-24.5 43 -24.5 75c0 9.33301 1.33301 22.333 4 39l31 176l-117 -56l8 44l117 55l68 387h48
l-63 -362l119 57l-7 -43z" />
    <glyph glyph-name="Nacute" unicode="&#x143;" horiz-adv-x="669" 
d="M511 -3l-259.001 498l-43 82h-1l-16 -92l-86 -485h-49l124 704h11l262 -502l27 -54l14 -28h1c6.66699 44 12.334 77.333 17.001 100l86 480h49l-126 -703h-11zM393.999 771l90 129h61l-109 -129h-42z" />
    <glyph glyph-name="nacute" unicode="&#x144;" horiz-adv-x="550" 
d="M480 395c0 -18 -2 -37.333 -6 -58l-59 -337h-48l57 327c4 24 6 45.333 6 64c0 29.333 -6.33301 50.666 -19 63.999s-33 20 -61 20c-42 1.33301 -84.167 -21.167 -126.5 -67.5s-68.166 -97.166 -77.499 -152.499l-45 -255h-48l89 506h42l-17 -121
c22 36.667 50.667 67.667 86 93c35.333 26 71.666 39 108.999 39c78.667 0 118 -40.667 118 -122zM321 582l91 132h57l-109 -132h-39z" />
    <glyph glyph-name="uni0145" unicode="&#x145;" horiz-adv-x="669" 
d="M511 -3l-259.001 498l-43 82h-1l-16 -92l-86 -485h-49l124 704h11l262 -502l27 -54l14 -28h1c6.66699 44 12.334 77.333 17.001 100l86 480h49l-126 -703h-11zM218.999 -252l58 166h45l-64 -166h-39z" />
    <glyph glyph-name="uni0146" unicode="&#x146;" horiz-adv-x="550" 
d="M480 395c0 -18 -2 -37.333 -6 -58l-59 -337h-48l57 327c4 24 6 45.333 6 64c0 29.333 -6.33301 50.666 -19 63.999s-33 20 -61 20c-42 1.33301 -84.167 -21.167 -126.5 -67.5s-68.166 -97.166 -77.499 -152.499l-45 -255h-48l89 506h42l-17 -121
c22 36.667 50.667 67.667 86 93c35.333 26 71.666 39 108.999 39c78.667 0 118 -40.667 118 -122zM154 -252l58 166h45l-64 -166h-39z" />
    <glyph glyph-name="Ncaron" unicode="&#x147;" horiz-adv-x="669" 
d="M511 -3l-259.001 498l-43 82h-1l-16 -92l-86 -485h-49l124 704h11l262 -502l27 -54l14 -28h1c6.66699 44 12.334 77.333 17.001 100l86 480h49l-126 -703h-11zM391.999 771l-66 129h42l58 -94l92 94h43l-112 -129h-57z" />
    <glyph glyph-name="ncaron" unicode="&#x148;" horiz-adv-x="550" 
d="M480 395c0 -18 -2 -37.333 -6 -58l-59 -337h-48l57 327c4 24 6 45.333 6 64c0 29.333 -6.33301 50.666 -19 63.999s-33 20 -61 20c-42 1.33301 -84.167 -21.167 -126.5 -67.5s-68.166 -97.166 -77.499 -152.499l-45 -255h-48l89 506h42l-17 -121
c22 36.667 50.667 67.667 86 93c35.333 26 71.666 39 108.999 39c78.667 0 118 -40.667 118 -122zM318 582l-60 132h40l55 -99l92 99h41l-109 -132h-59z" />
    <glyph glyph-name="napostrophe" unicode="&#x149;" horiz-adv-x="596" 
d="M210 711l-64 -165h-40l58 165h46zM525 394c0 -19.333 -1.66797 -38.3311 -5.00098 -56.998l-60 -337h-48l58 327c4 24 6 45 6 63c0 29.333 -6.33301 50.833 -19 64.5s-33 20.5 -61 20.5c-42 1.33301 -84.667 -21.334 -128 -68.001s-68.666 -97.334 -75.999 -152.001
l-44 -255h-48l87 506h42l-16 -121c22 36.667 50.667 67.667 86 93c35.333 26 71.333 39 108 39c78.667 0 118 -41 118 -123z" />
    <glyph glyph-name="Eng" unicode="&#x14a;" horiz-adv-x="668" 
d="M331 -214l8.00098 44.999c12 -4 26 -6 42 -6c41.333 0 67.666 31.667 78.999 95l21 118l-211 417l-63 121h-1c-7.33301 -47.333 -17 -103.666 -29 -168.999l-72 -407h-49l124 705h13l247 -487c0.666992 -2 2.5 -5.66699 5.5 -11s5.5 -10 7.5 -14l26 -49l15 -29h2
c10.667 66 18.334 112 23.001 138l80 447h48l-139 -787c-16.667 -88.667 -59.334 -133 -128.001 -133c-16.667 0 -33 2 -49 6z" />
    <glyph glyph-name="eng" unicode="&#x14b;" horiz-adv-x="549" 
d="M479 394c0 -19.333 -1.66309 -38.334 -4.99609 -57.001l-75 -420c-8 -45.333 -22.833 -79.833 -44.5 -103.5s-48.834 -35.5 -81.501 -35.5c-20 0 -39 3 -57 9l7 41c17.333 -5.33301 33 -8 47 -8c43.333 0 70.666 34.333 81.999 103l72 404c4 24 6 45 6 63
c0 29.333 -6.33301 50.833 -19 64.5s-33.334 20.5 -62.001 20.5c-42 1.33301 -84.167 -21.167 -126.5 -67.5s-67.833 -97.166 -76.5 -152.499l-45 -255h-48l89 506h41l-17 -121c22 36.667 50.667 67.667 86 93c35.333 26 71.666 39 108.999 39c78.667 0 118 -41 118 -123z
" />
    <glyph glyph-name="Omacron" unicode="&#x14c;" horiz-adv-x="664" 
d="M66 247c-0.666992 84.667 13.165 162.835 41.498 234.502s69 128.667 122 171s112.5 62.833 178.5 61.5c72.667 0 128.167 -23 166.5 -69s57.5 -110 57.5 -192c0.666992 -84.667 -13.166 -162.834 -41.499 -234.501s-69.166 -128.667 -122.499 -171
s-113 -62.833 -179 -61.5c-71.333 0 -126.333 23.167 -165 69.5s-58 110.166 -58 191.499zM580.999 449.001c0 70.667 -15.167 124.998 -45.5 162.998s-73.5 57 -129.5 57c-55.333 1.33301 -105.5 -17.5 -150.5 -56.5s-79.5 -90.667 -103.5 -155
s-35.667 -133.166 -35 -206.499c0 -70.667 15.167 -125 45.5 -163s73.833 -57 130.5 -57c54.667 -1.33301 104.334 17.334 149.001 56.001s79.167 90.167 103.5 154.5s36.166 133.5 35.499 207.5zM307.999 793.999l7 39h229l-7 -39h-229z" />
    <glyph glyph-name="omacron" unicode="&#x14d;" horiz-adv-x="517" 
d="M46 180c0 98.667 24.668 180 74.001 244s111.666 96 186.999 96c52 0 92 -17.167 120 -51.5s42 -82.5 42 -144.5c0 -98 -24.667 -178.833 -74 -242.5s-112 -95.5 -188 -95.5c-51.333 0 -91 16.833 -119 50.5s-42 81.5 -42 143.5zM419.001 324
c0 102.667 -38 153.999 -114 153.999c-58.667 1.33301 -108.5 -27 -149.5 -85s-60.833 -128.667 -59.5 -212c0 -49.333 9.83301 -87.166 29.5 -113.499s48.167 -39.5 85.5 -39.5c59.333 0 108.833 28.167 148.5 84.5s59.5 126.833 59.5 211.5zM207.001 599.999l7 39h229
l-7 -39h-229z" />
    <glyph glyph-name="Obreve" unicode="&#x14e;" horiz-adv-x="664" 
d="M66 247c-0.666992 84.667 13.165 162.835 41.498 234.502s69 128.667 122 171s112.5 62.833 178.5 61.5c72.667 0 128.167 -23 166.5 -69s57.5 -110 57.5 -192c0.666992 -84.667 -13.166 -162.834 -41.499 -234.501s-69.166 -128.667 -122.499 -171
s-113 -62.833 -179 -61.5c-71.333 0 -126.333 23.167 -165 69.5s-58 110.166 -58 191.499zM580.999 449.001c0 70.667 -15.167 124.998 -45.5 162.998s-73.5 57 -129.5 57c-55.333 1.33301 -105.5 -17.5 -150.5 -56.5s-79.5 -90.667 -103.5 -155
s-35.667 -133.166 -35 -206.499c0 -70.667 15.167 -125 45.5 -163s73.833 -57 130.5 -57c54.667 -1.33301 104.334 17.334 149.001 56.001s79.167 90.167 103.5 154.5s36.166 133.5 35.499 207.5zM322.999 866.999c0 9.33301 0.667969 18.667 2.00098 28h42
c-0.666992 -4 -1 -12.333 -1 -25c0 -40.667 18.333 -61 55 -61c44.667 0 72.667 28.667 84 86h42c-18 -83.333 -61.667 -125 -131 -125c-28.667 0 -51.334 8.16699 -68.001 24.5s-25 40.5 -25 72.5z" />
    <glyph glyph-name="obreve" unicode="&#x14f;" horiz-adv-x="517" 
d="M46 180c0 98.667 24.668 180 74.001 244s111.666 96 186.999 96c52 0 92 -17.167 120 -51.5s42 -82.5 42 -144.5c0 -98 -24.667 -178.833 -74 -242.5s-112 -95.5 -188 -95.5c-51.333 0 -91 16.833 -119 50.5s-42 81.5 -42 143.5zM419.001 324
c0 102.667 -38 153.999 -114 153.999c-58.667 1.33301 -108.5 -27 -149.5 -85s-60.833 -128.667 -59.5 -212c0 -49.333 9.83301 -87.166 29.5 -113.499s48.167 -39.5 85.5 -39.5c59.333 0 108.833 28.167 148.5 84.5s59.5 126.833 59.5 211.5zM226.001 685.999
c0 9.33301 0.666992 18.667 2 28h41c-0.666992 -4 -1 -12.333 -1 -25c0 -40.667 18.667 -61 56 -61c42.667 0 70.667 28.667 84 86h42c-18 -83.333 -62 -125 -132 -125c-28.667 0 -51.167 8.16699 -67.5 24.5s-24.5 40.5 -24.5 72.5z" />
    <glyph glyph-name="Ohungarumlaut" unicode="&#x150;" horiz-adv-x="664" 
d="M66 247c-0.666992 84.667 13.165 162.835 41.498 234.502s69 128.667 122 171s112.5 62.833 178.5 61.5c72.667 0 128.167 -23 166.5 -69s57.5 -110 57.5 -192c0.666992 -84.667 -13.166 -162.834 -41.499 -234.501s-69.166 -128.667 -122.499 -171
s-113 -62.833 -179 -61.5c-71.333 0 -126.333 23.167 -165 69.5s-58 110.166 -58 191.499zM580.999 449.001c0 70.667 -15.167 124.998 -45.5 162.998s-73.5 57 -129.5 57c-55.333 1.33301 -105.5 -17.5 -150.5 -56.5s-79.5 -90.667 -103.5 -155
s-35.667 -133.166 -35 -206.499c0 -70.667 15.167 -125 45.5 -163s73.833 -57 130.5 -57c54.667 -1.33301 104.334 17.334 149.001 56.001s79.167 90.167 103.5 154.5s36.166 133.5 35.499 207.5zM337.999 770.999l84 129h58l-102 -129h-40zM443.999 770.999l99 129h60
l-117 -129h-42z" />
    <glyph glyph-name="ohungarumlaut" unicode="&#x151;" horiz-adv-x="517" 
d="M46 180c0 98.667 24.668 180 74.001 244s111.666 96 186.999 96c52 0 92 -17.167 120 -51.5s42 -82.5 42 -144.5c0 -98 -24.667 -178.833 -74 -242.5s-112 -95.5 -188 -95.5c-51.333 0 -91 16.833 -119 50.5s-42 81.5 -42 143.5zM419.001 324
c0 102.667 -38 153.999 -114 153.999c-58.667 1.33301 -108.5 -27 -149.5 -85s-60.833 -128.667 -59.5 -212c0 -49.333 9.83301 -87.166 29.5 -113.499s48.167 -39.5 85.5 -39.5c59.333 0 108.833 28.167 148.5 84.5s59.5 126.833 59.5 211.5zM237.001 580.999l89 133h55
l-105 -133h-39zM343.001 580.999l102 133h57l-120 -133h-39z" />
    <glyph glyph-name="OE" unicode="&#x152;" horiz-adv-x="858" 
d="M774 43l-8 -42.999h-465c-73.333 0 -130.5 22.667 -171.5 68s-61.5 108.666 -61.5 189.999c0 134 32 241.167 96 321.5s149.333 120.5 256 120.5h459l-7 -43h-301l-46 -267h277l-7 -43h-278l-53 -304h310zM309 43.001l105 0.000976562l107 614h-103
c-90 0 -162.333 -36.333 -217 -109s-82 -168.334 -82 -287.001c0 -70.667 16.333 -124.667 49 -162s79.667 -56 141 -56z" />
    <glyph glyph-name="oe" unicode="&#x153;" horiz-adv-x="817" 
d="M445 188c-1.33301 -49.333 9.32812 -88.0039 31.9951 -116.004s55.334 -42 98.001 -42c48.667 0 93.667 10.333 135 31l-7 -47c-32.667 -17.333 -76.667 -26 -132 -26c-45.333 0 -82.166 12.333 -110.499 37s-46.166 59.667 -53.499 105
c-50 -94.667 -118.667 -142 -206 -142c-51.333 0 -90 16.833 -116 50.5s-39 80.834 -39 141.501c-1.33301 94.667 22.334 175.334 71.001 242.001s110 99.334 184 98.001c84.667 0 133 -51.667 145 -155c22 48 51.833 85.833 89.5 113.5s80.167 41.5 127.5 41.5
c40.667 0 72.5 -10.667 95.5 -32s34.5 -51 34.5 -89c0 -70.667 -30.167 -124.167 -90.5 -160.5s-146.166 -53.166 -257.499 -50.499zM405.994 323.996c0 102.667 -36 154.001 -108 154.001c-59.333 0 -107.833 -28.833 -145.5 -86.5s-56.5 -127.834 -56.5 -210.501
c0 -48 9.33301 -85.167 28 -111.5s45.667 -39.5 81 -39.5c60 0 108.5 28.5 145.5 85.5s55.5 126.5 55.5 208.5zM448.994 225.997c94.667 -0.666992 167.333 13.666 218 42.999s76 72 76 128c0 54 -27.667 81 -83 81s-102.833 -24.667 -142.5 -74
s-62.5 -108.666 -68.5 -177.999z" />
    <glyph glyph-name="Racute" unicode="&#x154;" horiz-adv-x="566" 
d="M312 323l-26 -0.000976562l202 -323h-56l-216 346l2 15h58c73.333 0 130 16 170 48s60 77.667 60 137c0 74 -48 111 -144 111h-140l-116 -657h-50l124 700h185c62 0 109.5 -12.667 142.5 -38s49.5 -61.666 49.5 -108.999c0 -70.667 -21.833 -126.667 -65.5 -168
s-103.5 -62 -179.5 -62zM330 770.999l90 129h61l-109 -129h-42z" />
    <glyph glyph-name="racute" unicode="&#x155;" horiz-adv-x="364" 
d="M395 509l-7.99902 -41.999c-12 3.33301 -24.333 5 -37 5c-43.333 1.33301 -86 -20.834 -128 -66.501s-67 -95.5 -75 -149.5l-46 -256h-47l88 506h42l-17 -117c56 83.333 119.667 125 191 125c11.333 0 23.666 -1.66699 36.999 -5zM256.001 582.001l91 132h57l-109 -132
h-39z" />
    <glyph glyph-name="uni0156" unicode="&#x156;" horiz-adv-x="566" 
d="M312 323l-26 -0.000976562l202 -323h-56l-216 346l2 15h58c73.333 0 130 16 170 48s60 77.667 60 137c0 74 -48 111 -144 111h-140l-116 -657h-50l124 700h185c62 0 109.5 -12.667 142.5 -38s49.5 -61.666 49.5 -108.999c0 -70.667 -21.833 -126.667 -65.5 -168
s-103.5 -62 -179.5 -62zM179 -252.001l58 166h45l-64 -166h-39z" />
    <glyph glyph-name="uni0157" unicode="&#x157;" horiz-adv-x="364" 
d="M395 509l-7.99902 -41.999c-12 3.33301 -24.333 5 -37 5c-43.333 1.33301 -86 -20.834 -128 -66.501s-67 -95.5 -75 -149.5l-46 -256h-47l88 506h42l-17 -117c56 83.333 119.667 125 191 125c11.333 0 23.666 -1.66699 36.999 -5zM-1.99902 -251.999l58 166h45l-64 -166
h-39z" />
    <glyph glyph-name="Rcaron" unicode="&#x158;" horiz-adv-x="566" 
d="M312 323l-26 -0.000976562l202 -323h-56l-216 346l2 15h58c73.333 0 130 16 170 48s60 77.667 60 137c0 74 -48 111 -144 111h-140l-116 -657h-50l124 700h185c62 0 109.5 -12.667 142.5 -38s49.5 -61.666 49.5 -108.999c0 -70.667 -21.833 -126.667 -65.5 -168
s-103.5 -62 -179.5 -62zM329 770.999l-66 129h42l58 -94l92 94h43l-112 -129h-57z" />
    <glyph glyph-name="rcaron" unicode="&#x159;" horiz-adv-x="364" 
d="M395 509l-7.99902 -41.999c-12 3.33301 -24.333 5 -37 5c-43.333 1.33301 -86 -20.834 -128 -66.501s-67 -95.5 -75 -149.5l-46 -256h-47l88 506h42l-17 -117c56 83.333 119.667 125 191 125c11.333 0 23.666 -1.66699 36.999 -5zM253.001 582.001l-60 132h40l55 -99
l92 99h41l-109 -132h-59z" />
    <glyph glyph-name="Sacute" unicode="&#x15a;" horiz-adv-x="500" 
d="M7 25l8.00098 45.9971c34.667 -14 63.667 -23.667 87 -29s51.666 -8 84.999 -8c62 0 111.667 15.333 149 46s56 72 56 124c0 32 -10.667 57.667 -32 77c-22 19.333 -56.667 40.333 -104 63c-52 23.333 -89.667 47.833 -113 73.5s-35 57.834 -35 96.501
c0 58.667 20.333 106 61 142s93 54 157 54c70.667 0 128 -10.333 172 -31l-8 -45c-54 21.333 -110 32 -168 32c-48 0 -87.167 -13.5 -117.5 -40.5s-45.5 -62.5 -45.5 -106.5c0 -30 10 -54.667 30 -74c18 -17.333 51.667 -38 101 -62
c56 -27.333 95.833 -53.666 119.5 -78.999s35.5 -57.666 35.5 -96.999c0 -66 -24.167 -118.833 -72.5 -158.5s-111.5 -59.5 -189.5 -59.5c-66 0 -124.667 12 -176 36zM319.001 770.997l90 129h61l-109 -129h-42z" />
    <glyph glyph-name="sacute" unicode="&#x15b;" horiz-adv-x="405" 
d="M7 18l7.99707 42.0029c48 -19.333 94 -29 138 -29c44.667 0 79.834 9 105.501 27s38.5 42.667 38.5 74c0 25.333 -8.33301 46.666 -25 63.999s-43 34.333 -79 51c-42.667 20 -73.667 40.667 -93 62s-29 47.666 -29 78.999c0 40 15.167 71.167 45.5 93.5
s71.833 33.5 124.5 33.5c48 0 91 -7.66699 129 -23l-7 -42c-36 15.333 -74.667 23 -116 23c-39.333 0 -70 -7.5 -92 -22.5s-33 -35.833 -33 -62.5c0 -22 7.33301 -40.5 22 -55.5s40.334 -30.833 77.001 -47.5c44.667 -20.667 76.834 -42.834 96.501 -66.501
s29.5 -52.5 29.5 -86.5c0 -44 -17.5 -78.667 -52.5 -104s-82.833 -38 -143.5 -38c-56.667 0 -104.667 9.33301 -144 28zM216.997 582.003l91 132h57l-109 -132h-39z" />
    <glyph glyph-name="Scircumflex" unicode="&#x15c;" horiz-adv-x="500" 
d="M7 25l8.00098 45.9971c34.667 -14 63.667 -23.667 87 -29s51.666 -8 84.999 -8c62 0 111.667 15.333 149 46s56 72 56 124c0 32 -10.667 57.667 -32 77c-22 19.333 -56.667 40.333 -104 63c-52 23.333 -89.667 47.833 -113 73.5s-35 57.834 -35 96.501
c0 58.667 20.333 106 61 142s93 54 157 54c70.667 0 128 -10.333 172 -31l-8 -45c-54 21.333 -110 32 -168 32c-48 0 -87.167 -13.5 -117.5 -40.5s-45.5 -62.5 -45.5 -106.5c0 -30 10 -54.667 30 -74c18 -17.333 51.667 -38 101 -62
c56 -27.333 95.833 -53.666 119.5 -78.999s35.5 -57.666 35.5 -96.999c0 -66 -24.167 -118.833 -72.5 -158.5s-111.5 -59.5 -189.5 -59.5c-66 0 -124.667 12 -176 36zM225.001 770.997l112 129h57l66 -129h-41l-57 93l-92 -93h-45z" />
    <glyph glyph-name="scircumflex" unicode="&#x15d;" horiz-adv-x="405" 
d="M7 18l7.99707 42.0029c48 -19.333 94 -29 138 -29c44.667 0 79.834 9 105.501 27s38.5 42.667 38.5 74c0 25.333 -8.33301 46.666 -25 63.999s-43 34.333 -79 51c-42.667 20 -73.667 40.667 -93 62s-29 47.666 -29 78.999c0 40 15.167 71.167 45.5 93.5
s71.833 33.5 124.5 33.5c48 0 91 -7.66699 129 -23l-7 -42c-36 15.333 -74.667 23 -116 23c-39.333 0 -70 -7.5 -92 -22.5s-33 -35.833 -33 -62.5c0 -22 7.33301 -40.5 22 -55.5s40.334 -30.833 77.001 -47.5c44.667 -20.667 76.834 -42.834 96.501 -66.501
s29.5 -52.5 29.5 -86.5c0 -44 -17.5 -78.667 -52.5 -104s-82.833 -38 -143.5 -38c-56.667 0 -104.667 9.33301 -144 28zM129.997 582.003l108 132h59l60 -132h-38l-55 97l-91 -97h-43z" />
    <glyph glyph-name="Scedilla" unicode="&#x15e;" horiz-adv-x="500" 
d="M159 519c0 -30 10.001 -54.6689 30.001 -74.002c18 -17.333 51.667 -38 101 -62c56 -27.333 95.833 -53.666 119.5 -78.999s35.5 -57.666 35.5 -96.999c0 -62 -21.667 -112.667 -65 -152c-42 -38 -98.333 -59.667 -169 -65l-21 -39c40 -7.33301 60 -28 60 -62
c0 -28.667 -9 -51.167 -27 -67.5s-42.333 -24.5 -73 -24.5c-26.667 0 -50.667 6.66699 -72 20l17 31c16.667 -10.667 35.334 -16 56.001 -16c16.667 0 30.5 4.66699 41.5 14s16.5 22 16.5 38c0 29.333 -22.333 43.666 -67 42.999l32 62
c-62.667 1.33301 -118.334 13.333 -167.001 36l8 46c34.667 -14 63.667 -23.667 87 -29s51.666 -8 84.999 -8c62 0 111.667 15.333 149 46s56 72 56 124c0 32 -10.667 57.667 -32 77c-22 19.333 -56.667 40.333 -104 63c-52 23.333 -89.667 47.833 -113 73.5
s-35 57.834 -35 96.501c0 58.667 20.333 106 61 142s93 54 157 54c70.667 0 128 -10.333 172 -31l-8 -45c-54 21.333 -110 32 -168 32c-48 0 -87.167 -13.5 -117.5 -40.5s-45.5 -62.5 -45.5 -106.5z" />
    <glyph glyph-name="scedilla" unicode="&#x15f;" horiz-adv-x="405" 
d="M122 388c0 -22 7.3291 -40.4951 21.9961 -55.4951s40.334 -30.833 77.001 -47.5c44.667 -20.667 76.834 -42.834 96.501 -66.501s29.5 -52.5 29.5 -86.5c0 -40 -14.667 -72.333 -44 -97s-70 -39.334 -122 -44.001l-22 -41c40 -7.33301 60 -28 60 -62
c0 -28.667 -9 -51.167 -27 -67.5s-42.333 -24.5 -73 -24.5c-26.667 0 -50.667 6.66699 -72 20l17 31c16.667 -10.667 35.334 -16 56.001 -16c16.667 0 30.5 4.66699 41.5 14s16.5 22 16.5 38c0 29.333 -22.333 43.666 -67 42.999l33 64c-52 0.666992 -97.667 10 -137 28
l8 42c48 -19.333 94 -29 138 -29c44.667 0 79.834 9 105.501 27s38.5 42.667 38.5 74c0 25.333 -8.33301 46.666 -25 63.999s-43 34.333 -79 51c-42.667 20 -73.667 40.667 -93 62s-29 47.666 -29 78.999c0 40 15.167 71.167 45.5 93.5s71.833 33.5 124.5 33.5
c48 0 91 -7.66699 129 -23l-7 -42c-36 15.333 -74.667 23 -116 23c-39.333 0 -70 -7.5 -92 -22.5s-33 -35.833 -33 -62.5z" />
    <glyph glyph-name="Scaron" unicode="&#x160;" horiz-adv-x="500" 
d="M7 25l8.00098 45.9971c34.667 -14 63.667 -23.667 87 -29s51.666 -8 84.999 -8c62 0 111.667 15.333 149 46s56 72 56 124c0 32 -10.667 57.667 -32 77c-22 19.333 -56.667 40.333 -104 63c-52 23.333 -89.667 47.833 -113 73.5s-35 57.834 -35 96.501
c0 58.667 20.333 106 61 142s93 54 157 54c70.667 0 128 -10.333 172 -31l-8 -45c-54 21.333 -110 32 -168 32c-48 0 -87.167 -13.5 -117.5 -40.5s-45.5 -62.5 -45.5 -106.5c0 -30 10 -54.667 30 -74c18 -17.333 51.667 -38 101 -62
c56 -27.333 95.833 -53.666 119.5 -78.999s35.5 -57.666 35.5 -96.999c0 -66 -24.167 -118.833 -72.5 -158.5s-111.5 -59.5 -189.5 -59.5c-66 0 -124.667 12 -176 36zM318.001 770.997l-66 129h42l58 -94l92 94h43l-112 -129h-57z" />
    <glyph glyph-name="scaron" unicode="&#x161;" horiz-adv-x="405" 
d="M7 18l7.99707 42.0029c48 -19.333 94 -29 138 -29c44.667 0 79.834 9 105.501 27s38.5 42.667 38.5 74c0 25.333 -8.33301 46.666 -25 63.999s-43 34.333 -79 51c-42.667 20 -73.667 40.667 -93 62s-29 47.666 -29 78.999c0 40 15.167 71.167 45.5 93.5
s71.833 33.5 124.5 33.5c48 0 91 -7.66699 129 -23l-7 -42c-36 15.333 -74.667 23 -116 23c-39.333 0 -70 -7.5 -92 -22.5s-33 -35.833 -33 -62.5c0 -22 7.33301 -40.5 22 -55.5s40.334 -30.833 77.001 -47.5c44.667 -20.667 76.834 -42.834 96.501 -66.501
s29.5 -52.5 29.5 -86.5c0 -44 -17.5 -78.667 -52.5 -104s-82.833 -38 -143.5 -38c-56.667 0 -104.667 9.33301 -144 28zM213.997 582.003l-60 132h40l55 -99l92 99h41l-109 -132h-59z" />
    <glyph glyph-name="uni0162" unicode="&#x162;" horiz-adv-x="496" 
d="M228 0l-4.00098 0.000976562l-26 -50c40 -7.33301 60 -27.666 60 -60.999c0 -28.667 -9 -51.334 -27 -68.001s-42.333 -25 -73 -25c-25.333 0 -49.333 6.66699 -72 20l17 32c14.667 -10.667 33.334 -16 56.001 -16c16.667 0 30.5 4.66699 41.5 14
s16.5 21.666 16.5 36.999c0 32 -22.333 46.333 -67 43l37 74h-9l117 657h-205l7 43h459l-8 -43h-203z" />
    <glyph glyph-name="uni0163" unicode="&#x163;" horiz-adv-x="328" 
d="M199 466l-56.001 -315.998c-2.66699 -11.333 -4 -25.333 -4 -42c0 -50 20.667 -75 62 -75c24.667 0 47 4.33301 67 13l-7 -44c-20.667 -6.66699 -43.667 -10 -69 -10h-4l-22 -42c40.667 -8 61 -28.333 61 -61c0 -28.667 -9 -51.334 -27 -68.001s-42.333 -25 -73 -25
c-26.667 0 -50.667 6.66699 -72 20l16 32c14.667 -10.667 33.334 -16 56.001 -16c16.667 0 30.5 4.66699 41.5 14s16.5 21.666 16.5 36.999c0 30.667 -22.333 45 -67 43l36 71c-43.333 12 -65 46 -65 102c0 10.667 1.66699 27 5 49l57 318h-101l7 40h101l24 136l49 8
l-25 -144h135l-7 -40h-135z" />
    <glyph glyph-name="Tcaron" unicode="&#x164;" horiz-adv-x="496" 
d="M556 700l-8 -43h-203l-117 -657h-50l117 657h-205l7 43h459zM311 771l-66 129h42l58 -94l92 94h43l-112 -129h-57z" />
    <glyph glyph-name="tcaron" unicode="&#x165;" horiz-adv-x="333" 
d="M353 718h43l-54 -157h-36zM231 650l-25 -144h135l-7 -40h-135l-56 -316c-2.66699 -11.333 -4 -25.333 -4 -42c0 -50 20.667 -75 62 -75c24.667 0 47 4.33301 67 13l-7 -44c-20.667 -6.66699 -43.667 -10 -69 -10c-68.667 0 -103 35.667 -103 107
c0 10.667 1.66699 27 5 49l57 318h-101l7 40h101l24 136z" />
    <glyph glyph-name="Tbar" unicode="&#x166;" horiz-adv-x="496" 
d="M178 0l62 352h-121l6 35h122l47 270h-204l7 43h459l-8 -43h-204l-47 -270h120l-6 -35h-121l-62 -352h-50z" />
    <glyph glyph-name="tbar" unicode="&#x167;" horiz-adv-x="328" 
d="M334 466h-135l-31 -174h121l-7 -37h-120l-19 -105c-2.66699 -11.333 -4 -25.333 -4 -42c0 -50 20.667 -75 62 -75c24.667 0 47 4.33301 67 13l-7 -44c-20.667 -6.66699 -43.667 -10 -69 -10c-68.667 0 -103 35.667 -103 107c0 10.667 1.66699 27 5 49l19 107h-91l6 37h92
l31 174h-101l7 40h101l24 136l50 8l-26 -144h135z" />
    <glyph glyph-name="Utilde" unicode="&#x168;" horiz-adv-x="667" 
d="M92 179c0 20 2.66602 47 7.99902 81l78 440h50l-77 -435c-5.33301 -33.333 -8 -60 -8 -80c0 -51.333 12.5 -89.5 37.5 -114.5s63.5 -37.5 115.5 -37.5c63.333 0 113.333 19 150 57s61.667 96.333 75 175l77 435h50l-77 -439c-16 -92 -47.167 -160.5 -93.5 -205.5
s-109.166 -67.5 -188.499 -67.5c-131.333 0 -197 63.667 -197 191zM425.999 813c-18.667 10.667 -34.0049 16 -46.0049 16c-21.333 0 -36 -12 -44 -36l-38 5c2.66699 22 11.334 39.167 26.001 51.5s33.334 18.5 56.001 18.5c18.667 0 40.334 -6.66699 65.001 -20
c20.667 -10.667 36.667 -16 48 -16c20.667 0 35.334 12 44.001 36l38 -5c-5.33301 -47.333 -32.666 -71 -81.999 -71c-18 0 -40.333 7 -67 21z" />
    <glyph glyph-name="utilde" unicode="&#x169;" horiz-adv-x="547" 
d="M69 108c0 17.333 2.00098 36.333 6.00098 57l60 341h48l-58 -331c-4 -24 -6 -44.667 -6 -62c0 -57.333 24.333 -86 73 -86c44.667 -1.33301 88.5 21.5 131.5 68.5s68.833 98.5 77.5 154.5l45 256h48l-89 -506h-42l17 116c-25.333 -39.333 -55.333 -70.833 -90 -94.5
s-71.334 -35.5 -110.001 -35.5c-74 0 -111 40.667 -111 122zM324.001 619c-18.667 10.667 -34.0049 16 -46.0049 16c-21.333 0 -36 -12 -44 -36l-38 5c2.66699 22 11.334 39.167 26.001 51.5s33.334 18.5 56.001 18.5c18.667 0 40.334 -6.66699 65.001 -20
c20.667 -10.667 36.667 -16 48 -16c20.667 0 35.334 12 44.001 36l38 -5c-5.33301 -47.333 -32.666 -71 -81.999 -71c-18 0 -40.333 7 -67 21z" />
    <glyph glyph-name="Umacron" unicode="&#x16a;" horiz-adv-x="667" 
d="M92 179c0 20 2.66602 47 7.99902 81l78 440h50l-77 -435c-5.33301 -33.333 -8 -60 -8 -80c0 -51.333 12.5 -89.5 37.5 -114.5s63.5 -37.5 115.5 -37.5c63.333 0 113.333 19 150 57s61.667 96.333 75 175l77 435h50l-77 -439c-16 -92 -47.167 -160.5 -93.5 -205.5
s-109.166 -67.5 -188.499 -67.5c-131.333 0 -197 63.667 -197 191zM314.999 794l7 39h229l-7 -39h-229z" />
    <glyph glyph-name="umacron" unicode="&#x16b;" horiz-adv-x="547" 
d="M69 108c0 17.333 2.00098 36.333 6.00098 57l60 341h48l-58 -331c-4 -24 -6 -44.667 -6 -62c0 -57.333 24.333 -86 73 -86c44.667 -1.33301 88.5 21.5 131.5 68.5s68.833 98.5 77.5 154.5l45 256h48l-89 -506h-42l17 116c-25.333 -39.333 -55.333 -70.833 -90 -94.5
s-71.334 -35.5 -110.001 -35.5c-74 0 -111 40.667 -111 122zM212.001 600l7 39h229l-7 -39h-229z" />
    <glyph glyph-name="Ubreve" unicode="&#x16c;" horiz-adv-x="667" 
d="M92 179c0 20 2.66602 47 7.99902 81l78 440h50l-77 -435c-5.33301 -33.333 -8 -60 -8 -80c0 -51.333 12.5 -89.5 37.5 -114.5s63.5 -37.5 115.5 -37.5c63.333 0 113.333 19 150 57s61.667 96.333 75 175l77 435h50l-77 -439c-16 -92 -47.167 -160.5 -93.5 -205.5
s-109.166 -67.5 -188.499 -67.5c-131.333 0 -197 63.667 -197 191zM329.999 867c0 9.33301 0.667969 18.667 2.00098 28h42c-0.666992 -4 -1 -12.333 -1 -25c0 -40.667 18.333 -61 55 -61c44.667 0 72.667 28.667 84 86h42c-18 -83.333 -61.667 -125 -131 -125
c-28.667 0 -51.334 8.16699 -68.001 24.5s-25 40.5 -25 72.5z" />
    <glyph glyph-name="ubreve" unicode="&#x16d;" horiz-adv-x="547" 
d="M69 108c0 17.333 2.00098 36.333 6.00098 57l60 341h48l-58 -331c-4 -24 -6 -44.667 -6 -62c0 -57.333 24.333 -86 73 -86c44.667 -1.33301 88.5 21.5 131.5 68.5s68.833 98.5 77.5 154.5l45 256h48l-89 -506h-42l17 116c-25.333 -39.333 -55.333 -70.833 -90 -94.5
s-71.334 -35.5 -110.001 -35.5c-74 0 -111 40.667 -111 122zM231.001 686c0 9.33301 0.666992 18.667 2 28h41c-0.666992 -4 -1 -12.333 -1 -25c0 -40.667 18.667 -61 56 -61c42.667 0 70.667 28.667 84 86h42c-18 -83.333 -62 -125 -132 -125
c-28.667 0 -51.167 8.16699 -67.5 24.5s-24.5 40.5 -24.5 72.5z" />
    <glyph glyph-name="Uring" unicode="&#x16e;" horiz-adv-x="667" 
d="M92 179c0 20 2.66602 47 7.99902 81l78 440h50l-77 -435c-5.33301 -33.333 -8 -60 -8 -80c0 -51.333 12.5 -89.5 37.5 -114.5s63.5 -37.5 115.5 -37.5c63.333 0 113.333 19 150 57s61.667 96.333 75 175l77 435h50l-77 -439c-16 -92 -47.167 -160.5 -93.5 -205.5
s-109.166 -67.5 -188.499 -67.5c-131.333 0 -197 63.667 -197 191zM340.999 833c0 31.333 11.001 56.5 33.001 75.5s49.333 28.5 82 28.5c24.667 0 44.834 -6.33301 60.501 -19s23.5 -30 23.5 -52l-2 -17c-4.66699 -26.667 -17.334 -47.667 -38.001 -63
s-45.334 -23 -74.001 -23c-25.333 0 -45.833 6.33301 -61.5 19s-23.5 29.667 -23.5 51zM501 860c0 14 -4.49902 24.833 -13.499 32.5s-21.5 11.5 -37.5 11.5c-20 0 -36.667 -6 -50 -18s-20 -27.667 -20 -47c0 -28.667 17.333 -43 52 -43c19.333 0 35.666 6 48.999 18
s20 27.333 20 46z" />
    <glyph glyph-name="uring" unicode="&#x16f;" horiz-adv-x="547" 
d="M69 108c0 17.333 2.00098 36.333 6.00098 57l60 341h48l-58 -331c-4 -24 -6 -44.667 -6 -62c0 -57.333 24.333 -86 73 -86c44.667 -1.33301 88.5 21.5 131.5 68.5s68.833 98.5 77.5 154.5l45 256h48l-89 -506h-42l17 116c-25.333 -39.333 -55.333 -70.833 -90 -94.5
s-71.334 -35.5 -110.001 -35.5c-74 0 -111 40.667 -111 122zM236.001 644c0 28 10.668 51.499 32.001 70.499s48.333 28.5 81 28.5c26.667 0 47.667 -6.66699 63 -20s23 -31.666 23 -54.999c0 -28.667 -10.5 -52.5 -31.5 -71.5s-47.833 -28.5 -80.5 -28.5
c-26.667 0 -47.834 6.66699 -63.501 20s-23.5 32 -23.5 56zM395.002 664.999c0 29.333 -16 44 -48 44c-21.333 0 -38.5 -5.66699 -51.5 -17s-19.5 -26.333 -19.5 -45c0 -13.333 4.33301 -24 13 -32s20.667 -12 36 -12c20.667 0 37.5 5.66699 50.5 17s19.5 26.333 19.5 45z
" />
    <glyph glyph-name="Uhungarumlaut" unicode="&#x170;" horiz-adv-x="667" 
d="M92 179c0 20 2.66602 47 7.99902 81l78 440h50l-77 -435c-5.33301 -33.333 -8 -60 -8 -80c0 -51.333 12.5 -89.5 37.5 -114.5s63.5 -37.5 115.5 -37.5c63.333 0 113.333 19 150 57s61.667 96.333 75 175l77 435h50l-77 -439c-16 -92 -47.167 -160.5 -93.5 -205.5
s-109.166 -67.5 -188.499 -67.5c-131.333 0 -197 63.667 -197 191zM344.999 771l84 129h58l-102 -129h-40zM450.999 771l99 129h60l-117 -129h-42z" />
    <glyph glyph-name="uhungarumlaut" unicode="&#x171;" horiz-adv-x="547" 
d="M69 108c0 17.333 2.00098 36.333 6.00098 57l60 341h48l-58 -331c-4 -24 -6 -44.667 -6 -62c0 -57.333 24.333 -86 73 -86c44.667 -1.33301 88.5 21.5 131.5 68.5s68.833 98.5 77.5 154.5l45 256h48l-89 -506h-42l17 116c-25.333 -39.333 -55.333 -70.833 -90 -94.5
s-71.334 -35.5 -110.001 -35.5c-74 0 -111 40.667 -111 122zM242.001 581l89 133h55l-105 -133h-39zM348.001 581l102 133h57l-120 -133h-39z" />
    <glyph glyph-name="Uogonek" unicode="&#x172;" horiz-adv-x="667" 
d="M597 700l50.999 -0.000976562l-78 -441c-18 -104 -54 -177.333 -108 -220c-66 -53.333 -105 -109 -117 -167c-0.666992 -2 -1 -6 -1 -12c0 -17.333 9.66699 -26 29 -26c16.667 0 31.334 3.33301 44.001 10l-6 -37c-16 -7.33301 -33 -11 -51 -11s-32 4.83301 -42 14.5
s-15 23.167 -15 40.5c0 8 0.333008 13 1 15c8 44 31.667 87.667 71 131c-29.333 -7.33301 -58.666 -11 -87.999 -11c-130 0 -195 63.333 -195 190c0 20.667 2.66699 48 8 82l78 442h50l-77 -437c-5.33301 -34 -8 -61.333 -8 -82c0 -51.333 12.333 -89.166 37 -113.499
s63 -36.5 115 -36.5c123.333 0 198.666 77.333 225.999 232z" />
    <glyph glyph-name="uogonek" unicode="&#x173;" horiz-adv-x="547" 
d="M446 506h48.001l-89 -506c-63.333 -58.667 -95 -106 -95 -142c0 -15.333 9.66699 -23 29 -23c14 0 28.333 3 43 9l-6 -36c-16 -8 -33.667 -12 -53 -12c-18 0 -31.833 4.66699 -41.5 14s-14.5 22 -14.5 38c0 42 32 92.667 96 152l17 116
c-25.333 -39.333 -55.333 -70.833 -90 -94.5s-71.334 -35.5 -110.001 -35.5c-74 0 -111 40.667 -111 122c0 17.333 2 36.333 6 57l60 341h48l-58 -331c-4 -24 -6 -44.667 -6 -62c0 -57.333 24.333 -86 73 -86c44.667 -1.33301 88.5 21.5 131.5 68.5s68.833 98.5 77.5 154.5z
" />
    <glyph glyph-name="Wcircumflex" unicode="&#x174;" horiz-adv-x="895" 
d="M597 -7l-72 456.999l-17 109h-1c-8.66699 -17.333 -27 -51.333 -55 -102l-249 -464h-18l-93 707h50l60 -458c6 -48 11 -93.333 15 -136h1c16 32.667 35.667 70.334 59 113.001l238 445h19l65 -414c2 -12 6.33301 -39.667 13 -83l9 -61l69 145l216 449h54l-344 -707h-19z
M417 770.999l112 129h57l66 -129h-41l-57 93l-92 -93h-45z" />
    <glyph glyph-name="wcircumflex" unicode="&#x175;" horiz-adv-x="706" 
d="M685 506h49.999l-261 -514h-19l-56 295l-21 107l-58 -111l-159 -291h-18l-83 514h49l44 -294c4 -24 9.33301 -66 16 -126l13 25l43 80l159 294h16l56 -293c6 -27.333 13.333 -63 22 -107c18.667 42.667 40.334 88.667 65.001 138zM286.999 582l108 132h59l60 -132h-38
l-55 97l-91 -97h-43z" />
    <glyph glyph-name="Ycircumflex" unicode="&#x176;" horiz-adv-x="554" 
d="M216 0l55 309l-183 391h56l99 -218c6 -14 25.333 -55.333 58 -124h2l100 132l160 210h60l-303 -394l-54 -306h-50zM246 771l112 129h57l66 -129h-41l-57 93l-92 -93h-45z" />
    <glyph glyph-name="ycircumflex" unicode="&#x177;" horiz-adv-x="465" 
d="M445 506l51.998 0.00195312l-281 -510c-31.333 -57.333 -57.666 -101 -78.999 -131c-40.667 -58 -98.667 -88.333 -174 -91l7 41c32.667 0 59.667 7.33301 81 22c22.667 15.333 41.667 34.666 57 57.999c17.333 25.333 39.333 62.666 66 111.999l-116 499h49l73 -319
l27 -122c20.667 41.333 43.334 84 68.001 128zM175.998 582.002l108 132h59l60 -132h-38l-55 97l-91 -97h-43z" />
    <glyph glyph-name="Ydieresis" unicode="&#x178;" horiz-adv-x="554" 
d="M216 0l55 309l-183 391h56l99 -218c6 -14 25.333 -55.333 58 -124h2l100 132l160 210h60l-303 -394l-54 -306h-50zM256 821c0 4 0.333008 6.66602 1 7.99902c2 10.667 7.16699 19.667 15.5 27s18.166 11 29.499 11c10 0 18 -2.83301 24 -8.5s9 -13.167 9 -22.5
c0 -12 -4.66699 -22.5 -14 -31.5s-20 -13.5 -32 -13.5c-9.33301 0 -17.166 2.83301 -23.499 8.5s-9.5 12.834 -9.5 21.501zM421 821.999c0 12 4.83301 22.5 14.5 31.5s20.5 13.5 32.5 13.5c9.33301 0 17 -2.83301 23 -8.5s9 -13.167 9 -22.5c0 -12 -4.5 -22.5 -13.5 -31.5
s-19.5 -13.5 -31.5 -13.5c-10 0 -18.167 2.83301 -24.5 8.5s-9.5 13.167 -9.5 22.5z" />
    <glyph glyph-name="Zacute" unicode="&#x179;" horiz-adv-x="554" 
d="M-9 0l2 16l427 541l78 100v1h-109h-255l7 42h439l-2 -16l-436 -554c-4 -2.66699 -27 -31.667 -69 -87l1 -1c12.667 0.666992 48 1 106 1h303l-8 -43h-484zM330 771l90 129h61l-109 -129h-42z" />
    <glyph glyph-name="zacute" unicode="&#x17a;" horiz-adv-x="440" 
d="M432 491l-298 -367.001c-26.667 -34 -49.667 -61.667 -69 -83l81 1h221l-7 -42h-370l2 17l298 364c19.333 24.667 42.333 52.334 69 83.001h-89h-175l7 42h332zM245 576.999l91 132h57l-109 -132h-39z" />
    <glyph glyph-name="Zdotaccent" unicode="&#x17b;" horiz-adv-x="554" 
d="M-9 0l2 16l427 541l78 100v1h-109h-255l7 42h439l-2 -16l-436 -554c-4 -2.66699 -27 -31.667 -69 -87l1 -1c12.667 0.666992 48 1 106 1h303l-8 -43h-484zM326 824c0 15.333 4.66895 27.333 14.002 36s21.333 13 36 13c11.333 0 20.166 -3.83301 26.499 -11.5
s8.5 -17.5 6.5 -29.5c-2.66699 -12.667 -8.33398 -22.667 -17.001 -30s-19 -11 -31 -11c-10.667 0 -19.167 3 -25.5 9s-9.5 14 -9.5 24z" />
    <glyph glyph-name="zdotaccent" unicode="&#x17c;" horiz-adv-x="440" 
d="M432 491l-298 -367.001c-26.667 -34 -49.667 -61.667 -69 -83l81 1h221l-7 -42h-370l2 17l298 364c19.333 24.667 42.333 52.334 69 83.001h-89h-175l7 42h332zM243 633.999c5.33301 25.333 21 38.001 47 38.001c11.333 0 20 -3.66699 26 -11s8 -16.333 6 -27
c-5.33301 -26 -21 -39 -47 -39c-11.333 0 -20 3.66699 -26 11s-8 16.666 -6 27.999z" />
    <glyph glyph-name="Zcaron" unicode="&#x17d;" horiz-adv-x="554" 
d="M-9 0l2 16l427 541l78 100v1h-109h-255l7 42h439l-2 -16l-436 -554c-4 -2.66699 -27 -31.667 -69 -87l1 -1c12.667 0.666992 48 1 106 1h303l-8 -43h-484zM328 771l-66 129h42l58 -94l92 94h43l-112 -129h-57z" />
    <glyph glyph-name="zcaron" unicode="&#x17e;" horiz-adv-x="440" 
d="M432 491l-298 -367.001c-26.667 -34 -49.667 -61.667 -69 -83l81 1h221l-7 -42h-370l2 17l298 364c19.333 24.667 42.333 52.334 69 83.001h-89h-175l7 42h332zM242 576.999l-60 132h40l55 -99l92 99h41l-109 -132h-59z" />
    <glyph glyph-name="longs" unicode="&#x17f;" horiz-adv-x="269" 
d="M379 731l-6.99902 -42c-20 8.66699 -42.333 13 -67 13c-22.667 0 -41.834 -8.5 -57.501 -25.5s-26.167 -40.833 -31.5 -71.5l-121 -685c-17.333 -93.333 -63 -140 -137 -140c-20 0 -39 3.33301 -57 10l7 40c14.667 -5.33301 30.334 -8 47.001 -8c50 0 81 33 93 99l95 543
h-84l8 42h84l18 105c8 43.333 23.833 76.333 47.5 99s52.5 34 86.5 34c29.333 0 54.666 -4.33301 75.999 -13z" />
    <glyph glyph-name="florin" unicode="&#x192;" horiz-adv-x="397" 
d="M475 690l-9 -46.001c-21.333 10.667 -44.333 16 -69 16c-52.667 0 -87.667 -33 -105 -99l-54 -200h129l-8 -42h-132l-87 -325c-18.667 -70.667 -43.334 -121.167 -74.001 -151.5s-75.667 -50.166 -135 -59.499l9 52c42.667 8 74.334 23.5 95.001 46.5s39 64.167 55 123.5
l85 314h-102l7 42h106l56 208c11.333 44 30.5 78 57.5 102s59.5 36 97.5 36c26 0 52 -5.66699 78 -17z" />
    <glyph glyph-name="Gcaron" unicode="&#x1e6;" horiz-adv-x="561" 
d="M67 262c-1.33301 128.667 32.1689 235.999 100.502 321.999s153.833 128 256.5 126c50.667 0 94 -9 130 -27l-8 -44c-33.333 18 -74 27 -122 27c-87.333 2 -160.333 -36.167 -219 -114.5s-87.334 -175.833 -86.001 -292.5c0 -150 63 -225 189 -225
c36.667 0 69 5.66699 97 17l50 276h49l-54 -307c-47.333 -20.667 -96 -31 -146 -31c-76.667 0 -135.334 23.333 -176.001 70s-61 114.334 -61 203.001zM389.002 770.999l-66 129h42l58 -94l92 94h43l-112 -129h-57z" />
    <glyph glyph-name="gcaron" unicode="&#x1e7;" horiz-adv-x="530" 
d="M476 496l-90.999 -513.001c-12 -68 -38.333 -119.833 -79 -155.5s-94 -53.5 -160 -53.5c-47.333 0 -86.333 7.66699 -117 23l8 42c29.333 -15.333 66.666 -23 111.999 -23c51.333 0 93 14.333 125 43s53 70.334 63 125.001l27 144h-1
c-24.667 -40 -54.5 -71.667 -89.5 -95s-72.833 -35 -113.5 -35c-76.667 0 -115 56.333 -115 169c-1.33301 98.667 26 182.5 82 251.5s123.333 102.833 202 101.5c43.333 0 92.333 -8 147 -24zM386.001 258.999l36 206c-34 8.66699 -65 13 -93 13
c-66 0 -121.5 -29.333 -166.5 -88s-67.5 -132.667 -67.5 -222c0 -86 27 -129 81 -129c46 0 90 22.5 132 67.5s68 95.833 78 152.5zM310.001 580.999l-60 132h40l55 -99l92 99h41l-109 -132h-59z" />
    <glyph glyph-name="AEacute" unicode="&#x1fc;" horiz-adv-x="809" 
d="M823 657h-300l-47 -268h278l-8 -42h-278l-53 -304h309l-8 -43h-357l33 187h-251l-138 -187h-54l513 700h368zM399 230l52 297l16 88l7 34h-1c-20 -34.667 -43.333 -70 -70 -106l-231 -313h227zM618 771l90 129h61l-109 -129h-42z" />
    <glyph glyph-name="aeacute" unicode="&#x1fd;" horiz-adv-x="771" 
d="M406 251c-4.66699 -22.667 -7.00195 -47.334 -7.00195 -74.001c0 -48 11.167 -84.5 33.5 -109.5s54.166 -37.5 95.499 -37.5c47.333 0 89.333 9.33301 126 28l-7 -47c-36 -15.333 -78 -23 -126 -23c-45.333 0 -81.666 12 -108.999 36s-44 58 -50 102
c-17.333 -44 -43.5 -78 -78.5 -102s-75.833 -36 -122.5 -36c-42 0 -75.167 11.167 -99.5 33.5s-36.5 53.5 -36.5 93.5c0 58 21.167 105.167 63.5 141.5s99.833 54.5 172.5 54.5c24.667 0 60 -3.66699 106 -11c4 22 6 42 6 60c0 78 -40.333 117 -121 117
c-48 0 -95.667 -12 -143 -36l7 47c42.667 20.667 90 31 142 31c96 0 146.667 -44.667 152 -134c24 42.667 54 75.834 90 99.501s75 35.5 117 35.5c40.667 0 72.334 -10.667 95.001 -32s34 -51.333 34 -90c0 -53.333 -17 -94.333 -51 -123s-82 -43 -144 -43
c-43.333 0 -91.666 6.33301 -144.999 19zM414.998 291c51.333 -11.333 96 -17 134 -17c98 0 147 40.333 147 121c0 55.333 -27.333 83 -82 83c-43.333 0 -83.333 -17.333 -120 -52c-36.667 -33.333 -63 -78.333 -79 -135zM347.998 198l6.99902 40.001l4 21
c-39.333 6 -72 9 -98 9c-57.333 0 -102.666 -13.833 -135.999 -41.5s-50 -63.834 -50 -108.501c0 -28 8.16699 -49.667 24.5 -65s39.5 -23 69.5 -23c44.667 0 83.5 15.5 116.5 46.5s53.833 71.5 62.5 121.5zM413.997 582.001l91 132h57l-109 -132h-39z" />
    <glyph glyph-name="Oslashacute" unicode="&#x1fe;" horiz-adv-x="664" 
d="M677 714l-82.002 -99.999c24.667 -41.333 37 -95 37 -161c1.33301 -83.333 -11.667 -160.5 -39 -231.5s-67.666 -128.333 -120.999 -172s-114.333 -64.834 -183 -63.501c-67.333 0 -120.666 21 -159.999 63l-52 -63h-50l78 95c-26 43.333 -39 98.666 -39 165.999
c-0.666992 83.333 12.5 160.5 39.5 231.5s67.167 128.333 120.5 172s114 64.834 182 63.501c71.333 0 126 -22.333 164 -67l55 67h50zM116.998 251.001c0 -50 7.99902 -92.3311 23.999 -126.998l398 483c-30 41.333 -74.333 62 -133 62
c-56.667 1.33301 -107.667 -18.334 -153 -59.001s-79.666 -92.834 -102.999 -156.501s-34.333 -131.167 -33 -202.5zM580.997 449.003c0 46.667 -7 87 -21 121l-398 -481c30 -38.667 73.667 -58 131 -58c56.667 -1.33301 107.5 18.167 152.5 58.5s79 92.333 102 156
s34.167 131.5 33.5 203.5zM388.997 771.003l90 129h61l-109 -129h-42z" />
    <glyph glyph-name="oslashacute" unicode="&#x1ff;" horiz-adv-x="517" 
d="M495 520l-56.999 -67.999c20.667 -30.667 31 -73.334 31 -128.001c0 -98 -24.667 -178.833 -74 -242.5s-112 -95.5 -188 -95.5c-47.333 0 -85 15 -113 45l-37 -45h-47l61 75c-16.667 31.333 -25 71 -25 119c0 98.667 24.667 180 74 244s111.666 96 186.999 96
c46 0 82 -13.667 108 -41l33 41h47zM96.001 181.001c0 -30 4 -56 12 -78l277 342c-20 22 -46.667 33 -80 33c-58.667 1.33301 -108.5 -27 -149.5 -85s-60.833 -128.667 -59.5 -212zM419.001 324.001c0 33.333 -4.66797 62.333 -14.001 87l-280 -343
c18.667 -26.667 47.334 -40 86.001 -40c59.333 0 108.833 28.167 148.5 84.5s59.5 126.833 59.5 211.5zM284 582.001l91 132h57l-109 -132h-39z" />
    <glyph glyph-name="uni0218" unicode="&#x218;" horiz-adv-x="500" 
d="M7 25l8.00098 45.9971c34.667 -14 63.667 -23.667 87 -29s51.666 -8 84.999 -8c62 0 111.667 15.333 149 46s56 72 56 124c0 32 -10.667 57.667 -32 77c-22 19.333 -56.667 40.333 -104 63c-52 23.333 -89.667 47.833 -113 73.5s-35 57.834 -35 96.501
c0 58.667 20.333 106 61 142s93 54 157 54c70.667 0 128 -10.333 172 -31l-8 -45c-54 21.333 -110 32 -168 32c-48 0 -87.167 -13.5 -117.5 -40.5s-45.5 -62.5 -45.5 -106.5c0 -30 10 -54.667 30 -74c18 -17.333 51.667 -38 101 -62
c56 -27.333 95.833 -53.666 119.5 -78.999s35.5 -57.666 35.5 -96.999c0 -66 -24.167 -118.833 -72.5 -158.5s-111.5 -59.5 -189.5 -59.5c-66 0 -124.667 12 -176 36zM115.001 -252.003l58 166h45l-64 -166h-39z" />
    <glyph glyph-name="uni0219" unicode="&#x219;" horiz-adv-x="405" 
d="M7 18l7.99707 42.0029c48 -19.333 94 -29 138 -29c44.667 0 79.834 9 105.501 27s38.5 42.667 38.5 74c0 25.333 -8.33301 46.666 -25 63.999s-43 34.333 -79 51c-42.667 20 -73.667 40.667 -93 62s-29 47.666 -29 78.999c0 40 15.167 71.167 45.5 93.5
s71.833 33.5 124.5 33.5c48 0 91 -7.66699 129 -23l-7 -42c-36 15.333 -74.667 23 -116 23c-39.333 0 -70 -7.5 -92 -22.5s-33 -35.833 -33 -62.5c0 -22 7.33301 -40.5 22 -55.5s40.334 -30.833 77.001 -47.5c44.667 -20.667 76.834 -42.834 96.501 -66.501
s29.5 -52.5 29.5 -86.5c0 -44 -17.5 -78.667 -52.5 -104s-82.833 -38 -143.5 -38c-56.667 0 -104.667 9.33301 -144 28zM83.9971 -252.997l58 166h45l-64 -166h-39z" />
    <glyph glyph-name="uni021A" unicode="&#x21a;" horiz-adv-x="496" 
d="M556 700l-8 -43h-203l-117 -657h-50l117 657h-205l7 43h459zM123 -252l58 166h45l-64 -166h-39z" />
    <glyph glyph-name="uni021B" unicode="&#x21b;" horiz-adv-x="328" 
d="M199 466l-56 -316c-2.66699 -11.333 -4 -25.333 -4 -42c0 -50 20.667 -75 62 -75c24.667 0 47 4.33301 67 13l-7 -44c-20.667 -6.66699 -43.667 -10 -69 -10c-68.667 0 -103 35.667 -103 107c0 10.667 1.66699 27 5 49l57 318h-101l7 40h101l24 136l49 8l-25 -144h135
l-7 -40h-135zM92 -252l58 166h45l-64 -166h-39z" />
    <glyph glyph-name="uni0232" unicode="&#x232;" horiz-adv-x="554" 
d="M216 0l55 309l-183 391h56l99 -218c6 -14 25.333 -55.333 58 -124h2l100 132l160 210h60l-303 -394l-54 -306h-50zM255 794l7 39h229l-7 -39h-229z" />
    <glyph glyph-name="uni0233" unicode="&#x233;" horiz-adv-x="465" 
d="M445 506l51.998 0.00195312l-281 -510c-31.333 -57.333 -57.666 -101 -78.999 -131c-40.667 -58 -98.667 -88.333 -174 -91l7 41c32.667 0 59.667 7.33301 81 22c22.667 15.333 41.667 34.666 57 57.999c17.333 25.333 39.333 62.666 66 111.999l-116 499h49l73 -319
l27 -122c20.667 41.333 43.334 84 68.001 128zM177.998 600.002l7 39h229l-7 -39h-229z" />
    <glyph glyph-name="uni0237" unicode="&#x237;" horiz-adv-x="250" 
d="M-108 -209l8 40c14.667 -6 32 -9 52 -9c49.333 0 80 33.333 92 100l104 584h48l-104 -586c-17.333 -93.333 -64 -140 -140 -140c-20 0 -40 3.66699 -60 11z" />
    <glyph glyph-name="circumflex" unicode="&#x2c6;" horiz-adv-x="474" 
d="M112 763l108 132h59l60 -132h-38l-55 97l-91 -97h-43z" />
    <glyph glyph-name="caron" unicode="&#x2c7;" horiz-adv-x="474" 
d="M295 763l-60 132h40l55 -99l92 99h41l-109 -132h-59z" />
    <glyph glyph-name="breve" unicode="&#x2d8;" horiz-adv-x="441" 
d="M222 867c0 9.33301 0.666992 18.667 2 28h41c-0.666992 -4 -1 -12.333 -1 -25c0 -40.667 18.667 -61 56 -61c42.667 0 70.667 28.667 84 86h42c-18 -83.333 -62 -125 -132 -125c-28.667 0 -51.167 8.16699 -67.5 24.5s-24.5 40.5 -24.5 72.5z" />
    <glyph glyph-name="dotaccent" unicode="&#x2d9;" horiz-adv-x="302" 
d="M143 859c5.33301 25.333 21 38.001 47 38.001c11.333 0 20 -3.66699 26 -11s8 -16.333 6 -27c-5.33301 -26 -21 -39 -47 -39c-11.333 0 -20 3.66699 -26 11s-8 16.666 -6 27.999z" />
    <glyph glyph-name="ring" unicode="&#x2da;" horiz-adv-x="417" 
d="M214 800c0 28 10.668 51.499 32.001 70.499s48.333 28.5 81 28.5c26.667 0 47.667 -6.66699 63 -20s23 -31.666 23 -54.999c0 -28.667 -10.5 -52.5 -31.5 -71.5s-47.833 -28.5 -80.5 -28.5c-26.667 0 -47.834 6.66699 -63.501 20s-23.5 32 -23.5 56zM373.001 820.999
c0 29.333 -16 44 -48 44c-21.333 0 -38.5 -5.66699 -51.5 -17s-19.5 -26.333 -19.5 -45c0 -13.333 4.33301 -24 13 -32s20.667 -12 36 -12c20.667 0 37.5 5.66699 50.5 17s19.5 26.333 19.5 45z" />
    <glyph glyph-name="ogonek" unicode="&#x2db;" horiz-adv-x="340" 
d="M37 -152c0 42 32 92.666 96 151.999h42c-63.333 -57.333 -95 -104.666 -95 -141.999c0 -15.333 9.66699 -23 29 -23c14 0 28.333 3 43 9l-6 -36c-16 -8 -33.667 -12 -53 -12c-18 0 -31.833 4.66699 -41.5 14s-14.5 22 -14.5 38z" />
    <glyph glyph-name="tilde" unicode="&#x2dc;" horiz-adv-x="477" 
d="M335 843c-18.667 10.667 -34.0039 16 -46.0039 16c-21.333 0 -36 -12 -44 -36l-38 5c2.66699 22 11.334 39.167 26.001 51.5s33.334 18.5 56.001 18.5c18.667 0 40.334 -6.66699 65.001 -20c20.667 -10.667 36.667 -16 48 -16c20 0 34.667 12 44 36l38 -5
c-5.33301 -47.333 -32.666 -71 -81.999 -71c-18 0 -40.333 7 -67 21z" />
    <glyph glyph-name="hungarumlaut" unicode="&#x2dd;" horiz-adv-x="440" 
d="M102 762l89 133h55l-105 -133h-39zM208 762l102 133h57l-120 -133h-39z" />
    <glyph glyph-name="gravecomb" unicode="&#x300;" 
d="M-172 763l-61 132h57l43 -132h-39z" />
    <glyph glyph-name="acutecomb" unicode="&#x301;" 
d="M-250 763l91 132h57l-109 -132h-39z" />
    <glyph glyph-name="uni0302" unicode="&#x302;" 
d="M-362 763l108 132h59l60 -132h-38l-55 97l-91 -97h-43z" />
    <glyph glyph-name="tildecomb" unicode="&#x303;" 
d="M-152 843c-18.667 10.667 -34.0049 16 -46.0049 16c-21.333 0 -36 -12 -44 -36l-38 5c2.66699 22 11.334 39.167 26.001 51.5s33.334 18.5 56.001 18.5c18.667 0 40.334 -6.66699 65.001 -20c20.667 -10.667 36.667 -16 48 -16c20.667 0 35.334 12 44.001 36l38 -5
c-5.33301 -47.333 -32.666 -71 -81.999 -71c-18 0 -40.333 7 -67 21z" />
    <glyph glyph-name="uni0304" unicode="&#x304;" 
d="M-244 600l7 39h229l-7 -39h-229z" />
    <glyph glyph-name="uni0306" unicode="&#x306;" 
d="M-219 867c0 9.33301 0.666992 18.667 2 28h41c-0.666992 -4 -1 -12.333 -1 -25c0 -40.667 18.667 -61 56 -61c42.667 0 70.667 28.667 84 86h42c-18 -83.333 -62 -125 -132 -125c-28.667 0 -51.167 8.16699 -67.5 24.5s-24.5 40.5 -24.5 72.5z" />
    <glyph glyph-name="uni0307" unicode="&#x307;" 
d="M-158 859c5.33301 25.333 21 38.001 47 38.001c11.333 0 20 -3.66699 26 -11s8 -16.333 6 -27c-5.33301 -26 -21 -39 -47 -39c-11.333 0 -20 3.66699 -26 11s-8 16.666 -6 27.999z" />
    <glyph glyph-name="uni0308" unicode="&#x308;" 
d="M-331 861c0.666992 10.667 5.16797 19.667 13.501 27s18.166 11 29.499 11c8.66699 0 15.834 -2.66699 21.501 -8s8.5 -12.333 8.5 -21c0 -11.333 -4.33301 -21.333 -13 -30s-18.667 -13 -30 -13c-10 0 -17.833 3.33301 -23.5 10s-7.83398 14.667 -6.50098 24z
M-175.999 861c0.666992 10.667 5.33691 19.667 14.0039 27s18.667 11 30 11c9.33301 0 16.666 -3.16699 21.999 -9.5s7.66602 -14.5 6.99902 -24.5c-1.33301 -10.667 -6 -19.667 -14 -27s-17.333 -11 -28 -11s-18.834 3.33301 -24.501 10s-7.83398 14.667 -6.50098 24z" />
    <glyph glyph-name="uni030A" unicode="&#x30a;" 
d="M-203 800c0 28 10.668 51.499 32.001 70.499s48.333 28.5 81 28.5c26.667 0 47.667 -6.66699 63 -20s23 -31.666 23 -54.999c0 -28.667 -10.5 -52.5 -31.5 -71.5s-47.833 -28.5 -80.5 -28.5c-26.667 0 -47.834 6.66699 -63.501 20s-23.5 32 -23.5 56zM-43.999 820.999
c0 29.333 -16 44 -48 44c-21.333 0 -38.5 -5.66699 -51.5 -17s-19.5 -26.333 -19.5 -45c0 -13.333 4.33301 -24 13 -32s20.667 -12 36 -12c20.667 0 37.5 5.66699 50.5 17s19.5 26.333 19.5 45z" />
    <glyph glyph-name="uni030B" unicode="&#x30b;" 
d="M-337 762l89 133h55l-105 -133h-39zM-231 762l102 133h57l-120 -133h-39z" />
    <glyph glyph-name="uni030C" unicode="&#x30c;" 
d="M-179 763l-60 132h40l55 -99l92 99h41l-109 -132h-59z" />
    <glyph glyph-name="uni0312" unicode="&#x312;" 
d="M-90 776l53 135h42l-48 -135h-47z" />
    <glyph glyph-name="uni0326" unicode="&#x326;" 
d="M-269 -252l58 166h45l-64 -166h-39z" />
    <glyph glyph-name="uni0327" unicode="&#x327;" 
d="M-348 -184l16.999 32.002c14.667 -10.667 33.334 -16 56.001 -16c16.667 0 30.5 4.66699 41.5 14s16.5 21.666 16.5 36.999c0 30.667 -22.333 45 -67 43l38 75h37l-27 -51c40.667 -8 61 -28.333 61 -61c0 -28.667 -9.16699 -51.334 -27.5 -68.001s-42.833 -25 -73.5 -25
c-25.333 0 -49.333 6.66699 -72 20z" />
    <glyph glyph-name="uni0328" unicode="&#x328;" 
d="M-300 -152c0 42 32.001 92.666 96.001 151.999h42c-63.333 -57.333 -95 -104.666 -95 -141.999c0 -15.333 9.66699 -23 29 -23c13.333 0 27.666 3 42.999 9l-6 -36c-16 -8 -33.667 -12 -53 -12c-18 0 -31.833 4.66699 -41.5 14s-14.5 22 -14.5 38z" />
    <glyph glyph-name="tonos" unicode="&#x384;" horiz-adv-x="315" 
d="M105 765l59 130h52l-76 -130h-35z" />
    <glyph glyph-name="dieresistonos" unicode="&#x385;" horiz-adv-x="451" 
d="M297 765l43 130h47l-57 -130h-33zM208 824c0 13.333 4.49902 24.332 13.499 32.999s19.833 13 32.5 13c10 0 17.833 -3.66699 23.5 -11s7.83398 -16.333 6.50098 -27c-2 -10.667 -7.16699 -19.667 -15.5 -27s-17.833 -11 -28.5 -11c-9.33301 0 -17 2.83301 -23 8.5
s-9 12.834 -9 21.501zM394.999 823.999c0 13.333 4.49902 24.332 13.499 32.999s19.833 13 32.5 13c10 0 17.833 -3.66699 23.5 -11s7.83398 -16.333 6.50098 -27c-2 -10.667 -7.16699 -19.667 -15.5 -27s-17.833 -11 -28.5 -11c-9.33301 0 -17 2.83301 -23 8.5
s-9 12.834 -9 21.501z" />
    <glyph glyph-name="Alphatonos" unicode="&#x386;" horiz-adv-x="604" 
d="M503 0l-42 188h-338l-109 -188h-52l412 706h13l166 -706h-50zM366 608l-12 -21c-26.667 -47.333 -42 -74.333 -46 -81l-160 -275h304l-65 276c-4 16 -10.667 49.667 -20 101h-1zM158 570l59 130h52l-76 -130h-35z" />
    <glyph glyph-name="Epsilontonos" unicode="&#x388;" horiz-adv-x="569" 
d="M582 656h-298l-47 -265h277l-8 -45h-277l-53 -302h309l-8 -44h-359l123 700h349zM86 570l59 130h52l-76 -130h-35z" />
    <glyph glyph-name="Etatonos" unicode="&#x389;" horiz-adv-x="710" 
d="M637 700h50l-123 -700h-50l61 346h-346l-61 -346h-50l123 700h50l-55 -311h346zM86 570l59 130h52l-76 -130h-35z" />
    <glyph glyph-name="Iotatonos" unicode="&#x38a;" horiz-adv-x="314" 
d="M118 0l123 700h51l-123 -700h-51zM86 570l59 130h52l-76 -130h-35z" />
    <glyph glyph-name="Omicrontonos" unicode="&#x38c;" horiz-adv-x="765" 
d="M164 247c-0.666992 84.667 13.165 162.835 41.498 234.502s69 128.667 122 171s112.5 62.833 178.5 61.5c72.667 0 128.167 -23 166.5 -69s57.5 -110 57.5 -192c0.666992 -84.667 -13.166 -162.834 -41.499 -234.501s-69.166 -128.667 -122.499 -171
s-113 -62.833 -179 -61.5c-71.333 0 -126.333 23.167 -165 69.5s-58 110.166 -58 191.499zM678.999 449.001c0 70.667 -15.167 124.998 -45.5 162.998s-73.5 57 -129.5 57c-55.333 1.33301 -105.5 -17.5 -150.5 -56.5s-79.5 -90.667 -103.5 -155
s-35.667 -133.166 -35 -206.499c0 -70.667 15.167 -125 45.5 -163s73.833 -57 130.5 -57c54.667 -1.33301 104.334 17.334 149.001 56.001s79.167 90.167 103.5 154.5s36.166 133.5 35.499 207.5zM148.999 569.999l59 130h52l-76 -130h-35z" />
    <glyph glyph-name="Upsilontonos" unicode="&#x38e;" horiz-adv-x="666" 
d="M348 0l55 309l-183 391h56l99 -218c6 -14 25.333 -55.333 58 -124h2l100 132l160 210h60l-303 -394l-54 -306h-50zM66 570l59 130h52l-76 -130h-35z" />
    <glyph glyph-name="Omegatonos" unicode="&#x38f;" horiz-adv-x="745" 
d="M523 43h79h83l-7 -43h-247l2 13c150.667 126.667 226 272.334 226 437.001c0 72 -15.333 126.5 -46 163.5s-73.667 55.5 -129 55.5c-56 2 -106.333 -17 -151 -57s-78.167 -89 -100.5 -147s-33.166 -117 -32.499 -177c0 -43.333 5 -82 15 -116
c12 -36.667 23.667 -64.334 35 -83.001c14 -22 31.667 -47.333 53 -76l-3 -13h-248l8 43h103h65c-52.667 69.333 -79 152.333 -79 249c-0.666992 66.667 12.166 132.167 38.499 196.5s66.333 118.5 120 162.5s114.167 65 181.5 63c68.667 0 122.667 -22.667 162 -68
s59 -109 59 -191c0 -76 -17 -150.667 -51 -224c-34.667 -73.333 -80 -136 -136 -188zM114 570l59 130h52l-76 -130h-35z" />
    <glyph glyph-name="iotadieresistonos" unicode="&#x390;" horiz-adv-x="283" 
d="M65 90c0 18 1.66699 36.333 5 55l64 361h48l-63 -355c-3.33301 -18.667 -5 -36.667 -5 -54c0 -24 4.5 -41.333 13.5 -52s23.5 -16 43.5 -16c22 0 43 3.66699 63 11l-8 -42c-22.667 -6.66699 -45.667 -10 -69 -10c-61.333 0 -92 34 -92 102zM141 568l43 130h47l-57 -130
h-33zM52 627c0 13.333 4.49902 24.332 13.499 32.999s19.833 13 32.5 13c10 0 17.833 -3.66699 23.5 -11s7.83398 -16.333 6.50098 -27c-2 -10.667 -7.16699 -19.667 -15.5 -27s-17.833 -11 -28.5 -11c-9.33301 0 -17 2.83301 -23 8.5s-9 12.834 -9 21.501zM238.999 626.999
c0 13.333 4.49902 24.332 13.499 32.999s19.833 13 32.5 13c10 0 17.833 -3.66699 23.5 -11s7.83398 -16.333 6.50098 -27c-2 -10.667 -7.16699 -19.667 -15.5 -27s-17.833 -11 -28.5 -11c-9.33301 0 -17 2.83301 -23 8.5s-9 12.834 -9 21.501z" />
    <glyph glyph-name="Alpha" unicode="&#x391;" horiz-adv-x="604" 
d="M503 0l-42 188h-338l-109 -188h-52l412 706h13l166 -706h-50zM366 608l-12 -21c-26.667 -47.333 -42 -74.333 -46 -81l-160 -275h304l-65 276c-4 16 -10.667 49.667 -20 101h-1z" />
    <glyph glyph-name="Beta" unicode="&#x392;" horiz-adv-x="553" 
d="M497 236c0 -74.667 -21.834 -132.667 -65.501 -174s-106.167 -62 -187.5 -62h-187l123 700h164c57.333 0 101.333 -11.667 132 -35s46 -56.666 46 -99.999c0 -48.667 -12.167 -89.834 -36.5 -123.501s-58.166 -57.5 -101.499 -71.5c36 -6.66699 63.833 -21.667 83.5 -45
s29.5 -53 29.5 -89zM222.999 657l-47 -267h114c56.667 0 101 15 133 45s48 70.333 48 121c0 35.333 -10.333 61 -31 77s-52.667 24 -96 24h-121zM445.999 232c0 77.333 -51.667 116.001 -155 116.001h-122l-54 -305h126c67.333 0 118.333 16.167 153 48.5
s52 79.166 52 140.499z" />
    <glyph glyph-name="Gamma" unicode="&#x393;" horiz-adv-x="454" 
d="M57 0l123 700h332l-8 -43h-281l-116 -657h-50z" />
    <glyph glyph-name="uni0394" unicode="&#x394;" horiz-adv-x="586" 
d="M-38 0l399 706h13l161 -706h-573zM41 43h432l-100 471c-9.33301 44 -16 74.333 -20 91h-1c-20 -39.333 -36.667 -70 -50 -92z" />
    <glyph glyph-name="Epsilon" unicode="&#x395;" horiz-adv-x="508" 
d="M521 656h-298l-47 -265h277l-8 -45h-277l-53 -302h309l-8 -44h-359l123 700h349z" />
    <glyph glyph-name="Zeta" unicode="&#x396;" horiz-adv-x="554" 
d="M-9 0l2 16l427 541l78 100v1h-109h-255l7 42h439l-2 -16l-436 -554c-4 -2.66699 -27 -31.667 -69 -87l1 -1c12.667 0.666992 48 1 106 1h303l-8 -43h-484z" />
    <glyph glyph-name="Eta" unicode="&#x397;" horiz-adv-x="649" 
d="M576 700h50l-123 -700h-50l61 346h-346l-61 -346h-50l123 700h50l-55 -311h346z" />
    <glyph glyph-name="Theta" unicode="&#x398;" horiz-adv-x="664" 
d="M66 247c-0.666992 83.333 12.499 160.501 39.499 231.501s67.167 128.333 120.5 172s114 64.834 182 63.501c74 0 129.833 -23.333 167.5 -70s56.5 -110.334 56.5 -191.001c1.33301 -83.333 -11.667 -160.5 -39 -231.5s-67.666 -128.333 -120.999 -172
s-114.333 -64.834 -183 -63.501c-75.333 0 -131.333 24 -168 72c-36.667 48.667 -55 111.667 -55 189zM580.999 449.001c0 68.667 -15.001 122.502 -45.001 161.502s-73.333 58.5 -130 58.5c-56.667 1.33301 -107.667 -18.334 -153 -59.001
s-79.666 -92.834 -102.999 -156.501s-34.333 -131.167 -33 -202.5c0 -68.667 15 -122.5 45 -161.5s73.667 -58.5 131 -58.5c56.667 -1.33301 107.5 18.167 152.5 58.5s79 92.333 102 156s34.167 131.5 33.5 203.5zM218.998 333.003l7 43h256l-7 -43h-256z" />
    <glyph glyph-name="Iota" unicode="&#x399;" horiz-adv-x="253" 
d="M57 0l123 700h51l-123 -700h-51z" />
    <glyph glyph-name="Kappa" unicode="&#x39a;" horiz-adv-x="583" 
d="M180 700h50l-124 -700h-50zM633 700l-355 -336l252 -364h-58l-250 362l3 14l343 324h65z" />
    <glyph glyph-name="Lambda" unicode="&#x39b;" horiz-adv-x="585" 
d="M373 705l161 -705h-51l-113 517l-18 85c-10 -21.333 -25 -50 -45 -86l-292 -516h-53l400 705h11z" />
    <glyph glyph-name="Mu" unicode="&#x39c;" horiz-adv-x="825" 
d="M716 706l14 -0.000976562l-8 -708h-50l8 472c0 36.667 1.33301 73.334 4 110.001c-27.333 -46 -46.333 -77.333 -57 -94l-234 -377h-13l-94 369l-27 102l-36 -115l-162 -467h-51l245 708h13l104 -398l28 -109l69 111z" />
    <glyph glyph-name="Nu" unicode="&#x39d;" horiz-adv-x="677" 
d="M511 -3l-259.001 498l-43 82h-1l-16 -92l-86 -485h-49l124 704h11l262 -502l27 -54l14 -28h1c6.66699 44 12.334 77.333 17.001 100l86 480h49l-126 -703h-11z" />
    <glyph glyph-name="Xi" unicode="&#x39e;" horiz-adv-x="462" 
d="M111 657l8 43h382l-8 -43h-382zM103 347l8 43h288l-7 -43h-289zM-5 0l8 43h382l-8 -43h-382z" />
    <glyph glyph-name="Omicron" unicode="&#x39f;" horiz-adv-x="664" 
d="M66 247c-0.666992 84.667 13.165 162.835 41.498 234.502s69 128.667 122 171s112.5 62.833 178.5 61.5c72.667 0 128.167 -23 166.5 -69s57.5 -110 57.5 -192c0.666992 -84.667 -13.166 -162.834 -41.499 -234.501s-69.166 -128.667 -122.499 -171
s-113 -62.833 -179 -61.5c-71.333 0 -126.333 23.167 -165 69.5s-58 110.166 -58 191.499zM580.999 449.001c0 70.667 -15.167 124.998 -45.5 162.998s-73.5 57 -129.5 57c-55.333 1.33301 -105.5 -17.5 -150.5 -56.5s-79.5 -90.667 -103.5 -155
s-35.667 -133.166 -35 -206.499c0 -70.667 15.167 -125 45.5 -163s73.833 -57 130.5 -57c54.667 -1.33301 104.334 17.334 149.001 56.001s79.167 90.167 103.5 154.5s36.166 133.5 35.499 207.5z" />
    <glyph glyph-name="Pi" unicode="&#x3a0;" horiz-adv-x="643" 
d="M57 0l123 700h441l-123 -700h-51l117 657h-341l-115 -657h-51z" />
    <glyph glyph-name="Rho" unicode="&#x3a1;" horiz-adv-x="539" 
d="M548 550c0 -84 -25.833 -150.833 -77.5 -200.5s-121.5 -74.5 -209.5 -74.5h-106l-48 -275h-50l123 700h149c146 0 219 -50 219 -150zM497 545c0 39.333 -13.168 67.833 -39.501 85.5s-69.166 26.5 -128.499 26.5h-107l-59 -339h102c71.333 0 127.833 20.333 169.5 61
s62.5 96 62.5 166z" />
    <glyph glyph-name="Sigma" unicode="&#x3a3;" horiz-adv-x="505" 
d="M536 657h-321h-34l17 -36l123 -263l-5 -25l-230 -266l-21 -24h39h344l-8 -43h-465l3 15l291 338l-154 332l2 15h428z" />
    <glyph glyph-name="Tau" unicode="&#x3a4;" horiz-adv-x="496" 
d="M556 700l-8 -43h-203l-117 -657h-50l117 657h-205l7 43h459z" />
    <glyph glyph-name="Upsilon" unicode="&#x3a5;" horiz-adv-x="554" 
d="M216 0l55 309l-183 391h56l99 -218c6 -14 25.333 -55.333 58 -124h2l100 132l160 210h60l-303 -394l-54 -306h-50z" />
    <glyph glyph-name="Phi" unicode="&#x3a6;" horiz-adv-x="743" 
d="M724 423c0 -26 -2.33398 -50.335 -7.00098 -73.002c-16.667 -96.667 -56.667 -172 -120 -226c-63.333 -53.333 -142.666 -81 -237.999 -83l-14 -78h-50l14 78c-80.667 2 -143.667 23.833 -189 65.5s-68 99.167 -68 172.5c0 20 2.33301 43.667 7 71
c16.667 94.667 56.5 169.334 119.5 224.001s142.5 83.334 238.5 86.001l13 73h50l-13 -73c80.667 -1.33301 143.667 -22.5 189 -63.5s68 -98.833 68 -173.5zM672.999 418.998c0 63.333 -18.167 111.832 -54.5 145.499s-89.5 51.167 -159.5 52.5l-93 -533
c82 2.66699 149 26.834 201 72.501s85.333 110.167 100 193.5c4 24 6 47 6 69zM316.999 82.9971l94 533c-82 -2 -149.167 -25.833 -201.5 -71.5s-85.833 -110.5 -100.5 -194.5c-4 -24 -6 -46.667 -6 -68c0 -63.333 18.167 -111.833 54.5 -145.5s89.5 -51.5 159.5 -53.5z" />
    <glyph glyph-name="Chi" unicode="&#x3a7;" horiz-adv-x="563" 
d="M588 700l-264 -324.999l185 -375h-56l-122 249c-10 19.333 -18.333 36.666 -25 51.999l-14 31l-52 -66l-18 -22l-194 -244h-62l301 375l-159 325h57l99 -205l37 -76l63 80l162 201h62z" />
    <glyph glyph-name="Psi" unicode="&#x3a8;" horiz-adv-x="754" 
d="M726 700h49.001l-35 -201c-18 -96.667 -55.833 -169.667 -113.5 -219s-136.167 -76 -235.5 -80l-35 -200h-49l35 200c-166 6.66699 -249 79.667 -249 219c0 20.667 2.66699 48.667 8 84l35 197h49l-34 -194c-5.33301 -33.333 -8 -60 -8 -80
c0 -60 16.667 -104.5 50 -133.5s85.666 -44.5 156.999 -46.5l80 454h49l-80 -453c86.667 4 153.5 27 200.5 69s78.167 107 93.5 195z" />
    <glyph glyph-name="uni03A9" unicode="&#x3a9;" horiz-adv-x="707" 
d="M467 43h79h83l-7 -43h-247l2 13c150.667 126.667 226 272.334 226 437.001c0 72 -15.333 126.5 -46 163.5s-73.667 55.5 -129 55.5c-56 2 -106.333 -17 -151 -57s-78.167 -89 -100.5 -147s-33.166 -117 -32.499 -177c0 -43.333 5 -82 15 -116
c12 -36.667 23.667 -64.334 35 -83.001c14 -22 31.667 -47.333 53 -76l-3 -13h-248l8 43h103h65c-52.667 69.333 -79 152.333 -79 249c-0.666992 66.667 12.166 132.167 38.499 196.5s66.333 118.5 120 162.5s114.167 65 181.5 63c68.667 0 122.667 -22.667 162 -68
s59 -109 59 -191c0 -76 -17 -150.667 -51 -224c-34.667 -73.333 -80 -136 -136 -188z" />
    <glyph glyph-name="Iotadieresis" unicode="&#x3aa;" horiz-adv-x="253" 
d="M57 0l123 700h51l-123 -700h-51zM106 827c0.666992 10.667 5.16797 19.667 13.501 27s18.166 11 29.499 11c8.66699 0 15.834 -2.66699 21.501 -8s8.5 -12.333 8.5 -21c0 -11.333 -4.33301 -21.333 -13 -30s-18.667 -13 -30 -13c-10 0 -17.833 3.33301 -23.5 10
s-7.83398 14.667 -6.50098 24zM261.001 827c0.666992 10.667 5.33691 19.667 14.0039 27s18.667 11 30 11c9.33301 0 16.666 -3.16699 21.999 -9.5s7.66602 -14.5 6.99902 -24.5c-1.33301 -10.667 -6 -19.667 -14 -27s-17.333 -11 -28 -11s-18.834 3.33301 -24.501 10
s-7.83398 14.667 -6.50098 24z" />
    <glyph glyph-name="Upsilondieresis" unicode="&#x3ab;" horiz-adv-x="554" 
d="M216 0l55 309l-183 391h56l99 -218c6 -14 25.333 -55.333 58 -124h2l100 132l160 210h60l-303 -394l-54 -306h-50zM254 827c0.666992 10.667 5.16797 19.667 13.501 27s18.166 11 29.499 11c8.66699 0 15.834 -2.66699 21.501 -8s8.5 -12.333 8.5 -21
c0 -11.333 -4.33301 -21.333 -13 -30s-18.667 -13 -30 -13c-10 0 -17.833 3.33301 -23.5 10s-7.83398 14.667 -6.50098 24zM409.001 827c0.666992 10.667 5.33691 19.667 14.0039 27s18.667 11 30 11c9.33301 0 16.666 -3.16699 21.999 -9.5s7.66602 -14.5 6.99902 -24.5
c-1.33301 -10.667 -6 -19.667 -14 -27s-17.333 -11 -28 -11s-18.834 3.33301 -24.501 10s-7.83398 14.667 -6.50098 24z" />
    <glyph glyph-name="alphatonos" unicode="&#x3ac;" horiz-adv-x="556" 
d="M430 66c0 -23.333 9.66895 -35.001 29.002 -35.001c8.66699 0 17 1.33301 25 4l-7 -42c-12 -4.66699 -25 -7 -39 -7c-17.333 0 -30.833 5.5 -40.5 16.5s-14.5 26.167 -14.5 45.5l2 22l8 42c-20.667 -40 -47.334 -71 -80.001 -93s-68.334 -33 -107.001 -33
c-50.667 0 -90 17.5 -118 52.5s-42 82.5 -42 142.5c-1.33301 94 22.667 174.333 72 241s108.333 99.334 177 98.001c36 0 66.667 -10.167 92 -30.5s43 -48.833 53 -85.5l20 102h45l-73 -415c-1.33301 -8 -2 -16.333 -2 -25zM419.002 314.999
c0 50 -11.1641 89.668 -33.4971 119.001s-53.166 44 -92.499 44c-51.333 2 -97.333 -27.333 -138 -88s-60.334 -129.667 -59.001 -207c0 -48.667 9.83301 -86.834 29.5 -114.501s48.5 -41.5 86.5 -41.5c35.333 -1.33301 69.166 11.5 101.499 38.5s58.166 63 77.499 108
s28.666 92.167 27.999 141.5zM284.005 574l59 130h52l-76 -130h-35z" />
    <glyph glyph-name="epsilontonos" unicode="&#x3ad;" horiz-adv-x="374" 
d="M22 113c0 39.333 12.333 72.5 37 99.5s59 45.167 103 54.5c-24 6.66699 -42.667 19.167 -56 37.5s-20 40.833 -20 67.5c0 46 15.667 82.167 47 108.5s75 39.5 131 39.5c40.667 0 77.334 -7.66699 110.001 -23l-9 -43c-28 16 -61.333 24 -100 24
c-41.333 0 -73.333 -9.66699 -96 -29s-34 -46.333 -34 -81c0 -27.333 8.66699 -48.333 26 -63s42 -22 74 -22h71l-7 -39h-76c-42 0 -77.667 -11.333 -107 -34c-30 -22 -45 -52.333 -45 -91c0 -60.667 41 -91 123 -91c36 0 72 6.66699 108 20l-7 -44
c-36.667 -12 -73.334 -18 -110.001 -18c-50 0 -89.667 11.333 -119 34s-44 53.667 -44 93zM235 568l59 130h52l-76 -130h-35z" />
    <glyph glyph-name="etatonos" unicode="&#x3ae;" horiz-adv-x="555" 
d="M335 -212l95 542c4.66699 26 7 47 7 63c0 56.667 -27.333 85 -82 85c-41.333 1.33301 -83.333 -21 -126 -67s-68.334 -97 -77.001 -153l-45 -258h-48l66 378c4 21.333 6 38.333 6 51c0 13.333 -2.33301 23 -7 29s-12.667 9 -24 9c-6.66699 0 -14.667 -1 -24 -3l7 42
c16.667 2.66699 29 4 37 4c38.667 0 58 -21.667 58 -65c0 -16 -2 -35 -6 -57h1c20.667 37.333 49.334 68.666 86.001 93.999c37.333 25.333 73.333 38 108 38c79.333 0 119 -40.667 119 -122c0 -17.333 -2 -36.666 -6 -57.999l-97 -552h-48zM321 568l59 130h52l-76 -130h-35
z" />
    <glyph glyph-name="iotatonos" unicode="&#x3af;" horiz-adv-x="283" 
d="M65 90c0 18 1.66699 36.333 5 55l64 361h48l-63 -355c-3.33301 -18.667 -5 -36.667 -5 -54c0 -24 4.5 -41.333 13.5 -52s23.5 -16 43.5 -16c22 0 43 3.66699 63 11l-8 -42c-22.667 -6.66699 -45.667 -10 -69 -10c-61.333 0 -92 34 -92 102zM143 568l59 130h52l-76 -130
h-35z" />
    <glyph glyph-name="upsilondieresistonos" unicode="&#x3b0;" horiz-adv-x="524" 
d="M71 119c0 18 1.99902 37.666 5.99902 58.999l42 240c0 2.66699 0.166992 5.33398 0.5 8.00098s0.666016 4.66699 0.999023 6s0.5 2.33301 0.5 3c0 21.333 -11 32 -33 32c-6.66699 0 -14.667 -1 -24 -3l7 42c20 3.33301 34 5 42 5c38.667 0 58 -18.667 58 -56
c0 -7.33301 -0.666992 -15 -2 -23l-44 -251c-4 -22 -6 -41.667 -6 -59c0 -32.667 8.5 -56.667 25.5 -72s44.167 -23 81.5 -23c90.667 0 148 68.667 172 206c8.66699 48 14.334 91 17.001 129c4.66699 45.333 7.33398 93.333 8.00098 144h47
c-0.666992 -42 -3 -89.667 -7 -143c-2.66699 -32.667 -8 -75 -16 -127c-14 -84.667 -39.5 -147.5 -76.5 -188.5s-87.5 -61.5 -151.5 -61.5c-98.667 0 -148 44.333 -148 133zM267.999 567.999l43 130h47l-57 -130h-33zM178.999 626.999
c0 13.333 4.49902 24.332 13.499 32.999s19.833 13 32.5 13c10 0 17.833 -3.66699 23.5 -11s7.83398 -16.333 6.50098 -27c-2 -10.667 -7.16699 -19.667 -15.5 -27s-17.833 -11 -28.5 -11c-9.33301 0 -17 2.83301 -23 8.5s-9 12.834 -9 21.501zM365.998 626.998
c0 13.333 4.49902 24.332 13.499 32.999s19.833 13 32.5 13c10 0 17.833 -3.66699 23.5 -11s7.83398 -16.333 6.50098 -27c-2 -10.667 -7.16699 -19.667 -15.5 -27s-17.833 -11 -28.5 -11c-9.33301 0 -17 2.83301 -23 8.5s-9 12.834 -9 21.501z" />
    <glyph glyph-name="alpha" unicode="&#x3b1;" horiz-adv-x="556" 
d="M430 66c0 -23.333 9.66895 -35.001 29.002 -35.001c8.66699 0 17 1.33301 25 4l-7 -42c-12 -4.66699 -25 -7 -39 -7c-17.333 0 -30.833 5.5 -40.5 16.5s-14.5 26.167 -14.5 45.5l2 22l8 42c-20.667 -40 -47.334 -71 -80.001 -93s-68.334 -33 -107.001 -33
c-50.667 0 -90 17.5 -118 52.5s-42 82.5 -42 142.5c-1.33301 94 22.667 174.333 72 241s108.333 99.334 177 98.001c36 0 66.667 -10.167 92 -30.5s43 -48.833 53 -85.5l20 102h45l-73 -415c-1.33301 -8 -2 -16.333 -2 -25zM419.002 314.999
c0 50 -11.1641 89.668 -33.4971 119.001s-53.166 44 -92.499 44c-51.333 2 -97.333 -27.333 -138 -88s-60.334 -129.667 -59.001 -207c0 -48.667 9.83301 -86.834 29.5 -114.501s48.5 -41.5 86.5 -41.5c35.333 -1.33301 69.166 11.5 101.499 38.5s58.166 63 77.499 108
s28.666 92.167 27.999 141.5z" />
    <glyph glyph-name="beta" unicode="&#x3b2;" horiz-adv-x="533" 
d="M362 401c38 -4 67.3369 -18.667 88.0039 -44s31 -58.333 31 -99c0 -13.333 -0.333008 -22 -1 -26c-6 -76 -32 -136 -78 -180s-106.333 -66 -181 -66c-43.333 0 -83 6.66699 -119 20l-39 -218h-48l123 699c15.333 84.667 42.666 149.334 81.999 194.001
s89.666 67 150.999 67c45.333 0 81.166 -12.333 107.499 -37s39.5 -57.334 39.5 -98.001c0 -44.667 -13.833 -86.167 -41.5 -124.5s-65.834 -67.5 -114.501 -87.5zM467.004 595c0.666992 2.66699 1 8.33301 1 17c0 29.333 -8.5 52.333 -25.5 69s-41.5 25 -73.5 25
c-45.333 0 -83.833 -18.167 -115.5 -54.5s-53.167 -86.833 -64.5 -151.5l-80 -453c30 -13.333 68 -20 114 -20c57.333 0 104.666 18.667 141.999 56c38.667 38.667 60.334 88.667 65.001 150c1.33301 16 2 24.667 2 26c0 35.333 -9.66699 62.833 -29 82.5s-46 29.5 -80 29.5
c-0.666992 0 -9 -0.666992 -25 -2c-14 -0.666992 -34.333 -4 -61 -10l7 40l40 10c52.667 13.333 95 36.333 127 69s50.667 71.667 56 117z" />
    <glyph glyph-name="gamma" unicode="&#x3b3;" horiz-adv-x="452" 
d="M209 22l-40.998 -234.001h-48l31 176c5.33301 34 8 69.667 8 107c0 56 -4.66699 117.667 -14 185c-8.66699 65.333 -19.667 120.333 -33 165c-10.667 31.333 -27.667 47 -51 47c-8 0 -18 -1.66699 -30 -5l8 43c20 3.33301 34.333 5 43 5c21.333 0 38.166 -7 50.499 -21
s22.166 -37.333 29.499 -70c12 -42 21.667 -97.667 29 -167c6.66699 -66 9.66699 -122.333 9 -169c92 130.667 166 271.334 222 422.001h51c-75.333 -190.667 -163.333 -352 -264 -484z" />
    <glyph glyph-name="delta" unicode="&#x3b4;" horiz-adv-x="512" 
d="M226 615c0 -19.333 6.83301 -37.498 20.5 -54.498s36.5 -35.833 68.5 -56.5c32.667 -22.667 58.667 -42.667 78 -60c48.667 -42.667 73 -96.334 73 -161.001c0 -12 -1.66699 -30.333 -5 -55c-13.333 -75.333 -42 -134.5 -86 -177.5s-99 -64.5 -165 -64.5
c-55.333 0 -98 15.5 -128 46.5s-45 73.167 -45 126.5c0 13.333 1.66699 31.666 5 54.999c12 69.333 37.333 125.333 76 168s93 72 163 88l-2 2c-36 24 -62.167 47 -78.5 69s-24.5 45.667 -24.5 71c0 42 15.667 74.5 47 97.5s75 34.5 131 34.5c48 0 92.333 -9.66699 133 -29
l-8 -46c-29.333 22 -72.333 33 -129 33c-38.667 0 -69 -7.5 -91 -22.5s-33 -36.5 -33 -64.5zM416 281.002c0 34.667 -7.49902 64.167 -22.499 88.5s-38.5 48.166 -70.5 71.499c-132 -22.667 -208.667 -97.667 -230 -225c-3.33301 -22 -5 -39 -5 -51
c0 -43.333 11.167 -77 33.5 -101s53.833 -36 94.5 -36c51.333 0 93.666 17.833 126.999 53.5s56 85.834 68 150.501c3.33301 22 5 38.333 5 49z" />
    <glyph glyph-name="epsilon" unicode="&#x3b5;" horiz-adv-x="374" 
d="M22 113c0 39.333 12.333 72.5 37 99.5s59 45.167 103 54.5c-24 6.66699 -42.667 19.167 -56 37.5s-20 40.833 -20 67.5c0 46 15.667 82.167 47 108.5s75 39.5 131 39.5c40.667 0 77.334 -7.66699 110.001 -23l-9 -43c-28 16 -61.333 24 -100 24
c-41.333 0 -73.333 -9.66699 -96 -29s-34 -46.333 -34 -81c0 -27.333 8.66699 -48.333 26 -63s42 -22 74 -22h71l-7 -39h-76c-42 0 -77.667 -11.333 -107 -34c-30 -22 -45 -52.333 -45 -91c0 -60.667 41 -91 123 -91c36 0 72 6.66699 108 20l-7 -44
c-36.667 -12 -73.334 -18 -110.001 -18c-50 0 -89.667 11.333 -119 34s-44 53.667 -44 93z" />
    <glyph glyph-name="zeta" unicode="&#x3b6;" horiz-adv-x="368" 
d="M150 736l315.999 -0.00195312l-3 -19c-115.333 -111.333 -206.666 -213.666 -273.999 -306.999c-66.667 -92.667 -100 -176.667 -100 -252c0 -36.667 10.5 -62.834 31.5 -78.501s59.167 -28.167 114.5 -37.5c46.667 -6.66699 70 -27 70 -61
c0 -24.667 -11 -69.667 -33 -135h-43c18 64.667 27 104.334 27 119.001c0 20 -16 32.333 -48 37c-60 10 -103.167 26.667 -129.5 50s-39.5 57 -39.5 101c0 74.667 28.5 155.834 85.5 243.501s142.167 187.5 255.5 299.5c-6 -0.666992 -17.333 -1 -34 -1h-203z" />
    <glyph glyph-name="eta" unicode="&#x3b7;" horiz-adv-x="555" 
d="M335 -212l95 542c4.66699 26 7 47 7 63c0 56.667 -27.333 85 -82 85c-41.333 1.33301 -83.333 -21 -126 -67s-68.334 -97 -77.001 -153l-45 -258h-48l66 378c4 21.333 6 38.333 6 51c0 13.333 -2.33301 23 -7 29s-12.667 9 -24 9c-6.66699 0 -14.667 -1 -24 -3l7 42
c16.667 2.66699 29 4 37 4c38.667 0 58 -21.667 58 -65c0 -16 -2 -35 -6 -57h1c20.667 37.333 49.334 68.666 86.001 93.999c37.333 25.333 73.333 38 108 38c79.333 0 119 -40.667 119 -122c0 -17.333 -2 -36.666 -6 -57.999l-97 -552h-48z" />
    <glyph glyph-name="theta" unicode="&#x3b8;" horiz-adv-x="541" 
d="M512 525c0 -51.333 -5 -105.333 -15 -162c-19.333 -114 -51.666 -205 -96.999 -273c-46 -68.667 -105.333 -103 -178 -103c-102.667 0 -154 74 -154 222c0 44 5 97 15 159c19.333 115.333 51.666 207.333 96.999 276c46 69.333 105.667 104 179 104
c102 0 153 -74.333 153 -223zM464 532c0 116 -36.667 174.001 -110 174.001c-50 0 -93.833 -27.333 -131.5 -82s-66.167 -133.334 -85.5 -236.001h314c8.66699 56.667 13 104.667 13 144zM443 345.001h-313.999c-8 -52.667 -12 -99 -12 -139
c0 -118.667 36.667 -178 110 -178c50 0 93.667 27.333 131 82s65.666 133 84.999 235z" />
    <glyph glyph-name="iota" unicode="&#x3b9;" horiz-adv-x="283" 
d="M65 90c0 18 1.66699 36.333 5 55l64 361h48l-63 -355c-3.33301 -18.667 -5 -36.667 -5 -54c0 -24 4.5 -41.333 13.5 -52s23.5 -16 43.5 -16c22 0 43 3.66699 63 11l-8 -42c-22.667 -6.66699 -45.667 -10 -69 -10c-61.333 0 -92 34 -92 102z" />
    <glyph glyph-name="kappa" unicode="&#x3ba;" horiz-adv-x="467" 
d="M142 506h46l-89 -506h-47zM488 506l-263 -244l187 -262h-55l-185 262l2 11l250 233h64z" />
    <glyph glyph-name="lambda" unicode="&#x3bb;" horiz-adv-x="475" 
d="M441 39l-7.00098 -43.002c-20 -3.33301 -33.333 -5 -40 -5c-32.667 2 -55.167 13.5 -67.5 34.5s-22.833 59.5 -31.5 115.5l-44 280c-24 -49.333 -52.667 -105 -86 -167l-135 -254h-55l264 486l-8 49l-7 41c-9.33301 54.667 -17 88.334 -23 101.001s-19 20.334 -39 23.001
c-10.667 0 -20.334 -1.33301 -29.001 -4l7 42c18 4 33 6 45 6c20 0 35 -6 45 -18c10.667 -12 18.667 -29 24 -51c4.66699 -21.333 11.667 -59 21 -113l67 -402c8.66699 -50.667 16.834 -83.5 24.501 -98.5s23.834 -23.833 48.501 -26.5c9.33301 0 18 1.33301 26 4z" />
    <glyph glyph-name="uni03BC" unicode="&#x3bc;" horiz-adv-x="556" 
d="M428 70c0 -26 10.334 -39 31.001 -39c9.33301 0 17.666 1.33301 24.999 4l-8 -42c-14 -4 -26.667 -6 -38 -6c-35.333 0 -53 21.667 -53 65c0 1.33301 0.666992 12 2 32c-15.333 -28 -40 -51.333 -74 -70c-33.333 -18.667 -67 -28 -101 -28c-54 0 -88.333 21.333 -103 64
l-46 -259h-48l126 715h48l-59 -333c-3.33301 -23.333 -5 -40.333 -5 -51c0 -63.333 30.667 -95 92 -95c44 0 83.333 14.667 118 44c34 30 55 67.333 63 112l57 323h48l-72 -406c-2 -10.667 -3 -20.667 -3 -30z" />
    <glyph glyph-name="nu" unicode="&#x3bd;" horiz-adv-x="470" 
d="M429 506h52c-56 -176.667 -147.333 -347.667 -274 -513h-15l-85 423c-7.33301 34 -23.333 51 -48 51c-10 0 -19 -1.33301 -27 -4l8 42c20 3.33301 34.333 5 43 5c39.333 0 63.333 -24.333 72 -73l64 -357c98 145.333 168 287.333 210 426z" />
    <glyph glyph-name="xi" unicode="&#x3be;" horiz-adv-x="391" 
d="M183 551c-2 -8.66699 -3.00195 -17.667 -3.00195 -27c0 -34.667 11.167 -63.5 33.5 -86.5s51.5 -34.5 87.5 -34.5h71l-7 -39h-81c-50 0 -92.5 -13.667 -127.5 -41s-56.833 -64.666 -65.5 -111.999c-2 -12.667 -3 -24.667 -3 -36c0 -39.333 13.167 -69.333 39.5 -90
s66.833 -35 121.5 -43c46 -4.66699 69 -24.334 69 -59.001c0 -14 -3 -30.333 -9 -49l-25 -83h-44l21 73c5.33301 19.333 8 33 8 41c0 11.333 -3.66699 19.833 -11 25.5s-19.666 9.83398 -36.999 12.501c-122.667 17.333 -184 72.333 -184 165c0 16.667 1.33301 30.667 4 42
c8.66699 48 28.667 87.667 60 119s71.333 52 120 62c-28.667 8.66699 -51.167 24.667 -67.5 48s-24.5 50.666 -24.5 81.999c0 11.333 1 22.333 3 33c12.667 66.667 46.667 113.667 102 141h-111l8 41h329l-7 -41h-92c-48.667 0 -88.667 -13 -120 -39
s-50.666 -61 -57.999 -105z" />
    <glyph glyph-name="omicron" unicode="&#x3bf;" horiz-adv-x="517" 
d="M46 180c0 98.667 24.668 180 74.001 244s111.666 96 186.999 96c52 0 92 -17.167 120 -51.5s42 -82.5 42 -144.5c0 -98 -24.667 -178.833 -74 -242.5s-112 -95.5 -188 -95.5c-51.333 0 -91 16.833 -119 50.5s-42 81.5 -42 143.5zM419.001 324
c0 102.667 -38 153.999 -114 153.999c-58.667 1.33301 -108.5 -27 -149.5 -85s-60.833 -128.667 -59.5 -212c0 -49.333 9.83301 -87.166 29.5 -113.499s48.167 -39.5 85.5 -39.5c59.333 0 108.833 28.167 148.5 84.5s59.5 126.833 59.5 211.5z" />
    <glyph glyph-name="pi" unicode="&#x3c0;" horiz-adv-x="597" 
d="M375 76c0 11.333 1.66797 28 5.00098 50l60 338h-234l-81 -464h-48l81 464h-101l8 42h531l-7 -42h-101l-60 -342c-2.66699 -11.333 -4 -24.333 -4 -39c0 -37.333 17 -56 51 -56c9.33301 0 19.666 1.66699 30.999 5l-8 -40c-10 -4 -22.667 -6 -38 -6
c-56.667 0 -85 30 -85 90z" />
    <glyph glyph-name="rho" unicode="&#x3c1;" horiz-adv-x="517" 
d="M472 331c0.666992 -59.333 -10.167 -115.499 -32.5 -168.499s-54.833 -96 -97.5 -129s-90 -48.833 -142 -47.5c-54.667 0 -98.667 7 -132 21l-39 -219h-48l79 450c16 91.333 45.667 161.166 89 209.499s97.333 72.5 162 72.5c54 0 94.333 -17 121 -51s40 -80 40 -138z
M307.999 478.001c-51.333 0 -94.332 -22.334 -128.999 -67.001c-34.667 -43.333 -58 -100.666 -70 -171.999l-34 -190c26.667 -14.667 66.667 -22 120 -22c65.333 -1.33301 119 27.167 161 85.5s64 127.833 66 208.5c1.33301 49.333 -7.83398 87.833 -27.501 115.5
s-48.5 41.5 -86.5 41.5z" />
    <glyph glyph-name="uni03C2" unicode="&#x3c2;" horiz-adv-x="395" 
d="M267 -35c0 12 -3.50195 20.667 -10.502 26s-19.167 9 -36.5 11c-116 13.333 -174 76 -174 188c-1.33301 88.667 24 166.167 76 232.5s114 98.833 186 97.5c31.333 0 62 -6.66699 92 -20l-7 -41c-26 12.667 -53.667 19 -83 19c-58 1.33301 -108.5 -27 -151.5 -85
s-63.833 -124 -62.5 -198c0 -46.667 11.833 -82 35.5 -106s61.834 -39.667 114.501 -47c24.667 -3.33301 42.334 -9.5 53.001 -18.5s16 -22.5 16 -40.5c0 -26 -10.333 -70 -31 -132h-43c17.333 60 26 98 26 114z" />
    <glyph glyph-name="sigma" unicode="&#x3c3;" horiz-adv-x="508" 
d="M532 464l-95.002 0.00195312h-35c40 -29.333 60 -77 60 -143c1.33301 -92 -23.5 -171.167 -74.5 -237.5s-111.833 -98.833 -182.5 -97.5c-52 0 -91.667 17.167 -119 51.5s-41 81.166 -41 140.499c-1.33301 91.333 22.334 169.166 71.001 233.499
s109.334 95.833 182.001 94.5h241zM411.998 319.002c0 46.667 -10.334 82.499 -31.001 107.499s-49.667 37.5 -87 37.5c-57.333 1.33301 -105.166 -26.834 -143.499 -84.501s-56.833 -126.167 -55.5 -205.5c0 -46 10 -82 30 -108s47.667 -39 83 -39
c56.667 -1.33301 105.167 27.834 145.5 87.501s59.833 127.834 58.5 204.501z" />
    <glyph glyph-name="tau" unicode="&#x3c4;" horiz-adv-x="394" 
d="M144 80c0 18 1.33398 33.667 4.00098 47l59 337h-160l8 42h367l-8 -42h-160l-58 -332c-2.66699 -12.667 -4 -26.667 -4 -42c0 -40.667 20 -61 60 -61c20 0 41 3.66699 63 11l-8 -42c-22.667 -6.66699 -46.334 -10 -71.001 -10c-61.333 0 -92 30.667 -92 92z" />
    <glyph glyph-name="upsilon" unicode="&#x3c5;" horiz-adv-x="524" 
d="M71 119c0 18 1.99902 37.666 5.99902 58.999l42 240c0 2.66699 0.166992 5.33398 0.5 8.00098s0.666016 4.66699 0.999023 6s0.5 2.33301 0.5 3c0 21.333 -11 32 -33 32c-6.66699 0 -14.667 -1 -24 -3l7 42c20 3.33301 34 5 42 5c38.667 0 58 -18.667 58 -56
c0 -7.33301 -0.666992 -15 -2 -23l-44 -251c-4 -22 -6 -41.667 -6 -59c0 -32.667 8.5 -56.667 25.5 -72s44.167 -23 81.5 -23c90.667 0 148 68.667 172 206c8.66699 48 14.334 91 17.001 129c4.66699 45.333 7.33398 93.333 8.00098 144h47
c-0.666992 -42 -3 -89.667 -7 -143c-2.66699 -32.667 -8 -75 -16 -127c-14 -84.667 -39.5 -147.5 -76.5 -188.5s-87.5 -61.5 -151.5 -61.5c-98.667 0 -148 44.333 -148 133z" />
    <glyph glyph-name="phi" unicode="&#x3c6;" horiz-adv-x="679" 
d="M233 -212l35 198c-71.333 4 -126.5 24.667 -165.5 62s-58.5 88.333 -58.5 153c0 89.333 29.5 163.666 88.5 222.999s135.5 91.333 229.5 96l38 215h48l-39 -215c72 -4 127.5 -24.667 166.5 -62s58.5 -88.666 58.5 -153.999c0 -89.333 -29.5 -163.333 -88.5 -222
s-135.5 -90.667 -229.5 -96l-35 -198h-48zM275 28l79.999 450c-77.333 -4 -140.166 -31.5 -188.499 -82.5s-72.5 -114.833 -72.5 -191.5c0 -54 15.667 -96.167 47 -126.5s76 -46.833 134 -49.5zM583.999 301c0 54.667 -15.666 97.168 -46.999 127.501
s-76.333 46.5 -135 48.5l-79 -450c77.333 5.33301 140.166 33.166 188.499 83.499s72.5 113.833 72.5 190.5z" />
    <glyph glyph-name="chi" unicode="&#x3c7;" horiz-adv-x="454" 
d="M382 -182c8 0 18.334 1.00098 31.001 3.00098l-8 -41c-16.667 -4 -29.667 -6 -39 -6c-29.333 0 -51.833 12.167 -67.5 36.5s-30.5 66.5 -44.5 126.5l-41 181l-13 -22c-11.333 -20 -21.666 -36.667 -30.999 -50l-174 -258h-56l260 382l-43 177
c-14 52.667 -24.833 86 -32.5 100s-21.834 22.333 -42.501 25c-11.333 0 -22.333 -1 -33 -3l8 41c16 4 29.667 6 41 6c29.333 0 51.166 -11.333 65.499 -34s27.5 -63.334 39.5 -122.001l33 -142l183 288h56l-223 -338l45 -190c12.667 -52.667 21.334 -85.667 26.001 -99
c7.33301 -22 15.666 -37.667 24.999 -47s21 -14 35 -14z" />
    <glyph glyph-name="psi" unicode="&#x3c8;" horiz-adv-x="705" 
d="M647 255c-15.333 -91.333 -49 -158.332 -101 -200.999s-123 -65.667 -213 -69l-35 -197h-48l35 197c-76 3.33301 -132.5 21 -169.5 53s-55.5 80 -55.5 144c0 27.333 2.33301 52.666 7 75.999l44 248h47l-43 -247c-4.66699 -23.333 -7 -47.666 -7 -72.999
c0 -53.333 14.667 -92.5 44 -117.5s76 -38.833 140 -41.5l102 576h48l-102 -576c72.667 2.66699 130.5 22 173.5 58s71.167 92.667 84.5 170c14.667 89.333 22 173 22 251h45c0.666992 -88.667 -5.33301 -172.334 -18 -251.001z" />
    <glyph glyph-name="omega" unicode="&#x3c9;" horiz-adv-x="765" 
d="M57 142c0 24 1.33008 44.334 3.99707 61.001c5.33301 75.333 31 176.333 77 303h47c-45.333 -120 -70.666 -220.667 -75.999 -302c-2.66699 -24.667 -4 -43.334 -4 -56.001c0 -80 29 -120 87 -120c38.667 0 72.167 15 100.5 45s46.833 70 55.5 120l36 208h48l-37 -209
c-2.66699 -12.667 -4 -28 -4 -46c0 -37.333 8.83301 -66.333 26.5 -87s42.834 -31 75.501 -31c41.333 0 74.833 18.667 100.5 56s45.834 96.333 60.501 177c11.333 64 17.666 145.667 18.999 245h46c-3.33301 -116 -9.66602 -199.333 -18.999 -250
c-32 -180 -102.333 -270 -211 -270c-36.667 0 -66.667 10.333 -90 31s-37.333 49.667 -42 87c-20 -37.333 -45.333 -66.333 -76 -87s-63.667 -31 -99 -31c-83.333 0 -125 52 -125 156z" />
    <glyph glyph-name="iotadieresis" unicode="&#x3ca;" horiz-adv-x="283" 
d="M65 90c0 18 1.66699 36.333 5 55l64 361h48l-63 -355c-3.33301 -18.667 -5 -36.667 -5 -54c0 -24 4.5 -41.333 13.5 -52s23.5 -16 43.5 -16c22 0 43 3.66699 63 11l-8 -42c-22.667 -6.66699 -45.667 -10 -69 -10c-61.333 0 -92 34 -92 102zM75 635
c1.33301 10.667 6.00098 19.334 14.001 26.001s17.333 10 28 10c10 0 17.667 -3.33301 23 -10s7.33301 -15.334 6 -26.001c-2 -10.667 -6.83301 -19.334 -14.5 -26.001s-16.5 -10 -26.5 -10c-10.667 0 -18.834 3.33301 -24.501 10s-7.5 15.334 -5.5 26.001zM216.001 635
c1.33301 10.667 6.00098 19.334 14.001 26.001s17.333 10 28 10c10 0 17.667 -3.33301 23 -10s7.33301 -15.334 6 -26.001c-2 -10.667 -6.83301 -19.334 -14.5 -26.001s-16.5 -10 -26.5 -10c-10.667 0 -18.834 3.33301 -24.501 10s-7.5 15.334 -5.5 26.001z" />
    <glyph glyph-name="upsilondieresis" unicode="&#x3cb;" horiz-adv-x="524" 
d="M71 119c0 18 1.99902 37.666 5.99902 58.999l42 240c0 2.66699 0.166992 5.33398 0.5 8.00098s0.666016 4.66699 0.999023 6s0.5 2.33301 0.5 3c0 21.333 -11 32 -33 32c-6.66699 0 -14.667 -1 -24 -3l7 42c20 3.33301 34 5 42 5c38.667 0 58 -18.667 58 -56
c0 -7.33301 -0.666992 -15 -2 -23l-44 -251c-4 -22 -6 -41.667 -6 -59c0 -32.667 8.5 -56.667 25.5 -72s44.167 -23 81.5 -23c90.667 0 148 68.667 172 206c8.66699 48 14.334 91 17.001 129c4.66699 45.333 7.33398 93.333 8.00098 144h47
c-0.666992 -42 -3 -89.667 -7 -143c-2.66699 -32.667 -8 -75 -16 -127c-14 -84.667 -39.5 -147.5 -76.5 -188.5s-87.5 -61.5 -151.5 -61.5c-98.667 0 -148 44.333 -148 133zM184.999 632.999c0.666992 10.667 5.16797 19.667 13.501 27s18.166 11 29.499 11
c8.66699 0 15.834 -2.66699 21.501 -8s8.5 -12.333 8.5 -21c0 -11.333 -4.33301 -21.333 -13 -30s-18.667 -13 -30 -13c-10 0 -17.833 3.33301 -23.5 10s-7.83398 14.667 -6.50098 24zM340 632.999c0.666992 10.667 5.33691 19.667 14.0039 27s18.667 11 30 11
c9.33301 0 16.666 -3.16699 21.999 -9.5s7.66602 -14.5 6.99902 -24.5c-1.33301 -10.667 -6 -19.667 -14 -27s-17.333 -11 -28 -11s-18.834 3.33301 -24.501 10s-7.83398 14.667 -6.50098 24z" />
    <glyph glyph-name="omicrontonos" unicode="&#x3cc;" horiz-adv-x="517" 
d="M46 180c0 98.667 24.668 180 74.001 244s111.666 96 186.999 96c52 0 92 -17.167 120 -51.5s42 -82.5 42 -144.5c0 -98 -24.667 -178.833 -74 -242.5s-112 -95.5 -188 -95.5c-51.333 0 -91 16.833 -119 50.5s-42 81.5 -42 143.5zM419.001 324
c0 102.667 -38 153.999 -114 153.999c-58.667 1.33301 -108.5 -27 -149.5 -85s-60.833 -128.667 -59.5 -212c0 -49.333 9.83301 -87.166 29.5 -113.499s48.167 -39.5 85.5 -39.5c59.333 0 108.833 28.167 148.5 84.5s59.5 126.833 59.5 211.5zM290.001 567.999l59 130h52
l-76 -130h-35z" />
    <glyph glyph-name="upsilontonos" unicode="&#x3cd;" horiz-adv-x="524" 
d="M71 119c0 18 1.99902 37.666 5.99902 58.999l42 240c0 2.66699 0.166992 5.33398 0.5 8.00098s0.666016 4.66699 0.999023 6s0.5 2.33301 0.5 3c0 21.333 -11 32 -33 32c-6.66699 0 -14.667 -1 -24 -3l7 42c20 3.33301 34 5 42 5c38.667 0 58 -18.667 58 -56
c0 -7.33301 -0.666992 -15 -2 -23l-44 -251c-4 -22 -6 -41.667 -6 -59c0 -32.667 8.5 -56.667 25.5 -72s44.167 -23 81.5 -23c90.667 0 148 68.667 172 206c8.66699 48 14.334 91 17.001 129c4.66699 45.333 7.33398 93.333 8.00098 144h47
c-0.666992 -42 -3 -89.667 -7 -143c-2.66699 -32.667 -8 -75 -16 -127c-14 -84.667 -39.5 -147.5 -76.5 -188.5s-87.5 -61.5 -151.5 -61.5c-98.667 0 -148 44.333 -148 133zM269.999 567.999l59 130h52l-76 -130h-35z" />
    <glyph glyph-name="omegatonos" unicode="&#x3ce;" horiz-adv-x="765" 
d="M57 142c0 24 1.33008 44.334 3.99707 61.001c5.33301 75.333 31 176.333 77 303h47c-45.333 -120 -70.666 -220.667 -75.999 -302c-2.66699 -24.667 -4 -43.334 -4 -56.001c0 -80 29 -120 87 -120c38.667 0 72.167 15 100.5 45s46.833 70 55.5 120l36 208h48l-37 -209
c-2.66699 -12.667 -4 -28 -4 -46c0 -37.333 8.83301 -66.333 26.5 -87s42.834 -31 75.501 -31c41.333 0 74.833 18.667 100.5 56s45.834 96.333 60.501 177c11.333 64 17.666 145.667 18.999 245h46c-3.33301 -116 -9.66602 -199.333 -18.999 -250
c-32 -180 -102.333 -270 -211 -270c-36.667 0 -66.667 10.333 -90 31s-37.333 49.667 -42 87c-20 -37.333 -45.333 -66.333 -76 -87s-63.667 -31 -99 -31c-83.333 0 -125 52 -125 156zM410.997 568.001l59 130h52l-76 -130h-35z" />
    <glyph glyph-name="uni0401" unicode="&#x401;" horiz-adv-x="508" 
d="M521 656h-298l-47 -265h277l-8 -45h-277l-53 -302h309l-8 -44h-359l123 700h349zM253 821c0 4 0.333008 6.66602 1 7.99902c2 10.667 7.16699 19.667 15.5 27s18.166 11 29.499 11c10 0 18 -2.83301 24 -8.5s9 -13.167 9 -22.5c0 -12 -4.66699 -22.5 -14 -31.5
s-20 -13.5 -32 -13.5c-9.33301 0 -17.166 2.83301 -23.499 8.5s-9.5 12.834 -9.5 21.501zM418 821.999c0 12 4.83301 22.5 14.5 31.5s20.5 13.5 32.5 13.5c9.33301 0 17 -2.83301 23 -8.5s9 -13.167 9 -22.5c0 -12 -4.5 -22.5 -13.5 -31.5s-19.5 -13.5 -31.5 -13.5
c-10 0 -18.167 2.83301 -24.5 8.5s-9.5 13.167 -9.5 22.5z" />
    <glyph glyph-name="uni0402" unicode="&#x402;" horiz-adv-x="684" 
d="M644 342c0 -20 -2.66504 -46.6641 -7.99805 -79.9971c-14.667 -85.333 -44.334 -151 -89.001 -197s-102 -69.667 -172 -71l8 44c52.667 1.33301 96.5 21.166 131.5 59.499s58.833 93.166 71.5 164.499c4.66699 27.333 7 50.666 7 69.999c0 46 -10.333 81.333 -31 106
s-50.667 37 -90 37c-49.333 0 -90.833 -14.5 -124.5 -43.5s-54.834 -67.5 -63.501 -115.5l-56 -316h-50l116 657h-204l7 43h524l-8 -43h-269l-29 -164c-3.33301 -20 -7.33301 -40.667 -12 -62c42.667 59.333 103 89 181 89c52 0 91.667 -15.333 119 -46s41 -74.667 41 -132z
" />
    <glyph glyph-name="uni0403" unicode="&#x403;" horiz-adv-x="454" 
d="M57 0l123 700h332l-8 -43h-281l-116 -657h-50zM327 771l90 129h61l-109 -129h-42z" />
    <glyph glyph-name="uni0404" unicode="&#x404;" horiz-adv-x="518" 
d="M129 372h257.997l-7 -43h-257c-2.66699 -16.667 -4 -39 -4 -67c0 -152 64.333 -228 193 -228c46.667 0 90.334 9.66699 131.001 29l-8 -48c-35.333 -16.667 -77.666 -25 -126.999 -25c-160 0 -240 92 -240 276c-1.33301 128 32.334 234.667 101.001 320
s154.667 127 258 125c41.333 0 78 -7.33301 110 -22l-8 -44c-30.667 14 -65 21 -103 21c-72.667 0 -136 -27 -190 -81s-89.667 -125 -107 -213z" />
    <glyph glyph-name="uni0405" unicode="&#x405;" horiz-adv-x="500" 
d="M7 25l8.00098 45.9971c34.667 -14 63.667 -23.667 87 -29s51.666 -8 84.999 -8c62 0 111.667 15.333 149 46s56 72 56 124c0 32 -10.667 57.667 -32 77c-22 19.333 -56.667 40.333 -104 63c-52 23.333 -89.667 47.833 -113 73.5s-35 57.834 -35 96.501
c0 58.667 20.333 106 61 142s93 54 157 54c70.667 0 128 -10.333 172 -31l-8 -45c-54 21.333 -110 32 -168 32c-48 0 -87.167 -13.5 -117.5 -40.5s-45.5 -62.5 -45.5 -106.5c0 -30 10 -54.667 30 -74c18 -17.333 51.667 -38 101 -62
c56 -27.333 95.833 -53.666 119.5 -78.999s35.5 -57.666 35.5 -96.999c0 -66 -24.167 -118.833 -72.5 -158.5s-111.5 -59.5 -189.5 -59.5c-66 0 -124.667 12 -176 36z" />
    <glyph glyph-name="uni0406" unicode="&#x406;" horiz-adv-x="253" 
d="M57 0l123 700h51l-123 -700h-51z" />
    <glyph glyph-name="uni0407" unicode="&#x407;" horiz-adv-x="253" 
d="M57 0l123 700h51l-123 -700h-51zM124 829c2 10.667 6.83301 19.333 14.5 26s16.5 10 26.5 10s17.833 -3.33301 23.5 -10s7.5 -15.334 5.5 -26.001c-6 -24 -19.667 -36 -41 -36c-10 0 -17.667 3.33301 -23 10s-7.33301 15.334 -6 26.001zM262 820.999
c0 4 0.332031 6.66602 0.999023 7.99902c1.33301 10.667 5.83301 19.334 13.5 26.001s16.834 10 27.501 10c8.66699 0 15.667 -2.5 21 -7.5s8 -11.833 8 -20.5c0 -13.333 -3.83301 -24 -11.5 -32s-17.5 -12 -29.5 -12c-20 0 -30 9.33301 -30 28z" />
    <glyph glyph-name="uni0408" unicode="&#x408;" horiz-adv-x="471" 
d="M-19 29l8.99902 45c37.333 -26.667 84.333 -40 141 -40c101.333 0 163 60 185 180l86 486h50l-88 -498c-12 -69.333 -37.833 -122 -77.5 -158s-91.167 -54 -154.5 -54c-61.333 0 -111.666 13 -150.999 39z" />
    <glyph glyph-name="uni0409" unicode="&#x409;" horiz-adv-x="915" 
d="M874 261c0 -12.667 -0.334961 -20.668 -1.00195 -24.001c-6 -75.333 -33.333 -133.666 -82 -174.999s-114 -62 -196 -62h-171l116 657h-265l-87 -373c-23.333 -100 -49.166 -172.833 -77.499 -218.5s-67.833 -68.5 -118.5 -68.5c-2 0 -11 0.666992 -27 2l8 44
c2.66699 -0.666992 8.33398 -1 17.001 -1c36 0 64.667 19.333 86 58s42 101.667 62 189l95 411h365l-49 -277h118c66 0 117 -14 153 -42s54 -68 54 -120zM822.998 254.999c0 42.667 -12.833 74.167 -38.5 94.5s-66.167 30.5 -121.5 30.5h-121l-60 -337h117
c67.333 0 119.833 16 157.5 48s59.5 78.667 65.5 140c0.666992 4 1 12 1 24z" />
    <glyph glyph-name="uni040A" unicode="&#x40a;" horiz-adv-x="929" 
d="M57 0l123 700h50l-52 -292h337l52 292h50l-52 -292h111c141.333 0 212 -51.667 212 -155c0 -78 -25.667 -139.667 -77 -185s-118.333 -68 -201 -68h-166l64 365h-337l-64 -365h-50zM501 43l116.999 0.000976562c66.667 0 119.834 18.167 159.501 54.5
s59.5 86.166 59.5 149.499c0 41.333 -13 71.333 -39 90s-66.333 28 -121 28h-119z" />
    <glyph glyph-name="uni040B" unicode="&#x40b;" horiz-adv-x="697" 
d="M627 391c0 -18 -1.33301 -33.666 -4 -46.999l-61 -344h-49l59 338c2.66699 16.667 4 29.334 4 38.001c0 31.333 -8 55.666 -24 72.999s-39 26 -69 26c-46.667 0 -90.334 -19.833 -131.001 -59.5s-66 -88.5 -76 -146.5l-48 -269h-50l116 657h-204l7 43h520l-7 -43h-266
l-33 -187l-12 -68c20.667 35.333 48.834 63.833 84.501 85.5s73.5 32.5 113.5 32.5c42 0 74.167 -11.333 96.5 -34s33.5 -54.334 33.5 -95.001z" />
    <glyph glyph-name="uni040C" unicode="&#x40c;" horiz-adv-x="583" 
d="M180 700h50l-124 -700h-50zM633 700l-355 -336l252 -364h-58l-250 362l3 14l343 324h65zM360 771l90 129h61l-109 -129h-42z" />
    <glyph glyph-name="uni040D" unicode="&#x40d;" horiz-adv-x="669" 
d="M632 703h16l-124 -703h-49l81 464l22 117c-27.333 -36 -57 -72 -89 -108l-418 -476h-15l124 703h49l-83 -469l-23 -115l19 23c21.333 27.333 40 50.333 56 69zM403 771l-63 129h61l43 -129h-41z" />
    </font>
</defs>
</svg>
