<?xml version="1.0" standalone="no"?>
<!DOCTYPE svg PUBLIC "-//W3C//DTD SVG 1.1//EN" "http://www.w3.org/Graphics/SVG/1.1/DTD/svg11.dtd" >
<svg>
<metadata>
Created by FontForge 20090914 at Mon Mar 23 22:10:51 2020
 By www-data
Copyright &#194;&#169; 2015 by Svet Simov. All rights reserved.
</metadata>
<defs>
<font id="Squad-SemiBoldItalic" horiz-adv-x="0" >
  <font-face 
    font-family="Squad"
    font-weight="600"
    font-style="italic"
    font-stretch="normal"
    units-per-em="1000"
    panose-1="0 0 6 0 0 0 0 0 0 0"
    ascent="767"
    descent="-233"
    x-height="509"
    cap-height="700"
    bbox="-488.002 -270.996 1128 962.999"
    underline-thickness="50"
    underline-position="-150"
    slope="-10"
    unicode-range="U+0020-U+25CA"
  />
<missing-glyph horiz-adv-x="772" 
d="M134 0v700h538v-700h-538zM355 208h53.999v27c0 20.667 4.83301 39.834 14.5 57.501s26.834 38.834 51.501 63.501c26.667 26.667 45.167 49.667 55.5 69s15.5 40.333 15.5 63c0 37.333 -13.333 67.833 -40 91.5s-61.334 35.5 -104.001 35.5
c-45.333 0 -87.666 -10.667 -126.999 -32v-61c33.333 24.667 73.333 37 120 37c57.333 0 86 -26.333 86 -79c0 -25.333 -18.333 -56.333 -55 -93c-26.667 -26.667 -45.5 -50.334 -56.5 -71.001s-16.5 -43 -16.5 -67c0 -12.667 0.666992 -26.334 2 -41.001zM427.999 123
c0 12.667 -4.16699 23.167 -12.5 31.5s-18.833 12.5 -31.5 12.5c-12 0 -22.333 -4.16699 -31 -12.5s-13 -18.833 -13 -31.5c0 -12 4.33301 -22.333 13 -31s19 -13 31 -13c12.667 0 23.167 4.33301 31.5 13s12.5 19 12.5 31z" />
    <glyph glyph-name=".notdef" horiz-adv-x="772" 
d="M134 0v700h538v-700h-538zM355 208h53.999v27c0 20.667 4.83301 39.834 14.5 57.501s26.834 38.834 51.501 63.501c26.667 26.667 45.167 49.667 55.5 69s15.5 40.333 15.5 63c0 37.333 -13.333 67.833 -40 91.5s-61.334 35.5 -104.001 35.5
c-45.333 0 -87.666 -10.667 -126.999 -32v-61c33.333 24.667 73.333 37 120 37c57.333 0 86 -26.333 86 -79c0 -25.333 -18.333 -56.333 -55 -93c-26.667 -26.667 -45.5 -50.334 -56.5 -71.001s-16.5 -43 -16.5 -67c0 -12.667 0.666992 -26.334 2 -41.001zM427.999 123
c0 12.667 -4.16699 23.167 -12.5 31.5s-18.833 12.5 -31.5 12.5c-12 0 -22.333 -4.16699 -31 -12.5s-13 -18.833 -13 -31.5c0 -12 4.33301 -22.333 13 -31s19 -13 31 -13c12.667 0 23.167 4.33301 31.5 13s12.5 19 12.5 31z" />
    <glyph glyph-name="space" unicode=" " horiz-adv-x="206" 
 />
    <glyph glyph-name="exclam" unicode="!" horiz-adv-x="292" 
d="M88 188l26 190l52 322h111l-59 -323l-42 -189h-88zM45 46c0 21.333 7.83301 39.5 23.5 54.5s34.167 22.5 55.5 22.5c16.667 0 30.167 -5 40.5 -15s15.5 -22.667 15.5 -38c0 -21.333 -7.83301 -39.5 -23.5 -54.5s-34.167 -22.5 -55.5 -22.5c-16.667 0 -30.167 5 -40.5 15
s-15.5 22.667 -15.5 38z" />
    <glyph glyph-name="quotedbl" unicode="&#x22;" horiz-adv-x="326" 
d="M213 700l-43 -244h-85l43 244h85zM355 700l-43 -244h-85l43 244h85z" />
    <glyph glyph-name="numbersign" unicode="#" horiz-adv-x="622" 
d="M56 0l61 195h-97l25 81h98l47 150h-96l24 82h97l61 192h94l-61 -192h137l61 192h93l-61 -192h97l-24 -82h-98l-47 -150h96l-25 -81h-97l-61 -195h-94l61 195h-137l-61 -195h-93zM236 276h137l48 150h-137z" />
    <glyph glyph-name="dollar" unicode="$" horiz-adv-x="492" 
d="M151 -95l15.002 81.002c-67.333 2 -121 18 -161 48l13 91c50.667 -30.667 105.667 -46 165 -46l45 236c-49.333 25.333 -85 52.166 -107 80.499s-33 64.833 -33 109.5c0 55.333 18.833 99.666 56.5 132.999s89.5 51.666 155.5 54.999l16 84h56l-16 -86
c45.333 -4 85.333 -15 120 -33l-13 -93c-34.667 20.667 -76.334 32.334 -125.001 35.001l-42 -219c39.333 -21.333 68.166 -39 86.499 -53s32.833 -31.333 43.5 -52s16.667 -47 18 -79c0 -58.667 -20 -106.667 -60 -144s-94.333 -59 -163 -65l-16 -83h-54zM246.002 411.002
l37 187.999c-64.667 -7.33301 -97 -36.666 -97 -87.999c0 -36.667 20 -70 60 -100zM344.002 189.001c0 20 -5 37.334 -15 52.001s-27 29.667 -51 45l-38 -203c32.667 6.66699 58.167 19.167 76.5 37.5s27.5 41.166 27.5 68.499z" />
    <glyph glyph-name="percent" unicode="%" horiz-adv-x="670" 
d="M11 -14l585 728h86l-585 -728h-86zM66 511c0 58.667 15.499 107.168 46.499 145.501s70.167 57.5 117.5 57.5c36.667 0 64.5 -11.333 83.5 -34s28.5 -55.334 28.5 -98.001c0 -58.667 -15.667 -107.5 -47 -146.5s-70.666 -58.5 -117.999 -58.5
c-36 0 -63.5 11.5 -82.5 34.5s-28.5 56.167 -28.5 99.5zM264.999 582.001c0 37.333 -13.665 55.999 -40.998 55.999c-22.667 0 -41.834 -12.5 -57.501 -37.5s-23.5 -55.5 -23.5 -91.5c0 -37.333 13.667 -56 41 -56c23.333 0 42.666 12.333 57.999 37s23 55.334 23 92.001z
M351.001 118c0 58.667 15.668 107.499 47.001 146.499s70.666 58.5 117.999 58.5c36 0 63.5 -11.5 82.5 -34.5s28.5 -56.167 28.5 -99.5c0 -58.667 -15.5 -107.167 -46.5 -145.5s-70.5 -57.5 -118.5 -57.5c-36 0 -63.5 11.333 -82.5 34s-28.5 55.334 -28.5 98.001z
M549.002 190.999c0 37.333 -13.667 55.999 -41 55.999c-22.667 0 -41.667 -12.167 -57 -36.5s-23 -55.166 -23 -92.499s13.667 -56 41 -56c22.667 0 41.667 12.5 57 37.5s23 55.5 23 91.5z" />
    <glyph glyph-name="ampersand" unicode="&#x26;" horiz-adv-x="661" 
d="M41 144c0 88.667 56.668 173.666 170.001 254.999c-31.333 44.667 -47 93.334 -47 146.001c0 51.333 16.5 92.333 49.5 123s77.167 46 132.5 46c46.667 0 83.667 -10.667 111 -32s41 -50.666 41 -87.999c0 -36.667 -12.667 -71.334 -38 -104.001
c-26 -32 -68.333 -68.667 -127 -110l122 -177c50.667 66 80 126 88 180l79 -1c-16.667 -92 -56.334 -173.667 -119.001 -245l96 -137h-115l-48 68c-62.667 -54.667 -133.334 -82 -212.001 -82c-57.333 0 -102.166 14 -134.499 42s-48.5 66.667 -48.5 116zM407.001 580.999
c0 17.333 -6 31.3311 -18 41.998s-27.667 16 -47 16c-26 0 -47.333 -8.66699 -64 -26s-25 -39.333 -25 -66c0 -32 11 -66 33 -102c43.333 28.667 74.333 53.334 93 74.001s28 41.334 28 62.001zM389.001 138.997l-131 188c-80 -56 -120 -113.333 -120 -172
c0 -27.333 8.16699 -48.5 24.5 -63.5s39.833 -22.5 70.5 -22.5c55.333 0 107.333 23.333 156 70z" />
    <glyph glyph-name="quotesingle" unicode="'" horiz-adv-x="184" 
d="M213 700l-43 -244h-85l43 244h85z" />
    <glyph glyph-name="parenleft" unicode="(" horiz-adv-x="270" 
d="M53 80c0 120.667 19 240.168 57 358.501s92.667 228.5 164 330.5h106c-72 -99.333 -127.667 -209.333 -167 -330c-38.667 -118 -58 -238.333 -58 -361c0 -106 17 -204.667 51 -296h-104c-32.667 95.333 -49 194.666 -49 297.999z" />
    <glyph glyph-name="parenright" unicode=")" horiz-adv-x="270" 
d="M224 471c0 -121.333 -18.833 -241 -56.5 -359s-92.167 -228 -163.5 -330h-106c72 99.333 127.667 209.333 167 330c38.667 118 58 238.333 58 361c0 104 -17.333 202.667 -52 296h105c32 -96.667 48 -196 48 -298z" />
    <glyph glyph-name="asterisk" unicode="*" horiz-adv-x="314" 
d="M351 602l-81 -25l38 -67l-57 -36l-41 70l-66 -73l-48 39l62 68l-73 24l31 61l73 -26l14 84h69l-14 -83l84 27z" />
    <glyph glyph-name="plus" unicode="+" horiz-adv-x="442" 
d="M151 129l25 140h-149l16 90h149l25 140h92l-24 -140h150l-16 -90h-150l-25 -140h-93z" />
    <glyph glyph-name="comma" unicode="," horiz-adv-x="194" 
d="M-34 -119l83 251h98l-98 -251h-83z" />
    <glyph glyph-name="hyphen" unicode="-" horiz-adv-x="359" 
d="M31 227l15 87h289l-16 -87h-288z" />
    <glyph glyph-name="period" unicode="." horiz-adv-x="242" 
d="M17 48c0 22 8.16699 40.834 24.5 56.501s35.5 23.5 57.5 23.5c17.333 0 31.333 -5 42 -15s16 -23 16 -39c0 -22.667 -8 -41.834 -24 -57.501s-35 -23.5 -57 -23.5c-17.333 0 -31.5 5.16699 -42.5 15.5s-16.5 23.5 -16.5 39.5z" />
    <glyph glyph-name="slash" unicode="/" horiz-adv-x="485" 
d="M-54 -57l522 807h103l-522 -807h-103z" />
    <glyph glyph-name="zero" unicode="0" horiz-adv-x="597" 
d="M59 232c-0.666992 88 12.666 168.998 39.999 242.998s65.5 132.667 114.5 176s103.167 64.333 162.5 63c63.333 0 111.833 -21.167 145.5 -63.5s50.5 -103.166 50.5 -182.499c0.666992 -87.333 -12.666 -168.166 -39.999 -242.499s-65.5 -133.166 -114.5 -176.499
s-102.833 -64.333 -161.5 -63c-64 0 -112.833 21.167 -146.5 63.5s-50.5 103.166 -50.5 182.499zM469 474.998c0 100 -32.999 150.001 -98.999 150.001c-36 1.33301 -70.333 -17 -103 -55s-58.5 -88.333 -77.5 -151s-28.167 -127.334 -27.5 -194.001
c0 -100 33.667 -150 101 -150c35.333 -1.33301 69.166 17.167 101.499 55.5s58 88.833 77 151.5s28.167 127 27.5 193z" />
    <glyph glyph-name="one" unicode="1" horiz-adv-x="341" 
d="M110 0l91 516l11 60h-1c-16.667 -9.33301 -35 -18 -55 -26l-83 -39l15 99l223 103h28l-127 -713h-102z" />
    <glyph glyph-name="two" unicode="2" horiz-adv-x="474" 
d="M-33 0l4 27l288 341c64.667 76 97 137.667 97 185c0 46 -30.333 69 -91 69c-54 0 -109.667 -16.667 -167 -50l14 98c60 29.333 120.333 44 181 44c54.667 0 97.167 -12.5 127.5 -37.5s45.5 -60.167 45.5 -105.5c0 -71.333 -38.667 -152.333 -116 -243l-127 -149l-74 -86
v-1c12 0.666992 46.667 1 104 1h155l-17 -93h-424z" />
    <glyph glyph-name="three" unicode="3" horiz-adv-x="488" 
d="M495 700l-4.00098 -28l-191 -246c44 -6.66699 78.167 -24.334 102.5 -53.001s36.5 -66 36.5 -112c0 -79.333 -26.833 -145 -80.5 -197s-121.167 -78 -202.5 -78c-68.667 0 -124.667 12.333 -168 37l12 94c41.333 -27.333 93.666 -41 156.999 -41
c52.667 0 95.834 16.833 129.501 50.5s50.5 76.834 50.5 129.501c0 67.333 -42.333 101 -127 101c-13.333 0 -29.666 -1 -48.999 -3l-6 24l179 232h-235l16 90h380z" />
    <glyph glyph-name="four" unicode="4" horiz-adv-x="523" 
d="M289 0l25 141h-319l4 27l292 532h105l-251 -471h184l61 283h87l-49 -283h72l-17 -88h-71l-25 -141h-98z" />
    <glyph glyph-name="five" unicode="5" horiz-adv-x="502" 
d="M485 608h-244.001l-39 -165c28.667 5.33301 52.334 8 71.001 8c58.667 0 104.667 -16 138 -48s50 -76 50 -132c0 -12.667 -1.66699 -30 -5 -52c-12.667 -74 -45.167 -131.333 -97.5 -172s-118.833 -61 -199.5 -61c-52.667 0 -101 10.667 -145 32l17 96
c46 -24 93 -36 141 -36c46.667 0 86 13.667 118 41s52 65 60 113c2 10.667 3 20.667 3 30c0 32.667 -11.5 58.167 -34.5 76.5s-55.167 27.5 -96.5 27.5c-43.333 0 -84.333 -8.33301 -123 -25l-14 17l80 342h336z" />
    <glyph glyph-name="six" unicode="6" horiz-adv-x="567" 
d="M55 206c-0.666992 93.333 13.834 179.33 43.501 257.997s70.667 140.334 123 185.001s109.833 66.334 172.5 65.001c54.667 0 104 -9.66699 148 -29l-12 -95c-42 22 -88 33 -138 33c-48.667 0 -93 -22.333 -133 -67c-40.667 -45.333 -70.334 -105.333 -89.001 -180h1
c22.667 26 50.167 46.5 82.5 61.5s65.5 22.5 99.5 22.5c54.667 0 97.5 -15.667 128.5 -47s46.5 -74.333 46.5 -129c1.33301 -81.333 -25.834 -151.666 -81.501 -210.999s-122.167 -88.333 -199.5 -87c-61.333 0 -108.666 19.167 -141.999 57.5s-50 92.5 -50 162.5z
M424.001 277.997c0 30 -8.16699 53.167 -24.5 69.5s-39.833 24.5 -70.5 24.5c-50.667 0 -92.167 -17.167 -124.5 -51.5s-48.5 -78.166 -48.5 -131.499c0 -36 8.66699 -64.167 26 -84.5s41.333 -30.5 72 -30.5c47.333 0 87.5 19.667 120.5 59s49.5 87.666 49.5 144.999z" />
    <glyph glyph-name="seven" unicode="7" horiz-adv-x="421" 
d="M73 700h422l-4 -27l-359 -673h-110l290 545l35 63h-73h-217z" />
    <glyph glyph-name="eight" unicode="8" horiz-adv-x="580" 
d="M522 227c0 -70.667 -25.332 -128.499 -75.999 -173.499s-116.334 -67.5 -197.001 -67.5c-68 0 -120.333 15.667 -157 47s-55 75.666 -55 132.999c0 49.333 13.667 92.666 41 129.999s65.666 65.333 114.999 84c-24 9.33301 -42.667 24.833 -56 46.5s-20 47.167 -20 76.5
c0 61.333 23.167 111.833 69.5 151.5s104.833 59.5 175.5 59.5c60.667 0 108.834 -14.833 144.501 -44.5s53.5 -69.167 53.5 -118.5c0 -40 -11.833 -75.833 -35.5 -107.5s-55.167 -54.5 -94.5 -68.5c61.333 -27.333 92 -76.666 92 -147.999zM218.001 499.001
c0 -26 8.66699 -46.668 26 -62.001s40.666 -23 69.999 -23c39.333 0 72.833 12.5 100.5 37.5s41.5 55.167 41.5 90.5c0 25.333 -9 45.5 -27 60.5s-42.333 22.5 -73 22.5c-41.333 0 -74.666 -11.667 -99.999 -35s-38 -53.666 -38 -90.999zM419.001 227
c0 32 -10.333 56.832 -31 74.499s-49.667 26.5 -87 26.5c-45.333 0 -83.333 -14.167 -114 -42.5s-46 -63.5 -46 -105.5c0 -33.333 10.167 -59.166 30.5 -77.499s49.5 -27.5 87.5 -27.5c46.667 0 85 14.167 115 42.5s45 64.833 45 109.5z" />
    <glyph glyph-name="nine" unicode="9" horiz-adv-x="560" 
d="M538 514c0.666992 -98.667 -11.334 -187.668 -36.001 -267.001s-62.667 -143 -114 -191s-112 -71.333 -182 -70c-71.333 0 -128 11.333 -170 34l12 95c40.667 -26 91.334 -39 152.001 -39c61.333 0 108.666 23 141.999 69c33.333 47.333 58.333 107.333 75 180
c-44.667 -52 -102.667 -78 -174 -78c-48 0 -88.167 15.833 -120.5 47.5s-48.5 74.834 -48.5 129.501c0 85.333 24.667 155 74 209s114.333 81 195 81c64.667 0 113.334 -17.333 146.001 -52s49 -84 49 -148zM436.999 523.999c0 32 -8.5 56.8311 -25.5 74.498
s-41.833 26.5 -74.5 26.5c-47.333 0 -85.333 -18.667 -114 -56s-43 -83.666 -43 -138.999c0 -32 8.5 -56.333 25.5 -73s41.5 -25 73.5 -25c46 0 83.833 18.833 113.5 56.5s44.5 82.834 44.5 135.501z" />
    <glyph glyph-name="colon" unicode=":" horiz-adv-x="262" 
d="M91 409c0 22 8 40.833 24 56.5s35 23.5 57 23.5c17.333 0 31.333 -5 42 -15s16 -23 16 -39c0 -22 -8 -40.833 -24 -56.5s-35 -23.5 -57 -23.5c-17.333 0 -31.333 5 -42 15s-16 23 -16 39zM27 48c0 22 8.16699 40.833 24.5 56.5s35.5 23.5 57.5 23.5
c17.333 0 31.333 -5.16699 42 -15.5s16 -23.833 16 -40.5c0 -22 -8 -40.667 -24 -56s-35 -23 -57 -23c-17.333 0 -31.5 5.16699 -42.5 15.5s-16.5 23.5 -16.5 39.5z" />
    <glyph glyph-name="semicolon" unicode=";" horiz-adv-x="276" 
d="M106 416c0 22 8.16699 40.833 24.5 56.5s35.5 23.5 57.5 23.5c17.333 0 31.333 -5.16699 42 -15.5s16 -23.5 16 -39.5c0 -22 -8 -40.833 -24 -56.5s-35 -23.5 -57 -23.5c-17.333 0 -31.5 5.16699 -42.5 15.5s-16.5 23.5 -16.5 39.5zM-6 -116l81 248h99l-97 -248h-83z" />
    <glyph glyph-name="less" unicode="&#x3c;" horiz-adv-x="498" 
d="M404 150l-365 143l12 70l416 142l-18 -102l-259 -77l232 -78z" />
    <glyph glyph-name="equal" unicode="=" horiz-adv-x="482" 
d="M72 356l15 89h375l-15 -89h-375zM41 182l15 89h375l-15 -89h-375z" />
    <glyph glyph-name="greater" unicode="&#x3e;" horiz-adv-x="499" 
d="M57 150l18 104l259 79l-232 75l18 97l365 -142l-11 -70z" />
    <glyph glyph-name="question" unicode="?" horiz-adv-x="423" 
d="M259 432c30.667 26 51.8311 47.333 63.498 64s17.5 35 17.5 55c0 48 -33.333 72 -100 72c-54 0 -105 -14.667 -153 -44l16 93c53.333 27.333 109.666 41 168.999 41c56.667 0 101.334 -12.833 134.001 -38.5s49 -60.5 49 -104.5c0 -36 -8 -67.333 -24 -94
c-15.333 -26 -44.666 -55.667 -87.999 -89c-44 -32.667 -76 -64 -96 -94c-18.667 -28.667 -30 -63.667 -34 -105h-91c1.33301 49.333 12.333 92.333 33 129c20.667 36 55.334 74.333 104.001 115zM83.9971 46c0 22 8.16602 40.999 24.499 56.999s35.5 24 57.5 24
c16.667 0 30.334 -5.16699 41.001 -15.5s16 -23.166 16 -38.499c0 -22 -8 -40.833 -24 -56.5s-35 -23.5 -57 -23.5c-17.333 0 -31.333 5 -42 15s-16 22.667 -16 38z" />
    <glyph glyph-name="at" unicode="@" horiz-adv-x="871" 
d="M843 367c0 -27.333 -2.33203 -52.3291 -6.99902 -74.9961c-14.667 -82.667 -43.334 -147.667 -86.001 -195s-94.667 -71 -156 -71c-51.333 0 -83.333 23 -96 69c-44 -48.667 -96.667 -73 -158 -73c-38.667 0 -68.167 12.667 -88.5 38s-30.5 59.666 -30.5 102.999
c0 13.333 1.66699 31.666 5 54.999c13.333 71.333 43.5 131.5 90.5 180.5s99.833 73.5 158.5 73.5c50.667 0 84 -17 100 -51c0.666992 2 2.83398 7.66699 6.50098 17s6.16699 17 7.5 23h79l-85 -271c-4.66699 -13.333 -7 -27.333 -7 -42c0 -27.333 12.333 -41 37 -41
c30.667 0 58 18 82 54c24.667 36 41.667 81 51 135c3.33301 24.667 5 44 5 58c0 64 -20.5 113.5 -61.5 148.5s-98.5 52.5 -172.5 52.5c-97.333 0 -180.166 -31.667 -248.499 -95s-111.833 -145 -130.5 -245c-4 -22.667 -6 -44.334 -6 -65.001
c0 -66.667 19.667 -118.834 59 -156.501s94.666 -56.5 165.999 -56.5c77.333 0 160 14.667 248 44l-15 -86c-80 -29.333 -162.333 -44 -247 -44c-98 0 -173.167 27 -225.5 81s-78.5 124 -78.5 210c0 28.667 2.33301 54.667 7 78c23.333 130.667 78.166 233.5 164.499 308.5
s193.5 112.5 321.5 112.5c97.333 0 173.5 -24.5 228.5 -73.5s82.5 -115.833 82.5 -200.5zM529.001 320.004c0 50 -20.668 75 -62.001 75c-36.667 0 -68.667 -18 -96 -54c-26 -34.667 -43.667 -77 -53 -127c-2.66699 -16.667 -4 -29.667 -4 -39c0 -48 19.667 -72 59 -72
c36.667 0 69 18 97 54c28.667 38 47.334 80.333 56.001 127c2 13.333 3 25.333 3 36z" />
    <glyph glyph-name="A" unicode="A" horiz-adv-x="623" 
d="M470 0l-30 144h-293l-82 -144h-112l410 705h51l166 -705h-110zM360 527l-61.999 -113l-108 -188h236l-44 188c-8.66699 39.333 -15.334 77 -20.001 113h-2z" />
    <glyph glyph-name="B" unicode="B" horiz-adv-x="563" 
d="M516 240c0 -74.667 -23.167 -133.333 -69.5 -176s-110.5 -64 -192.5 -64h-215l123 700h182c62 0 110.167 -12.333 144.5 -37s51.5 -60.667 51.5 -108c0 -42.667 -10.5 -80.167 -31.5 -112.5s-50.833 -56.166 -89.5 -71.499c30.667 -8.66699 54.5 -24.334 71.5 -47.001
s25.5 -50.667 25.5 -84zM338 613.001h-86l-36 -208h76c45.333 0 80.333 11.833 105 35.5s37 55.167 37 94.5c0 52 -32 78 -96 78zM408 236.001c0 31.333 -9.33301 54 -28 68s-47 21 -85 21h-93l-42 -238h87c107.333 0 161 49.667 161 149z" />
    <glyph glyph-name="C" unicode="C" horiz-adv-x="525" 
d="M59 278c-1.33301 124.667 33.334 228.001 104.001 310.001s160.334 122.333 269.001 121c45.333 0 85.333 -8 120 -24l-16 -91c-32 14.667 -66.333 22 -103 22c-76.667 1.33301 -140.334 -30.834 -191.001 -96.501s-75.334 -147.167 -74.001 -244.5
c0 -127.333 56.333 -191 169 -191c41.333 0 83.333 9.66699 126 29l-17 -97c-36 -16.667 -78.333 -25 -127 -25c-84 0 -148.333 24.667 -193 74s-67 120.333 -67 213z" />
    <glyph glyph-name="D" unicode="D" horiz-adv-x="627" 
d="M39 0l123 700.001h163c94.667 0 164.667 -22.167 210 -66.5s68 -111.833 68 -202.5c1.33301 -127.333 -34 -231.333 -106 -312s-166.333 -120.334 -283 -119.001h-175zM160 89.001h64c82 0 147.5 32.167 196.5 96.5s73.5 147.833 73.5 250.5c0 62 -13 106.667 -39 134
s-69.333 41 -130 41h-73z" />
    <glyph glyph-name="E" unicode="E" horiz-adv-x="518" 
d="M526 609h-274l-35 -198h254l-16 -90h-254l-40 -230h284l-16 -91h-390l123 700h381z" />
    <glyph glyph-name="F" unicode="F" horiz-adv-x="483" 
d="M512 607h-260l-39 -222h238l-16 -92h-238l-52 -293h-106l123 700h366z" />
    <glyph glyph-name="G" unicode="G" horiz-adv-x="569" 
d="M59 280c-1.33301 123.333 33.833 225.999 105.5 307.999s161.167 122.333 268.5 121c55.333 0 100.333 -9 135 -27l-16 -91c-30.667 16.667 -69 25 -115 25c-79.333 0 -144 -31.667 -194 -95s-75 -144.666 -75 -243.999c0 -129.333 53 -194 159 -194c18 0 34.667 2 50 6
l45 253h102l-56 -321c-43.333 -20.667 -92 -31 -146 -31c-85.333 0 -150.5 24.833 -195.5 74.5s-67.5 121.5 -67.5 215.5z" />
    <glyph glyph-name="H" unicode="H" horiz-adv-x="652" 
d="M540 700h106l-122 -700h-106l56 319h-273l-56 -319h-106l123 700h106l-51 -290h272z" />
    <glyph glyph-name="I" unicode="I" horiz-adv-x="275" 
d="M39 0l123 700h108l-123 -700h-108z" />
    <glyph glyph-name="J" unicode="J" horiz-adv-x="474" 
d="M-20 32l15.998 91.999c33.333 -27.333 76.666 -41 129.999 -41c42.667 0 77.334 13.333 104.001 40s44.334 64.334 53.001 113.001l82 464h106l-87 -493c-12 -69.333 -40 -122.833 -84 -160.5s-99.333 -56.5 -166 -56.5c-63.333 0 -114.666 14 -153.999 42z" />
    <glyph glyph-name="K" unicode="K" horiz-adv-x="617" 
d="M671 700l-353 -340.999l253 -359h-123l-148 209l-95 132h-1l-27 -153l-33 -188h-106l124 700h106l-30 -166c-2.66699 -18.667 -7.66699 -46.334 -15 -83.001l-11 -61h1l141 134l182 176h135z" />
    <glyph glyph-name="L" unicode="L" horiz-adv-x="481" 
d="M39 0l123 700h106l-108 -609h274l-17 -91h-378z" />
    <glyph glyph-name="M" unicode="M" horiz-adv-x="818" 
d="M-4 0l240.001 705.001h38l100 -330c5.33301 -19.333 8.66602 -31 9.99902 -35l21 -78h2l76 120l216 323h39l-9 -705h-106l8 333c1.33301 41.333 3.33301 83 6 125h-2c-18 -32.667 -40 -68.334 -66 -107.001l-170 -255h-37l-76 259l-20 72l-9 31h-2
c-15.333 -54.667 -28.333 -98.667 -39 -132l-111 -326h-109z" />
    <glyph glyph-name="N" unicode="N" horiz-adv-x="663" 
d="M500 -3l-231.001 390l-44 73h-2c-1.33301 -12 -5.66602 -37.667 -12.999 -77l-68 -383h-103l124 705h37l235 -398c14 -20.667 27 -43.667 39 -69h2c4 34.667 9 68 15 100l64 362h104l-124 -703h-35z" />
    <glyph glyph-name="O" unicode="O" horiz-adv-x="682" 
d="M56 259c-1.33301 129.333 31.999 238 99.999 326s153.333 131 256 129c77.333 0 137.833 -24.167 181.5 -72.5s65.5 -115.166 65.5 -200.499c0.666992 -85.333 -14.166 -162.833 -44.499 -232.5s-73 -124.5 -128 -164.5s-116.833 -59.333 -185.5 -58
c-76.667 0 -136.667 24.167 -180 72.5s-65 115.166 -65 200.499zM548.999 432c0 60 -12.5 106.5 -37.5 139.5s-60.5 49.5 -106.5 49.5c-66 1.33301 -122.5 -33 -169.5 -103s-69.833 -153.333 -68.5 -250c0 -60 12.333 -106.5 37 -139.5s60 -49.5 106 -49.5
c66.667 -2 123.5 32 170.5 102s69.833 153.667 68.5 251z" />
    <glyph glyph-name="P" unicode="P" horiz-adv-x="556" 
d="M571 538c0 -86.667 -27.333 -155.167 -82 -205.5s-128.667 -75.5 -222 -75.5h-77l-45 -257h-106l123 700h176c155.333 0 233 -54 233 -162zM462 522c0 32 -10 54.834 -30 68.501s-53.667 20.5 -101 20.5h-79l-46 -266h71c57.333 0 102.5 15.667 135.5 47
s49.5 74.666 49.5 129.999z" />
    <glyph glyph-name="Q" unicode="Q" horiz-adv-x="682" 
d="M597 -101l-72.998 -64.001c-32.667 43.333 -69.834 78.5 -111.501 105.5s-82.167 41.833 -121.5 44.5c-75.333 6 -133.333 32.5 -174 79.5s-61 111.833 -61 194.5c-1.33301 130 32.167 238.833 100.5 326.5s153.5 130.5 255.5 128.5
c77.333 0 137.833 -24.167 181.5 -72.5s65.5 -115.166 65.5 -200.499c0 -96.667 -19 -182.667 -57 -258c-36.667 -74 -87.667 -127.667 -153 -161c26.667 -9.33301 53.167 -25 79.5 -47s49.166 -47.333 68.499 -76zM310.002 78.999
c66.667 -1.33301 123.499 32.667 170.499 102s69.833 153 68.5 251c0 60 -12.5 106.5 -37.5 139.5s-60.5 49.5 -106.5 49.5c-65.333 2 -121.666 -32 -168.999 -102s-70.333 -153.667 -69 -251c0 -60 12.333 -106.5 37 -139.5s60 -49.5 106 -49.5z" />
    <glyph glyph-name="R" unicode="R" horiz-adv-x="585" 
d="M330 293h-4.00098l187 -293h-121l-148 233c-18.667 28.667 -33.667 52.667 -45 72l-16 -85l-39 -220h-106l124 700h200c142 0 213 -52.333 213 -157c0 -12 -1.66699 -29 -5 -51c-11.333 -60.667 -38.666 -109 -81.999 -145s-96 -54 -158 -54zM209.999 365
l87 -0.000976562c94 0 148.667 42 164 126c2 10.667 3 20.334 3 29.001c0 59.333 -41.333 89 -124 89h-87z" />
    <glyph glyph-name="S" unicode="S" horiz-adv-x="506" 
d="M-1 23l16.002 94.001c57.333 -22 113.666 -33 168.999 -33c44.667 0 81.5 9.5 110.5 28.5s46.833 45.167 53.5 78.5c1.33301 12 2 18.667 2 20c0 21.333 -8.66699 40 -26 56s-47.333 34 -90 54c-48 21.333 -83.333 46 -106 74s-34 61.667 -34 101c0 10 1.33301 24 4 42
c9.33301 53.333 34.666 95.5 75.999 126.5s93 46.5 155 46.5c70 0 129.333 -10 178 -30l-16 -92c-54.667 19.333 -110 29 -166 29c-33.333 0 -60.5 -7.83301 -81.5 -23.5s-34.167 -37.5 -39.5 -65.5c-1.33301 -12 -2 -18.667 -2 -20c0 -22 8 -41 24 -57s43.667 -33 83 -51
c54 -25.333 92.833 -51.833 116.5 -79.5s35.5 -60.5 35.5 -98.5c0 -16.667 -1.33301 -31.334 -4 -44.001c-10 -58 -39.667 -104.167 -89 -138.5s-111.333 -51.5 -186 -51.5c-70 0 -131 11.333 -183 34z" />
    <glyph glyph-name="T" unicode="T" horiz-adv-x="508" 
d="M570 700l-16 -90h-184l-107 -610h-107l108 610h-185l16 90h475z" />
    <glyph glyph-name="U" unicode="U" horiz-adv-x="661" 
d="M78 189c0 27.333 2.66797 55.333 8.00098 84l75 427h106l-74 -416c-5.33301 -34 -8 -61 -8 -81c0 -42 9.16699 -72.833 27.5 -92.5s47.5 -29.5 87.5 -29.5c51.333 0 91 16.167 119 48.5s48 83.833 60 154.5l73 416h106l-75 -427
c-16.667 -96 -49.334 -167.5 -98.001 -214.5s-115 -70.5 -199 -70.5c-68 0 -119.667 17 -155 51s-53 84 -53 150z" />
    <glyph glyph-name="V" unicode="V" horiz-adv-x="624" 
d="M235 -5l-158 705h112l77 -363c6.66699 -32.667 15.667 -85 27 -157h2c34 68 62.333 122 85 162l206 358h114l-409 -705h-56z" />
    <glyph glyph-name="W" unicode="W" horiz-adv-x="901" 
d="M585 -5l-71.999 371l-19 103h-2l-35 -65c-4 -5.33301 -10.333 -16.333 -19 -33l-216 -376h-48l-93 705h108l49 -367c1.33301 -8 5 -47 11 -117h1c18 36 37 72 57 108l196 347h43l66 -339c5.33301 -28 11.666 -66.667 18.999 -116h2l44 101l11 23l173 360h114l-343 -705
h-47z" />
    <glyph glyph-name="X" unicode="X" horiz-adv-x="592" 
d="M-42 0l290 375l-148 325h117l66 -147l29 -65l10 -24h1l67 89l113 147h127l-254 -325l170 -375h-118l-88 197c-7.33301 15.333 -14 31.333 -20 48l-16 39h-1l-66 -87l-151 -197h-128z" />
    <glyph glyph-name="Y" unicode="Y" horiz-adv-x="589" 
d="M204 0l51.999 297l-175 403h116l71 -176c16.667 -40.667 34.334 -81.667 53.001 -123h3l96 132l120 167h126l-304 -405l-53 -295h-105z" />
    <glyph glyph-name="Z" unicode="Z" horiz-adv-x="561" 
d="M-13 0l6 43l343 455l86 111v2h-110h-197l16 89h456l-6 -43l-352 -467l-76 -99l1 -2c12.667 0.666992 50 1 112 1h236l-17 -90h-498z" />
    <glyph glyph-name="bracketleft" unicode="[" horiz-adv-x="297" 
d="M7 -219l177 1005h187l-14 -85h-87l-148 -836h87l-15 -84h-187z" />
    <glyph glyph-name="backslash" unicode="\" horiz-adv-x="482" 
d="M327 -57l-238 807h99l238 -807h-99z" />
    <glyph glyph-name="bracketright" unicode="]" horiz-adv-x="298" 
d="M301 786l-177 -1005h-187l15 85h86l148 836h-87l15 84h187z" />
    <glyph glyph-name="asciicircum" unicode="^" horiz-adv-x="443" 
d="M32 404l246 297h45l140 -297h-103l-78 171l-135 -171h-115z" />
    <glyph glyph-name="underscore" unicode="_" horiz-adv-x="459" 
d="M-29 -109l13 75h388l-13 -75h-388z" />
    <glyph glyph-name="grave" unicode="`" horiz-adv-x="414" 
d="M202 754l-79 152h106l46 -152h-73z" />
    <glyph glyph-name="a" unicode="a" horiz-adv-x="541" 
d="M34 166c-1.33301 100 27.167 184.833 85.5 254.5s129.5 103.5 213.5 101.5c54.667 0 112 -8 172 -24l-88 -498h-84l5 82h-3c-48.667 -60.667 -109.667 -91 -183 -91c-37.333 0 -66.333 15.167 -87 45.5s-31 73.5 -31 129.5zM360 261l30.001 170
c-16.667 4.66699 -36.334 7 -59.001 7c-54 0 -99.333 -25 -136 -75s-55 -112.333 -55 -187c0 -68 17.667 -102 53 -102c36 0 70.833 18.667 104.5 56s54.5 81 62.5 131z" />
    <glyph glyph-name="b" unicode="b" horiz-adv-x="542" 
d="M37 20l126.002 716h102l-48 -277l-7 -31h1c52 62 110 93 174 93c82 0 123 -57 123 -171c1.33301 -104 -26.834 -191 -84.501 -261s-128.834 -104.333 -213.501 -103c-61.333 0 -119 11.333 -173 34zM402.002 340c0 65.333 -18.333 98.001 -55 98.001
c-35.333 0 -70 -19.5 -104 -58.5s-55.333 -84.5 -64 -136.5l-29 -163c22.667 -6.66699 44 -10 64 -10c53.333 0 98 26.167 134 78.5s54 116.166 54 191.499z" />
    <glyph glyph-name="c" unicode="c" horiz-adv-x="441" 
d="M36 184c-1.33301 92.667 24.667 172.167 78 238.5s121.333 98.833 204 97.5c46.667 0 84 -7 112 -21l-14 -82c-20 12 -47.333 18 -82 18c-58 0 -104.5 -23.667 -139.5 -71s-52.5 -105.333 -52.5 -174c0 -76.667 36.333 -115 109 -115c47.333 0 90.666 10 129.999 30
l-16 -90c-43.333 -16 -88.666 -24 -135.999 -24c-63.333 0 -111.333 17 -144 51s-49 81.333 -49 142z" />
    <glyph glyph-name="d" unicode="d" horiz-adv-x="538" 
d="M442 736h102.999l-130 -736h-83l5 83h-3c-50 -61.333 -110.333 -92 -181 -92c-39.333 0 -69.166 15 -89.499 45s-30.5 73 -30.5 129c-1.33301 100 27.167 185.167 85.5 255.5s129.5 104.5 213.5 102.5c20 0 44 -2.33301 72 -7zM358.999 262l29.998 170
c-19.333 4.66699 -38.666 7 -57.999 7c-55.333 0 -101.166 -25.5 -137.499 -76.5s-54.5 -113.833 -54.5 -188.5c0 -66.667 18 -100 54 -100c35.333 0 69.833 18.833 103.5 56.5s54.5 81.5 62.5 131.5z" />
    <glyph glyph-name="e" unicode="e" horiz-adv-x="487" 
d="M140 180c0 -35.333 9.5 -62.666 28.5 -81.999s46.5 -29 82.5 -29c48.667 0 93.667 10 135 30l-13 -87c-40.667 -16 -88 -24 -142 -24c-62 0 -110 17.167 -144 51.5s-51 83.5 -51 147.5c-1.33301 92 25.667 171.333 81 238s122.666 99.334 201.999 98.001
c48.667 0 85.834 -11.5 111.501 -34.5s38.5 -56.5 38.5 -100.5c0 -66.667 -28.833 -118.334 -86.5 -155.001s-138.5 -54.334 -242.5 -53.001zM144 248c73.333 1.33301 129.333 13.333 168 36s58 54.667 58 96c0 39.333 -18.667 59 -56 59c-39.333 0 -76 -18.667 -110 -56
s-54 -82.333 -60 -135z" />
    <glyph glyph-name="f" unicode="f" horiz-adv-x="328" 
d="M261 596l-14.998 -87h114l-14 -81h-115l-87 -497c-9.33301 -52 -27.333 -90.333 -54 -115s-63.334 -37 -110.001 -37c-26 0 -51 4 -75 12l14 80c16 -4.66699 33 -7 51 -7c22 0 38.5 6 49.5 18s19.167 33 24.5 63l85 483h-79l15 81h78l18 100
c8 43.333 25.833 76.833 53.5 100.5s61.5 35.5 101.5 35.5c30 0 60 -4.66699 90 -14l-15 -82c-18 8.66699 -38.667 13 -62 13c-16.667 0 -31.334 -6 -44.001 -18s-20.667 -28 -24 -48z" />
    <glyph glyph-name="g" unicode="g" horiz-adv-x="539" 
d="M505 499l-89.999 -507.001c-12.667 -70.667 -42 -124.667 -88 -162s-104.667 -56 -176 -56c-52.667 0 -96 9 -130 27l16 84c33.333 -17.333 71.666 -26 114.999 -26c89.333 0 142.666 44.667 159.999 134l19 97h-2c-48.667 -62 -107.667 -93 -177 -93
c-38 0 -67 15.333 -87 46s-30 74 -30 130c-1.33301 101.333 26.834 185.333 84.501 252s129.5 99.334 215.5 98.001c50 0 106.667 -8 170 -24zM361.001 269.999l30 162.001c-16.667 4.66699 -36.667 7 -60 7c-56 0 -101.667 -23.833 -137 -71.5s-53 -108.834 -53 -183.501
c0 -69.333 18.333 -104 55 -104c35.333 0 69.333 19 102 57s53.667 82.333 63 133z" />
    <glyph glyph-name="h" unicode="h" horiz-adv-x="542" 
d="M33 0l130.001 736h102l-40 -235c-4.66699 -25.333 -10 -48.333 -16 -69h2c22 28 48 50.167 78 66.5s59 24.5 87 24.5c76.667 0 115 -40.333 115 -121c0 -18.667 -2 -39 -6 -61l-61 -341h-102l56 318c4.66699 24 7 46.333 7 67c0 19.333 -3.5 33 -10.5 41
s-18.5 12 -34.5 12c-34.667 0 -67.834 -19.5 -99.501 -58.5s-52.5 -85.833 -62.5 -140.5l-43 -239h-102z" />
    <glyph glyph-name="i" unicode="i" horiz-adv-x="260" 
d="M130 633c0 6 0.333984 10 1.00098 12c4 20.667 13 36.667 27 48s31.333 17 52 17c16.667 0 30.167 -4.83301 40.5 -14.5s15.5 -22.167 15.5 -37.5c0 -6.66699 -0.333008 -11 -1 -13c-3.33301 -20 -12 -35.667 -26 -47s-31.333 -17 -52 -17
c-16.667 0 -30.334 4.83301 -41.001 14.5s-16 22.167 -16 37.5zM34.001 0l89 509h103l-90 -509h-102z" />
    <glyph glyph-name="j" unicode="j" horiz-adv-x="264" 
d="M135 634c0 5.33301 0.334961 9 1.00195 11c3.33301 20 12.166 35.833 26.499 47.5s31.833 17.5 52.5 17.5c16.667 0 30.167 -4.83301 40.5 -14.5s15.5 -22.167 15.5 -37.5c0 -6.66699 -0.333008 -11 -1 -13c-3.33301 -20 -12 -35.667 -26 -47s-31.333 -17 -52 -17
c-16.667 0 -30.334 5 -41.001 15s-16 22.667 -16 38zM-108.998 -209l14 80.001c11.333 -4.66699 28 -7 50 -7s38.5 6 49.5 18s19.167 33 24.5 63l99 564h103l-102 -577c-9.33301 -52.667 -27.5 -91.334 -54.5 -116.001s-64.167 -37 -111.5 -37c-27.333 0 -51.333 4 -72 12z
" />
    <glyph glyph-name="k" unicode="k" horiz-adv-x="509" 
d="M540 509l-256 -248l175 -261h-116l-101 151l-63 92h-1l-18 -105l-25 -138h-102l130 736h102l-63 -361l-16 -88h1l80 79l145 143h128z" />
    <glyph glyph-name="l" unicode="l" horiz-adv-x="294" 
d="M52 104c0 16 1.33301 29.667 4 41l105 591h102l-102 -581c-2 -12 -3 -22.333 -3 -31c0 -32.667 15.667 -49 47 -49c14.667 0 30 3 46 9l-15 -80c-28 -9.33301 -53.333 -14 -76 -14c-34 0 -60.5 10 -79.5 30s-28.5 48 -28.5 84z" />
    <glyph glyph-name="m" unicode="m" horiz-adv-x="820" 
d="M34 0l89 508.999h84l-6 -82h3c24 30 51.5 53.5 82.5 70.5s61.833 25.5 92.5 25.5c62.667 0 97 -32.667 103 -98h4c52 65.333 111 98 177 98c34 0 60 -10.5 78 -31.5s27 -51.5 27 -91.5c0 -18 -1.66699 -37.667 -5 -59l-61 -341h-102l56 317c4.66699 24 7 46.667 7 68
c0 34.667 -12.333 52 -37 52c-35.333 0 -69 -19.167 -101 -57.5s-53 -85.166 -63 -140.499l-42 -239h-103l57 317c4.66699 23.333 7 45.333 7 66c0 19.333 -3 33.166 -9 41.499s-16 12.5 -30 12.5c-35.333 0 -68.833 -19.167 -100.5 -57.5s-52.5 -85.166 -62.5 -140.499
l-42 -239h-103z" />
    <glyph glyph-name="n" unicode="n" horiz-adv-x="551" 
d="M34 0l89.001 509h85l-5 -85h3c51.333 64 109.666 96 174.999 96c78.667 0 118 -40 118 -120c0 -18.667 -2 -39.334 -6 -62.001l-59 -338h-102l55 315c4.66699 24 7 46 7 66s-3.83301 34 -11.5 42s-20.5 12 -38.5 12c-36 0 -70 -19.167 -102 -57.5
s-53 -85.166 -63 -140.499l-43 -237h-102z" />
    <glyph glyph-name="o" unicode="o" horiz-adv-x="535" 
d="M37 184c0 99.333 25.668 180.667 77.001 244s117.666 95 198.999 95c60 0 105.5 -17 136.5 -51s46.5 -83.667 46.5 -149c0 -99.333 -25.667 -180.333 -77 -243s-118.333 -94 -201 -94c-59.333 0 -104.333 17 -135 51s-46 83 -46 147zM390.001 323.001
c0 40.667 -6.66797 70.167 -20.001 88.5s-34.666 27.5 -63.999 27.5c-46.667 0 -85.5 -24.167 -116.5 -72.5s-46.5 -108.833 -46.5 -181.5c0 -77.333 28 -116 84 -116c46.667 0 85.5 24 116.5 72s46.5 108.667 46.5 182z" />
    <glyph glyph-name="p" unicode="p" horiz-adv-x="538" 
d="M506 358c1.33301 -103.333 -25.332 -191.167 -79.999 -263.5s-121.334 -107.833 -200.001 -106.5c-29.333 0 -59 4.66699 -89 14l-38 -214h-102l126 721h85l-5 -82h3c52.667 62.667 112 94 178 94c39.333 0 69.5 -13.833 90.5 -41.5s31.5 -68.167 31.5 -121.5z
M400.002 338.999c0 64.667 -18.667 96.998 -56 96.998c-35.333 0 -69.333 -18.667 -102 -56s-53.334 -82 -62.001 -134l-29 -164c18.667 -7.33301 39.334 -11 62.001 -11c52 -1.33301 96.5 24.334 133.5 77.001s54.833 116.334 53.5 191.001z" />
    <glyph glyph-name="q" unicode="q" horiz-adv-x="539" 
d="M276 -212l51 288.999h-1c-48.667 -60.667 -107 -91 -175 -91c-38 0 -67.167 15.333 -87.5 46s-30.5 74.334 -30.5 131.001c-1.33301 100.667 27.167 186.167 85.5 256.5s129.5 104.833 213.5 103.5c56 0 113.333 -8 172 -24l-125 -711h-103zM359 259.999l31.001 171.002
c-22.667 5.33301 -42.334 8 -59.001 8c-54.667 0 -100.334 -25.667 -137.001 -77s-55 -114.333 -55 -189c0 -69.333 18.333 -104 55 -104c36 1.33301 70.333 20.666 103 57.999s53.334 81.666 62.001 132.999z" />
    <glyph glyph-name="r" unicode="r" horiz-adv-x="375" 
d="M36 0l87 509.001h85l-5 -82h3c48 60 102.333 90 163 90c14 0 27 -2 39 -6l-15 -89c-11.333 4 -24.333 6 -39 6c-42 0 -79.333 -18.833 -112 -56.5s-54.667 -87.834 -66 -150.501l-40 -221h-100z" />
    <glyph glyph-name="s" unicode="s" horiz-adv-x="420" 
d="M0 17l15 83.0039c53.333 -18 102 -27 146 -27c34 0 60.167 6 78.5 18s27.5 28.667 27.5 50c0 18 -6 33 -18 45s-34.333 26 -67 42c-42.667 20.667 -73.5 42.167 -92.5 64.5s-28.5 50.166 -28.5 83.499c0 44 16.5 78.5 49.5 103.5s78.833 37.5 137.5 37.5
c52.667 0 101 -7.33301 145 -22l-15 -82c-36.667 14.667 -75.334 22 -116.001 22c-30 0 -53.333 -5 -70 -15s-25 -23.667 -25 -41c0 -16 5.83301 -29.833 17.5 -41.5s32.834 -24.834 63.501 -39.501c45.333 -20.667 77.5 -42.834 96.5 -66.501s28.5 -52.834 28.5 -87.501
c0 -47.333 -19.5 -84.833 -58.5 -112.5s-91.833 -41.5 -158.5 -41.5c-57.333 0 -109.333 9 -156 27z" />
    <glyph glyph-name="t" unicode="t" horiz-adv-x="344" 
d="M236 428l-44.999 -253c-2 -12.667 -3 -25 -3 -37c0 -40.667 16.333 -61 49 -61c23.333 0 42.666 3.33301 57.999 10l-14 -84c-22 -7.33301 -47.333 -11 -76 -11c-42.667 0 -74 9.5 -94 28.5s-30 47.833 -30 86.5c0 18.667 2 39 6 61l46 260h-91l14 81h92l23 131l106 17
l-26 -148h114l-14 -81h-115z" />
    <glyph glyph-name="u" unicode="u" horiz-adv-x="550" 
d="M51 107c0 18 2.00098 38 6.00098 60l60 342h103l-56 -319c-4.66699 -22.667 -7 -44 -7 -64c0 -36.667 14.667 -55 44 -55c40.667 0 76.667 18.667 108 56c32 38 53 85.333 63 142l42 240h102l-89 -509h-85l6 81h-3c-51.333 -63.333 -113.333 -95 -186 -95
c-34.667 0 -61.334 10.333 -80.001 31s-28 50.667 -28 90z" />
    <glyph glyph-name="v" unicode="v" horiz-adv-x="487" 
d="M168 -5l-116.001 514h109l35 -191c10.667 -66.667 18.334 -123 23.001 -169h3c34.667 75.333 63.667 133.333 87 174l101 186h114l-297 -514h-59z" />
    <glyph glyph-name="w" unicode="w" horiz-adv-x="726" 
d="M139 -3l-85.001 512h106l26 -195c5.33301 -40.667 10 -88 14 -142h1l62 112l120 208h39l47 -210l24 -110h3c22.667 58 44.334 107.333 65.001 148l94 189h107l-262 -512h-50l-47 208c-12 52 -20.667 91.333 -26 118h-2c-16.667 -35.333 -38.667 -76.333 -66 -123
l-121 -203h-49z" />
    <glyph glyph-name="x" unicode="x" horiz-adv-x="463" 
d="M-44 0l215 275l-101 234h107l41 -105c8.66699 -20.667 16 -42 22 -64h1l16 23l25 36l79 110h119l-186 -240l116 -269h-107l-60 151l-18 48h-1l-29 -41l-120 -158h-119z" />
    <glyph glyph-name="y" unicode="y" horiz-adv-x="488" 
d="M417 509l110 0.00292969l-275 -502c-34.667 -64 -65.334 -112 -92.001 -144c-25.333 -32 -52.5 -54.5 -81.5 -67.5s-67.167 -20.167 -114.5 -21.5l16 86c36.667 1.33301 67.334 13.166 92.001 35.499s55 67.166 91 134.499l-111 479h107l49 -246
c8.66699 -43.333 15.667 -82 21 -116h3c16.667 37.333 36 76.666 58 117.999z" />
    <glyph glyph-name="z" unicode="z" horiz-adv-x="450" 
d="M-14 0l5.00098 41l237 298l57 68l14 16v3l-86 -1h-130l15 84h352l-5 -38l-240 -305l-69 -82v-3c49.333 1.33301 76.666 2 81.999 2h171l-14 -83h-389z" />
    <glyph glyph-name="braceleft" unicode="{" horiz-adv-x="322" 
d="M69 -103c0 16.667 1.33301 31.3359 4 44.0029l34 188c2.66699 15.333 4 27.333 4 36c0 43.333 -23.667 65 -71 65l15 85c57.333 0.666992 91.666 34.667 102.999 102l37 207c10 58 29.833 97 59.5 117s80.834 29 153.501 27l-16 -85c-31.333 0 -54.5 -5.66699 -69.5 -17
s-24.833 -30.333 -29.5 -57l-38 -214c-10.667 -60 -39.334 -101 -86.001 -123c30.667 -18 46 -47.333 46 -88c0 -10.667 -1 -22.334 -3 -35.001l-38 -212c-1.33301 -14.667 -2 -22.334 -2 -23.001c0 -18.667 5.83301 -31.834 17.5 -39.501s30.834 -11.5 57.501 -11.5
l-14 -85c-56 0 -97.333 9.66699 -124 29s-40 49.333 -40 90z" />
    <glyph glyph-name="bar" unicode="|" horiz-adv-x="263" 
d="M5 -192l172 977h96l-172 -977h-96z" />
    <glyph glyph-name="braceright" unicode="}" horiz-adv-x="322" 
d="M260 649c0 -16.667 -1.33301 -31.3379 -4 -44.0049l-34 -188c-2.66699 -15.333 -4 -27 -4 -35c0 -43.333 23.667 -65.333 71 -66l-15 -85c-57.333 -0.666992 -91.666 -34.667 -102.999 -102l-37 -207c-10 -58 -29.833 -97 -59.5 -117s-80.834 -29 -153.501 -27l16 85
c31.333 0 54.5 5.66699 69.5 17s24.833 30.333 29.5 57l38 214c10.667 60 39.334 101 86.001 123c-30.667 18 -46 47.333 -46 88c0 10.667 1 22.334 3 35.001l38 212c1.33301 14.667 2 22.334 2 23.001c0 18.667 -5.83301 31.834 -17.5 39.501s-30.834 11.5 -57.501 11.5
l14 85c56 0.666992 97.333 -8.66602 124 -27.999s40 -49.666 40 -90.999z" />
    <glyph glyph-name="asciitilde" unicode="~" horiz-adv-x="445" 
d="M235 276c-32 12 -59 18.002 -81 18.002c-16.667 0 -29.334 -2.5 -38.001 -7.5s-16.334 -14.167 -23.001 -27.5l-70 17c4 33.333 16.5 59.666 37.5 78.999s47.5 29 79.5 29c25.333 -0.666992 56.333 -7.33398 93 -20.001c33.333 -12 60 -18 80 -18c16 0 28.333 2.5 37 7.5
s16.667 14.5 24 28.5l71 -17c-5.33301 -34 -18.166 -60.5 -38.499 -79.5s-46.166 -28.5 -77.499 -28.5c-24 0 -55.333 6.33301 -94 19z" />
    <glyph glyph-name="uni00A0" unicode="&#xa0;" horiz-adv-x="206" 
 />
    <glyph glyph-name="exclamdown" unicode="&#xa1;" horiz-adv-x="272" 
d="M236 455c0 -21.333 -7.83301 -39.5 -23.5 -54.5s-34.167 -22.5 -55.5 -22.5c-16.667 0 -30.167 4.83301 -40.5 14.5s-15.5 22.167 -15.5 37.5c0 22 7.66699 40.5 23 55.5s34 22.5 56 22.5c16.667 0 30.167 -4.83301 40.5 -14.5s15.5 -22.5 15.5 -38.5zM193 314l-26 -190
l-52 -323h-112l60 324l42 189h88z" />
    <glyph glyph-name="cent" unicode="&#xa2;" horiz-adv-x="442" 
d="M334 438l-64 -368c40 2.66699 77 12.667 111 30l-16 -90c-36 -13.333 -72.667 -21 -110 -23l-15 -86h-58l15 87c-52.667 6 -92.667 26 -120 60s-41 79.333 -41 136c0 88.667 23.333 165.167 70 229.5s108 100.5 184 108.5l15 85h59l-15 -85
c29.333 -2 56.333 -8.66699 81 -20l-15 -82c-19.333 12 -46.333 18 -81 18zM212 75l62 353.002c-42 -14.667 -75 -44.334 -99 -89.001c-23.333 -44.667 -35 -94.334 -35 -149.001c0 -64 24 -102.333 72 -115z" />
    <glyph glyph-name="sterling" unicode="&#xa3;" horiz-adv-x="501" 
d="M241 416c0 -20.667 0.333984 -33.666 1.00098 -38.999h185l-11 -68h-171v-23c0 -86.667 -23 -153.667 -69 -201l261 2l-15 -87h-415l5 42c43.333 29.333 77.5 66.166 102.5 110.499s37.5 90.5 37.5 138.5v18h-93l12 68h76l-1 45c0 88.667 21.5 156.167 64.5 202.5
s103.167 69.5 180.5 69.5c56.667 0 104 -9 142 -27l-17 -90c-28 18 -66.667 27 -116 27c-52.667 0 -92.334 -16.333 -119.001 -49s-40 -79 -40 -139z" />
    <glyph glyph-name="currency" unicode="&#xa4;" horiz-adv-x="527" 
d="M420 215l59.001 -73l-56 -50l-59 73c-34.667 -22 -73 -33 -115 -33c-44 0 -80.333 12.333 -109 37l-88 -77l-42 51l90 79c-12 24 -18 52 -18 84c0 56.667 17.333 105.667 52 147l-59 71l56 50l59 -72c33.333 21.333 71 32 113 32c43.333 0 79.666 -12.667 108.999 -38
l90 79l43 -51l-92 -81c11.333 -26 17 -53.667 17 -83c0 -54 -16.667 -102.333 -50 -145zM391.001 353c0 32 -8.5 57.333 -25.5 76s-39.833 28 -68.5 28c-40 0 -72.833 -13.5 -98.5 -40.5s-38.5 -61.5 -38.5 -103.5c0 -32 8.5 -57.333 25.5 -76s39.833 -28 68.5 -28
c39.333 0 72 13.333 98 40c26 27.333 39 62 39 104z" />
    <glyph glyph-name="yen" unicode="&#xa5;" horiz-adv-x="521" 
d="M616 700l-245 -319h109l-11 -64h-145l-12 -69h145l-11 -64h-146l-32 -184h-104l33 184h-147l12 64h146l12 69h-146l11 64h112l-134 319h116l109 -287l208 287h120z" />
    <glyph glyph-name="brokenbar" unicode="&#xa6;" horiz-adv-x="262" 
d="M102 360l75 425h96l-75 -425h-96zM5 -191l77 437h96l-77 -437h-96z" />
    <glyph glyph-name="section" unicode="&#xa7;" horiz-adv-x="451" 
d="M5 29l22 80.002c44 -27.333 88 -41 132 -41c37.333 0 66.333 7.16699 87 21.5s31 34.166 31 59.499c0 31.333 -22.667 54 -68 68c-51.333 18 -88.166 38 -110.499 60s-33.5 50.667 -33.5 86c0 46.667 22.667 85.667 68 117c-19.333 26.667 -29 52.667 -29 78
c0 49.333 17.5 87.666 52.5 114.999s83.5 41 145.5 41c52.667 0 95.667 -8.66699 129 -26l-15 -84c-33.333 18 -70.333 27 -111 27c-30.667 0 -54.5 -6 -71.5 -18s-25.5 -29.333 -25.5 -52c0 -15.333 4 -28 12 -38c9.33301 -9.33301 18.666 -16.333 27.999 -21l59 -22
c74.667 -24.667 112 -66.334 112 -125.001c0 -49.333 -20.667 -90.333 -62 -123c17.333 -17.333 26 -41.333 26 -72c0 -51.333 -20.667 -93.166 -62 -125.499s-95.333 -48.5 -162 -48.5c-62.667 0 -114 14.333 -154 43zM323 343.002c0 30 -23 52.6689 -69 68.002l-54 20
c-25.333 -15.333 -37.333 -35.333 -36 -60c1.33301 -12.667 3.33301 -22.834 6 -30.501s8.16699 -14.5 16.5 -20.5s15.5 -10.333 21.5 -13s17 -7 33 -13l21.5 -7.5c12.333 -4.33301 20.833 -7.83301 25.5 -10.5c23.333 17.333 35 39.666 35 66.999z" />
    <glyph glyph-name="dieresis" unicode="&#xa8;" horiz-adv-x="551" 
d="M113 844c0.666992 2 1 5.33301 1 10c3.33301 16 11.666 29.5 24.999 40.5s28 16.5 44 16.5c14.667 0 26.667 -4.33301 36 -13s14 -19.667 14 -33v-3c0 -4 -0.333008 -6.66699 -1 -8c-2.66699 -16 -10.667 -29.667 -24 -41s-28 -17 -44 -17
c-15.333 0 -27.666 4.5 -36.999 13.5s-14 20.5 -14 34.5zM293 844c0.666992 1.33301 1.00195 4.66699 1.00195 10c3.33301 16 11.666 29.5 24.999 40.5s28.666 16.5 45.999 16.5c14 0 25.5 -4.5 34.5 -13.5s13.5 -20.167 13.5 -33.5c0 -4.66699 -0.333008 -8 -1 -10
c-2.66699 -16.667 -10.5 -30.5 -23.5 -41.5s-27.5 -16.5 -43.5 -16.5s-28.667 4.5 -38 13.5s-14 20.5 -14 34.5z" />
    <glyph glyph-name="copyright" unicode="&#xa9;" horiz-adv-x="793" 
d="M52 274c-0.666992 81.333 16.499 155.833 51.499 223.5s84.667 121 149 160s136.5 57.833 216.5 56.5c98 0 173.5 -24.5 226.5 -73.5s79.5 -118.167 79.5 -207.5c1.33301 -127.333 -37.667 -234 -117 -320s-180.666 -128 -303.999 -126c-96 0 -170.333 25.333 -223 76
s-79 121 -79 211zM709.999 424c0 72 -20.668 127.666 -62.001 166.999s-101 59 -179 59c-103.333 1.33301 -188.333 -34.167 -255 -106.5s-99.334 -161.166 -98.001 -266.499c0 -72 20.5 -127.667 61.5 -167s100.167 -59 177.5 -59c104.667 -1.33301 190.334 34 257.001 106
s99.334 161 98.001 267zM235.998 298.999c0 73.333 20.666 136.333 61.999 189s93.666 79 156.999 79c32.667 0 62.334 -6 89.001 -18l-6 -70c-18.667 12 -43 18 -73 18c-45.333 0 -81.166 -18.833 -107.499 -56.5s-39.5 -83.5 -39.5 -137.5c0 -62.667 28.333 -94 85 -94
c34 0 65.667 7.66699 95 23l-10 -74c-34 -13.333 -67.667 -20 -101 -20c-48 0 -85.167 14.333 -111.5 43s-39.5 68 -39.5 118z" />
    <glyph glyph-name="ordfeminine" unicode="&#xaa;" horiz-adv-x="378" 
d="M83 464c0 68 17.8311 125.332 53.498 171.999s82.167 70 139.5 70c14.667 0 29.5 -1.16699 44.5 -3.5s26.833 -4.66602 35.5 -6.99902s17.334 -4.83301 26.001 -7.5l13 -4l-55 -326h-59l11 75h-2c-33.333 -56 -73.666 -84 -120.999 -84
c-28.667 0 -50.167 10.167 -64.5 30.5s-21.5 48.5 -21.5 84.5zM306.998 556.999l14 86.001c-17.333 3.33301 -32.333 4.66602 -45 3.99902c-38.667 -0.666992 -68.667 -18.667 -90 -54s-32 -77.333 -32 -126c0 -38.667 13 -58 39 -58c22.667 -1.33301 46.167 14.5 70.5 47.5
s38.833 66.5 43.5 100.5zM57.998 229l12 67h259l-11 -67h-260z" />
    <glyph glyph-name="guillemotleft" unicode="&#xab;" horiz-adv-x="474" 
d="M45 294l3 14l127 172h102l-141 -186l66 -172h-90zM233 294l3 14l127 172h102l-141 -186l66 -172h-90z" />
    <glyph glyph-name="logicalnot" unicode="&#xac;" horiz-adv-x="495" 
d="M323 153l19 116h-284l17 90h374l-36 -206h-90z" />
    <glyph glyph-name="uni00AD" unicode="&#xad;" horiz-adv-x="359" 
d="M31 227l15 87h289l-16 -87h-288z" />
    <glyph glyph-name="registered" unicode="&#xae;" horiz-adv-x="648" 
d="M650 486c0 -21.333 -1.33398 -39.665 -4.00098 -54.998c-12 -88 -49.167 -159.5 -111.5 -214.5s-139.166 -82.5 -230.499 -82.5c-78.667 0 -139.5 20.333 -182.5 61s-64.5 96.334 -64.5 167.001c0 21.333 1.33301 39.666 4 54.999
c13.333 89.333 50.833 161.166 112.5 215.499s138.167 81.5 229.5 81.5c78.667 0 139.5 -20.333 182.5 -61s64.5 -96.334 64.5 -167.001zM585.999 478.001c0 55.333 -16.835 98.001 -50.502 128.001s-81.167 45 -142.5 45c-72 0 -132 -20.833 -180 -62.5
s-77.333 -98.5 -88 -170.5c-2.66699 -13.333 -4 -29.333 -4 -48c0 -55.333 16.833 -98 50.5 -128s81.167 -45 142.5 -45c72.667 0 132.834 20.667 180.501 62s76.834 98.666 87.501 171.999c2.66699 13.333 4 29 4 47zM477.997 515.002c0 -29.333 -8 -53 -24 -71
s-37.333 -29.333 -64 -34l51 -126h-70l-52 142l-25 -142h-67l53 298h97c67.333 0 101 -22.333 101 -67zM409.997 500.002c0 16.667 -13.667 25 -41 25h-32l-14 -77h28c34 0 53.333 14.333 58 43c0.666992 1.33301 1 4.33301 1 9z" />
    <glyph glyph-name="overscore" unicode="&#xaf;" horiz-adv-x="484" 
d="M199 603l13 72h275l-13 -72h-275z" />
    <glyph glyph-name="degree" unicode="&#xb0;" horiz-adv-x="302" 
d="M64 539c0 44 15.501 81.999 46.501 113.999s70.5 48 118.5 48c36.667 0 65.667 -10.333 87 -31s32 -47.334 32 -80.001c0 -43.333 -14.833 -80.666 -44.5 -111.999s-68.5 -47 -116.5 -47c-38.667 0 -68.834 9.83301 -90.501 29.5s-32.5 45.834 -32.5 78.501z
M269.001 577.999c0 33.333 -16.999 50 -50.999 50c-22.667 0 -41 -7.33301 -55 -22s-21 -33 -21 -55c0 -14.667 4.66699 -26.5 14 -35.5s22.666 -13.5 39.999 -13.5c22 0 39.667 7.33301 53 22s20 32.667 20 54z" />
    <glyph glyph-name="plusminus" unicode="&#xb1;" horiz-adv-x="451" 
d="M170 207l20 117h-148l16 90h147l21 115h95l-21 -115h149l-15 -90h-149l-21 -117h-94zM-4 67l17 90h392l-17 -90h-392z" />
    <glyph glyph-name="uni00B2" unicode="&#xb2;" horiz-adv-x="326" 
d="M45 398l5 26l170 201c35.333 42 53 76.667 53 104c0 25.333 -16 38 -48 38c-31.333 0 -65.333 -10.333 -102 -31l11 73c36.667 18 76 27 118 27c33.333 0 59.5 -7.83301 78.5 -23.5s28.5 -37.5 28.5 -65.5c0 -48.667 -22.667 -98.667 -68 -150l-111 -129v-1
c10 0.666992 27.333 1 52 1h93l-13 -70h-267z" />
    <glyph glyph-name="uni00B3" unicode="&#xb3;" horiz-adv-x="342" 
d="M380 822l-2.99902 -26.999l-111 -143c26 -4.66699 46.167 -15.5 60.5 -32.5s21.5 -39.5 21.5 -67.5c0 -48.667 -16.667 -88.834 -50 -120.501s-75.333 -47.5 -126 -47.5c-45.333 0 -81.333 7.66699 -108 23l9 68c26.667 -16.667 58.667 -25 96 -25
c30 0 54.333 9.16699 73 27.5s28 41.5 28 69.5c0 37.333 -23.667 56 -71 56c-10.667 0 -21.334 -0.666992 -32.001 -2l-3 22l81 107l16 21v1h-35h-97l13 70h238z" />
    <glyph glyph-name="acute" unicode="&#xb4;" horiz-adv-x="425" 
d="M112 754l101 152h106l-133 -152h-74z" />
    <glyph glyph-name="uni00B5" unicode="&#xb5;" horiz-adv-x="562" 
d="M455 112c0 -24 9 -36.002 27 -36.002c4 0 11 1.33301 21 4l-15 -83c-17.333 -6.66699 -35.333 -10 -54 -10c-24 0 -41.833 6.16699 -53.5 18.5s-18.5 31.5 -20.5 57.5h-1c-17.333 -22 -39.5 -40 -66.5 -54s-53.5 -21 -79.5 -21c-35.333 0 -61 10.667 -77 32l-41 -232h-99
l127 721h102l-56 -315c-4 -22 -6 -41 -6 -57c0 -23.333 5 -40.166 15 -50.499s27 -15.5 51 -15.5c36.667 0 67 12.5 91 37.5s40 59.833 48 104.5l52 296h102l-64 -363c-2 -13.333 -3 -24.666 -3 -33.999z" />
    <glyph glyph-name="paragraph" unicode="&#xb6;" horiz-adv-x="610" 
d="M118 -226l101 562c-48 0.666992 -84.833 15.167 -110.5 43.5s-38.5 65.5 -38.5 111.5c0 66.667 19.5 118.167 58.5 154.5s94.167 54.5 165.5 54.5h314l-164 -926h-102l147 830h-123l-146 -830h-102z" />
    <glyph glyph-name="middot" unicode="&#xb7;" horiz-adv-x="242" 
d="M67 330c0 22 8.16699 40.834 24.5 56.501s35.5 23.5 57.5 23.5c17.333 0 31.333 -5 42 -15s16 -23 16 -39c0 -22.667 -8 -41.834 -24 -57.501s-35 -23.5 -57 -23.5c-17.333 0 -31.5 5.16699 -42.5 15.5s-16.5 23.5 -16.5 39.5z" />
    <glyph glyph-name="cedilla" unicode="&#xb8;" horiz-adv-x="394" 
d="M25 -196l28.001 55c14.667 -9.33301 30.667 -14 48 -14c12 0 21.833 3.16699 29.5 9.5s11.5 14.5 11.5 24.5c0 24.667 -19.333 37.667 -58 39l40 86h66l-24 -51c16.667 -4 30.167 -12.167 40.5 -24.5s15.5 -26.5 15.5 -42.5c0 -31.333 -10.5 -56.333 -31.5 -75
s-49.5 -28 -85.5 -28c-32.667 0 -59.334 7 -80.001 21z" />
    <glyph glyph-name="uni00B9" unicode="&#xb9;" horiz-adv-x="262" 
d="M136 398l60 337l-84 -37l12 72l142 64h26l-78 -436h-78z" />
    <glyph glyph-name="ordmasculine" unicode="&#xba;" horiz-adv-x="368" 
d="M80 474c0 66.667 17.668 122 53.001 166s79.666 66 132.999 66c78 0 117 -42.333 117 -127c0 -66.667 -17.667 -121.667 -53 -165s-80 -65 -134 -65c-37.333 0 -66 10.833 -86 32.5s-30 52.5 -30 92.5zM312.001 576c0 48.667 -17.333 73 -52 73
c-30.667 0 -56.5 -16.5 -77.5 -49.5s-31.5 -73.5 -31.5 -121.5s18 -72 54 -72c29.333 0 54.5 16.667 75.5 50s31.5 73.333 31.5 120zM44.001 231l13 67h261l-12 -67h-262z" />
    <glyph glyph-name="guillemotright" unicode="&#xbb;" horiz-adv-x="474" 
d="M258 308l-3 -14l-127 -172h-102l141 186l-66 172h90zM446 308l-3 -14l-127 -172h-102l141 186l-66 172h90z" />
    <glyph glyph-name="onequarter" unicode="&#xbc;" horiz-adv-x="823" 
d="M114 271l60 337l-84 -37l12 72l142 64h26l-78 -436h-78zM51 0l576 700h80l-577 -700h-79zM633 0l14 81h-194l3 27l175 321h76l-148 -284h100l33 164h69l-29 -164h44l-11 -64h-44l-15 -81h-73z" />
    <glyph glyph-name="onehalf" unicode="&#xbd;" horiz-adv-x="841" 
d="M114 271l60 337l-84 -37l12 72l142 64h26l-78 -436h-78zM51 0l576 700h80l-577 -700h-79zM489 0l5.00098 26l170 201c35.333 42 53 76.667 53 104c0 25.333 -16 38 -48 38c-31.333 0 -65.333 -10.333 -102 -31l11 73c37.333 18 76.666 27 117.999 27
c33.333 0 59.5 -7.83301 78.5 -23.5s28.5 -37.5 28.5 -65.5c0 -48.667 -22.667 -98.667 -68 -150l-111 -129v-1c10 0.666992 27.333 1 52 1h93l-13 -70h-267z" />
    <glyph glyph-name="threequarters" unicode="&#xbe;" horiz-adv-x="892" 
d="M358 700l-2.99902 -26.999l-111 -143c26 -4.66699 46.167 -15.5 60.5 -32.5s21.5 -39.5 21.5 -67.5c0 -48.667 -16.667 -88.834 -50 -120.501s-75.333 -47.5 -126 -47.5c-45.333 0 -81.333 7.66699 -108 23l9 68c26.667 -16.667 58.667 -25 96 -25
c30 0 54.333 9.16699 73 27.5s28 41.5 28 69.5c0 37.333 -23.667 56 -71 56c-10.667 0 -21.334 -0.666992 -32.001 -2l-3 22l81 107l16 21v1h-35h-97l13 70h238zM120.001 0.000976562l576 700h80l-577 -700h-79zM702.001 0.000976562l14 81h-194l3 27l175 321h76l-148 -284
h100l33 164h69l-29 -164h44l-11 -64h-44l-15 -81h-73z" />
    <glyph glyph-name="questiondown" unicode="&#xbf;" horiz-adv-x="378" 
d="M328 457c0 -6.66699 -0.333008 -10.999 -1 -12.999c-4 -19.333 -13.667 -35.333 -29 -48s-32.666 -19 -51.999 -19c-16.667 0 -30.334 5.16699 -41.001 15.5s-16 23.166 -16 38.499c0 22 8 40.833 24 56.5s35 23.5 57 23.5c17.333 0 31.333 -5 42 -15s16 -23 16 -39z
M154 72.001c-31.333 -25.333 -52.832 -46.5 -64.499 -63.5s-17.5 -35.5 -17.5 -55.5c0 -48 33.333 -72 100 -72c54 0 105 14.667 153 44l-16 -93c-53.333 -27.333 -109.666 -41 -168.999 -41c-56.667 0 -101.334 12.833 -134.001 38.5s-49 60.5 -49 104.5
c0 36 8.33301 67.333 25 94c15.333 26 44.666 55.667 87.999 89c42.667 32 74 63.333 94 94c18.667 28.667 30.667 63.667 36 105h91c-2 -49.333 -13.333 -92.333 -34 -129s-55 -75 -103 -115z" />
    <glyph glyph-name="Agrave" unicode="&#xc0;" horiz-adv-x="623" 
d="M470 0l-30 144h-293l-82 -144h-112l410 705h51l166 -705h-110zM360 527l-61.999 -113l-108 -188h236l-44 188c-8.66699 39.333 -15.334 77 -20.001 113h-2zM352.001 765l-82 145h115l47 -145h-80z" />
    <glyph glyph-name="Aacute" unicode="&#xc1;" horiz-adv-x="623" 
d="M470 0l-30 144h-293l-82 -144h-112l410 705h51l166 -705h-110zM360 527l-61.999 -113l-108 -188h236l-44 188c-8.66699 39.333 -15.334 77 -20.001 113h-2zM357.001 765l97 145h115l-133 -145h-79z" />
    <glyph glyph-name="Acircumflex" unicode="&#xc2;" horiz-adv-x="623" 
d="M470 0l-30 144h-293l-82 -144h-112l410 705h51l166 -705h-110zM360 527l-61.999 -113l-108 -188h236l-44 188c-8.66699 39.333 -15.334 77 -20.001 113h-2zM253.001 765l113 145h108l63 -145h-75l-50 83l-78 -83h-81z" />
    <glyph glyph-name="Atilde" unicode="&#xc3;" horiz-adv-x="623" 
d="M470 0l-30 144h-293l-82 -144h-112l410 705h51l166 -705h-110zM360 527l-61.999 -113l-108 -188h236l-44 188c-8.66699 39.333 -15.334 77 -20.001 113h-2zM399.001 806c-13.333 8.66699 -24.668 13 -34.001 13c-18.667 0 -31.667 -11 -39 -33l-70 7
c2 34 12.333 59.5 31 76.5s43.667 25.5 75 25.5c22 0 44.333 -7 67 -21c14.667 -8.66699 26 -13 34 -13c20 0 33.333 11.333 40 34l70 -8c-4 -68 -39.667 -102 -107 -102c-23.333 0 -45.666 7 -66.999 21z" />
    <glyph glyph-name="Adieresis" unicode="&#xc4;" horiz-adv-x="623" 
d="M470 0l-30 144h-293l-82 -144h-112l410 705h51l166 -705h-110zM360 527l-61.999 -113l-108 -188h236l-44 188c-8.66699 39.333 -15.334 77 -20.001 113h-2zM250.001 826c0 20 7.5 37.333 22.5 52s32.833 22 53.5 22c16 0 29 -4.83301 39 -14.5s15 -21.5 15 -35.5
c0 -20 -7.66699 -37.333 -23 -52s-33 -22 -53 -22c-16 0 -29 4.66699 -39 14s-15 21.333 -15 36zM445.001 826c0 20 7.66797 37.333 23.001 52s33.333 22 54 22c15.333 0 28.166 -4.66699 38.499 -14s15.5 -21 15.5 -35c0 -20 -7.66699 -37.5 -23 -52.5s-33 -22.5 -53 -22.5
c-16.667 0 -30 4.66699 -40 14s-15 21.333 -15 36z" />
    <glyph glyph-name="Aring" unicode="&#xc5;" horiz-adv-x="623" 
d="M470 0l-30 144h-293l-82 -144h-112l410 705h51l166 -705h-110zM360 527l-61.999 -113l-108 -188h236l-44 188c-8.66699 39.333 -15.334 77 -20.001 113h-2zM299.001 841c0 1.33301 0.667969 8 2.00098 20c6 31.333 21.167 56.166 45.5 74.499s53.166 27.5 86.499 27.5
c30 0 54 -7.16699 72 -21.5s27 -34.166 27 -59.499c0 -2 -0.666992 -9 -2 -21c-6 -31.333 -21.333 -55.833 -46 -73.5s-53.667 -26.5 -87 -26.5c-29.333 0 -53 7 -71 21s-27 33.667 -27 59zM465.002 861c0.666992 1.33301 0.998047 4.33301 0.998047 9
c0 12 -3.83301 21.333 -11.5 28s-17.834 10 -30.501 10c-16.667 0 -30.667 -4.83301 -42 -14.5s-17 -23.5 -17 -41.5c0 -11.333 3.83301 -20 11.5 -26s17.834 -9 30.501 -9c14.667 0 27.334 3.83301 38.001 11.5s17.334 18.5 20.001 32.5z" />
    <glyph glyph-name="AE" unicode="&#xc6;" horiz-adv-x="830" 
d="M840 611h-274l-36 -203h252l-15 -86h-252l-41 -232h283l-16 -90h-383l25 139h-233l-100 -139h-114l509 700h410zM464 585h-3c-17.333 -34.667 -42.333 -75 -75 -121l-179 -245h190l40 225c11.333 66 20.333 113 27 141z" />
    <glyph glyph-name="Ccedilla" unicode="&#xc7;" horiz-adv-x="525" 
d="M168 275c0 -127.333 56.332 -191 168.999 -191c41.333 0 83.333 9.66699 126 29l-17 -97c-32 -14.667 -69.667 -23 -113 -25l-18 -38c16.667 -4 30.167 -12.167 40.5 -24.5s15.5 -26.5 15.5 -42.5c0 -32 -10.5 -57.167 -31.5 -75.5s-49.833 -27.5 -86.5 -27.5
c-31.333 0 -57.666 7 -78.999 21l28 55c13.333 -9.33301 29.333 -14 48 -14c12 0 21.833 3.16699 29.5 9.5s11.5 14.5 11.5 24.5c0 24.667 -19.333 37.667 -58 39l36 76c-68 9.33301 -120 38.333 -156 87s-54 114.334 -54 197.001c-1.33301 124.667 33.334 228 104.001 310
s160.334 122.333 269.001 121c45.333 0 85.333 -8 120 -24l-16 -91c-32 14.667 -66.333 22 -103 22c-76.667 1.33301 -140.334 -30.834 -191.001 -96.501s-75.334 -147.167 -74.001 -244.5z" />
    <glyph glyph-name="Egrave" unicode="&#xc8;" horiz-adv-x="518" 
d="M526 609h-274l-35 -198h254l-16 -90h-254l-40 -230h284l-16 -91h-390l123 700h381zM314 765l-82 145h115l47 -145h-80z" />
    <glyph glyph-name="Eacute" unicode="&#xc9;" horiz-adv-x="518" 
d="M526 609h-274l-35 -198h254l-16 -90h-254l-40 -230h284l-16 -91h-390l123 700h381zM319 765l97 145h115l-133 -145h-79z" />
    <glyph glyph-name="Ecircumflex" unicode="&#xca;" horiz-adv-x="518" 
d="M526 609h-274l-35 -198h254l-16 -90h-254l-40 -230h284l-16 -91h-390l123 700h381zM215 765l113 145h108l63 -145h-75l-50 83l-78 -83h-81z" />
    <glyph glyph-name="Edieresis" unicode="&#xcb;" horiz-adv-x="518" 
d="M526 609h-274l-35 -198h254l-16 -90h-254l-40 -230h284l-16 -91h-390l123 700h381zM212 826c0 20 7.5 37.333 22.5 52s32.833 22 53.5 22c16 0 29 -4.83301 39 -14.5s15 -21.5 15 -35.5c0 -20 -7.66699 -37.333 -23 -52s-33 -22 -53 -22c-16 0 -29 4.66699 -39 14
s-15 21.333 -15 36zM407 826c0 20 7.66797 37.333 23.001 52s33.333 22 54 22c15.333 0 28.166 -4.66699 38.499 -14s15.5 -21 15.5 -35c0 -20 -7.66699 -37.5 -23 -52.5s-33 -22.5 -53 -22.5c-16.667 0 -30 4.66699 -40 14s-15 21.333 -15 36z" />
    <glyph glyph-name="Igrave" unicode="&#xcc;" horiz-adv-x="275" 
d="M39 0l123 700h108l-123 -700h-108zM182 765l-82 145h115l47 -145h-80z" />
    <glyph glyph-name="Iacute" unicode="&#xcd;" horiz-adv-x="275" 
d="M39 0l123 700h108l-123 -700h-108zM187 765l97 145h115l-133 -145h-79z" />
    <glyph glyph-name="Icircumflex" unicode="&#xce;" horiz-adv-x="275" 
d="M39 0l123 700h108l-123 -700h-108zM82 765l113 145h108l63 -145h-75l-50 83l-78 -83h-81z" />
    <glyph glyph-name="Idieresis" unicode="&#xcf;" horiz-adv-x="275" 
d="M39 0l123 700h108l-123 -700h-108zM96 825c0 20.667 6.50098 37.667 19.501 51s29.167 20 48.5 20c14.667 0 26.167 -4 34.5 -12s12.5 -18.667 12.5 -32c0 -7.33301 -0.333008 -12 -1 -14c-2.66699 -18 -10.167 -32.333 -22.5 -43s-26.833 -16 -43.5 -16
c-14.667 0 -26.334 4.16699 -35.001 12.5s-13 19.5 -13 33.5zM268.001 825c0 20.667 6.33398 37.666 19.001 50.999s28.667 20 48 20c14.667 0 26.334 -4.16699 35.001 -12.5s13 -19.166 13 -32.499c0 -6.66699 -0.333008 -11 -1 -13
c-2.66699 -17.333 -10.334 -31.5 -23.001 -42.5s-27.334 -16.5 -44.001 -16.5c-14.667 0 -26.167 4.16699 -34.5 12.5s-12.5 19.5 -12.5 33.5z" />
    <glyph glyph-name="Eth" unicode="&#xd0;" horiz-adv-x="635" 
d="M611 431c1.33301 -127.333 -34 -231.332 -106 -311.999s-166 -120.334 -282 -119.001h-176l57 325h-69l11 61h69l55 314h162c96 0 166.5 -22.167 211.5 -66.5s67.5 -111.833 67.5 -202.5zM502 436.001c0 62 -13 106.667 -39 134s-69.333 41 -130 41h-73l-40 -225h144
l-11 -61h-143l-42 -236h64c82 0 147.5 32.167 196.5 96.5s73.5 147.833 73.5 250.5z" />
    <glyph glyph-name="Ntilde" unicode="&#xd1;" horiz-adv-x="663" 
d="M500 -3l-231.001 390l-44 73h-2c-1.33301 -12 -5.66602 -37.667 -12.999 -77l-68 -383h-103l124 705h37l235 -398c14 -20.667 27 -43.667 39 -69h2c4 34.667 9 68 15 100l64 362h104l-124 -703h-35zM407.999 807c-13.333 8.66699 -24.667 13 -34 13
c-18.667 0 -31.667 -11.333 -39 -34l-70 8c2 33.333 12.333 58.5 31 75.5s43.667 25.5 75 25.5c22 0 44.333 -7 67 -21c14.667 -8.66699 26 -13 34 -13c20 0 33.333 11.333 40 34l70 -8c-4 -68 -39.667 -102 -107 -102c-22 0 -44.333 7.33301 -67 22z" />
    <glyph glyph-name="Ograve" unicode="&#xd2;" horiz-adv-x="682" 
d="M56 259c-1.33301 129.333 31.999 238 99.999 326s153.333 131 256 129c77.333 0 137.833 -24.167 181.5 -72.5s65.5 -115.166 65.5 -200.499c0.666992 -85.333 -14.166 -162.833 -44.499 -232.5s-73 -124.5 -128 -164.5s-116.833 -59.333 -185.5 -58
c-76.667 0 -136.667 24.167 -180 72.5s-65 115.166 -65 200.499zM548.999 432c0 60 -12.5 106.5 -37.5 139.5s-60.5 49.5 -106.5 49.5c-66 1.33301 -122.5 -33 -169.5 -103s-69.833 -153.333 -68.5 -250c0 -60 12.333 -106.5 37 -139.5s60 -49.5 106 -49.5
c66.667 -2 123.5 32 170.5 102s69.833 153.667 68.5 251zM376.999 765l-82 145h115l47 -145h-80z" />
    <glyph glyph-name="Oacute" unicode="&#xd3;" horiz-adv-x="682" 
d="M56 259c-1.33301 129.333 31.999 238 99.999 326s153.333 131 256 129c77.333 0 137.833 -24.167 181.5 -72.5s65.5 -115.166 65.5 -200.499c0.666992 -85.333 -14.166 -162.833 -44.499 -232.5s-73 -124.5 -128 -164.5s-116.833 -59.333 -185.5 -58
c-76.667 0 -136.667 24.167 -180 72.5s-65 115.166 -65 200.499zM548.999 432c0 60 -12.5 106.5 -37.5 139.5s-60.5 49.5 -106.5 49.5c-66 1.33301 -122.5 -33 -169.5 -103s-69.833 -153.333 -68.5 -250c0 -60 12.333 -106.5 37 -139.5s60 -49.5 106 -49.5
c66.667 -2 123.5 32 170.5 102s69.833 153.667 68.5 251zM381.999 765l97 145h115l-133 -145h-79z" />
    <glyph glyph-name="Ocircumflex" unicode="&#xd4;" horiz-adv-x="682" 
d="M56 259c-1.33301 129.333 31.999 238 99.999 326s153.333 131 256 129c77.333 0 137.833 -24.167 181.5 -72.5s65.5 -115.166 65.5 -200.499c0.666992 -85.333 -14.166 -162.833 -44.499 -232.5s-73 -124.5 -128 -164.5s-116.833 -59.333 -185.5 -58
c-76.667 0 -136.667 24.167 -180 72.5s-65 115.166 -65 200.499zM548.999 432c0 60 -12.5 106.5 -37.5 139.5s-60.5 49.5 -106.5 49.5c-66 1.33301 -122.5 -33 -169.5 -103s-69.833 -153.333 -68.5 -250c0 -60 12.333 -106.5 37 -139.5s60 -49.5 106 -49.5
c66.667 -2 123.5 32 170.5 102s69.833 153.667 68.5 251zM276.999 765l113 145h108l63 -145h-75l-50 83l-78 -83h-81z" />
    <glyph glyph-name="Otilde" unicode="&#xd5;" horiz-adv-x="682" 
d="M56 259c-1.33301 129.333 31.999 238 99.999 326s153.333 131 256 129c77.333 0 137.833 -24.167 181.5 -72.5s65.5 -115.166 65.5 -200.499c0.666992 -85.333 -14.166 -162.833 -44.499 -232.5s-73 -124.5 -128 -164.5s-116.833 -59.333 -185.5 -58
c-76.667 0 -136.667 24.167 -180 72.5s-65 115.166 -65 200.499zM548.999 432c0 60 -12.5 106.5 -37.5 139.5s-60.5 49.5 -106.5 49.5c-66 1.33301 -122.5 -33 -169.5 -103s-69.833 -153.333 -68.5 -250c0 -60 12.333 -106.5 37 -139.5s60 -49.5 106 -49.5
c66.667 -2 123.5 32 170.5 102s69.833 153.667 68.5 251zM419.999 807c-13.333 8.66699 -24.667 13 -34 13c-18.667 0 -31.667 -11.333 -39 -34l-70 8c2 33.333 12.333 58.5 31 75.5s43.667 25.5 75 25.5c22 0 44.333 -7 67 -21c14.667 -8.66699 26 -13 34 -13
c20 0 33.333 11.333 40 34l70 -8c-4 -68 -39.667 -102 -107 -102c-22 0 -44.333 7.33301 -67 22z" />
    <glyph glyph-name="Odieresis" unicode="&#xd6;" horiz-adv-x="682" 
d="M56 259c-1.33301 129.333 31.999 238 99.999 326s153.333 131 256 129c77.333 0 137.833 -24.167 181.5 -72.5s65.5 -115.166 65.5 -200.499c0.666992 -85.333 -14.166 -162.833 -44.499 -232.5s-73 -124.5 -128 -164.5s-116.833 -59.333 -185.5 -58
c-76.667 0 -136.667 24.167 -180 72.5s-65 115.166 -65 200.499zM548.999 432c0 60 -12.5 106.5 -37.5 139.5s-60.5 49.5 -106.5 49.5c-66 1.33301 -122.5 -33 -169.5 -103s-69.833 -153.333 -68.5 -250c0 -60 12.333 -106.5 37 -139.5s60 -49.5 106 -49.5
c66.667 -2 123.5 32 170.5 102s69.833 153.667 68.5 251zM274.999 826c0 20 7.5 37.333 22.5 52s32.833 22 53.5 22c16 0 29 -4.83301 39 -14.5s15 -21.5 15 -35.5c0 -20 -7.66699 -37.333 -23 -52s-33 -22 -53 -22c-16 0 -29 4.66699 -39 14s-15 21.333 -15 36z
M469.999 826c0 20 7.66797 37.333 23.001 52s33.333 22 54 22c15.333 0 28.166 -4.66699 38.499 -14s15.5 -21 15.5 -35c0 -20 -7.66699 -37.5 -23 -52.5s-33 -22.5 -53 -22.5c-16.667 0 -30 4.66699 -40 14s-15 21.333 -15 36z" />
    <glyph glyph-name="multiply" unicode="&#xd7;" horiz-adv-x="376" 
d="M79 150l-60 74l112 95l-78 94l74 66l80 -96l113 96l60 -75l-113 -95l79 -96l-76 -64l-79 96z" />
    <glyph glyph-name="Oslash" unicode="&#xd8;" horiz-adv-x="682" 
d="M702 714l-84.999 -103.999c28 -46 42 -102.333 42 -169c0.666992 -82 -13.166 -157.5 -41.499 -226.5s-70.333 -124.667 -126 -167s-119.167 -62.833 -190.5 -61.5c-65.333 0 -118.333 17.333 -159 52l-42 -52h-83l83 100c-29.333 46.667 -44 104.334 -44 173.001
c-0.666992 81.333 13.166 156.666 41.499 225.999s70.166 125.166 125.499 167.499s118.333 62.833 189 61.5c66.667 0 120.667 -18 162 -54l45 54h83zM167.001 268.001c0 -32.667 3.66699 -62 11 -88l329 398c-24.667 28.667 -58.667 43 -102 43
c-46.667 1.33301 -88.667 -15.167 -126 -49.5s-65.5 -78.5 -84.5 -132.5s-28.167 -111 -27.5 -171zM549.001 432.001c0 31.333 -3.66504 59.667 -10.998 85l-328 -397c24 -27.333 57.333 -41 100 -41c46.667 -1.33301 88.667 15.167 126 49.5s65.666 78.5 84.999 132.5
s28.666 111 27.999 171z" />
    <glyph glyph-name="Ugrave" unicode="&#xd9;" horiz-adv-x="661" 
d="M78 189c0 27.333 2.66797 55.333 8.00098 84l75 427h106l-74 -416c-5.33301 -34 -8 -61 -8 -81c0 -42 9.16699 -72.833 27.5 -92.5s47.5 -29.5 87.5 -29.5c51.333 0 91 16.167 119 48.5s48 83.833 60 154.5l73 416h106l-75 -427
c-16.667 -96 -49.334 -167.5 -98.001 -214.5s-115 -70.5 -199 -70.5c-68 0 -119.667 17 -155 51s-53 84 -53 150zM375.001 765l-82 145h115l47 -145h-80z" />
    <glyph glyph-name="Uacute" unicode="&#xda;" horiz-adv-x="661" 
d="M78 189c0 27.333 2.66797 55.333 8.00098 84l75 427h106l-74 -416c-5.33301 -34 -8 -61 -8 -81c0 -42 9.16699 -72.833 27.5 -92.5s47.5 -29.5 87.5 -29.5c51.333 0 91 16.167 119 48.5s48 83.833 60 154.5l73 416h106l-75 -427
c-16.667 -96 -49.334 -167.5 -98.001 -214.5s-115 -70.5 -199 -70.5c-68 0 -119.667 17 -155 51s-53 84 -53 150zM380.001 765l97 145h115l-133 -145h-79z" />
    <glyph glyph-name="Ucircumflex" unicode="&#xdb;" horiz-adv-x="661" 
d="M78 189c0 27.333 2.66797 55.333 8.00098 84l75 427h106l-74 -416c-5.33301 -34 -8 -61 -8 -81c0 -42 9.16699 -72.833 27.5 -92.5s47.5 -29.5 87.5 -29.5c51.333 0 91 16.167 119 48.5s48 83.833 60 154.5l73 416h106l-75 -427
c-16.667 -96 -49.334 -167.5 -98.001 -214.5s-115 -70.5 -199 -70.5c-68 0 -119.667 17 -155 51s-53 84 -53 150zM276.001 765l113 145h108l63 -145h-75l-50 83l-78 -83h-81z" />
    <glyph glyph-name="Udieresis" unicode="&#xdc;" horiz-adv-x="661" 
d="M78 189c0 27.333 2.66797 55.333 8.00098 84l75 427h106l-74 -416c-5.33301 -34 -8 -61 -8 -81c0 -42 9.16699 -72.833 27.5 -92.5s47.5 -29.5 87.5 -29.5c51.333 0 91 16.167 119 48.5s48 83.833 60 154.5l73 416h106l-75 -427
c-16.667 -96 -49.334 -167.5 -98.001 -214.5s-115 -70.5 -199 -70.5c-68 0 -119.667 17 -155 51s-53 84 -53 150zM273.001 826c0 20 7.5 37.333 22.5 52s32.833 22 53.5 22c16 0 29 -4.83301 39 -14.5s15 -21.5 15 -35.5c0 -20 -7.66699 -37.333 -23 -52s-33 -22 -53 -22
c-16 0 -29 4.66699 -39 14s-15 21.333 -15 36zM468.001 826c0 20 7.66797 37.333 23.001 52s33.333 22 54 22c15.333 0 28.166 -4.66699 38.499 -14s15.5 -21 15.5 -35c0 -20 -7.66699 -37.5 -23 -52.5s-33 -22.5 -53 -22.5c-16.667 0 -30 4.66699 -40 14s-15 21.333 -15 36
z" />
    <glyph glyph-name="Yacute" unicode="&#xdd;" horiz-adv-x="589" 
d="M204 0l51.999 297l-175 403h116l71 -176c16.667 -40.667 34.334 -81.667 53.001 -123h3l96 132l120 167h126l-304 -405l-53 -295h-105zM338.999 765l97 145h115l-133 -145h-79z" />
    <glyph glyph-name="Thorn" unicode="&#xde;" horiz-adv-x="558" 
d="M549 413c0 -86.667 -27.333 -155.333 -82 -206s-128.667 -76 -222 -76h-77l-23 -131h-106l123 700h106l-21 -124h70c154.667 0 232 -54.333 232 -163zM440 397.001c0 32.667 -10 55.833 -30 69.5s-53.667 20.5 -101 20.5h-78l-47 -268h71
c57.333 0 102.5 15.833 135.5 47.5s49.5 75.167 49.5 130.5z" />
    <glyph glyph-name="germandbls" unicode="&#xdf;" horiz-adv-x="559" 
d="M193 0l15.0039 78.998c16 -6 34.333 -9 55 -9c37.333 0 68.666 12.833 93.999 38.5s42.333 61.834 51 108.501c2.66699 12.667 4 27 4 43c0 63.333 -34.333 95 -103 95c-18.667 0 -36.334 -1.66699 -53.001 -5l14 78l28 6c76.667 14 121.667 58 135 132
c1.33301 8 2 16 2 24c0 22 -6.5 39.167 -19.5 51.5s-30.833 18.5 -53.5 18.5c-74.667 0 -120.334 -51 -137.001 -153l-89 -507h-102l89 507c27.333 158 112.666 237 255.999 237c52 0 92.167 -11.5 120.5 -34.5s42.5 -56.167 42.5 -99.5c0 -12 -1 -24.333 -3 -37
c-12.667 -78 -53 -132.667 -121 -164v-1c67.333 -17.333 101 -65 101 -143c0 -20 -1.33301 -36.667 -4 -50c-13.333 -73.333 -42 -129.166 -86 -167.499s-100.333 -57.5 -169 -57.5c-22.667 0 -45 3.33301 -67 10z" />
    <glyph glyph-name="agrave" unicode="&#xe0;" horiz-adv-x="541" 
d="M34 166c-1.33301 100 27.167 184.833 85.5 254.5s129.5 103.5 213.5 101.5c54.667 0 112 -8 172 -24l-88 -498h-84l5 82h-3c-48.667 -60.667 -109.667 -91 -183 -91c-37.333 0 -66.333 15.167 -87 45.5s-31 73.5 -31 129.5zM360 261l30.001 170
c-16.667 4.66699 -36.334 7 -59.001 7c-54 0 -99.333 -25 -136 -75s-55 -112.333 -55 -187c0 -68 17.667 -102 53 -102c36 0 70.833 18.667 104.5 56s54.5 81 62.5 131zM322.001 582l-79 152h106l46 -152h-73z" />
    <glyph glyph-name="aacute" unicode="&#xe1;" horiz-adv-x="541" 
d="M34 166c-1.33301 100 27.167 184.833 85.5 254.5s129.5 103.5 213.5 101.5c54.667 0 112 -8 172 -24l-88 -498h-84l5 82h-3c-48.667 -60.667 -109.667 -91 -183 -91c-37.333 0 -66.333 15.167 -87 45.5s-31 73.5 -31 129.5zM360 261l30.001 170
c-16.667 4.66699 -36.334 7 -59.001 7c-54 0 -99.333 -25 -136 -75s-55 -112.333 -55 -187c0 -68 17.667 -102 53 -102c36 0 70.833 18.667 104.5 56s54.5 81 62.5 131zM305.001 582l101 152h106l-133 -152h-74z" />
    <glyph glyph-name="acircumflex" unicode="&#xe2;" horiz-adv-x="541" 
d="M34 166c-1.33301 100 27.167 184.833 85.5 254.5s129.5 103.5 213.5 101.5c54.667 0 112 -8 172 -24l-88 -498h-84l5 82h-3c-48.667 -60.667 -109.667 -91 -183 -91c-37.333 0 -66.333 15.167 -87 45.5s-31 73.5 -31 129.5zM360 261l30.001 170
c-16.667 4.66699 -36.334 7 -59.001 7c-54 0 -99.333 -25 -136 -75s-55 -112.333 -55 -187c0 -68 17.667 -102 53 -102c36 0 70.833 18.667 104.5 56s54.5 81 62.5 131zM210.001 583l116 151h106l61 -151h-72l-50 89l-83 -89h-78z" />
    <glyph glyph-name="atilde" unicode="&#xe3;" horiz-adv-x="541" 
d="M34 166c-1.33301 100 27.167 184.833 85.5 254.5s129.5 103.5 213.5 101.5c54.667 0 112 -8 172 -24l-88 -498h-84l5 82h-3c-48.667 -60.667 -109.667 -91 -183 -91c-37.333 0 -66.333 15.167 -87 45.5s-31 73.5 -31 129.5zM360 261l30.001 170
c-16.667 4.66699 -36.334 7 -59.001 7c-54 0 -99.333 -25 -136 -75s-55 -112.333 -55 -187c0 -68 17.667 -102 53 -102c36 0 70.833 18.667 104.5 56s54.5 81 62.5 131zM351.001 615c-13.333 8.66699 -24.668 13 -34.001 13c-18.667 0 -31.667 -11 -39 -33l-70 7
c2 34 12.333 59.5 31 76.5s43.667 25.5 75 25.5c22 0 44.333 -7 67 -21c14.667 -8.66699 26 -13 34 -13c20 0 33.333 11.333 40 34l70 -8c-4 -68 -39.667 -102 -107 -102c-23.333 0 -45.666 7 -66.999 21z" />
    <glyph glyph-name="adieresis" unicode="&#xe4;" horiz-adv-x="541" 
d="M34 166c-1.33301 100 27.167 184.833 85.5 254.5s129.5 103.5 213.5 101.5c54.667 0 112 -8 172 -24l-88 -498h-84l5 82h-3c-48.667 -60.667 -109.667 -91 -183 -91c-37.333 0 -66.333 15.167 -87 45.5s-31 73.5 -31 129.5zM360 261l30.001 170
c-16.667 4.66699 -36.334 7 -59.001 7c-54 0 -99.333 -25 -136 -75s-55 -112.333 -55 -187c0 -68 17.667 -102 53 -102c36 0 70.833 18.667 104.5 56s54.5 81 62.5 131zM212.001 636c0.666992 2 1 5.33301 1 10c3.33301 16 11.666 29.5 24.999 40.5s28 16.5 44 16.5
c14.667 0 26.667 -4.33301 36 -13s14 -19.667 14 -33v-3c0 -4 -0.333008 -6.66699 -1 -8c-2.66699 -16 -10.667 -29.667 -24 -41s-28 -17 -44 -17c-15.333 0 -27.666 4.5 -36.999 13.5s-14 20.5 -14 34.5zM392.001 636c0.666992 1.33301 1.00195 4.66699 1.00195 10
c3.33301 16 11.666 29.5 24.999 40.5s28.666 16.5 45.999 16.5c14 0 25.5 -4.5 34.5 -13.5s13.5 -20.167 13.5 -33.5c0 -4.66699 -0.333008 -8 -1 -10c-2.66699 -16.667 -10.5 -30.5 -23.5 -41.5s-27.5 -16.5 -43.5 -16.5s-28.667 4.5 -38 13.5s-14 20.5 -14 34.5z" />
    <glyph glyph-name="aring" unicode="&#xe5;" horiz-adv-x="541" 
d="M34 166c-1.33301 100 27.167 184.833 85.5 254.5s129.5 103.5 213.5 101.5c54.667 0 112 -8 172 -24l-88 -498h-84l5 82h-3c-48.667 -60.667 -109.667 -91 -183 -91c-37.333 0 -66.333 15.167 -87 45.5s-31 73.5 -31 129.5zM360 261l30.001 170
c-16.667 4.66699 -36.334 7 -59.001 7c-54 0 -99.333 -25 -136 -75s-55 -112.333 -55 -187c0 -68 17.667 -102 53 -102c36 0 70.833 18.667 104.5 56s54.5 81 62.5 131zM251.001 654c0 34 12.333 62.167 37 84.5s55.667 33.5 93 33.5c31.333 0 56 -7.66699 74 -23
s27 -36.333 27 -63c0 -34 -12.333 -61.833 -37 -83.5s-55.667 -32.5 -93 -32.5c-30.667 0 -55.167 7.5 -73.5 22.5s-27.5 35.5 -27.5 61.5zM414.001 679c0 24 -13.333 36.001 -40 36.001c-16 0 -29.333 -4.66699 -40 -14s-16 -21.333 -16 -36c0 -24.667 13.667 -37 41 -37
c16 0 29.167 4.66699 39.5 14s15.5 21.666 15.5 36.999z" />
    <glyph glyph-name="ae" unicode="&#xe6;" horiz-adv-x="775" 
d="M434 230c-3.33301 -24.667 -5 -42.333 -5 -53c0 -35.333 9.66699 -62 29 -80s47 -27 83 -27c50 0 94.333 10 133 30l-13 -88c-39.333 -16 -86.666 -24 -141.999 -24c-40.667 0 -75 8.83301 -103 26.5s-48 42.167 -60 73.5h-1c-45.333 -66.667 -110.333 -100 -195 -100
c-44.667 0 -80.167 11.5 -106.5 34.5s-39.5 54.5 -39.5 94.5c0 62.667 22.5 113 67.5 151s105.167 57 180.5 57c31.333 0 59 -2.33301 83 -7c0.666992 3.33301 1 11 1 23c0 65.333 -35.333 98 -106 98c-52 0 -100.667 -11.333 -146 -34l14 89c45.333 18 95 27 149 27
c82 0 134.667 -32.667 158 -98h1c52 66.667 117 100 195 100c46 0 81.833 -11.5 107.5 -34.5s38.5 -55.167 38.5 -96.5c0 -55.333 -18.333 -99 -55 -131s-86.334 -48 -149.001 -48c-34 0 -73.667 5.66699 -119 17zM445 301.001c40 -10.667 74.999 -15 104.999 -13
c34.667 0.666992 61.5 8.83398 80.5 24.501s28.5 38.167 28.5 67.5c0 39.333 -19.333 59 -58 59c-32 0 -62.667 -12.833 -92 -38.5s-50.666 -58.834 -63.999 -99.501zM324.999 200.001l7 46c-15.333 2.66699 -35.666 4 -60.999 4c-46.667 0 -83.834 -11.167 -111.501 -33.5
s-41.5 -52.166 -41.5 -89.499c0 -18.667 5.66699 -33.334 17 -44.001s27.333 -16 48 -16c34 0 64.667 13 92 39c27.333 26.667 44 58 50 94z" />
    <glyph glyph-name="ccedilla" unicode="&#xe7;" horiz-adv-x="441" 
d="M142 190c0 -76.667 36.333 -115 109 -115c47.333 0 90.666 10 129.999 30l-16 -90c-32 -12 -67.333 -19.667 -106 -23l-18 -39c16.667 -4 30.167 -12.167 40.5 -24.5s15.5 -26.5 15.5 -42.5c0 -32 -10.5 -57.167 -31.5 -75.5s-49.833 -27.5 -86.5 -27.5
c-31.333 0 -57.666 7 -78.999 21l28 55c13.333 -9.33301 29.333 -14 48 -14c12 0 21.833 3.16699 29.5 9.5s11.5 14.5 11.5 24.5c0 24.667 -19.333 37.667 -58 39l35 75c-51.333 6.66699 -90.5 26.5 -117.5 59.5s-40.5 76.833 -40.5 131.5
c-1.33301 92.667 24.667 172.167 78 238.5s121.333 98.833 204 97.5c46.667 0 84 -7 112 -21l-14 -82c-20 12 -47.333 18 -82 18c-58 0 -104.5 -23.667 -139.5 -71s-52.5 -105.333 -52.5 -174z" />
    <glyph glyph-name="egrave" unicode="&#xe8;" horiz-adv-x="487" 
d="M140 180c0 -35.333 9.5 -62.666 28.5 -81.999s46.5 -29 82.5 -29c48.667 0 93.667 10 135 30l-13 -87c-40.667 -16 -88 -24 -142 -24c-62 0 -110 17.167 -144 51.5s-51 83.5 -51 147.5c-1.33301 92 25.667 171.333 81 238s122.666 99.334 201.999 98.001
c48.667 0 85.834 -11.5 111.501 -34.5s38.5 -56.5 38.5 -100.5c0 -66.667 -28.833 -118.334 -86.5 -155.001s-138.5 -54.334 -242.5 -53.001zM144 248c73.333 1.33301 129.333 13.333 168 36s58 54.667 58 96c0 39.333 -18.667 59 -56 59c-39.333 0 -76 -18.667 -110 -56
s-54 -82.333 -60 -135zM301 582l-79 152h106l46 -152h-73z" />
    <glyph glyph-name="eacute" unicode="&#xe9;" horiz-adv-x="487" 
d="M140 180c0 -35.333 9.5 -62.666 28.5 -81.999s46.5 -29 82.5 -29c48.667 0 93.667 10 135 30l-13 -87c-40.667 -16 -88 -24 -142 -24c-62 0 -110 17.167 -144 51.5s-51 83.5 -51 147.5c-1.33301 92 25.667 171.333 81 238s122.666 99.334 201.999 98.001
c48.667 0 85.834 -11.5 111.501 -34.5s38.5 -56.5 38.5 -100.5c0 -66.667 -28.833 -118.334 -86.5 -155.001s-138.5 -54.334 -242.5 -53.001zM144 248c73.333 1.33301 129.333 13.333 168 36s58 54.667 58 96c0 39.333 -18.667 59 -56 59c-39.333 0 -76 -18.667 -110 -56
s-54 -82.333 -60 -135zM283 582l101 152h106l-133 -152h-74z" />
    <glyph glyph-name="ecircumflex" unicode="&#xea;" horiz-adv-x="487" 
d="M140 180c0 -35.333 9.5 -62.666 28.5 -81.999s46.5 -29 82.5 -29c48.667 0 93.667 10 135 30l-13 -87c-40.667 -16 -88 -24 -142 -24c-62 0 -110 17.167 -144 51.5s-51 83.5 -51 147.5c-1.33301 92 25.667 171.333 81 238s122.666 99.334 201.999 98.001
c48.667 0 85.834 -11.5 111.501 -34.5s38.5 -56.5 38.5 -100.5c0 -66.667 -28.833 -118.334 -86.5 -155.001s-138.5 -54.334 -242.5 -53.001zM144 248c73.333 1.33301 129.333 13.333 168 36s58 54.667 58 96c0 39.333 -18.667 59 -56 59c-39.333 0 -76 -18.667 -110 -56
s-54 -82.333 -60 -135zM189 583l116 151h106l61 -151h-72l-50 89l-83 -89h-78z" />
    <glyph glyph-name="edieresis" unicode="&#xeb;" horiz-adv-x="487" 
d="M140 180c0 -35.333 9.5 -62.666 28.5 -81.999s46.5 -29 82.5 -29c48.667 0 93.667 10 135 30l-13 -87c-40.667 -16 -88 -24 -142 -24c-62 0 -110 17.167 -144 51.5s-51 83.5 -51 147.5c-1.33301 92 25.667 171.333 81 238s122.666 99.334 201.999 98.001
c48.667 0 85.834 -11.5 111.501 -34.5s38.5 -56.5 38.5 -100.5c0 -66.667 -28.833 -118.334 -86.5 -155.001s-138.5 -54.334 -242.5 -53.001zM144 248c73.333 1.33301 129.333 13.333 168 36s58 54.667 58 96c0 39.333 -18.667 59 -56 59c-39.333 0 -76 -18.667 -110 -56
s-54 -82.333 -60 -135zM191 636c0.666992 2 1 5.33301 1 10c3.33301 16 11.666 29.5 24.999 40.5s28 16.5 44 16.5c14.667 0 26.667 -4.33301 36 -13s14 -19.667 14 -33v-3c0 -4 -0.333008 -6.66699 -1 -8c-2.66699 -16 -10.667 -29.667 -24 -41s-28 -17 -44 -17
c-15.333 0 -27.666 4.5 -36.999 13.5s-14 20.5 -14 34.5zM371 636c0.666992 1.33301 1.00195 4.66699 1.00195 10c3.33301 16 11.666 29.5 24.999 40.5s28.666 16.5 45.999 16.5c14 0 25.5 -4.5 34.5 -13.5s13.5 -20.167 13.5 -33.5c0 -4.66699 -0.333008 -8 -1 -10
c-2.66699 -16.667 -10.5 -30.5 -23.5 -41.5s-27.5 -16.5 -43.5 -16.5s-28.667 4.5 -38 13.5s-14 20.5 -14 34.5z" />
    <glyph glyph-name="igrave" unicode="&#xec;" horiz-adv-x="260" 
d="M34 0l89 509h103l-90 -509h-102zM150 582l-59 152h106l23 -152h-70z" />
    <glyph glyph-name="iacute" unicode="&#xed;" horiz-adv-x="260" 
d="M34 0l89 509h103l-90 -509h-102zM147 582l78 152h104l-114 -152h-68z" />
    <glyph glyph-name="icircumflex" unicode="&#xee;" horiz-adv-x="260" 
d="M34 0l89 509h103l-90 -509h-102zM55 582l108 152h102l52 -152h-70l-41 92l-73 -92h-78z" />
    <glyph glyph-name="idieresis" unicode="&#xef;" horiz-adv-x="260" 
d="M34 0l89 509h103l-90 -509h-102zM55 634c0 19.333 6.66699 35.832 20 49.499s29.333 20.5 48 20.5c14.667 0 26.334 -4.5 35.001 -13.5s13 -20.5 13 -34.5c0 -19.333 -6.83301 -35.666 -20.5 -48.999s-29.5 -20 -47.5 -20c-14.667 0 -26.334 4.33301 -35.001 13
s-13 20 -13 34zM225 633.999c0 19.333 6.66797 35.833 20.001 49.5s29.666 20.5 48.999 20.5c14 0 25.333 -4.33301 34 -13s13 -20 13 -34c0 -19.333 -6.66699 -35.833 -20 -49.5s-29 -20.5 -47 -20.5c-14.667 0 -26.5 4.33301 -35.5 13s-13.5 20 -13.5 34z" />
    <glyph glyph-name="eth" unicode="&#xf0;" horiz-adv-x="528" 
d="M35 181c-1.33301 81.333 21.833 152.167 69.5 212.5s107.167 89.833 178.5 88.5c59.333 0 101 -23.333 125 -70h1c-3.33301 80.667 -30.333 141.334 -81 182.001l-113 -78l-31 45l95 64c-26 13.333 -58 23.666 -96 30.999l71 62c38.667 -8.66699 72 -21.667 100 -39
l72 50l31 -46l-56 -39c64 -58 96 -142.333 96 -253c0 -78 -9.83301 -147 -29.5 -207s-50.5 -108 -92.5 -144s-93 -54 -153 -54c-62 0 -108.667 17.5 -140 52.5s-47 82.5 -47 142.5zM382.999 295.001c0 31.333 -8.5 57.165 -25.5 77.498s-40.833 30.5 -71.5 30.5
c-44 0 -79.333 -22 -106 -66s-40 -95 -40 -153c0 -35.333 7.16699 -63.166 21.5 -83.499s35.833 -30.5 64.5 -30.5c44.667 0 82 23.333 112 70s45 98.334 45 155.001z" />
    <glyph glyph-name="ntilde" unicode="&#xf1;" horiz-adv-x="552" 
d="M34 0l89.001 509h85l-5 -85h3c51.333 64 109.666 96 174.999 96c78.667 0 118 -40 118 -120c0 -18.667 -2 -39.334 -6 -62.001l-59 -338h-102l55 315c4.66699 24 7 46 7 66s-3.83301 34 -11.5 42s-20.5 12 -38.5 12c-36 0 -70 -19.167 -102 -57.5
s-53 -85.166 -63 -140.499l-43 -237h-102zM346.001 615c-13.333 8.66699 -24.668 13 -34.001 13c-18.667 0 -31.667 -11 -39 -33l-70 7c2 34 12.333 59.5 31 76.5s43.667 25.5 75 25.5c22 0 44.333 -7 67 -21c14.667 -8.66699 26 -13 34 -13c20 0 33.333 11.333 40 34l70 -8
c-4 -68 -39.667 -102 -107 -102c-23.333 0 -45.666 7 -66.999 21z" />
    <glyph glyph-name="ograve" unicode="&#xf2;" horiz-adv-x="535" 
d="M37 184c0 99.333 25.668 180.667 77.001 244s117.666 95 198.999 95c60 0 105.5 -17 136.5 -51s46.5 -83.667 46.5 -149c0 -99.333 -25.667 -180.333 -77 -243s-118.333 -94 -201 -94c-59.333 0 -104.333 17 -135 51s-46 83 -46 147zM390.001 323.001
c0 40.667 -6.66797 70.167 -20.001 88.5s-34.666 27.5 -63.999 27.5c-46.667 0 -85.5 -24.167 -116.5 -72.5s-46.5 -108.833 -46.5 -181.5c0 -77.333 28 -116 84 -116c46.667 0 85.5 24 116.5 72s46.5 108.667 46.5 182zM297 582.001l-79 152h106l46 -152h-73z" />
    <glyph glyph-name="oacute" unicode="&#xf3;" horiz-adv-x="535" 
d="M37 184c0 99.333 25.668 180.667 77.001 244s117.666 95 198.999 95c60 0 105.5 -17 136.5 -51s46.5 -83.667 46.5 -149c0 -99.333 -25.667 -180.333 -77 -243s-118.333 -94 -201 -94c-59.333 0 -104.333 17 -135 51s-46 83 -46 147zM390.001 323.001
c0 40.667 -6.66797 70.167 -20.001 88.5s-34.666 27.5 -63.999 27.5c-46.667 0 -85.5 -24.167 -116.5 -72.5s-46.5 -108.833 -46.5 -181.5c0 -77.333 28 -116 84 -116c46.667 0 85.5 24 116.5 72s46.5 108.667 46.5 182zM279 582.001l101 152h106l-133 -152h-74z" />
    <glyph glyph-name="ocircumflex" unicode="&#xf4;" horiz-adv-x="535" 
d="M37 184c0 99.333 25.668 180.667 77.001 244s117.666 95 198.999 95c60 0 105.5 -17 136.5 -51s46.5 -83.667 46.5 -149c0 -99.333 -25.667 -180.333 -77 -243s-118.333 -94 -201 -94c-59.333 0 -104.333 17 -135 51s-46 83 -46 147zM390.001 323.001
c0 40.667 -6.66797 70.167 -20.001 88.5s-34.666 27.5 -63.999 27.5c-46.667 0 -85.5 -24.167 -116.5 -72.5s-46.5 -108.833 -46.5 -181.5c0 -77.333 28 -116 84 -116c46.667 0 85.5 24 116.5 72s46.5 108.667 46.5 182zM185 583.001l116 151h106l61 -151h-72l-50 89
l-83 -89h-78z" />
    <glyph glyph-name="otilde" unicode="&#xf5;" horiz-adv-x="535" 
d="M37 184c0 99.333 25.668 180.667 77.001 244s117.666 95 198.999 95c60 0 105.5 -17 136.5 -51s46.5 -83.667 46.5 -149c0 -99.333 -25.667 -180.333 -77 -243s-118.333 -94 -201 -94c-59.333 0 -104.333 17 -135 51s-46 83 -46 147zM390.001 323.001
c0 40.667 -6.66797 70.167 -20.001 88.5s-34.666 27.5 -63.999 27.5c-46.667 0 -85.5 -24.167 -116.5 -72.5s-46.5 -108.833 -46.5 -181.5c0 -77.333 28 -116 84 -116c46.667 0 85.5 24 116.5 72s46.5 108.667 46.5 182zM326 615.001c-13.333 8.66699 -24.668 13 -34.001 13
c-18.667 0 -31.667 -11 -39 -33l-70 7c2 34 12.333 59.5 31 76.5s43.667 25.5 75 25.5c22 0 44.333 -7 67 -21c14.667 -8.66699 26 -13 34 -13c20 0 33.333 11.333 40 34l70 -8c-4 -68 -39.667 -102 -107 -102c-23.333 0 -45.666 7 -66.999 21z" />
    <glyph glyph-name="odieresis" unicode="&#xf6;" horiz-adv-x="535" 
d="M37 184c0 99.333 25.668 180.667 77.001 244s117.666 95 198.999 95c60 0 105.5 -17 136.5 -51s46.5 -83.667 46.5 -149c0 -99.333 -25.667 -180.333 -77 -243s-118.333 -94 -201 -94c-59.333 0 -104.333 17 -135 51s-46 83 -46 147zM390.001 323.001
c0 40.667 -6.66797 70.167 -20.001 88.5s-34.666 27.5 -63.999 27.5c-46.667 0 -85.5 -24.167 -116.5 -72.5s-46.5 -108.833 -46.5 -181.5c0 -77.333 28 -116 84 -116c46.667 0 85.5 24 116.5 72s46.5 108.667 46.5 182zM186 636.001c0.666992 2 1 5.33301 1 10
c3.33301 16 11.666 29.5 24.999 40.5s28 16.5 44 16.5c14.667 0 26.667 -4.33301 36 -13s14 -19.667 14 -33v-3c0 -4 -0.333008 -6.66699 -1 -8c-2.66699 -16 -10.667 -29.667 -24 -41s-28 -17 -44 -17c-15.333 0 -27.666 4.5 -36.999 13.5s-14 20.5 -14 34.5zM366 636.001
c0.666992 1.33301 1.00195 4.66699 1.00195 10c3.33301 16 11.666 29.5 24.999 40.5s28.666 16.5 45.999 16.5c14 0 25.5 -4.5 34.5 -13.5s13.5 -20.167 13.5 -33.5c0 -4.66699 -0.333008 -8 -1 -10c-2.66699 -16.667 -10.5 -30.5 -23.5 -41.5s-27.5 -16.5 -43.5 -16.5
s-28.667 4.5 -38 13.5s-14 20.5 -14 34.5z" />
    <glyph glyph-name="divide" unicode="&#xf7;" horiz-adv-x="425" 
d="M180 459c0 22 8.16895 40.667 24.502 56s35.833 23 58.5 23c17.333 0 31.166 -5 41.499 -15s15.5 -23 15.5 -39c0 -22 -7.83301 -41 -23.5 -57s-34.834 -24 -57.501 -24c-18 0 -32.333 5.16699 -43 15.5s-16 23.833 -16 40.5zM27.002 269l16 90h375l-16 -90h-375z
M126.002 145c0 22 7.83203 40.833 23.499 56.5s34.834 23.5 57.501 23.5c18 0 32.167 -5 42.5 -15s15.5 -23 15.5 -39c0 -22 -8 -40.833 -24 -56.5s-35 -23.5 -57 -23.5c-18 0 -32.167 5 -42.5 15s-15.5 23 -15.5 39z" />
    <glyph glyph-name="oslash" unicode="&#xf8;" horiz-adv-x="535" 
d="M520 524l-57 -69c22 -32.667 33 -76.667 33 -132c0 -100 -25.833 -181.167 -77.5 -243.5s-118.834 -93.5 -201.501 -93.5c-45.333 0 -82.666 10.667 -111.999 32l-28 -34h-75l63 78c-18.667 32.667 -28 73.334 -28 122.001c0 99.333 25.5 180.666 76.5 243.999
s117.833 95 200.5 95c44 0 79.333 -9.33301 106 -28l24 29h76zM143 195c0 -6 0.667969 -19 2.00098 -39l216 271c-12.667 12 -30.667 18 -54 18c-46.667 0 -85.334 -24 -116.001 -72s-46.667 -107.333 -48 -178zM390.001 314c0 16.667 -1.66699 33.333 -5 50l-219 -275
c12.667 -16.667 32.667 -25 60 -25c46.667 0 85.667 24 117 72s47 107.333 47 178z" />
    <glyph glyph-name="ugrave" unicode="&#xf9;" horiz-adv-x="551" 
d="M51 107c0 18 2.00098 38 6.00098 60l60 342h103l-56 -319c-4.66699 -22.667 -7 -44 -7 -64c0 -36.667 14.667 -55 44 -55c40.667 0 76.667 18.667 108 56c32 38 53 85.333 63 142l42 240h102l-89 -509h-85l6 81h-3c-51.333 -63.333 -113.333 -95 -186 -95
c-34.667 0 -61.334 10.333 -80.001 31s-28 50.667 -28 90zM295.001 582l-79 152h106l46 -152h-73z" />
    <glyph glyph-name="uacute" unicode="&#xfa;" horiz-adv-x="551" 
d="M51 107c0 18 2.00098 38 6.00098 60l60 342h103l-56 -319c-4.66699 -22.667 -7 -44 -7 -64c0 -36.667 14.667 -55 44 -55c40.667 0 76.667 18.667 108 56c32 38 53 85.333 63 142l42 240h102l-89 -509h-85l6 81h-3c-51.333 -63.333 -113.333 -95 -186 -95
c-34.667 0 -61.334 10.333 -80.001 31s-28 50.667 -28 90zM278.001 582l101 152h106l-133 -152h-74z" />
    <glyph glyph-name="ucircumflex" unicode="&#xfb;" horiz-adv-x="551" 
d="M51 107c0 18 2.00098 38 6.00098 60l60 342h103l-56 -319c-4.66699 -22.667 -7 -44 -7 -64c0 -36.667 14.667 -55 44 -55c40.667 0 76.667 18.667 108 56c32 38 53 85.333 63 142l42 240h102l-89 -509h-85l6 81h-3c-51.333 -63.333 -113.333 -95 -186 -95
c-34.667 0 -61.334 10.333 -80.001 31s-28 50.667 -28 90zM183.001 583l116 151h106l61 -151h-72l-50 89l-83 -89h-78z" />
    <glyph glyph-name="udieresis" unicode="&#xfc;" horiz-adv-x="551" 
d="M51 107c0 18 2.00098 38 6.00098 60l60 342h103l-56 -319c-4.66699 -22.667 -7 -44 -7 -64c0 -36.667 14.667 -55 44 -55c40.667 0 76.667 18.667 108 56c32 38 53 85.333 63 142l42 240h102l-89 -509h-85l6 81h-3c-51.333 -63.333 -113.333 -95 -186 -95
c-34.667 0 -61.334 10.333 -80.001 31s-28 50.667 -28 90zM185.001 636c0.666992 2 1 5.33301 1 10c3.33301 16 11.666 29.5 24.999 40.5s28 16.5 44 16.5c14.667 0 26.667 -4.33301 36 -13s14 -19.667 14 -33v-3c0 -4 -0.333008 -6.66699 -1 -8
c-2.66699 -16 -10.667 -29.667 -24 -41s-28 -17 -44 -17c-15.333 0 -27.666 4.5 -36.999 13.5s-14 20.5 -14 34.5zM365.001 636c0.666992 1.33301 1.00195 4.66699 1.00195 10c3.33301 16 11.666 29.5 24.999 40.5s28.666 16.5 45.999 16.5c14 0 25.5 -4.5 34.5 -13.5
s13.5 -20.167 13.5 -33.5c0 -4.66699 -0.333008 -8 -1 -10c-2.66699 -16.667 -10.5 -30.5 -23.5 -41.5s-27.5 -16.5 -43.5 -16.5s-28.667 4.5 -38 13.5s-14 20.5 -14 34.5z" />
    <glyph glyph-name="yacute" unicode="&#xfd;" horiz-adv-x="488" 
d="M417 509l110 0.00292969l-275 -502c-34.667 -64 -65.334 -112 -92.001 -144c-25.333 -32 -52.5 -54.5 -81.5 -67.5s-67.167 -20.167 -114.5 -21.5l16 86c36.667 1.33301 67.334 13.166 92.001 35.499s55 67.166 91 134.499l-111 479h107l49 -246
c8.66699 -43.333 15.667 -82 21 -116h3c16.667 37.333 36 76.666 58 117.999zM254 582.003l101 152h106l-133 -152h-74z" />
    <glyph glyph-name="thorn" unicode="&#xfe;" horiz-adv-x="538" 
d="M506 358c1.33301 -103.333 -25.332 -191.167 -79.999 -263.5s-121.334 -107.833 -200.001 -106.5c-29.333 0 -59 4.66699 -89 14l-38 -214h-102l166 948h102l-52 -304h2c48 59.333 104.333 89 169 89c39.333 0 69.5 -13.833 90.5 -41.5s31.5 -68.167 31.5 -121.5z
M400.002 338.999c0 64.667 -18.667 96.998 -56 96.998c-35.333 0 -69.333 -18.667 -102 -56s-53.334 -82 -62.001 -134l-29 -164c18.667 -7.33301 39.334 -11 62.001 -11c52 -1.33301 96.5 24.334 133.5 77.001s54.833 116.334 53.5 191.001z" />
    <glyph glyph-name="ydieresis" unicode="&#xff;" horiz-adv-x="488" 
d="M417 509l110 0.00292969l-275 -502c-34.667 -64 -65.334 -112 -92.001 -144c-25.333 -32 -52.5 -54.5 -81.5 -67.5s-67.167 -20.167 -114.5 -21.5l16 86c36.667 1.33301 67.334 13.166 92.001 35.499s55 67.166 91 134.499l-111 479h107l49 -246
c8.66699 -43.333 15.667 -82 21 -116h3c16.667 37.333 36 76.666 58 117.999zM162 636.003c0.666992 2 1 5.33301 1 10c3.33301 16 11.666 29.5 24.999 40.5s28 16.5 44 16.5c14.667 0 26.667 -4.33301 36 -13s14 -19.667 14 -33v-3c0 -4 -0.333008 -6.66699 -1 -8
c-2.66699 -16 -10.667 -29.667 -24 -41s-28 -17 -44 -17c-15.333 0 -27.666 4.5 -36.999 13.5s-14 20.5 -14 34.5zM342 636.003c0.666992 1.33301 1.00195 4.66699 1.00195 10c3.33301 16 11.666 29.5 24.999 40.5s28.666 16.5 45.999 16.5c14 0 25.5 -4.5 34.5 -13.5
s13.5 -20.167 13.5 -33.5c0 -4.66699 -0.333008 -8 -1 -10c-2.66699 -16.667 -10.5 -30.5 -23.5 -41.5s-27.5 -16.5 -43.5 -16.5s-28.667 4.5 -38 13.5s-14 20.5 -14 34.5z" />
    <glyph glyph-name="Amacron" unicode="&#x100;" horiz-adv-x="623" 
d="M470 0l-30 144h-293l-82 -144h-112l410 705h51l166 -705h-110zM360 527l-61.999 -113l-108 -188h236l-44 188c-8.66699 39.333 -15.334 77 -20.001 113h-2zM265.001 793l13 73h275l-13 -73h-275z" />
    <glyph glyph-name="amacron" unicode="&#x101;" horiz-adv-x="541" 
d="M34 166c-1.33301 100 27.167 184.833 85.5 254.5s129.5 103.5 213.5 101.5c54.667 0 112 -8 172 -24l-88 -498h-84l5 82h-3c-48.667 -60.667 -109.667 -91 -183 -91c-37.333 0 -66.333 15.167 -87 45.5s-31 73.5 -31 129.5zM360 261l30.001 170
c-16.667 4.66699 -36.334 7 -59.001 7c-54 0 -99.333 -25 -136 -75s-55 -112.333 -55 -187c0 -68 17.667 -102 53 -102c36 0 70.833 18.667 104.5 56s54.5 81 62.5 131zM217.001 603l13 72h275l-13 -72h-275z" />
    <glyph glyph-name="Abreve" unicode="&#x102;" horiz-adv-x="623" 
d="M470 0l-30 144h-293l-82 -144h-112l410 705h51l166 -705h-110zM360 527l-61.999 -113l-108 -188h236l-44 188c-8.66699 39.333 -15.334 77 -20.001 113h-2zM280.001 875l3 35.001h80c-1.33301 -16 -2 -24.333 -2 -25c0 -35.333 15 -53 45 -53c18 0 33 7.16699 45 21.5
s20 33.166 24 56.499h80c-19.333 -100 -73 -150 -161 -150c-36 0 -64 9.83301 -84 29.5s-30 48.167 -30 85.5z" />
    <glyph glyph-name="abreve" unicode="&#x103;" horiz-adv-x="541" 
d="M34 166c-1.33301 100 27.167 184.833 85.5 254.5s129.5 103.5 213.5 101.5c54.667 0 112 -8 172 -24l-88 -498h-84l5 82h-3c-48.667 -60.667 -109.667 -91 -183 -91c-37.333 0 -66.333 15.167 -87 45.5s-31 73.5 -31 129.5zM360 261l30.001 170
c-16.667 4.66699 -36.334 7 -59.001 7c-54 0 -99.333 -25 -136 -75s-55 -112.333 -55 -187c0 -68 17.667 -102 53 -102c36 0 70.833 18.667 104.5 56s54.5 81 62.5 131zM235.001 698c0 10.667 1 22.668 3 36.001h79c-1.33301 -14.667 -2 -23 -2 -25
c1.33301 -35.333 16.333 -53 45 -53c36 0 59.333 26 70 78h79c-10 -52 -28.167 -90 -54.5 -114s-61.5 -36 -105.5 -36c-36 0 -64 9.66699 -84 29s-30 47.666 -30 84.999z" />
    <glyph glyph-name="Aogonek" unicode="&#x104;" horiz-adv-x="624" 
d="M414 705l166 -705.001h-12c-53.333 -51.333 -83 -93 -89 -125l-1 -6c0 -12 7.66699 -18 23 -18s31.333 3 48 9l-10 -62c-19.333 -10 -42 -15 -68 -15c-23.333 0 -41.333 5.83301 -54 17.5s-19 27.5 -19 47.5c0 44.667 29.333 95.334 88 152.001h-16l-30 144h-293
l-82 -144h-112l410 705h51zM360 526.999l-61.999 -113l-108 -188h236l-44 188c-8.66699 39.333 -15.334 77 -20.001 113h-2z" />
    <glyph glyph-name="aogonek" unicode="&#x105;" horiz-adv-x="541" 
d="M505 498l-87.998 -498c-52.667 -46.667 -82.667 -88 -90 -124c-1.33301 -8 0.166992 -14 4.5 -18s11.166 -6 20.499 -6c10.667 0 25 3 43 9l-11 -62c-20.667 -10.667 -44.334 -16 -71.001 -16c-46.667 0 -70 21 -70 63c0 44 31.667 95.333 95 154h-5l5 82h-3
c-48.667 -60.667 -109.667 -91 -183 -91c-37.333 0 -66.333 15.167 -87 45.5s-31 73.5 -31 129.5c-1.33301 100 27.167 184.833 85.5 254.5s129.5 103.5 213.5 101.5c54.667 0 112 -8 172 -24zM360.002 261l30.001 170c-16.667 4.66699 -36.334 7 -59.001 7
c-54 0 -99.333 -25 -136 -75s-55 -112.333 -55 -187c0 -68 17.667 -102 53 -102c36 0 70.833 18.667 104.5 56s54.5 81 62.5 131z" />
    <glyph glyph-name="Cacute" unicode="&#x106;" horiz-adv-x="525" 
d="M59 278c-1.33301 124.667 33.334 228.001 104.001 310.001s160.334 122.333 269.001 121c45.333 0 85.333 -8 120 -24l-16 -91c-32 14.667 -66.333 22 -103 22c-76.667 1.33301 -140.334 -30.834 -191.001 -96.501s-75.334 -147.167 -74.001 -244.5
c0 -127.333 56.333 -191 169 -191c41.333 0 83.333 9.66699 126 29l-17 -97c-36 -16.667 -78.333 -25 -127 -25c-84 0 -148.333 24.667 -193 74s-67 120.333 -67 213zM370 765.001l97 145h115l-133 -145h-79z" />
    <glyph glyph-name="cacute" unicode="&#x107;" horiz-adv-x="441" 
d="M36 184c-1.33301 92.667 24.667 172.167 78 238.5s121.333 98.833 204 97.5c46.667 0 84 -7 112 -21l-14 -82c-20 12 -47.333 18 -82 18c-58 0 -104.5 -23.667 -139.5 -71s-52.5 -105.333 -52.5 -174c0 -76.667 36.333 -115 109 -115c47.333 0 90.666 10 129.999 30
l-16 -90c-43.333 -16 -88.666 -24 -135.999 -24c-63.333 0 -111.333 17 -144 51s-49 81.333 -49 142zM263 582l101 152h106l-133 -152h-74z" />
    <glyph glyph-name="Ccircumflex" unicode="&#x108;" horiz-adv-x="525" 
d="M59 278c-1.33301 124.667 33.334 228.001 104.001 310.001s160.334 122.333 269.001 121c45.333 0 85.333 -8 120 -24l-16 -91c-32 14.667 -66.333 22 -103 22c-76.667 1.33301 -140.334 -30.834 -191.001 -96.501s-75.334 -147.167 -74.001 -244.5
c0 -127.333 56.333 -191 169 -191c41.333 0 83.333 9.66699 126 29l-17 -97c-36 -16.667 -78.333 -25 -127 -25c-84 0 -148.333 24.667 -193 74s-67 120.333 -67 213zM265 765.001l113 145h108l63 -145h-75l-50 83l-78 -83h-81z" />
    <glyph glyph-name="ccircumflex" unicode="&#x109;" horiz-adv-x="441" 
d="M36 184c-1.33301 92.667 24.667 172.167 78 238.5s121.333 98.833 204 97.5c46.667 0 84 -7 112 -21l-14 -82c-20 12 -47.333 18 -82 18c-58 0 -104.5 -23.667 -139.5 -71s-52.5 -105.333 -52.5 -174c0 -76.667 36.333 -115 109 -115c47.333 0 90.666 10 129.999 30
l-16 -90c-43.333 -16 -88.666 -24 -135.999 -24c-63.333 0 -111.333 17 -144 51s-49 81.333 -49 142zM169 583l116 151h106l61 -151h-72l-50 89l-83 -89h-78z" />
    <glyph glyph-name="Cdotaccent" unicode="&#x10a;" horiz-adv-x="525" 
d="M59 278c-1.33301 124.667 33.334 228.001 104.001 310.001s160.334 122.333 269.001 121c45.333 0 85.333 -8 120 -24l-16 -91c-32 14.667 -66.333 22 -103 22c-76.667 1.33301 -140.334 -30.834 -191.001 -96.501s-75.334 -147.167 -74.001 -244.5
c0 -127.333 56.333 -191 169 -191c41.333 0 83.333 9.66699 126 29l-17 -97c-36 -16.667 -78.333 -25 -127 -25c-84 0 -148.333 24.667 -193 74s-67 120.333 -67 213zM355 828.001c0 24 7.83301 43.333 23.5 58s35.5 22 59.5 22c17.333 0 31.166 -5 41.499 -15
s15.5 -23 15.5 -39l-1 -12c-4 -20.667 -13.167 -37 -27.5 -49s-32.166 -18 -53.499 -18c-18 0 -32.167 4.83301 -42.5 14.5s-15.5 22.5 -15.5 38.5z" />
    <glyph glyph-name="cdotaccent" unicode="&#x10b;" horiz-adv-x="441" 
d="M36 184c-1.33301 92.667 24.667 172.167 78 238.5s121.333 98.833 204 97.5c46.667 0 84 -7 112 -21l-14 -82c-20 12 -47.333 18 -82 18c-58 0 -104.5 -23.667 -139.5 -71s-52.5 -105.333 -52.5 -174c0 -76.667 36.333 -115 109 -115c47.333 0 90.666 10 129.999 30
l-16 -90c-43.333 -16 -88.666 -24 -135.999 -24c-63.333 0 -111.333 17 -144 51s-49 81.333 -49 142zM266 640v3.99902c0 4.66699 0.333008 7.66699 1 9c3.33301 20.667 12 36.667 26 48s31.667 17 53 17c16.667 0 30.167 -4.66699 40.5 -14s15.5 -21.666 15.5 -36.999
c0 -7.33301 -0.333008 -12 -1 -14c-4 -20 -13 -35.833 -27 -47.5s-31.333 -17.5 -52 -17.5c-16.667 0 -30.167 4.83301 -40.5 14.5s-15.5 22.167 -15.5 37.5z" />
    <glyph glyph-name="Ccaron" unicode="&#x10c;" horiz-adv-x="525" 
d="M59 278c-1.33301 124.667 33.334 228.001 104.001 310.001s160.334 122.333 269.001 121c45.333 0 85.333 -8 120 -24l-16 -91c-32 14.667 -66.333 22 -103 22c-76.667 1.33301 -140.334 -30.834 -191.001 -96.501s-75.334 -147.167 -74.001 -244.5
c0 -127.333 56.333 -191 169 -191c41.333 0 83.333 9.66699 126 29l-17 -97c-36 -16.667 -78.333 -25 -127 -25c-84 0 -148.333 24.667 -193 74s-67 120.333 -67 213zM357 765.001l-63 145h77l51 -83l78 83h78l-114 -145h-107z" />
    <glyph glyph-name="ccaron" unicode="&#x10d;" horiz-adv-x="441" 
d="M36 184c-1.33301 92.667 24.667 172.167 78 238.5s121.333 98.833 204 97.5c46.667 0 84 -7 112 -21l-14 -82c-20 12 -47.333 18 -82 18c-58 0 -104.5 -23.667 -139.5 -71s-52.5 -105.333 -52.5 -174c0 -76.667 36.333 -115 109 -115c47.333 0 90.666 10 129.999 30
l-16 -90c-43.333 -16 -88.666 -24 -135.999 -24c-63.333 0 -111.333 17 -144 51s-49 81.333 -49 142zM256 582l-60 152h74l51 -90l83 90h74l-115 -152h-107z" />
    <glyph glyph-name="Dcaron" unicode="&#x10e;" horiz-adv-x="627" 
d="M39 0l123 700.001h163c94.667 0 164.667 -22.167 210 -66.5s68 -111.833 68 -202.5c1.33301 -127.333 -34 -231.333 -106 -312s-166.333 -120.334 -283 -119.001h-175zM160 89.001h64c82 0 147.5 32.167 196.5 96.5s73.5 147.833 73.5 250.5c0 62 -13 106.667 -39 134
s-69.333 41 -130 41h-73zM291 765.001l-63 145h77l51 -83l78 83h78l-114 -145h-107z" />
    <glyph glyph-name="dcaron" unicode="&#x10f;" horiz-adv-x="590" 
d="M404 516l37.999 220h103l-130 -736h-83l5 83h-3c-50 -61.333 -110.333 -92 -181 -92c-39.333 0 -69.166 15 -89.499 45s-30.5 73 -30.5 129c-1.33301 100 27.167 185.167 85.5 255.5s129.5 104.5 213.5 102.5c20 0 44 -2.33301 72 -7zM610.999 736h83l-63 -184h-69z
M358.999 262l29.998 170c-19.333 4.66699 -38.666 7 -57.999 7c-55.333 0 -101.166 -25.5 -137.499 -76.5s-54.5 -113.833 -54.5 -188.5c0 -66.667 18 -100 54 -100c35.333 0 69.833 18.833 103.5 56.5s54.5 81.5 62.5 131.5z" />
    <glyph glyph-name="Dcroat" unicode="&#x110;" horiz-adv-x="635" 
d="M611 431c1.33301 -127.333 -34 -231.332 -106 -311.999s-166 -120.334 -282 -119.001h-176l57 325h-69l11 61h69l55 314h162c96 0 166.5 -22.167 211.5 -66.5s67.5 -111.833 67.5 -202.5zM502 436.001c0 62 -13 106.667 -39 134s-69.333 41 -130 41h-73l-40 -225h144
l-11 -61h-143l-42 -236h64c82 0 147.5 32.167 196.5 96.5s73.5 147.833 73.5 250.5z" />
    <glyph glyph-name="dslash" unicode="&#x111;" horiz-adv-x="539" 
d="M603 657l-12.001 -64h-72l-104 -593h-83l5 83h-3c-50 -61.333 -110.333 -92 -181 -92c-39.333 0 -69.166 15 -89.499 45s-30.5 73 -30.5 129c-1.33301 100 27.167 185.167 85.5 255.5s129.5 104.5 213.5 102.5c20 0 44 -2.33301 72 -7l13 77h-145l12 64h144l14 79h102
l-14 -79h73zM358.999 262l29.998 170c-19.333 4.66699 -38.666 7 -57.999 7c-55.333 0 -101.166 -25.5 -137.499 -76.5s-54.5 -113.833 -54.5 -188.5c0 -66.667 18 -100 54 -100s70.333 18.833 103 56.5s53.667 81.5 63 131.5z" />
    <glyph glyph-name="Emacron" unicode="&#x112;" horiz-adv-x="518" 
d="M526 609h-274l-35 -198h254l-16 -90h-254l-40 -230h284l-16 -91h-390l123 700h381zM227 793l13 73h275l-13 -73h-275z" />
    <glyph glyph-name="emacron" unicode="&#x113;" horiz-adv-x="487" 
d="M140 180c0 -35.333 9.5 -62.666 28.5 -81.999s46.5 -29 82.5 -29c48.667 0 93.667 10 135 30l-13 -87c-40.667 -16 -88 -24 -142 -24c-62 0 -110 17.167 -144 51.5s-51 83.5 -51 147.5c-1.33301 92 25.667 171.333 81 238s122.666 99.334 201.999 98.001
c48.667 0 85.834 -11.5 111.501 -34.5s38.5 -56.5 38.5 -100.5c0 -66.667 -28.833 -118.334 -86.5 -155.001s-138.5 -54.334 -242.5 -53.001zM144 248c73.333 1.33301 129.333 13.333 168 36s58 54.667 58 96c0 39.333 -18.667 59 -56 59c-39.333 0 -76 -18.667 -110 -56
s-54 -82.333 -60 -135zM196 603l13 72h275l-13 -72h-275z" />
    <glyph glyph-name="Ebreve" unicode="&#x114;" horiz-adv-x="518" 
d="M526 609h-274l-35 -198h254l-16 -90h-254l-40 -230h284l-16 -91h-390l123 700h381zM242 875l3 35.001h80c-1.33301 -16 -2 -24.333 -2 -25c0 -35.333 15 -53 45 -53c18 0 33 7.16699 45 21.5s20 33.166 24 56.499h80c-19.333 -100 -73 -150 -161 -150
c-36 0 -64 9.83301 -84 29.5s-30 48.167 -30 85.5z" />
    <glyph glyph-name="ebreve" unicode="&#x115;" horiz-adv-x="487" 
d="M140 180c0 -35.333 9.5 -62.666 28.5 -81.999s46.5 -29 82.5 -29c48.667 0 93.667 10 135 30l-13 -87c-40.667 -16 -88 -24 -142 -24c-62 0 -110 17.167 -144 51.5s-51 83.5 -51 147.5c-1.33301 92 25.667 171.333 81 238s122.666 99.334 201.999 98.001
c48.667 0 85.834 -11.5 111.501 -34.5s38.5 -56.5 38.5 -100.5c0 -66.667 -28.833 -118.334 -86.5 -155.001s-138.5 -54.334 -242.5 -53.001zM144 248c73.333 1.33301 129.333 13.333 168 36s58 54.667 58 96c0 39.333 -18.667 59 -56 59c-39.333 0 -76 -18.667 -110 -56
s-54 -82.333 -60 -135zM214 698c0 10.667 1 22.668 3 36.001h79c-1.33301 -14.667 -2 -23 -2 -25c1.33301 -35.333 16.333 -53 45 -53c36 0 59.333 26 70 78h79c-10 -52 -28.167 -90 -54.5 -114s-61.5 -36 -105.5 -36c-36 0 -64 9.66699 -84 29s-30 47.666 -30 84.999z" />
    <glyph glyph-name="Edotaccent" unicode="&#x116;" horiz-adv-x="518" 
d="M526 609h-274l-35 -198h254l-16 -90h-254l-40 -230h284l-16 -91h-390l123 700h381zM304 828c0 24 7.83301 43.333 23.5 58s35.5 22 59.5 22c17.333 0 31.166 -5 41.499 -15s15.5 -23 15.5 -39l-1 -12c-4 -20.667 -13.167 -37 -27.5 -49s-32.166 -18 -53.499 -18
c-18 0 -32.167 4.83301 -42.5 14.5s-15.5 22.5 -15.5 38.5z" />
    <glyph glyph-name="edotaccent" unicode="&#x117;" horiz-adv-x="487" 
d="M140 180c0 -35.333 9.5 -62.666 28.5 -81.999s46.5 -29 82.5 -29c48.667 0 93.667 10 135 30l-13 -87c-40.667 -16 -88 -24 -142 -24c-62 0 -110 17.167 -144 51.5s-51 83.5 -51 147.5c-1.33301 92 25.667 171.333 81 238s122.666 99.334 201.999 98.001
c48.667 0 85.834 -11.5 111.501 -34.5s38.5 -56.5 38.5 -100.5c0 -66.667 -28.833 -118.334 -86.5 -155.001s-138.5 -54.334 -242.5 -53.001zM144 248c73.333 1.33301 129.333 13.333 168 36s58 54.667 58 96c0 39.333 -18.667 59 -56 59c-39.333 0 -76 -18.667 -110 -56
s-54 -82.333 -60 -135zM275 640v3.99902c0 4.66699 0.333008 7.66699 1 9c3.33301 20.667 12 36.667 26 48s31.667 17 53 17c16.667 0 30.167 -4.66699 40.5 -14s15.5 -21.666 15.5 -36.999c0 -7.33301 -0.333008 -12 -1 -14c-4 -20 -13 -35.833 -27 -47.5
s-31.333 -17.5 -52 -17.5c-16.667 0 -30.167 4.83301 -40.5 14.5s-15.5 22.167 -15.5 37.5z" />
    <glyph glyph-name="Eogonek" unicode="&#x118;" horiz-adv-x="518" 
d="M526 609l-274 -0.000976562l-35 -198h254l-16 -90h-254l-40 -230h284l-16 -91c-24 -19.333 -44.5 -40.333 -61.5 -63s-27.167 -42.334 -30.5 -59.001l-1 -8c0 -13.333 7 -20 21 -20s28 3 42 9l-10 -60c-20.667 -10 -44 -15 -70 -15c-20.667 0 -36.667 5.33301 -48 16
s-17 25.334 -17 44.001c0 0.666992 0.666992 6.33398 2 17.001c8 46 40 92.333 96 139h-313l123 700h381z" />
    <glyph glyph-name="eogonek" unicode="&#x119;" horiz-adv-x="486" 
d="M140 180c0 -36 9.33203 -63.5 27.999 -82.5s46 -28.5 82 -28.5c48 0 93.333 10 136 30l-13 -87c-20.667 -16 -42.667 -38.333 -66 -67c-21.333 -28.667 -32 -52.667 -32 -72c0 -8.66699 1.66699 -14.334 5 -17.001s9.66602 -4 18.999 -4c12.667 0 27 2.66699 43 8
l-10 -61c-20.667 -10.667 -44 -16 -70 -16c-23.333 0 -41.166 5.5 -53.499 16.5s-18.5 26.5 -18.5 46.5c0 42.667 26.667 90.667 80 144c-21.333 -1.33301 -34.666 -2 -39.999 -2c-62.667 0 -110.667 16.833 -144 50.5s-50 82.834 -50 147.501
c-1.33301 92.667 25.667 172.5 81 239.5s122.666 99.5 201.999 97.5c48.667 0 85.834 -11.5 111.501 -34.5s38.5 -56.5 38.5 -100.5c0 -68 -28.833 -120 -86.5 -156s-138.5 -53.333 -242.5 -52zM144.999 248c72.667 2 128.333 14.5 167 37.5s58 55.5 58 97.5
c0 37.333 -18.667 56 -56 56c-40 0 -76.667 -18.667 -110 -56s-53 -82.333 -59 -135z" />
    <glyph glyph-name="Ecaron" unicode="&#x11a;" horiz-adv-x="518" 
d="M526 609h-274l-35 -198h254l-16 -90h-254l-40 -230h284l-16 -91h-390l123 700h381zM307 765l-63 145h77l51 -83l78 83h78l-114 -145h-107z" />
    <glyph glyph-name="ecaron" unicode="&#x11b;" horiz-adv-x="487" 
d="M140 180c0 -35.333 9.5 -62.666 28.5 -81.999s46.5 -29 82.5 -29c48.667 0 93.667 10 135 30l-13 -87c-40.667 -16 -88 -24 -142 -24c-62 0 -110 17.167 -144 51.5s-51 83.5 -51 147.5c-1.33301 92 25.667 171.333 81 238s122.666 99.334 201.999 98.001
c48.667 0 85.834 -11.5 111.501 -34.5s38.5 -56.5 38.5 -100.5c0 -66.667 -28.833 -118.334 -86.5 -155.001s-138.5 -54.334 -242.5 -53.001zM144 248c73.333 1.33301 129.333 13.333 168 36s58 54.667 58 96c0 39.333 -18.667 59 -56 59c-39.333 0 -76 -18.667 -110 -56
s-54 -82.333 -60 -135zM276 582l-60 152h74l51 -90l83 90h74l-115 -152h-107z" />
    <glyph glyph-name="Gcircumflex" unicode="&#x11c;" horiz-adv-x="569" 
d="M59 280c-1.33301 123.333 33.833 225.999 105.5 307.999s161.167 122.333 268.5 121c55.333 0 100.333 -9 135 -27l-16 -91c-30.667 16.667 -69 25 -115 25c-79.333 0 -144 -31.667 -194 -95s-75 -144.666 -75 -243.999c0 -129.333 53 -194 159 -194c18 0 34.667 2 50 6
l45 253h102l-56 -321c-43.333 -20.667 -92 -31 -146 -31c-85.333 0 -150.5 24.833 -195.5 74.5s-67.5 121.5 -67.5 215.5zM270.999 764.999l113 145h108l63 -145h-75l-50 83l-78 -83h-81z" />
    <glyph glyph-name="gcircumflex" unicode="&#x11d;" horiz-adv-x="539" 
d="M505 499l-89.999 -507.001c-12.667 -70.667 -42 -124.667 -88 -162s-104.667 -56 -176 -56c-52.667 0 -96 9 -130 27l16 84c33.333 -17.333 71.666 -26 114.999 -26c89.333 0 142.666 44.667 159.999 134l19 97h-2c-48.667 -62 -107.667 -93 -177 -93
c-38 0 -67 15.333 -87 46s-30 74 -30 130c-1.33301 101.333 26.834 185.333 84.501 252s129.5 99.334 215.5 98.001c50 0 106.667 -8 170 -24zM361.001 269.999l30 162.001c-16.667 4.66699 -36.667 7 -60 7c-56 0 -101.667 -23.833 -137 -71.5s-53 -108.834 -53 -183.501
c0 -69.333 18.333 -104 55 -104c35.333 0 69.333 19 102 57s53.667 82.333 63 133zM205.001 583l116 151h106l61 -151h-72l-50 89l-83 -89h-78z" />
    <glyph glyph-name="Gbreve" unicode="&#x11e;" horiz-adv-x="569" 
d="M59 280c-1.33301 123.333 33.833 225.999 105.5 307.999s161.167 122.333 268.5 121c55.333 0 100.333 -9 135 -27l-16 -91c-30.667 16.667 -69 25 -115 25c-79.333 0 -144 -31.667 -194 -95s-75 -144.666 -75 -243.999c0 -129.333 53 -194 159 -194c18 0 34.667 2 50 6
l45 253h102l-56 -321c-43.333 -20.667 -92 -31 -146 -31c-85.333 0 -150.5 24.833 -195.5 74.5s-67.5 121.5 -67.5 215.5zM298.999 874.999l3 35.001h80c-1.33301 -16 -2 -24.333 -2 -25c0 -35.333 15 -53 45 -53c18 0 33 7.16699 45 21.5s20 33.166 24 56.499h80
c-19.333 -100 -73 -150 -161 -150c-36 0 -64 9.83301 -84 29.5s-30 48.167 -30 85.5z" />
    <glyph glyph-name="gbreve" unicode="&#x11f;" horiz-adv-x="539" 
d="M505 499l-89.999 -507.001c-12.667 -70.667 -42 -124.667 -88 -162s-104.667 -56 -176 -56c-52.667 0 -96 9 -130 27l16 84c33.333 -17.333 71.666 -26 114.999 -26c89.333 0 142.666 44.667 159.999 134l19 97h-2c-48.667 -62 -107.667 -93 -177 -93
c-38 0 -67 15.333 -87 46s-30 74 -30 130c-1.33301 101.333 26.834 185.333 84.501 252s129.5 99.334 215.5 98.001c50 0 106.667 -8 170 -24zM361.001 269.999l30 162.001c-16.667 4.66699 -36.667 7 -60 7c-56 0 -101.667 -23.833 -137 -71.5s-53 -108.834 -53 -183.501
c0 -69.333 18.333 -104 55 -104c35.333 0 69.333 19 102 57s53.667 82.333 63 133zM230.001 698c0 10.667 1 22.668 3 36.001h79c-1.33301 -14.667 -2 -23 -2 -25c1.33301 -35.333 16.333 -53 45 -53c36 0 59.333 26 70 78h79c-10 -52 -28.167 -90 -54.5 -114
s-61.5 -36 -105.5 -36c-36 0 -64 9.66699 -84 29s-30 47.666 -30 84.999z" />
    <glyph glyph-name="Gdotaccent" unicode="&#x120;" horiz-adv-x="569" 
d="M59 280c-1.33301 123.333 33.833 225.999 105.5 307.999s161.167 122.333 268.5 121c55.333 0 100.333 -9 135 -27l-16 -91c-30.667 16.667 -69 25 -115 25c-79.333 0 -144 -31.667 -194 -95s-75 -144.666 -75 -243.999c0 -129.333 53 -194 159 -194c18 0 34.667 2 50 6
l45 253h102l-56 -321c-43.333 -20.667 -92 -31 -146 -31c-85.333 0 -150.5 24.833 -195.5 74.5s-67.5 121.5 -67.5 215.5zM360.999 827.999c0 24 7.83301 43.333 23.5 58s35.5 22 59.5 22c17.333 0 31.166 -5 41.499 -15s15.5 -23 15.5 -39l-1 -12
c-4 -20.667 -13.167 -37 -27.5 -49s-32.166 -18 -53.499 -18c-18 0 -32.167 4.83301 -42.5 14.5s-15.5 22.5 -15.5 38.5z" />
    <glyph glyph-name="gdotaccent" unicode="&#x121;" horiz-adv-x="539" 
d="M505 499l-89.999 -507.001c-12.667 -70.667 -42 -124.667 -88 -162s-104.667 -56 -176 -56c-52.667 0 -96 9 -130 27l16 84c33.333 -17.333 71.666 -26 114.999 -26c89.333 0 142.666 44.667 159.999 134l19 97h-2c-48.667 -62 -107.667 -93 -177 -93
c-38 0 -67 15.333 -87 46s-30 74 -30 130c-1.33301 101.333 26.834 185.333 84.501 252s129.5 99.334 215.5 98.001c50 0 106.667 -8 170 -24zM361.001 269.999l30 162.001c-16.667 4.66699 -36.667 7 -60 7c-56 0 -101.667 -23.833 -137 -71.5s-53 -108.834 -53 -183.501
c0 -69.333 18.333 -104 55 -104c35.333 0 69.333 19 102 57s53.667 82.333 63 133zM291.001 640v3.99902c0 4.66699 0.333008 7.66699 1 9c3.33301 20.667 12 36.667 26 48s31.667 17 53 17c16.667 0 30.167 -4.66699 40.5 -14s15.5 -21.666 15.5 -36.999
c0 -7.33301 -0.333008 -12 -1 -14c-4 -20 -13 -35.833 -27 -47.5s-31.333 -17.5 -52 -17.5c-16.667 0 -30.167 4.83301 -40.5 14.5s-15.5 22.167 -15.5 37.5z" />
    <glyph glyph-name="uni0122" unicode="&#x122;" horiz-adv-x="569" 
d="M59 280c-1.33301 123.333 33.833 225.999 105.5 307.999s161.167 122.333 268.5 121c55.333 0 100.333 -9 135 -27l-16 -91c-30.667 16.667 -69 25 -115 25c-79.333 0 -144 -31.667 -194 -95s-75 -144.666 -75 -243.999c0 -129.333 53 -194 159 -194c18 0 34.667 2 50 6
l45 253h102l-56 -321c-43.333 -20.667 -92 -31 -146 -31c-85.333 0 -150.5 24.833 -195.5 74.5s-67.5 121.5 -67.5 215.5zM209.999 -270.001l61 184h87l-75 -184h-73z" />
    <glyph glyph-name="uni0123" unicode="&#x123;" horiz-adv-x="539" 
d="M505 499l-89.999 -507.001c-12.667 -70.667 -42 -124.667 -88 -162s-104.667 -56 -176 -56c-52.667 0 -96 9 -130 27l16 84c33.333 -17.333 71.666 -26 114.999 -26c89.333 0 142.666 44.667 159.999 134l19 97h-2c-48.667 -62 -107.667 -93 -177 -93
c-38 0 -67 15.333 -87 46s-30 74 -30 130c-1.33301 101.333 26.834 185.333 84.501 252s129.5 99.334 215.5 98.001c50 0 106.667 -8 170 -24zM361.001 269.999l30 162.001c-16.667 4.66699 -36.667 7 -60 7c-56 0 -101.667 -23.833 -137 -71.5s-53 -108.834 -53 -183.501
c0 -69.333 18.333 -104 55 -104c35.333 0 69.333 19 102 57s53.667 82.333 63 133zM293.001 584l62 152h78l-51 -152h-89z" />
    <glyph glyph-name="Hcircumflex" unicode="&#x124;" horiz-adv-x="652" 
d="M540 700h106l-122 -700h-106l56 319h-273l-56 -319h-106l123 700h106l-51 -290h272zM270 765l113 145h108l63 -145h-75l-50 83l-78 -83h-81z" />
    <glyph glyph-name="hcircumflex" unicode="&#x125;" horiz-adv-x="542" 
d="M33 0l130.001 736h102l-40 -235c-4.66699 -25.333 -10 -48.333 -16 -69h2c22 28 48 50.167 78 66.5s59 24.5 87 24.5c76.667 0 115 -40.333 115 -121c0 -18.667 -2 -39 -6 -61l-61 -341h-102l56 318c4.66699 24 7 46.333 7 67c0 19.333 -3.5 33 -10.5 41
s-18.5 12 -34.5 12c-34.667 0 -67.834 -19.5 -99.501 -58.5s-52.5 -85.833 -62.5 -140.5l-43 -239h-102zM81.001 801l113 145h108l63 -145h-75l-50 83l-78 -83h-81z" />
    <glyph glyph-name="Hbar" unicode="&#x126;" horiz-adv-x="668" 
d="M704 590l-11 -62h-69l-92 -528h-106l55 318h-273l-56 -318h-105l93 528h-69l11 62h69l19 110h106l-19 -110h272l19 110h106l-19 -110h69zM497 407l21 121h-272l-22 -121h273z" />
    <glyph glyph-name="hbar" unicode="&#x127;" horiz-adv-x="543" 
d="M492 402c0 -18.667 -1.99902 -39 -5.99902 -61l-61 -341h-102l56 318c4.66699 24 7 46.333 7 67c0 19.333 -3.5 33 -10.5 41s-18.5 12 -34.5 12c-34.667 0 -67.834 -19.5 -99.501 -58.5s-52.5 -85.833 -62.5 -140.5l-43 -239h-102l105 593h-72l11 63h72l14 80h102
l-14 -80h143l-11 -63h-142l-16 -92c-4.66699 -25.333 -10 -48.333 -16 -69h2c22.667 28.667 48.667 51 78 67s58.333 24 87 24c76.667 0 115 -40.333 115 -121z" />
    <glyph glyph-name="Itilde" unicode="&#x128;" horiz-adv-x="275" 
d="M39 0l123 700h108l-123 -700h-108zM225 807c-13.333 8.66699 -24.667 13 -34 13c-18.667 0 -31.667 -11.333 -39 -34l-70 8c2 33.333 12.333 58.5 31 75.5s43.667 25.5 75 25.5c22 0 44.333 -7 67 -21c14.667 -8.66699 26 -13 34 -13c20 0 33.333 11.333 40 34l70 -8
c-4 -68 -39.667 -102 -107 -102c-22 0 -44.333 7.33301 -67 22z" />
    <glyph glyph-name="itilde" unicode="&#x129;" horiz-adv-x="260" 
d="M34 0l89 509h103l-90 -509h-102zM181 616c-10 8.66699 -19.335 13.001 -28.002 13.001c-13.333 0 -23.333 -11.333 -30 -34l-70 8c6 31.333 18 56.166 36 74.499s39.333 27.5 64 27.5c18.667 0 37.667 -7 57 -21c12.667 -9.33301 22 -14 28 -14c14 0 24.333 11.333 31 34
l70 -8c-15.333 -67.333 -48.666 -101 -99.999 -101c-21.333 0 -40.666 7 -57.999 21z" />
    <glyph glyph-name="Imacron" unicode="&#x12a;" horiz-adv-x="275" 
d="M39 0l123 700h108l-123 -700h-108zM95 793l13 73h275l-13 -73h-275z" />
    <glyph glyph-name="imacron" unicode="&#x12b;" horiz-adv-x="260" 
d="M34 0l89 509h103l-90 -509h-102zM63 603l12 72h258l-12 -72h-258z" />
    <glyph glyph-name="Ibreve" unicode="&#x12c;" horiz-adv-x="275" 
d="M39 0l123 700h108l-123 -700h-108zM110 875l3 35.001h80c-1.33301 -16 -2 -24.333 -2 -25c0 -35.333 15 -53 45 -53c18 0 33 7.16699 45 21.5s20 33.166 24 56.499h80c-19.333 -100 -73 -150 -161 -150c-36 0 -64 9.83301 -84 29.5s-30 48.167 -30 85.5z" />
    <glyph glyph-name="ibreve" unicode="&#x12d;" horiz-adv-x="260" 
d="M34 0l89 509h103l-90 -509h-102zM83 689c0 10.667 1.33203 25 3.99902 43h79c-2 -12 -3 -22.333 -3 -31c0 -31.333 12 -47 36 -47c30.667 0 51.334 26 62.001 78h79c-10.667 -54 -28 -92.5 -52 -115.5s-58 -34.5 -102 -34.5c-68.667 0 -103 35.667 -103 107z" />
    <glyph glyph-name="Iogonek" unicode="&#x12e;" horiz-adv-x="275" 
d="M162 700h108.001l-123 -700c-53.333 -46 -83.333 -86.667 -90 -122l-1 -8c0 -13.333 7 -20 21 -20c10.667 0 25 3 43 9l-10 -59c-18.667 -10.667 -42.334 -16 -71.001 -16c-21.333 0 -37.5 5.16699 -48.5 15.5s-16.5 24.833 -16.5 43.5c0 1.33301 0.666992 7.33301 2 18
c8.66699 48 40 94.333 94 139h-31z" />
    <glyph glyph-name="iogonek" unicode="&#x12f;" horiz-adv-x="260" 
d="M267 657c0 -20.667 -7.83398 -38.499 -23.501 -53.499s-34.167 -22.5 -55.5 -22.5c-17.333 0 -31.166 5 -41.499 15s-15.5 23 -15.5 39c0 19.333 8.16699 36.666 24.5 51.999s34.833 23 55.5 23c16.667 0 30.167 -5 40.5 -15s15.5 -22.667 15.5 -38zM33.999 0.000976562
l88.999 509.001h103l-90 -509c-45.333 -44.667 -72 -85.334 -80 -122.001c-3.33301 -17.333 4.33398 -26 23.001 -26c12 0 24.333 2.66699 37 8l-11 -65c-18.667 -8 -39 -12 -61 -12c-48.667 0 -73 21 -73 63c0 23.333 7.83301 49 23.5 77s36.5 53.667 62.5 77h-23z" />
    <glyph glyph-name="Idot" unicode="&#x130;" horiz-adv-x="275" 
d="M39 0l123 700h108l-123 -700h-108zM172 828c0 24 7.83301 43.333 23.5 58s35.5 22 59.5 22c17.333 0 31.166 -5 41.499 -15s15.5 -23 15.5 -39l-1 -12c-4 -20.667 -13.167 -37 -27.5 -49s-32.166 -18 -53.499 -18c-18 0 -32.167 4.83301 -42.5 14.5
s-15.5 22.5 -15.5 38.5z" />
    <glyph glyph-name="dotlessi" unicode="&#x131;" horiz-adv-x="260" 
d="M34 0l89 509h103l-90 -509h-102z" />
    <glyph glyph-name="IJ" unicode="&#x132;" horiz-adv-x="749" 
d="M39 0l123 700h108l-123 -700h-108zM255 32l15.998 91.999c33.333 -27.333 76.666 -41 129.999 -41c42.667 0 77.334 13.333 104.001 40s44.334 64.334 53.001 113.001l82 464h106l-87 -493c-12 -69.333 -40 -122.833 -84 -160.5s-99.333 -56.5 -166 -56.5
c-63.333 0 -114.666 14 -153.999 42z" />
    <glyph glyph-name="ij" unicode="&#x133;" horiz-adv-x="533" 
d="M130 633c0 6 0.333984 10 1.00098 12c4 20.667 13 36.667 27 48s31.333 17 52 17c16.667 0 30.167 -4.83301 40.5 -14.5s15.5 -22.167 15.5 -37.5c0 -6.66699 -0.333008 -11 -1 -13c-3.33301 -20 -12 -35.667 -26 -47s-31.333 -17 -52 -17
c-16.667 0 -30.334 4.83301 -41.001 14.5s-16 22.167 -16 37.5zM34.001 0l89 509h103l-90 -509h-102zM404.001 634c0 5.33301 0.334961 9 1.00195 11c3.33301 20 12.166 35.833 26.499 47.5s31.833 17.5 52.5 17.5c16.667 0 30.167 -4.83301 40.5 -14.5
s15.5 -22.167 15.5 -37.5c0 -6.66699 -0.333008 -11 -1 -13c-3.33301 -20 -12 -35.667 -26 -47s-31.333 -17 -52 -17c-16.667 0 -30.334 5 -41.001 15s-16 22.667 -16 38zM160.003 -209l14 80.001c11.333 -4.66699 28 -7 50 -7s38.5 6 49.5 18s19.167 33 24.5 63l99 564h103
l-102 -577c-9.33301 -52.667 -27.5 -91.334 -54.5 -116.001s-64.167 -37 -111.5 -37c-26.667 0 -50.667 4 -72 12z" />
    <glyph glyph-name="Jcircumflex" unicode="&#x134;" horiz-adv-x="474" 
d="M-20 32l15.998 91.999c33.333 -27.333 76.666 -41 129.999 -41c42.667 0 77.334 13.333 104.001 40s44.334 64.334 53.001 113.001l82 464h106l-87 -493c-12 -69.333 -40 -122.833 -84 -160.5s-99.333 -56.5 -166 -56.5c-63.333 0 -114.666 14 -153.999 42z
M283.998 764.999l113 145h108l63 -145h-75l-50 83l-78 -83h-81z" />
    <glyph glyph-name="jcircumflex" unicode="&#x135;" horiz-adv-x="264" 
d="M-109 -209l13.999 81c11.333 -4.66699 27.333 -7 48 -7c22 0 38.667 5.66699 50 17s19.333 30 24 56l101 571h103l-102 -577c-18 -102 -74 -153 -168 -153c-25.333 0 -48.666 4 -69.999 12zM60.999 582l108 152h102l52 -152h-70l-41 92l-73 -92h-78z" />
    <glyph glyph-name="uni0136" unicode="&#x136;" horiz-adv-x="612" 
d="M671 700l-353 -340.999l253 -359h-123l-148 209l-95 132h-1l-27 -153l-33 -188h-106l124 700h106l-30 -166c-2.66699 -18.667 -7.66699 -46.334 -15 -83.001l-11 -61h1l141 134l182 176h135zM183 -269.999l61 184h87l-75 -184h-73z" />
    <glyph glyph-name="uni0137" unicode="&#x137;" horiz-adv-x="510" 
d="M540 509l-256 -248l175 -261h-116l-101 151l-63 92h-1l-18 -105l-25 -138h-102l130 736h102l-63 -361l-16 -88h1l80 79l145 143h128zM116 -270l61 184h87l-75 -184h-73z" />
    <glyph glyph-name="kgreenlandic" unicode="&#x138;" horiz-adv-x="508" 
d="M540 509l-256 -248l175 -261h-116l-101 152l-64 92h-1l-11 -60l-8 -46l-24 -138h-101l90 509h101l-24 -134c-2 -8.66699 -5.33301 -28.667 -10 -60l-5 -30h1c24.667 26.667 52 53.667 82 81l144 143h128z" />
    <glyph glyph-name="Lacute" unicode="&#x139;" horiz-adv-x="481" 
d="M39 0l123 700h106l-108 -609h274l-17 -91h-378zM185 765l97 145h115l-133 -145h-79z" />
    <glyph glyph-name="lacute" unicode="&#x13a;" horiz-adv-x="294" 
d="M52 104c0 16 1.33301 29.667 4 41l105 591h102l-102 -581c-2 -12 -3 -22.333 -3 -31c0 -32.667 15.667 -49 47 -49c14.667 0 30 3 46 9l-15 -80c-28 -9.33301 -53.333 -14 -76 -14c-34 0 -60.5 10 -79.5 30s-28.5 48 -28.5 84zM183 801l97 145h115l-133 -145h-79z" />
    <glyph glyph-name="uni013B" unicode="&#x13b;" horiz-adv-x="481" 
d="M39 0l123 700h106l-108 -609h274l-17 -91h-378zM118 -270l61 184h87l-75 -184h-73z" />
    <glyph glyph-name="uni013C" unicode="&#x13c;" horiz-adv-x="294" 
d="M52 104c0 16 1.33301 29.667 4 41l105 591h102l-102 -581c-2 -12 -3 -22.333 -3 -31c0 -32.667 15.667 -49 47 -49c14.667 0 30 3 46 9l-15 -80c-28 -9.33301 -53.333 -14 -76 -14c-34 0 -60.5 10 -79.5 30s-28.5 48 -28.5 84zM41 -270l61 184h87l-75 -184h-73z" />
    <glyph glyph-name="Lcaron" unicode="&#x13d;" horiz-adv-x="481" 
d="M39 0l123 700h106l-108 -609h274l-17 -91h-378zM364 516l61 184h87l-75 -184h-73z" />
    <glyph glyph-name="lcaron" unicode="&#x13e;" horiz-adv-x="315" 
d="M52 104c0 16 1.33301 29.667 4 41l105 591h102l-102 -581c-2 -12 -3 -22.333 -3 -31c0 -32.667 15.667 -49 47 -49c14.667 0 30 3 46 9l-15 -80c-28 -9.33301 -53.333 -14 -76 -14c-34 0 -60.5 10 -79.5 30s-28.5 48 -28.5 84zM288 552l49 184h83l-63 -184h-69z" />
    <glyph glyph-name="Ldot" unicode="&#x13f;" horiz-adv-x="481" 
d="M39 0l123 700h106l-108 -609h274l-17 -91h-378zM315 333c0 22 7.66699 40.501 23 55.501s34 22.5 56 22.5c16.667 0 30 -4.83301 40 -14.5s15 -22.167 15 -37.5c0 -22 -7.5 -40.333 -22.5 -55s-33.5 -22 -55.5 -22c-16.667 0 -30.167 4.66699 -40.5 14
s-15.5 21.666 -15.5 36.999z" />
    <glyph glyph-name="ldot" unicode="&#x140;" horiz-adv-x="355" 
d="M52 102c0 16.667 1.33301 30.667 4 42l104 592h103l-103 -582c-2 -12 -3 -22.333 -3 -31c0 -33.333 16 -50 48 -50c16 0 31 3.33301 45 10l-15 -81c-24 -8.66699 -49.333 -13 -76 -13c-34 0 -60.333 10 -79 30s-28 47.667 -28 83zM250 338
c0.666992 20 8.16699 36.667 22.5 50s31.5 20 51.5 20c17.333 0 31 -5.5 41 -16.5s14.333 -24.5 13 -40.5c-0.666992 -20 -8.16699 -36.5 -22.5 -49.5s-31.5 -19.5 -51.5 -19.5c-17.333 0 -31 5.33301 -41 16s-14.333 24 -13 40z" />
    <glyph glyph-name="Lslash" unicode="&#x141;" horiz-adv-x="496" 
d="M175 91h273l-16 -91h-378l48 272l-84 -40l14 77l83 40l62 351h106l-52 -295l124 60l-12 -77l-126 -61z" />
    <glyph glyph-name="lslash" unicode="&#x142;" horiz-adv-x="323" 
d="M223 340l-33 -186c-2 -10.667 -3 -20.667 -3 -30c0 -34 16 -51 48 -51c16 0 31 3.33301 45 10l-15 -81c-24 -8.66699 -49.333 -13 -76 -13c-34 0 -60.333 10 -79 30s-28 47.667 -28 83c0 16.667 1.33301 30.667 4 42l25 141l-106 -51l12 78l108 52l65 372h103l-56 -317
l107 52l-12 -78z" />
    <glyph glyph-name="Nacute" unicode="&#x143;" horiz-adv-x="663" 
d="M500 -3l-231.001 390l-44 73h-2c-1.33301 -12 -5.66602 -37.667 -12.999 -77l-68 -383h-103l124 705h37l235 -398c14 -20.667 27 -43.667 39 -69h2c4 34.667 9 68 15 100l64 362h104l-124 -703h-35zM369.999 765l97 145h115l-133 -145h-79z" />
    <glyph glyph-name="nacute" unicode="&#x144;" horiz-adv-x="551" 
d="M34 0l89.001 509h85l-5 -85h3c51.333 64 109.666 96 174.999 96c78.667 0 118 -40 118 -120c0 -18.667 -2 -39.334 -6 -62.001l-59 -338h-102l55 315c4.66699 24 7 46 7 66s-3.83301 34 -11.5 42s-20.5 12 -38.5 12c-36 0 -70 -19.167 -102 -57.5
s-53 -85.166 -63 -140.499l-43 -237h-102zM300.001 582l101 152h106l-133 -152h-74z" />
    <glyph glyph-name="uni0145" unicode="&#x145;" horiz-adv-x="663" 
d="M500 -3l-231.001 390l-44 73h-2c-1.33301 -12 -5.66602 -37.667 -12.999 -77l-68 -383h-103l124 705h37l235 -398c14 -20.667 27 -43.667 39 -69h2c4 34.667 9 68 15 100l64 362h104l-124 -703h-35zM204.999 -270l61 184h87l-75 -184h-73z" />
    <glyph glyph-name="uni0146" unicode="&#x146;" horiz-adv-x="551" 
d="M34 0l89.001 509h85l-5 -85h3c51.333 64 109.666 96 174.999 96c78.667 0 118 -40 118 -120c0 -18.667 -2 -39.334 -6 -62.001l-59 -338h-102l55 315c4.66699 24 7 46 7 66s-3.83301 34 -11.5 42s-20.5 12 -38.5 12c-36 0 -70 -19.167 -102 -57.5
s-53 -85.166 -63 -140.499l-43 -237h-102zM131.001 -270l61 184h87l-75 -184h-73z" />
    <glyph glyph-name="Ncaron" unicode="&#x147;" horiz-adv-x="663" 
d="M500 -3l-231.001 390l-44 73h-2c-1.33301 -12 -5.66602 -37.667 -12.999 -77l-68 -383h-103l124 705h37l235 -398c14 -20.667 27 -43.667 39 -69h2c4 34.667 9 68 15 100l64 362h104l-124 -703h-35zM356.999 765l-63 145h77l51 -83l78 83h78l-114 -145h-107z" />
    <glyph glyph-name="ncaron" unicode="&#x148;" horiz-adv-x="552" 
d="M34 0l89.001 509h85l-5 -85h3c51.333 64 109.666 96 174.999 96c78.667 0 118 -40 118 -120c0 -18.667 -2 -39.334 -6 -62.001l-59 -338h-102l55 315c4.66699 24 7 46 7 66s-3.83301 34 -11.5 42s-20.5 12 -38.5 12c-36 0 -70 -19.167 -102 -57.5
s-53 -85.166 -63 -140.499l-43 -237h-102zM293.001 582l-60 152h74l51 -90l83 90h74l-115 -152h-107z" />
    <glyph glyph-name="napostrophe" unicode="&#x149;" horiz-adv-x="619" 
d="M90 552l62 184h86l-75 -184h-73zM103 0l88.001 508.999h85l-6 -85h3c24 30 51.5 53.5 82.5 70.5s61.833 25.5 92.5 25.5c79.333 0 119 -40.333 119 -121c0 -18 -2 -38.333 -6 -61l-60 -338h-102l55 315c4.66699 24 7 46 7 66s-3.66699 34 -11 42s-20 12 -38 12
c-36 0 -70.333 -19.167 -103 -57.5s-53.334 -85.166 -62.001 -140.499l-42 -237h-102z" />
    <glyph glyph-name="Eng" unicode="&#x14a;" horiz-adv-x="663" 
d="M304 -215l16.001 89c14.667 -3.33301 27.334 -5 38.001 -5c33.333 0 54.666 25.667 63.999 77l24 139l-165 274l-59 96h-2c-6.66699 -47.333 -14.334 -93.666 -23.001 -138.999l-56 -316h-103l124 703h38l210 -353l64 -107h3c1.33301 11.333 7 48.666 17 111.999l5 30
l56 315h104l-135 -761c-8.66699 -50.667 -27.167 -90 -55.5 -118s-63.833 -42 -106.5 -42c-20 0 -39.333 2 -58 6z" />
    <glyph glyph-name="eng" unicode="&#x14b;" horiz-adv-x="550" 
d="M198 -215l14.0029 81c14 -4 27.333 -6 40 -6c36 0 58.667 27 68 81l66 374c4.66699 23.333 7 45.333 7 66c0 20 -3.83301 34 -11.5 42s-20.834 12 -39.501 12c-35.333 0 -68.833 -19.167 -100.5 -57.5s-52.5 -85.166 -62.5 -140.499l-43 -237h-102l89 509h84l-6 -85h3
c51.333 64 109.666 96 174.999 96c79.333 0 119 -40 119 -120c0 -18.667 -2 -39.334 -6 -62.001l-72 -410c-8.66699 -48 -26.5 -85.333 -53.5 -112s-60.5 -40 -100.5 -40c-22.667 0 -45.334 3 -68.001 9z" />
    <glyph glyph-name="Omacron" unicode="&#x14c;" horiz-adv-x="682" 
d="M56 259c-1.33301 129.333 31.999 238 99.999 326s153.333 131 256 129c77.333 0 137.833 -24.167 181.5 -72.5s65.5 -115.166 65.5 -200.499c0.666992 -85.333 -14.166 -162.833 -44.499 -232.5s-73 -124.5 -128 -164.5s-116.833 -59.333 -185.5 -58
c-76.667 0 -136.667 24.167 -180 72.5s-65 115.166 -65 200.499zM548.999 432c0 60 -12.5 106.5 -37.5 139.5s-60.5 49.5 -106.5 49.5c-66 1.33301 -122.5 -33 -169.5 -103s-69.833 -153.333 -68.5 -250c0 -60 12.333 -106.5 37 -139.5s60 -49.5 106 -49.5
c66.667 -2 123.5 32 170.5 102s69.833 153.667 68.5 251zM289.999 793l13 73h275l-13 -73h-275z" />
    <glyph glyph-name="omacron" unicode="&#x14d;" horiz-adv-x="535" 
d="M37 184c0 99.333 25.668 180.667 77.001 244s117.666 95 198.999 95c60 0 105.5 -17 136.5 -51s46.5 -83.667 46.5 -149c0 -99.333 -25.667 -180.333 -77 -243s-118.333 -94 -201 -94c-59.333 0 -104.333 17 -135 51s-46 83 -46 147zM390.001 323.001
c0 40.667 -6.66797 70.167 -20.001 88.5s-34.666 27.5 -63.999 27.5c-46.667 0 -85.5 -24.167 -116.5 -72.5s-46.5 -108.833 -46.5 -181.5c0 -77.333 28 -116 84 -116c46.667 0 85.5 24 116.5 72s46.5 108.667 46.5 182zM191 603.001l13 72h275l-13 -72h-275z" />
    <glyph glyph-name="Obreve" unicode="&#x14e;" horiz-adv-x="682" 
d="M56 259c-1.33301 129.333 31.999 238 99.999 326s153.333 131 256 129c77.333 0 137.833 -24.167 181.5 -72.5s65.5 -115.166 65.5 -200.499c0.666992 -85.333 -14.166 -162.833 -44.499 -232.5s-73 -124.5 -128 -164.5s-116.833 -59.333 -185.5 -58
c-76.667 0 -136.667 24.167 -180 72.5s-65 115.166 -65 200.499zM548.999 432c0 60 -12.5 106.5 -37.5 139.5s-60.5 49.5 -106.5 49.5c-66 1.33301 -122.5 -33 -169.5 -103s-69.833 -153.333 -68.5 -250c0 -60 12.333 -106.5 37 -139.5s60 -49.5 106 -49.5
c66.667 -2 123.5 32 170.5 102s69.833 153.667 68.5 251zM304.999 875l3 35.001h80c-1.33301 -16 -2 -24.333 -2 -25c0 -35.333 15 -53 45 -53c18 0 33 7.16699 45 21.5s20 33.166 24 56.499h80c-19.333 -100 -73 -150 -161 -150c-36 0 -64 9.83301 -84 29.5
s-30 48.167 -30 85.5z" />
    <glyph glyph-name="obreve" unicode="&#x14f;" horiz-adv-x="535" 
d="M37 184c0 99.333 25.668 180.667 77.001 244s117.666 95 198.999 95c60 0 105.5 -17 136.5 -51s46.5 -83.667 46.5 -149c0 -99.333 -25.667 -180.333 -77 -243s-118.333 -94 -201 -94c-59.333 0 -104.333 17 -135 51s-46 83 -46 147zM390.001 323.001
c0 40.667 -6.66797 70.167 -20.001 88.5s-34.666 27.5 -63.999 27.5c-46.667 0 -85.5 -24.167 -116.5 -72.5s-46.5 -108.833 -46.5 -181.5c0 -77.333 28 -116 84 -116c46.667 0 85.5 24 116.5 72s46.5 108.667 46.5 182zM210 698.001c0 10.667 1 22.668 3 36.001h79
c-1.33301 -14.667 -2 -23 -2 -25c1.33301 -35.333 16.333 -53 45 -53c36 0 59.333 26 70 78h79c-10 -52 -28.167 -90 -54.5 -114s-61.5 -36 -105.5 -36c-36 0 -64 9.66699 -84 29s-30 47.666 -30 84.999z" />
    <glyph glyph-name="Ohungarumlaut" unicode="&#x150;" horiz-adv-x="682" 
d="M56 259c-1.33301 129.333 31.999 238 99.999 326s153.333 131 256 129c77.333 0 137.833 -24.167 181.5 -72.5s65.5 -115.166 65.5 -200.499c0.666992 -85.333 -14.166 -162.833 -44.499 -232.5s-73 -124.5 -128 -164.5s-116.833 -59.333 -185.5 -58
c-76.667 0 -136.667 24.167 -180 72.5s-65 115.166 -65 200.499zM548.999 432c0 60 -12.5 106.5 -37.5 139.5s-60.5 49.5 -106.5 49.5c-66 1.33301 -122.5 -33 -169.5 -103s-69.833 -153.333 -68.5 -250c0 -60 12.333 -106.5 37 -139.5s60 -49.5 106 -49.5
c66.667 -2 123.5 32 170.5 102s69.833 153.667 68.5 251zM303.999 765l86 145h106l-116 -145h-76zM436.999 765l110 145h110l-139 -145h-81z" />
    <glyph glyph-name="ohungarumlaut" unicode="&#x151;" horiz-adv-x="535" 
d="M37 184c0 99.333 25.668 180.667 77.001 244s117.666 95 198.999 95c60 0 105.5 -17 136.5 -51s46.5 -83.667 46.5 -149c0 -99.333 -25.667 -180.333 -77 -243s-118.333 -94 -201 -94c-59.333 0 -104.333 17 -135 51s-46 83 -46 147zM390.001 323.001
c0 40.667 -6.66797 70.167 -20.001 88.5s-34.666 27.5 -63.999 27.5c-46.667 0 -85.5 -24.167 -116.5 -72.5s-46.5 -108.833 -46.5 -181.5c0 -77.333 28 -116 84 -116c46.667 0 85.5 24 116.5 72s46.5 108.667 46.5 182zM215 582.001l92 153h99l-120 -153h-71zM346 582.001
l112 153h102l-143 -153h-71z" />
    <glyph glyph-name="OE" unicode="&#x152;" horiz-adv-x="877" 
d="M804 87l-16.002 -86.998h-477c-78.667 0 -140.5 23.667 -185.5 71s-67.5 112.666 -67.5 195.999c-1.33301 129.333 32.334 234.166 101.001 314.499s158.334 119.833 269.001 118.5h473l-15 -86h-277l-35 -206h253l-15 -84h-253l-41 -237h286zM327.998 87.002h84.999
l91 527h-84c-73.333 0 -133.666 -32.333 -180.999 -97s-71 -146.667 -71 -246c0 -59.333 13.833 -104.833 41.5 -136.5s67.167 -47.5 118.5 -47.5z" />
    <glyph glyph-name="oe" unicode="&#x153;" horiz-adv-x="821" 
d="M475 180c0 -74 37 -111 111 -111c44.667 0 89.667 10 135 30l-14 -87c-36.667 -16 -83 -24 -139 -24c-79.333 0 -135 30.667 -167 92h-1c-54 -61.333 -117.667 -92 -191 -92c-114.667 0 -172 65.667 -172 197c0 98.667 25.333 179.667 76 243s115.334 95 194.001 95
c77.333 0 127 -35 149 -105h1c51.333 70 117.666 105 198.999 105c47.333 0 83.833 -11.667 109.5 -35s38.5 -57 38.5 -101c0 -66.667 -28.833 -118.167 -86.5 -154.5s-138.5 -53.833 -242.5 -52.5zM379 324c0 76.667 -26 114.999 -78 114.999
c-44.667 0 -82.167 -24.167 -112.5 -72.5s-45.5 -108.5 -45.5 -180.5c0 -76 26.333 -114 79 -114c45.333 0 82.833 23.833 112.5 71.5s44.5 107.834 44.5 180.501zM479 247.999c149.333 3.33301 224.667 47.667 226 133c0 38.667 -19 58 -57 58
c-39.333 0 -75.833 -18.5 -109.5 -55.5s-53.5 -82.167 -59.5 -135.5z" />
    <glyph glyph-name="Racute" unicode="&#x154;" horiz-adv-x="589" 
d="M330 293h-4.00098l187 -293h-121l-148 233c-18.667 28.667 -33.667 52.667 -45 72l-16 -85l-39 -220h-106l124 700h200c142 0 213 -52.333 213 -157c0 -12 -1.66699 -29 -5 -51c-11.333 -60.667 -38.666 -109 -81.999 -145s-96 -54 -158 -54zM209.999 365
l87 -0.000976562c94 0 148.667 42 164 126c2 10.667 3 20.334 3 29.001c0 59.333 -41.333 89 -124 89h-87zM316.999 764.999l97 145h115l-133 -145h-79z" />
    <glyph glyph-name="racute" unicode="&#x155;" horiz-adv-x="375" 
d="M36 0l87 509.001h85l-5 -82h3c48 60 102.333 90 163 90c14 0 27 -2 39 -6l-15 -89c-11.333 4 -24.333 6 -39 6c-42 0 -79.333 -18.833 -112 -56.5s-54.667 -87.834 -66 -150.501l-40 -221h-100zM239 582.001l101 152h106l-133 -152h-74z" />
    <glyph glyph-name="uni0156" unicode="&#x156;" horiz-adv-x="589" 
d="M330 293h-4.00098l187 -293h-121l-148 233c-18.667 28.667 -33.667 52.667 -45 72l-16 -85l-39 -220h-106l124 700h200c142 0 213 -52.333 213 -157c0 -12 -1.66699 -29 -5 -51c-11.333 -60.667 -38.666 -109 -81.999 -145s-96 -54 -158 -54zM209.999 365
l87 -0.000976562c94 0 148.667 42 164 126c2 10.667 3 20.334 3 29.001c0 59.333 -41.333 89 -124 89h-87zM165.999 -270.001l61 184h87l-75 -184h-73z" />
    <glyph glyph-name="uni0157" unicode="&#x157;" horiz-adv-x="375" 
d="M36 0l87 509.001h85l-5 -82h3c48 60 102.333 90 163 90c14 0 27 -2 39 -6l-15 -89c-11.333 4 -24.333 6 -39 6c-42 0 -79.333 -18.833 -112 -56.5s-54.667 -87.834 -66 -150.501l-40 -221h-100zM-17 -269.999l61 184h87l-75 -184h-73z" />
    <glyph glyph-name="Rcaron" unicode="&#x158;" horiz-adv-x="589" 
d="M330 293h-4.00098l187 -293h-121l-148 233c-18.667 28.667 -33.667 52.667 -45 72l-16 -85l-39 -220h-106l124 700h200c142 0 213 -52.333 213 -157c0 -12 -1.66699 -29 -5 -51c-11.333 -60.667 -38.666 -109 -81.999 -145s-96 -54 -158 -54zM209.999 365
l87 -0.000976562c94 0 148.667 42 164 126c2 10.667 3 20.334 3 29.001c0 59.333 -41.333 89 -124 89h-87zM304.999 764.999l-63 145h77l51 -83l78 83h78l-114 -145h-107z" />
    <glyph glyph-name="rcaron" unicode="&#x159;" horiz-adv-x="375" 
d="M36 0l87 509.001h85l-5 -82h3c48 60 102.333 90 163 90c14 0 27 -2 39 -6l-15 -89c-11.333 4 -24.333 6 -39 6c-42 0 -79.333 -18.833 -112 -56.5s-54.667 -87.834 -66 -150.501l-40 -221h-100zM232 582.001l-60 152h74l51 -90l83 90h74l-115 -152h-107z" />
    <glyph glyph-name="Sacute" unicode="&#x15a;" horiz-adv-x="506" 
d="M-1 23l16.002 94.001c57.333 -22 113.666 -33 168.999 -33c44.667 0 81.5 9.5 110.5 28.5s46.833 45.167 53.5 78.5c1.33301 12 2 18.667 2 20c0 21.333 -8.66699 40 -26 56s-47.333 34 -90 54c-48 21.333 -83.333 46 -106 74s-34 61.667 -34 101c0 10 1.33301 24 4 42
c9.33301 53.333 34.666 95.5 75.999 126.5s93 46.5 155 46.5c70 0 129.333 -10 178 -30l-16 -92c-54.667 19.333 -110 29 -166 29c-33.333 0 -60.5 -7.83301 -81.5 -23.5s-34.167 -37.5 -39.5 -65.5c-1.33301 -12 -2 -18.667 -2 -20c0 -22 8 -41 24 -57s43.667 -33 83 -51
c54 -25.333 92.833 -51.833 116.5 -79.5s35.5 -60.5 35.5 -98.5c0 -16.667 -1.33301 -31.334 -4 -44.001c-10 -58 -39.667 -104.167 -89 -138.5s-111.333 -51.5 -186 -51.5c-70 0 -131 11.333 -183 34zM312.002 765.001l97 145h115l-133 -145h-79z" />
    <glyph glyph-name="sacute" unicode="&#x15b;" horiz-adv-x="420" 
d="M0 17l15 83.0039c53.333 -18 102 -27 146 -27c34 0 60.167 6 78.5 18s27.5 28.667 27.5 50c0 18 -6 33 -18 45s-34.333 26 -67 42c-42.667 20.667 -73.5 42.167 -92.5 64.5s-28.5 50.166 -28.5 83.499c0 44 16.5 78.5 49.5 103.5s78.833 37.5 137.5 37.5
c52.667 0 101 -7.33301 145 -22l-15 -82c-36.667 14.667 -75.334 22 -116.001 22c-30 0 -53.333 -5 -70 -15s-25 -23.667 -25 -41c0 -16 5.83301 -29.833 17.5 -41.5s32.834 -24.834 63.501 -39.501c45.333 -20.667 77.5 -42.834 96.5 -66.501s28.5 -52.834 28.5 -87.501
c0 -47.333 -19.5 -84.833 -58.5 -112.5s-91.833 -41.5 -158.5 -41.5c-57.333 0 -109.333 9 -156 27zM206 582.004l101 152h106l-133 -152h-74z" />
    <glyph glyph-name="Scircumflex" unicode="&#x15c;" horiz-adv-x="506" 
d="M-1 23l16.002 94.001c57.333 -22 113.666 -33 168.999 -33c44.667 0 81.5 9.5 110.5 28.5s46.833 45.167 53.5 78.5c1.33301 12 2 18.667 2 20c0 21.333 -8.66699 40 -26 56s-47.333 34 -90 54c-48 21.333 -83.333 46 -106 74s-34 61.667 -34 101c0 10 1.33301 24 4 42
c9.33301 53.333 34.666 95.5 75.999 126.5s93 46.5 155 46.5c70 0 129.333 -10 178 -30l-16 -92c-54.667 19.333 -110 29 -166 29c-33.333 0 -60.5 -7.83301 -81.5 -23.5s-34.167 -37.5 -39.5 -65.5c-1.33301 -12 -2 -18.667 -2 -20c0 -22 8 -41 24 -57s43.667 -33 83 -51
c54 -25.333 92.833 -51.833 116.5 -79.5s35.5 -60.5 35.5 -98.5c0 -16.667 -1.33301 -31.334 -4 -44.001c-10 -58 -39.667 -104.167 -89 -138.5s-111.333 -51.5 -186 -51.5c-70 0 -131 11.333 -183 34zM208.002 765.001l113 145h108l63 -145h-75l-50 83l-78 -83h-81z" />
    <glyph glyph-name="scircumflex" unicode="&#x15d;" horiz-adv-x="420" 
d="M0 17l15 83.0039c53.333 -18 102 -27 146 -27c34 0 60.167 6 78.5 18s27.5 28.667 27.5 50c0 18 -6 33 -18 45s-34.333 26 -67 42c-42.667 20.667 -73.5 42.167 -92.5 64.5s-28.5 50.166 -28.5 83.499c0 44 16.5 78.5 49.5 103.5s78.833 37.5 137.5 37.5
c52.667 0 101 -7.33301 145 -22l-15 -82c-36.667 14.667 -75.334 22 -116.001 22c-30 0 -53.333 -5 -70 -15s-25 -23.667 -25 -41c0 -16 5.83301 -29.833 17.5 -41.5s32.834 -24.834 63.501 -39.501c45.333 -20.667 77.5 -42.834 96.5 -66.501s28.5 -52.834 28.5 -87.501
c0 -47.333 -19.5 -84.833 -58.5 -112.5s-91.833 -41.5 -158.5 -41.5c-57.333 0 -109.333 9 -156 27zM112 583.004l116 151h106l61 -151h-72l-50 89l-83 -89h-78z" />
    <glyph glyph-name="Scedilla" unicode="&#x15e;" horiz-adv-x="506" 
d="M204 529c-1.33301 -12 -1.99805 -18.666 -1.99805 -19.999c0 -22 8 -41 24 -57s43.667 -33 83 -51c54 -25.333 92.833 -51.833 116.5 -79.5s35.5 -60.5 35.5 -98.5c0 -16.667 -1.33301 -31.334 -4 -44.001c-8.66699 -52 -34.167 -94.833 -76.5 -128.5
s-95.5 -53.5 -159.5 -59.5l-18 -38c16.667 -4 30.167 -12.167 40.5 -24.5s15.5 -26.5 15.5 -42.5c0 -32 -10.5 -57.167 -31.5 -75.5s-49.833 -27.5 -86.5 -27.5c-31.333 0 -57.666 7 -78.999 21l28 55c14.667 -9.33301 30.667 -14 48 -14c12 0 21.833 3.16699 29.5 9.5
s11.5 14.5 11.5 24.5c0 24.667 -19.333 37.667 -58 39l33 72c-56.667 2 -108.334 13 -155.001 33l16 94c57.333 -22 113.666 -33 168.999 -33c44.667 0 81.5 9.5 110.5 28.5s46.833 45.167 53.5 78.5c1.33301 12 2 18.667 2 20c0 21.333 -8.66699 40 -26 56
s-47.333 34 -90 54c-48 21.333 -83.333 46 -106 74s-34 61.667 -34 101c0 10 1.33301 24 4 42c9.33301 53.333 34.666 95.5 75.999 126.5s93 46.5 155 46.5c70 0 129.333 -10 178 -30l-16 -92c-54.667 19.333 -110 29 -166 29c-33.333 0 -60.5 -7.83301 -81.5 -23.5
s-34.167 -37.5 -39.5 -65.5z" />
    <glyph glyph-name="scedilla" unicode="&#x15f;" horiz-adv-x="420" 
d="M167 379c0 -16 5.83301 -29.8301 17.5 -41.4971s32.834 -24.834 63.501 -39.501c45.333 -20.667 77.5 -42.834 96.5 -66.501s28.5 -52.834 28.5 -87.501c0 -42 -15 -76.167 -45 -102.5s-72 -42.5 -126 -48.5l-19 -41c16.667 -4 30.167 -12.167 40.5 -24.5
s15.5 -26.5 15.5 -42.5c0 -31.333 -10.5 -56.166 -31.5 -74.499s-49.833 -27.5 -86.5 -27.5c-30 0 -56.333 6.66699 -79 20l28 55c13.333 -9.33301 29.333 -14 48 -14c12 0 21.833 3.16699 29.5 9.5s11.5 14.5 11.5 24.5c0 24.667 -19.333 37.667 -58 39l34 73
c-48.667 2 -93.667 11 -135 27l15 83c53.333 -18 102 -27 146 -27c34 0 60.167 6 78.5 18s27.5 28.667 27.5 50c0 18 -6 33 -18 45s-34.333 26 -67 42c-42.667 20.667 -73.5 42.167 -92.5 64.5s-28.5 50.166 -28.5 83.499c0 44 16.5 78.5 49.5 103.5s78.833 37.5 137.5 37.5
c52.667 0 101 -7.33301 145 -22l-15 -82c-36.667 14.667 -75.334 22 -116.001 22c-30 0 -53.333 -5 -70 -15s-25 -23.667 -25 -41z" />
    <glyph glyph-name="Scaron" unicode="&#x160;" horiz-adv-x="506" 
d="M-1 23l16.002 94.001c57.333 -22 113.666 -33 168.999 -33c44.667 0 81.5 9.5 110.5 28.5s46.833 45.167 53.5 78.5c1.33301 12 2 18.667 2 20c0 21.333 -8.66699 40 -26 56s-47.333 34 -90 54c-48 21.333 -83.333 46 -106 74s-34 61.667 -34 101c0 10 1.33301 24 4 42
c9.33301 53.333 34.666 95.5 75.999 126.5s93 46.5 155 46.5c70 0 129.333 -10 178 -30l-16 -92c-54.667 19.333 -110 29 -166 29c-33.333 0 -60.5 -7.83301 -81.5 -23.5s-34.167 -37.5 -39.5 -65.5c-1.33301 -12 -2 -18.667 -2 -20c0 -22 8 -41 24 -57s43.667 -33 83 -51
c54 -25.333 92.833 -51.833 116.5 -79.5s35.5 -60.5 35.5 -98.5c0 -16.667 -1.33301 -31.334 -4 -44.001c-10 -58 -39.667 -104.167 -89 -138.5s-111.333 -51.5 -186 -51.5c-70 0 -131 11.333 -183 34zM300.002 765.001l-63 145h77l51 -83l78 83h78l-114 -145h-107z" />
    <glyph glyph-name="scaron" unicode="&#x161;" horiz-adv-x="420" 
d="M0 17l15 83.0039c53.333 -18 102 -27 146 -27c34 0 60.167 6 78.5 18s27.5 28.667 27.5 50c0 18 -6 33 -18 45s-34.333 26 -67 42c-42.667 20.667 -73.5 42.167 -92.5 64.5s-28.5 50.166 -28.5 83.499c0 44 16.5 78.5 49.5 103.5s78.833 37.5 137.5 37.5
c52.667 0 101 -7.33301 145 -22l-15 -82c-36.667 14.667 -75.334 22 -116.001 22c-30 0 -53.333 -5 -70 -15s-25 -23.667 -25 -41c0 -16 5.83301 -29.833 17.5 -41.5s32.834 -24.834 63.501 -39.501c45.333 -20.667 77.5 -42.834 96.5 -66.501s28.5 -52.834 28.5 -87.501
c0 -47.333 -19.5 -84.833 -58.5 -112.5s-91.833 -41.5 -158.5 -41.5c-57.333 0 -109.333 9 -156 27zM199 582.004l-60 152h74l51 -90l83 90h74l-115 -152h-107z" />
    <glyph glyph-name="uni0162" unicode="&#x162;" horiz-adv-x="508" 
d="M263 0h-15.999l-22 -47c16.667 -4 30.167 -12.167 40.5 -24.5s15.5 -26.5 15.5 -42.5c0 -32 -10.333 -57.167 -31 -75.5s-49.334 -27.5 -86.001 -27.5c-32 0 -58.667 7 -80 21l28 55c14.667 -9.33301 30.667 -14 48 -14c12 0 21.833 3.16699 29.5 9.5
s11.5 14.5 11.5 24.5c0 24.667 -19.333 37.667 -58 39l38 82h-25l108 610h-185l16 90h475l-16 -90h-184z" />
    <glyph glyph-name="uni0163" unicode="&#x163;" horiz-adv-x="344" 
d="M236 428l-45 -252.999c-2 -12.667 -3 -25 -3 -37c0 -40.667 16.333 -61 49 -61c23.333 0 42.666 3.33301 57.999 10l-14 -84c-18 -6.66699 -40.667 -10.334 -68 -11.001l-18 -39c16.667 -4 30.167 -12.167 40.5 -24.5s15.5 -26.5 15.5 -42.5
c0 -32 -10.5 -57.167 -31.5 -75.5s-49.833 -27.5 -86.5 -27.5c-31.333 0 -57.666 7 -78.999 21l27 55c14.667 -9.33301 30.667 -14 48 -14c12 0 22 3.16699 30 9.5s12 14.5 12 24.5c0 24.667 -19.333 37.667 -58 39l37 81c-46 12.667 -69 48.667 -69 108c0 18.667 2 39 6 61
l46 260h-91l14 81h92l23 131l106 17l-26 -148h114l-14 -81h-115z" />
    <glyph glyph-name="Tcaron" unicode="&#x164;" horiz-adv-x="508" 
d="M570 700l-16 -90h-184l-107 -610h-107l108 610h-185l16 90h475zM290 765l-63 145h77l51 -83l78 83h78l-114 -145h-107z" />
    <glyph glyph-name="tcaron" unicode="&#x165;" horiz-adv-x="353" 
d="M372 745h83l-63 -185h-69zM276 657l-25.999 -148h115l-14 -81h-115l-45 -253c-2 -12.667 -3 -25 -3 -37c0 -40.667 16.333 -61 49 -61c23.333 0 42.666 3.33301 57.999 10l-14 -84c-22 -7.33301 -47.333 -11 -76 -11c-42.667 0 -74 9.5 -94 28.5s-30 47.833 -30 86.5
c0 18.667 2 39 6 61l46 260h-91l14 81h92l23 131z" />
    <glyph glyph-name="Tbar" unicode="&#x166;" horiz-adv-x="508" 
d="M156 0l59 333h-109l10 61h110l38 216h-185l16 90h475l-16 -90h-184l-38 -216h107l-11 -61h-107l-58 -333h-107z" />
    <glyph glyph-name="tbar" unicode="&#x167;" horiz-adv-x="344" 
d="M351 428h-115l-22 -128h101l-11 -63h-101l-12 -65c-2 -13.333 -3 -25 -3 -35c0 -40 16.333 -60 49 -60c24.667 0 44 3.33301 58 10l-14 -84c-22 -7.33301 -47.333 -11 -76 -11c-43.333 0 -74.833 9.5 -94.5 28.5s-29.5 47.833 -29.5 86.5c0 18 2 38 6 60l12 70h-83l11 63
h84l22 128h-91l14 81h92l23 131l106 17l-26 -148h114z" />
    <glyph glyph-name="Utilde" unicode="&#x168;" horiz-adv-x="661" 
d="M78 189c0 27.333 2.66797 55.333 8.00098 84l75 427h106l-74 -416c-5.33301 -34 -8 -61 -8 -81c0 -42 9.16699 -72.833 27.5 -92.5s47.5 -29.5 87.5 -29.5c51.333 0 91 16.167 119 48.5s48 83.833 60 154.5l73 416h106l-75 -427
c-16.667 -96 -49.334 -167.5 -98.001 -214.5s-115 -70.5 -199 -70.5c-68 0 -119.667 17 -155 51s-53 84 -53 150zM419.001 807c-13.333 8.66699 -24.667 13 -34 13c-18.667 0 -31.667 -11.333 -39 -34l-70 8c2 33.333 12.333 58.5 31 75.5s43.667 25.5 75 25.5
c22 0 44.333 -7 67 -21c14.667 -8.66699 26 -13 34 -13c20 0 33.333 11.333 40 34l70 -8c-4 -68 -39.667 -102 -107 -102c-22 0 -44.333 7.33301 -67 22z" />
    <glyph glyph-name="utilde" unicode="&#x169;" horiz-adv-x="551" 
d="M51 107c0 18 2.00098 38 6.00098 60l60 342h103l-56 -319c-4.66699 -22.667 -7 -44 -7 -64c0 -36.667 14.667 -55 44 -55c40.667 0 76.667 18.667 108 56c32 38 53 85.333 63 142l42 240h102l-89 -509h-85l6 81h-3c-51.333 -63.333 -113.333 -95 -186 -95
c-34.667 0 -61.334 10.333 -80.001 31s-28 50.667 -28 90zM324.001 615c-13.333 8.66699 -24.668 13 -34.001 13c-18.667 0 -31.667 -11 -39 -33l-70 7c2 34 12.333 59.5 31 76.5s43.667 25.5 75 25.5c22 0 44.333 -7 67 -21c14.667 -8.66699 26 -13 34 -13
c20 0 33.333 11.333 40 34l70 -8c-4 -68 -39.667 -102 -107 -102c-23.333 0 -45.666 7 -66.999 21z" />
    <glyph glyph-name="Umacron" unicode="&#x16a;" horiz-adv-x="661" 
d="M78 189c0 27.333 2.66797 55.333 8.00098 84l75 427h106l-74 -416c-5.33301 -34 -8 -61 -8 -81c0 -42 9.16699 -72.833 27.5 -92.5s47.5 -29.5 87.5 -29.5c51.333 0 91 16.167 119 48.5s48 83.833 60 154.5l73 416h106l-75 -427
c-16.667 -96 -49.334 -167.5 -98.001 -214.5s-115 -70.5 -199 -70.5c-68 0 -119.667 17 -155 51s-53 84 -53 150zM288.001 793l13 73h275l-13 -73h-275z" />
    <glyph glyph-name="umacron" unicode="&#x16b;" horiz-adv-x="551" 
d="M51 107c0 18 2.00098 38 6.00098 60l60 342h103l-56 -319c-4.66699 -22.667 -7 -44 -7 -64c0 -36.667 14.667 -55 44 -55c40.667 0 76.667 18.667 108 56c32 38 53 85.333 63 142l42 240h102l-89 -509h-85l6 81h-3c-51.333 -63.333 -113.333 -95 -186 -95
c-34.667 0 -61.334 10.333 -80.001 31s-28 50.667 -28 90zM190.001 603l13 72h275l-13 -72h-275z" />
    <glyph glyph-name="Ubreve" unicode="&#x16c;" horiz-adv-x="661" 
d="M78 189c0 27.333 2.66797 55.333 8.00098 84l75 427h106l-74 -416c-5.33301 -34 -8 -61 -8 -81c0 -42 9.16699 -72.833 27.5 -92.5s47.5 -29.5 87.5 -29.5c51.333 0 91 16.167 119 48.5s48 83.833 60 154.5l73 416h106l-75 -427
c-16.667 -96 -49.334 -167.5 -98.001 -214.5s-115 -70.5 -199 -70.5c-68 0 -119.667 17 -155 51s-53 84 -53 150zM303.001 875l3 35.001h80c-1.33301 -16 -2 -24.333 -2 -25c0 -35.333 15 -53 45 -53c18 0 33 7.16699 45 21.5s20 33.166 24 56.499h80
c-19.333 -100 -73 -150 -161 -150c-36 0 -64 9.83301 -84 29.5s-30 48.167 -30 85.5z" />
    <glyph glyph-name="ubreve" unicode="&#x16d;" horiz-adv-x="551" 
d="M51 107c0 18 2.00098 38 6.00098 60l60 342h103l-56 -319c-4.66699 -22.667 -7 -44 -7 -64c0 -36.667 14.667 -55 44 -55c40.667 0 76.667 18.667 108 56c32 38 53 85.333 63 142l42 240h102l-89 -509h-85l6 81h-3c-51.333 -63.333 -113.333 -95 -186 -95
c-34.667 0 -61.334 10.333 -80.001 31s-28 50.667 -28 90zM208.001 698c0 10.667 1 22.668 3 36.001h79c-1.33301 -14.667 -2 -23 -2 -25c1.33301 -35.333 16.333 -53 45 -53c36 0 59.333 26 70 78h79c-10 -52 -28.167 -90 -54.5 -114s-61.5 -36 -105.5 -36
c-36 0 -64 9.66699 -84 29s-30 47.666 -30 84.999z" />
    <glyph glyph-name="Uring" unicode="&#x16e;" horiz-adv-x="661" 
d="M78 189c0 27.333 2.66797 55.333 8.00098 84l75 427h106l-74 -416c-5.33301 -34 -8 -61 -8 -81c0 -42 9.16699 -72.833 27.5 -92.5s47.5 -29.5 87.5 -29.5c51.333 0 91 16.167 119 48.5s48 83.833 60 154.5l73 416h106l-75 -427
c-16.667 -96 -49.334 -167.5 -98.001 -214.5s-115 -70.5 -199 -70.5c-68 0 -119.667 17 -155 51s-53 84 -53 150zM322.001 841c0 1.33301 0.667969 8 2.00098 20c6 31.333 21.167 56.166 45.5 74.499s53.166 27.5 86.499 27.5c30 0 54 -7.16699 72 -21.5
s27 -34.166 27 -59.499c0 -2 -0.666992 -9 -2 -21c-6 -31.333 -21.333 -55.833 -46 -73.5s-53.667 -26.5 -87 -26.5c-29.333 0 -53 7 -71 21s-27 33.667 -27 59zM488.002 861c0.666992 1.33301 0.998047 4.33301 0.998047 9c0 12 -3.83301 21.333 -11.5 28
s-17.834 10 -30.501 10c-16.667 0 -30.667 -4.83301 -42 -14.5s-17 -23.5 -17 -41.5c0 -11.333 3.83301 -20 11.5 -26s17.834 -9 30.501 -9c14.667 0 27.334 3.83301 38.001 11.5s17.334 18.5 20.001 32.5z" />
    <glyph glyph-name="uring" unicode="&#x16f;" horiz-adv-x="551" 
d="M51 107c0 18 2.00098 38 6.00098 60l60 342h103l-56 -319c-4.66699 -22.667 -7 -44 -7 -64c0 -36.667 14.667 -55 44 -55c40.667 0 76.667 18.667 108 56c32 38 53 85.333 63 142l42 240h102l-89 -509h-85l6 81h-3c-51.333 -63.333 -113.333 -95 -186 -95
c-34.667 0 -61.334 10.333 -80.001 31s-28 50.667 -28 90zM224.001 654c0 34 12.333 62.167 37 84.5s55.667 33.5 93 33.5c31.333 0 56 -7.66699 74 -23s27 -36.333 27 -63c0 -34 -12.333 -61.833 -37 -83.5s-55.667 -32.5 -93 -32.5c-30.667 0 -55.167 7.5 -73.5 22.5
s-27.5 35.5 -27.5 61.5zM387.001 679c0 24 -13.333 36.001 -40 36.001c-16 0 -29.333 -4.66699 -40 -14s-16 -21.333 -16 -36c0 -24.667 13.667 -37 41 -37c16 0 29.167 4.66699 39.5 14s15.5 21.666 15.5 36.999z" />
    <glyph glyph-name="Uhungarumlaut" unicode="&#x170;" horiz-adv-x="661" 
d="M78 189c0 27.333 2.66797 55.333 8.00098 84l75 427h106l-74 -416c-5.33301 -34 -8 -61 -8 -81c0 -42 9.16699 -72.833 27.5 -92.5s47.5 -29.5 87.5 -29.5c51.333 0 91 16.167 119 48.5s48 83.833 60 154.5l73 416h106l-75 -427
c-16.667 -96 -49.334 -167.5 -98.001 -214.5s-115 -70.5 -199 -70.5c-68 0 -119.667 17 -155 51s-53 84 -53 150zM302.001 765l86 145h106l-116 -145h-76zM435.001 765l110 145h110l-139 -145h-81z" />
    <glyph glyph-name="uhungarumlaut" unicode="&#x171;" horiz-adv-x="550" 
d="M51 107c0 18 2.00098 38 6.00098 60l60 342h103l-56 -319c-4.66699 -22.667 -7 -44 -7 -64c0 -36.667 14.667 -55 44 -55c40.667 0 76.667 18.667 108 56c32 38 53 85.333 63 142l42 240h102l-89 -509h-85l6 81h-3c-51.333 -63.333 -113.333 -95 -186 -95
c-34.667 0 -61.334 10.333 -80.001 31s-28 50.667 -28 90zM213.001 582l92 153h99l-120 -153h-71zM344.001 582l112 153h102l-143 -153h-71z" />
    <glyph glyph-name="Uogonek" unicode="&#x172;" horiz-adv-x="661" 
d="M552 700l106.001 -0.00195312l-75 -429c-16.667 -102 -48.334 -174.667 -95.001 -218c-69.333 -63.333 -108.666 -120.666 -117.999 -171.999c-0.666992 -2 -1 -5.66699 -1 -11c0 -12.667 7.66699 -19 23 -19c13.333 0 29.333 3 48 9l-11 -62
c-18 -10 -40.667 -15 -68 -15c-22.667 0 -40.167 5.83301 -52.5 17.5s-18.5 27.834 -18.5 48.501c0 9.33301 0.333008 15.333 1 18c7.33301 40 28.666 82.333 63.999 127c-24.667 -5.33301 -47.667 -8 -69 -8c-138.667 0 -208 67.333 -208 202c0 22 2.66699 50 8 84l75 428
h106l-74 -418c-5.33301 -35.333 -8 -62.333 -8 -81c0 -42 9.33301 -72.833 28 -92.5s47.667 -29.5 87 -29.5c50 0 89.167 16.167 117.5 48.5s48.833 83.833 61.5 154.5z" />
    <glyph glyph-name="uogonek" unicode="&#x173;" horiz-adv-x="550" 
d="M414 509l102.001 0.000976562l-89 -509c-52.667 -46.667 -82.667 -88 -90 -124c-3.33301 -16 4.66699 -24 24 -24c10 0 24.667 3 44 9l-11 -62c-22 -10.667 -46 -16 -72 -16c-22.667 0 -40 5.66699 -52 17s-18 26.666 -18 45.999c0 42 32 93.333 96 154h-6l6 81h-3
c-51.333 -63.333 -113.333 -95 -186 -95c-34.667 0 -61.334 10.333 -80.001 31s-28 50.667 -28 90c0 18 2 38 6 60l60 342h103l-56 -319c-4.66699 -22.667 -7 -44 -7 -64c0 -36.667 14.667 -55 44 -55c40.667 0 76.667 18.667 108 56c32 38 53 85.333 63 142z" />
    <glyph glyph-name="Wcircumflex" unicode="&#x174;" horiz-adv-x="901" 
d="M585 -5l-71.999 371l-19 103h-2l-35 -65c-4 -5.33301 -10.333 -16.333 -19 -33l-216 -376h-48l-93 705h108l49 -367c1.33301 -8 5 -47 11 -117h1c18 36 37 72 57 108l196 347h43l66 -339c5.33301 -28 11.666 -66.667 18.999 -116h2l44 101l11 23l173 360h114l-343 -705
h-47zM390.001 765l113 145h108l63 -145h-75l-50 83l-78 -83h-81z" />
    <glyph glyph-name="wcircumflex" unicode="&#x175;" horiz-adv-x="726" 
d="M139 -3l-85.001 512h106l26 -195c5.33301 -40.667 10 -88 14 -142h1l62 112l120 208h39l47 -210l24 -110h3c22.667 58 44.334 107.333 65.001 148l94 189h107l-262 -512h-50l-47 208c-12 52 -20.667 91.333 -26 118h-2c-16.667 -35.333 -38.667 -76.333 -66 -123
l-121 -203h-49zM271.999 583l116 151h106l61 -151h-72l-50 89l-83 -89h-78z" />
    <glyph glyph-name="Ycircumflex" unicode="&#x176;" horiz-adv-x="589" 
d="M204 0l51.999 297l-175 403h116l71 -176c16.667 -40.667 34.334 -81.667 53.001 -123h3l96 132l120 167h126l-304 -405l-53 -295h-105zM234.999 765l113 145h108l63 -145h-75l-50 83l-78 -83h-81z" />
    <glyph glyph-name="ycircumflex" unicode="&#x177;" horiz-adv-x="488" 
d="M417 509l110 0.00292969l-275 -502c-34.667 -64 -65.334 -112 -92.001 -144c-25.333 -32 -52.5 -54.5 -81.5 -67.5s-67.167 -20.167 -114.5 -21.5l16 86c36.667 1.33301 67.334 13.166 92.001 35.499s55 67.166 91 134.499l-111 479h107l49 -246
c8.66699 -43.333 15.667 -82 21 -116h3c16.667 37.333 36 76.666 58 117.999zM160 583.003l116 151h106l61 -151h-72l-50 89l-83 -89h-78z" />
    <glyph glyph-name="Ydieresis" unicode="&#x178;" horiz-adv-x="589" 
d="M204 0l51.999 297l-175 403h116l71 -176c16.667 -40.667 34.334 -81.667 53.001 -123h3l96 132l120 167h126l-304 -405l-53 -295h-105zM231.999 826c0 20 7.5 37.333 22.5 52s32.833 22 53.5 22c16 0 29 -4.83301 39 -14.5s15 -21.5 15 -35.5
c0 -20 -7.66699 -37.333 -23 -52s-33 -22 -53 -22c-16 0 -29 4.66699 -39 14s-15 21.333 -15 36zM426.999 826c0 20 7.66797 37.333 23.001 52s33.333 22 54 22c15.333 0 28.166 -4.66699 38.499 -14s15.5 -21 15.5 -35c0 -20 -7.66699 -37.5 -23 -52.5s-33 -22.5 -53 -22.5
c-16.667 0 -30 4.66699 -40 14s-15 21.333 -15 36z" />
    <glyph glyph-name="Zacute" unicode="&#x179;" horiz-adv-x="561" 
d="M-13 0l6 43l343 455l86 111v2h-110h-197l16 89h456l-6 -43l-352 -467l-76 -99l1 -2c12.667 0.666992 50 1 112 1h236l-17 -90h-498zM316 765l97 145h115l-133 -145h-79z" />
    <glyph glyph-name="zacute" unicode="&#x17a;" horiz-adv-x="450" 
d="M-14 0l5.00098 41l237 298l57 68l14 16v3l-86 -1h-130l15 84h352l-5 -38l-240 -305l-69 -82v-3c49.333 1.33301 76.666 2 81.999 2h171l-14 -83h-389zM232.001 575l101 152h106l-133 -152h-74z" />
    <glyph glyph-name="Zdotaccent" unicode="&#x17b;" horiz-adv-x="561" 
d="M-13 0l6 43l343 455l86 111v2h-110h-197l16 89h456l-6 -43l-352 -467l-76 -99l1 -2c12.667 0.666992 50 1 112 1h236l-17 -90h-498zM301 828c0 24 7.83301 43.333 23.5 58s35.5 22 59.5 22c17.333 0 31.166 -5 41.499 -15s15.5 -23 15.5 -39l-1 -12
c-4 -20.667 -13.167 -37 -27.5 -49s-32.166 -18 -53.499 -18c-18 0 -32.167 4.83301 -42.5 14.5s-15.5 22.5 -15.5 38.5z" />
    <glyph glyph-name="zdotaccent" unicode="&#x17c;" horiz-adv-x="450" 
d="M-14 0l5.00098 41l237 298l57 68l14 16v3l-86 -1h-130l15 84h352l-5 -38l-240 -305l-69 -82v-3c49.333 1.33301 76.666 2 81.999 2h171l-14 -83h-389zM223.001 633v3.99902c0 4.66699 0.333008 7.66699 1 9c3.33301 20.667 12 36.667 26 48s31.667 17 53 17
c16.667 0 30.167 -4.66699 40.5 -14s15.5 -21.666 15.5 -36.999c0 -7.33301 -0.333008 -12 -1 -14c-4 -20 -13 -35.833 -27 -47.5s-31.333 -17.5 -52 -17.5c-16.667 0 -30.167 4.83301 -40.5 14.5s-15.5 22.167 -15.5 37.5z" />
    <glyph glyph-name="Zcaron" unicode="&#x17d;" horiz-adv-x="561" 
d="M-13 0l6 43l343 455l86 111v2h-110h-197l16 89h456l-6 -43l-352 -467l-76 -99l1 -2c12.667 0.666992 50 1 112 1h236l-17 -90h-498zM303 765l-63 145h77l51 -83l78 83h78l-114 -145h-107z" />
    <glyph glyph-name="zcaron" unicode="&#x17e;" horiz-adv-x="450" 
d="M-14 0l5.00098 41l237 298l57 68l14 16v3l-86 -1h-130l15 84h352l-5 -38l-240 -305l-69 -82v-3c49.333 1.33301 76.666 2 81.999 2h171l-14 -83h-389zM225.001 575l-60 152h74l51 -90l83 90h74l-115 -152h-107z" />
    <glyph glyph-name="longs" unicode="&#x17f;" horiz-adv-x="286" 
d="M394 729l-14 -80.999c-18 8.66699 -39 13 -63 13c-16.667 0 -31.167 -5.83301 -43.5 -17.5s-19.833 -27.167 -22.5 -46.5l-117 -666c-19.333 -101.333 -72.333 -152 -159 -152c-22.667 0 -46 4 -70 12l14 81c9.33301 -4.66699 23.333 -7 42 -7
c20.667 0 36.667 5.66699 48 17s19.333 29.666 24 54.999l87 488h-80l14 84h80l18 99c8 44 25.5 77.667 52.5 101s60.167 35 99.5 35c34.667 0 64.667 -5 90 -15z" />
    <glyph glyph-name="florin" unicode="&#x192;" horiz-adv-x="428" 
d="M490 683l-15.002 -88c-24 10 -46 15 -66 15c-43.333 0 -71.333 -23.333 -84 -70l-42 -156h124l-15 -83h-131l-72 -265c-26.667 -94 -57.667 -157.833 -93 -191.5s-94.333 -55.167 -177 -64.5l18 104c47.333 8.66699 78.833 22.167 94.5 40.5s33.834 62.5 54.501 132.5
l66 244h-104l15 83h112l47 174c12 45.333 33.5 80.333 64.5 105s69.167 37 114.5 37c28.667 0 58.334 -5.66699 89.001 -17z" />
    <glyph glyph-name="Gcaron" unicode="&#x1e6;" horiz-adv-x="569" 
d="M59 280c-1.33301 123.333 33.833 225.999 105.5 307.999s161.167 122.333 268.5 121c55.333 0 100.333 -9 135 -27l-16 -91c-30.667 16.667 -69 25 -115 25c-79.333 0 -144 -31.667 -194 -95s-75 -144.666 -75 -243.999c0 -129.333 53 -194 159 -194c18 0 34.667 2 50 6
l45 253h102l-56 -321c-43.333 -20.667 -92 -31 -146 -31c-85.333 0 -150.5 24.833 -195.5 74.5s-67.5 121.5 -67.5 215.5zM362.999 764.999l-63 145h77l51 -83l78 83h78l-114 -145h-107z" />
    <glyph glyph-name="gcaron" unicode="&#x1e7;" horiz-adv-x="539" 
d="M505 499l-89.999 -507.001c-12.667 -70.667 -42 -124.667 -88 -162s-104.667 -56 -176 -56c-52.667 0 -96 9 -130 27l16 84c33.333 -17.333 71.666 -26 114.999 -26c89.333 0 142.666 44.667 159.999 134l19 97h-2c-48.667 -62 -107.667 -93 -177 -93
c-38 0 -67 15.333 -87 46s-30 74 -30 130c-1.33301 101.333 26.834 185.333 84.501 252s129.5 99.334 215.5 98.001c50 0 106.667 -8 170 -24zM361.001 269.999l30 162.001c-16.667 4.66699 -36.667 7 -60 7c-56 0 -101.667 -23.833 -137 -71.5s-53 -108.834 -53 -183.501
c0 -69.333 18.333 -104 55 -104c35.333 0 69.333 19 102 57s53.667 82.333 63 133zM292.001 582l-60 152h74l51 -90l83 90h74l-115 -152h-107z" />
    <glyph glyph-name="AEacute" unicode="&#x1fc;" horiz-adv-x="830" 
d="M840 611h-274l-36 -203h252l-15 -86h-252l-41 -232h283l-16 -90h-383l25 139h-233l-100 -139h-114l509 700h410zM464 585h-3c-17.333 -34.667 -42.333 -75 -75 -121l-179 -245h190l40 225c11.333 66 20.333 113 27 141zM610 765l97 145h115l-133 -145h-79z" />
    <glyph glyph-name="aeacute" unicode="&#x1fd;" horiz-adv-x="775" 
d="M434 230c-3.33301 -24.667 -5 -42.333 -5 -53c0 -35.333 9.66699 -62 29 -80s47 -27 83 -27c50 0 94.333 10 133 30l-13 -88c-39.333 -16 -86.666 -24 -141.999 -24c-40.667 0 -75 8.83301 -103 26.5s-48 42.167 -60 73.5h-1c-45.333 -66.667 -110.333 -100 -195 -100
c-44.667 0 -80.167 11.5 -106.5 34.5s-39.5 54.5 -39.5 94.5c0 62.667 22.5 113 67.5 151s105.167 57 180.5 57c31.333 0 59 -2.33301 83 -7c0.666992 3.33301 1 11 1 23c0 65.333 -35.333 98 -106 98c-52 0 -100.667 -11.333 -146 -34l14 89c45.333 18 95 27 149 27
c82 0 134.667 -32.667 158 -98h1c52 66.667 117 100 195 100c46 0 81.833 -11.5 107.5 -34.5s38.5 -55.167 38.5 -96.5c0 -55.333 -18.333 -99 -55 -131s-86.334 -48 -149.001 -48c-34 0 -73.667 5.66699 -119 17zM445 301.001c40 -10.667 74.999 -15 104.999 -13
c34.667 0.666992 61.5 8.83398 80.5 24.501s28.5 38.167 28.5 67.5c0 39.333 -19.333 59 -58 59c-32 0 -62.667 -12.833 -92 -38.5s-50.666 -58.834 -63.999 -99.501zM324.999 200.001l7 46c-15.333 2.66699 -35.666 4 -60.999 4c-46.667 0 -83.834 -11.167 -111.501 -33.5
s-41.5 -52.166 -41.5 -89.499c0 -18.667 5.66699 -33.334 17 -44.001s27.333 -16 48 -16c34 0 64.667 13 92 39c27.333 26.667 44 58 50 94zM392.999 582.001l101 152h106l-133 -152h-74z" />
    <glyph glyph-name="Oslashacute" unicode="&#x1fe;" horiz-adv-x="682" 
d="M702 714l-84.999 -103.999c28 -46 42 -102.333 42 -169c0.666992 -82 -13.166 -157.5 -41.499 -226.5s-70.333 -124.667 -126 -167s-119.167 -62.833 -190.5 -61.5c-65.333 0 -118.333 17.333 -159 52l-42 -52h-83l83 100c-29.333 46.667 -44 104.334 -44 173.001
c-0.666992 81.333 13.166 156.666 41.499 225.999s70.166 125.166 125.499 167.499s118.333 62.833 189 61.5c66.667 0 120.667 -18 162 -54l45 54h83zM167.001 268.001c0 -32.667 3.66699 -62 11 -88l329 398c-24.667 28.667 -58.667 43 -102 43
c-46.667 1.33301 -88.667 -15.167 -126 -49.5s-65.5 -78.5 -84.5 -132.5s-28.167 -111 -27.5 -171zM549.001 432.001c0 31.333 -3.66504 59.667 -10.998 85l-328 -397c24 -27.333 57.333 -41 100 -41c46.667 -1.33301 88.667 15.167 126 49.5s65.666 78.5 84.999 132.5
s28.666 111 27.999 171zM377.003 765.002l97 145h115l-133 -145h-79z" />
    <glyph glyph-name="oslashacute" unicode="&#x1ff;" horiz-adv-x="535" 
d="M520 524l-57 -69c22 -32.667 33 -76.667 33 -132c0 -100 -25.833 -181.167 -77.5 -243.5s-118.834 -93.5 -201.501 -93.5c-45.333 0 -82.666 10.667 -111.999 32l-28 -34h-75l63 78c-18.667 32.667 -28 73.334 -28 122.001c0 99.333 25.5 180.666 76.5 243.999
s117.833 95 200.5 95c44 0 79.333 -9.33301 106 -28l24 29h76zM143 195c0 -6 0.667969 -19 2.00098 -39l216 271c-12.667 12 -30.667 18 -54 18c-46.667 0 -85.334 -24 -116.001 -72s-46.667 -107.333 -48 -178zM390.001 314c0 16.667 -1.66699 33.333 -5 50l-219 -275
c12.667 -16.667 32.667 -25 60 -25c46.667 0 85.667 24 117 72s47 107.333 47 178zM274.001 581.999l101 152h106l-133 -152h-74z" />
    <glyph glyph-name="uni0218" unicode="&#x218;" horiz-adv-x="506" 
d="M-1 23l16.002 94.001c57.333 -22 113.666 -33 168.999 -33c44.667 0 81.5 9.5 110.5 28.5s46.833 45.167 53.5 78.5c1.33301 12 2 18.667 2 20c0 21.333 -8.66699 40 -26 56s-47.333 34 -90 54c-48 21.333 -83.333 46 -106 74s-34 61.667 -34 101c0 10 1.33301 24 4 42
c9.33301 53.333 34.666 95.5 75.999 126.5s93 46.5 155 46.5c70 0 129.333 -10 178 -30l-16 -92c-54.667 19.333 -110 29 -166 29c-33.333 0 -60.5 -7.83301 -81.5 -23.5s-34.167 -37.5 -39.5 -65.5c-1.33301 -12 -2 -18.667 -2 -20c0 -22 8 -41 24 -57s43.667 -33 83 -51
c54 -25.333 92.833 -51.833 116.5 -79.5s35.5 -60.5 35.5 -98.5c0 -16.667 -1.33301 -31.334 -4 -44.001c-10 -58 -39.667 -104.167 -89 -138.5s-111.333 -51.5 -186 -51.5c-70 0 -131 11.333 -183 34zM83.002 -269.999l61 184h87l-75 -184h-73z" />
    <glyph glyph-name="uni0219" unicode="&#x219;" horiz-adv-x="420" 
d="M0 17l15 83.0039c53.333 -18 102 -27 146 -27c34 0 60.167 6 78.5 18s27.5 28.667 27.5 50c0 18 -6 33 -18 45s-34.333 26 -67 42c-42.667 20.667 -73.5 42.167 -92.5 64.5s-28.5 50.166 -28.5 83.499c0 44 16.5 78.5 49.5 103.5s78.833 37.5 137.5 37.5
c52.667 0 101 -7.33301 145 -22l-15 -82c-36.667 14.667 -75.334 22 -116.001 22c-30 0 -53.333 -5 -70 -15s-25 -23.667 -25 -41c0 -16 5.83301 -29.833 17.5 -41.5s32.834 -24.834 63.501 -39.501c45.333 -20.667 77.5 -42.834 96.5 -66.501s28.5 -52.834 28.5 -87.501
c0 -47.333 -19.5 -84.833 -58.5 -112.5s-91.833 -41.5 -158.5 -41.5c-57.333 0 -109.333 9 -156 27zM63 -270.996l61 184h87l-75 -184h-73z" />
    <glyph glyph-name="uni021A" unicode="&#x21a;" horiz-adv-x="508" 
d="M570 700l-16 -90h-184l-107 -610h-107l108 610h-185l16 90h475zM106 -270l61 184h87l-75 -184h-73z" />
    <glyph glyph-name="uni021B" unicode="&#x21b;" horiz-adv-x="344" 
d="M236 428l-44.999 -253c-2 -12.667 -3 -25 -3 -37c0 -40.667 16.333 -61 49 -61c23.333 0 42.666 3.33301 57.999 10l-14 -84c-22 -7.33301 -47.333 -11 -76 -11c-42.667 0 -74 9.5 -94 28.5s-30 47.833 -30 86.5c0 18.667 2 39 6 61l46 260h-91l14 81h92l23 131l106 17
l-26 -148h114l-14 -81h-115zM75.001 -270l61 184h87l-75 -184h-73z" />
    <glyph glyph-name="uni0232" unicode="&#x232;" horiz-adv-x="589" 
d="M204 0l51.999 297l-175 403h116l71 -176c16.667 -40.667 34.334 -81.667 53.001 -123h3l96 132l120 167h126l-304 -405l-53 -295h-105zM246.999 793l13 73h275l-13 -73h-275z" />
    <glyph glyph-name="uni0233" unicode="&#x233;" horiz-adv-x="488" 
d="M417 509l110 0.00292969l-275 -502c-34.667 -64 -65.334 -112 -92.001 -144c-25.333 -32 -52.5 -54.5 -81.5 -67.5s-67.167 -20.167 -114.5 -21.5l16 86c36.667 1.33301 67.334 13.166 92.001 35.499s55 67.166 91 134.499l-111 479h107l49 -246
c8.66699 -43.333 15.667 -82 21 -116h3c16.667 37.333 36 76.666 58 117.999zM167 603.003l13 72h275l-13 -72h-275z" />
    <glyph glyph-name="uni0237" unicode="&#x237;" horiz-adv-x="264" 
d="M-109 -209l13.999 81c11.333 -4.66699 27.333 -7 48 -7c22 0 38.667 5.66699 50 17s19.333 30 24 56l101 571h103l-102 -577c-18 -102 -74 -153 -168 -153c-25.333 0 -48.666 4 -69.999 12z" />
    <glyph glyph-name="circumflex" unicode="&#x2c6;" horiz-adv-x="518" 
d="M119 755l116 151h106l61 -151h-72l-50 89l-83 -89h-78z" />
    <glyph glyph-name="caron" unicode="&#x2c7;" horiz-adv-x="518" 
d="M276 754l-60 152h74l51 -90l83 90h74l-115 -152h-107z" />
    <glyph glyph-name="breve" unicode="&#x2d8;" horiz-adv-x="480" 
d="M219 870c0 10.667 1 22.668 3 36.001h79c-1.33301 -14.667 -2 -23 -2 -25c1.33301 -35.333 16.333 -53 45 -53c36 0 59.333 26 70 78h79c-10 -52 -28.167 -90 -54.5 -114s-61.5 -36 -105.5 -36c-36 0 -64 9.66699 -84 29s-30 47.666 -30 84.999z" />
    <glyph glyph-name="dotaccent" unicode="&#x2d9;" horiz-adv-x="346" 
d="M108 834v3.99902c0 4.66699 0.333008 7.66699 1 9c3.33301 20.667 12 36.667 26 48s31.667 17 53 17c16.667 0 30.167 -4.66699 40.5 -14s15.5 -21.666 15.5 -36.999c0 -7.33301 -0.333008 -12 -1 -14c-4 -20 -13 -35.833 -27 -47.5s-31.333 -17.5 -52 -17.5
c-16.667 0 -30.167 4.83301 -40.5 14.5s-15.5 22.167 -15.5 37.5z" />
    <glyph glyph-name="ring" unicode="&#x2da;" horiz-adv-x="439" 
d="M211 792c0 34 12.333 62.167 37 84.5s55.667 33.5 93 33.5c31.333 0 56 -7.66699 74 -23s27 -36.333 27 -63c0 -34 -12.333 -61.833 -37 -83.5s-55.667 -32.5 -93 -32.5c-30.667 0 -55.167 7.5 -73.5 22.5s-27.5 35.5 -27.5 61.5zM374 817
c0 24 -13.333 36.001 -40 36.001c-16 0 -29.333 -4.66699 -40 -14s-16 -21.333 -16 -36c0 -24.667 13.667 -37 41 -37c16 0 29.167 4.66699 39.5 14s15.5 21.666 15.5 36.999z" />
    <glyph glyph-name="ogonek" unicode="&#x2db;" horiz-adv-x="365" 
d="M29 -154c0 44.667 31.999 96.001 95.999 154.001h79c-52.667 -46.667 -82.667 -88 -90 -124c-2.66699 -16 5.33301 -24 24 -24c10.667 0 25.334 3 44.001 9l-11 -62c-22 -10.667 -46 -16 -72 -16c-22.667 0 -40 5.66699 -52 17s-18 26.666 -18 45.999z" />
    <glyph glyph-name="tilde" unicode="&#x2dc;" horiz-adv-x="503" 
d="M344 821c-13.333 8.66699 -24.668 13 -34.001 13c-18.667 0 -31.667 -11 -39 -33l-70 7c2 34 12.333 59.5 31 76.5s43.667 25.5 75 25.5c22 0 44.333 -7 67 -21c14.667 -8.66699 26 -13 34 -13c20 0 33.333 11.333 40 34l70 -8c-4 -68 -39.667 -102 -107 -102
c-23.333 0 -45.666 7 -66.999 21z" />
    <glyph glyph-name="hungarumlaut" unicode="&#x2dd;" horiz-adv-x="512" 
d="M105 753l92 153h99l-120 -153h-71zM236 753l112 153h102l-143 -153h-71z" />
    <glyph glyph-name="gravecomb" unicode="&#x300;" 
d="M-209 754l-79 152h106l46 -152h-73z" />
    <glyph glyph-name="acutecomb" unicode="&#x301;" 
d="M-313 754l101 152h106l-133 -152h-74z" />
    <glyph glyph-name="uni0302" unicode="&#x302;" 
d="M-399 755l116 151h106l61 -151h-72l-50 89l-83 -89h-78z" />
    <glyph glyph-name="tildecomb" unicode="&#x303;" 
d="M-168 821c-13.333 8.66699 -24.668 13 -34.001 13c-18.667 0 -31.667 -11 -39 -33l-70 7c2 34 12.333 59.5 31 76.5s43.667 25.5 75 25.5c22 0 44.333 -7 67 -21c14.667 -8.66699 26 -13 34 -13c20 0 33.333 11.333 40 34l70 -8c-4 -68 -39.667 -102 -107 -102
c-23.333 0 -45.666 7 -66.999 21z" />
    <glyph glyph-name="uni0304" unicode="&#x304;" 
d="M-285 603l13 72h275l-13 -72h-275z" />
    <glyph glyph-name="uni0306" unicode="&#x306;" 
d="M-261 870c0 10.667 1 22.668 3 36.001h79c-1.33301 -14.667 -2 -23 -2 -25c1.33301 -35.333 16.333 -53 45 -53c36 0 59.333 26 70 78h79c-10 -52 -28.167 -90 -54.5 -114s-61.5 -36 -105.5 -36c-36 0 -64 9.66699 -84 29s-30 47.666 -30 84.999z" />
    <glyph glyph-name="uni0307" unicode="&#x307;" 
d="M-237 834v3.99902c0 4.66699 0.333008 7.66699 1 9c3.33301 20.667 12 36.667 26 48s31.667 17 53 17c16.667 0 30.167 -4.66699 40.5 -14s15.5 -21.666 15.5 -36.999c0 -7.33301 -0.333008 -12 -1 -14c-4 -20 -13 -35.833 -27 -47.5s-31.333 -17.5 -52 -17.5
c-16.667 0 -30.167 4.83301 -40.5 14.5s-15.5 22.167 -15.5 37.5z" />
    <glyph glyph-name="uni0308" unicode="&#x308;" 
d="M-408 844c0.666992 2 1 5.33301 1 10c3.33301 16 11.666 29.5 24.999 40.5s28 16.5 44 16.5c14.667 0 26.667 -4.33301 36 -13s14 -19.667 14 -33v-3c0 -4 -0.333008 -6.66699 -1 -8c-2.66699 -16 -10.667 -29.667 -24 -41s-28 -17 -44 -17
c-15.333 0 -27.666 4.5 -36.999 13.5s-14 20.5 -14 34.5zM-228 844c0.666992 1.33301 1.00195 4.66699 1.00195 10c3.33301 16 11.666 29.5 24.999 40.5s28.666 16.5 45.999 16.5c14 0 25.5 -4.5 34.5 -13.5s13.5 -20.167 13.5 -33.5c0 -4.66699 -0.333008 -8 -1 -10
c-2.66699 -16.667 -10.5 -30.5 -23.5 -41.5s-27.5 -16.5 -43.5 -16.5s-28.667 4.5 -38 13.5s-14 20.5 -14 34.5z" />
    <glyph glyph-name="uni030A" unicode="&#x30a;" 
d="M-228 792c0 34 12.333 62.167 37 84.5s55.667 33.5 93 33.5c31.333 0 56 -7.66699 74 -23s27 -36.333 27 -63c0 -34 -12.333 -61.833 -37 -83.5s-55.667 -32.5 -93 -32.5c-30.667 0 -55.167 7.5 -73.5 22.5s-27.5 35.5 -27.5 61.5zM-65 817
c0 24 -13.333 36.001 -40 36.001c-16 0 -29.333 -4.66699 -40 -14s-16 -21.333 -16 -36c0 -24.667 13.667 -37 41 -37c16 0 29.167 4.66699 39.5 14s15.5 21.666 15.5 36.999z" />
    <glyph glyph-name="uni030B" unicode="&#x30b;" 
d="M-407 753l92 153h99l-120 -153h-71zM-276 753l112 153h102l-143 -153h-71z" />
    <glyph glyph-name="uni030C" unicode="&#x30c;" 
d="M-242 754l-60 152h74l51 -90l83 90h74l-115 -152h-107z" />
    <glyph glyph-name="uni0312" unicode="&#x312;" 
d="M-126 776l62 152h78l-51 -152h-89z" />
    <glyph glyph-name="uni0326" unicode="&#x326;" 
d="M-305 -270l61 184h87l-75 -184h-73z" />
    <glyph glyph-name="uni0327" unicode="&#x327;" 
d="M-369 -196l28.001 55c14.667 -9.33301 30.667 -14 48 -14c12 0 21.833 3.16699 29.5 9.5s11.5 14.5 11.5 24.5c0 24.667 -19.333 37.667 -58 39l40 86h66l-24 -51c16.667 -4 30.167 -12.167 40.5 -24.5s15.5 -26.5 15.5 -42.5c0 -31.333 -10.5 -56.333 -31.5 -75
s-49.5 -28 -85.5 -28c-32.667 0 -59.334 7 -80.001 21z" />
    <glyph glyph-name="uni0328" unicode="&#x328;" 
d="M-331 -154c0 44.667 32 96.001 96 154.001h79c-52.667 -46.667 -82.667 -88 -90 -124c-2.66699 -16 5.33301 -24 24 -24c10 0 24.667 3 44 9l-11 -62c-22 -10.667 -46 -16 -72 -16c-22.667 0 -40 5.66699 -52 17s-18 26.666 -18 45.999z" />
    <glyph glyph-name="tonos" unicode="&#x384;" horiz-adv-x="355" 
d="M101 754l65 152h99l-99 -152h-65z" />
    <glyph glyph-name="dieresistonos" unicode="&#x385;" horiz-adv-x="530" 
d="M322 754l42 152h89l-68 -152h-63zM191 819c0 19.333 7.16699 36 21.5 50s31.166 21 50.499 21c14.667 0 26.5 -4.5 35.5 -13.5s13.5 -20.5 13.5 -34.5c0 -20 -6.83301 -37 -20.5 -51s-30.167 -21 -49.5 -21c-15.333 0 -27.666 4.5 -36.999 13.5s-14 20.833 -14 35.5z
M450 819c0 19.333 7.16699 36 21.5 50s31.166 21 50.499 21c14.667 0 26.5 -4.66699 35.5 -14s13.5 -21.333 13.5 -36c0 -19.333 -7 -35.833 -21 -49.5s-30.333 -20.5 -49 -20.5c-15.333 0 -27.666 4.5 -36.999 13.5s-14 20.833 -14 35.5z" />
    <glyph glyph-name="Alphatonos" unicode="&#x386;" horiz-adv-x="632" 
d="M480 0l-30 144h-293l-82 -144h-112l410 705h51l166 -705h-110zM370 527l-61.999 -113l-108 -188h236l-44 188c-8.66699 39.333 -15.334 77 -20.001 113h-2zM129.001 548l65 152h99l-99 -152h-65z" />
    <glyph glyph-name="Epsilontonos" unicode="&#x388;" horiz-adv-x="618" 
d="M626 609h-274l-35 -198h254l-16 -90h-254l-40 -230h284l-16 -91h-390l123 700h381zM80 548l65 152h99l-99 -152h-65z" />
    <glyph glyph-name="Etatonos" unicode="&#x389;" horiz-adv-x="752" 
d="M641 700h106l-122 -700h-106l56 319h-273l-56 -319h-106l123 700h106l-51 -290h272zM80 548l65 152h99l-99 -152h-65z" />
    <glyph glyph-name="Iotatonos" unicode="&#x38a;" horiz-adv-x="375" 
d="M139 0l123 700h108l-123 -700h-108zM80 548l65 152h99l-99 -152h-65z" />
    <glyph glyph-name="Omicrontonos" unicode="&#x38c;" horiz-adv-x="790" 
d="M164 259c-1.33301 129.333 31.999 238 99.999 326s153.333 131 256 129c77.333 0 137.833 -24.167 181.5 -72.5s65.5 -115.166 65.5 -200.499c0.666992 -85.333 -14.166 -162.833 -44.499 -232.5s-73 -124.5 -128 -164.5s-116.833 -59.333 -185.5 -58
c-76.667 0 -136.667 24.167 -180 72.5s-65 115.166 -65 200.499zM656.999 432c0 60 -12.5 106.5 -37.5 139.5s-60.5 49.5 -106.5 49.5c-66 1.33301 -122.5 -33 -169.5 -103s-69.833 -153.333 -68.5 -250c0 -60 12.333 -106.5 37 -139.5s60 -49.5 106 -49.5
c66.667 -2 123.5 32 170.5 102s69.833 153.667 68.5 251zM110.999 548l65 152h99l-99 -152h-65z" />
    <glyph glyph-name="Upsilontonos" unicode="&#x38e;" horiz-adv-x="713" 
d="M366 0l51.999 297l-175 403h116l71 -176c16.667 -40.667 34.334 -81.667 53.001 -123h3l96 132l120 167h126l-304 -405l-53 -295h-105zM41.999 548l65 152h99l-99 -152h-65z" />
    <glyph glyph-name="Omegatonos" unicode="&#x38f;" horiz-adv-x="778" 
d="M75 0l14.9971 85.998h71h64v1c-34.667 66.667 -52 140 -52 220c-0.666992 49.333 7.16602 98.333 23.499 147s39.333 92.667 69 132s67 70.833 112 94.5s93.833 34.834 146.5 33.501c77.333 0 136.833 -25 178.5 -75s62.5 -112 62.5 -186
c0 -126.667 -49 -248.667 -147 -366v-1h74h54l-14 -86h-274l7 38c64.667 65.333 112.834 130.5 144.501 195.5s47.5 133.833 47.5 206.5c0 56.667 -11.667 101 -35 133s-59 48 -107 48c-48 1.33301 -90.667 -14.834 -128 -48.501s-65.166 -75.667 -83.499 -126
s-27.166 -103.166 -26.499 -158.499c0 -45.333 5.83301 -86.666 17.5 -123.999s31.834 -79.333 60.501 -126l-6 -38h-274zM98.9971 547.998l65 152h99l-99 -152h-65z" />
    <glyph glyph-name="iotadieresistonos" unicode="&#x390;" horiz-adv-x="298" 
d="M48 105c0 17.333 2 37 6 59l62 345h102l-58 -328c-4 -20.667 -6 -38 -6 -52c0 -37.333 15.333 -56 46 -56c22.667 0 42.667 3.33301 60 10l-15 -83c-29.333 -6.66699 -58.333 -10 -87 -10c-73.333 0 -110 38.333 -110 115zM135 570l42 152h89l-68 -152h-63zM4 635
c0 19.333 7.16699 36 21.5 50s31.166 21 50.499 21c14.667 0 26.5 -4.5 35.5 -13.5s13.5 -20.5 13.5 -34.5c0 -20 -6.83301 -37 -20.5 -51s-30.167 -21 -49.5 -21c-15.333 0 -27.666 4.5 -36.999 13.5s-14 20.833 -14 35.5zM263 635c0 19.333 7.16699 36 21.5 50
s31.166 21 50.499 21c14.667 0 26.5 -4.66699 35.5 -14s13.5 -21.333 13.5 -36c0 -19.333 -7 -35.833 -21 -49.5s-30.333 -20.5 -49 -20.5c-15.333 0 -27.666 4.5 -36.999 13.5s-14 20.833 -14 35.5z" />
    <glyph glyph-name="Alpha" unicode="&#x391;" horiz-adv-x="623" 
d="M470 0l-30 144h-293l-82 -144h-112l410 705h51l166 -705h-110zM360 527l-61.999 -113l-108 -188h236l-44 188c-8.66699 39.333 -15.334 77 -20.001 113h-2z" />
    <glyph glyph-name="Beta" unicode="&#x392;" horiz-adv-x="563" 
d="M516 240c0 -74.667 -23.167 -133.333 -69.5 -176s-110.5 -64 -192.5 -64h-215l123 700h182c62 0 110.167 -12.333 144.5 -37s51.5 -60.667 51.5 -108c0 -42.667 -10.5 -80.167 -31.5 -112.5s-50.833 -56.166 -89.5 -71.499c30.667 -8.66699 54.5 -24.334 71.5 -47.001
s25.5 -50.667 25.5 -84zM338 613.001h-86l-36 -208h76c45.333 0 80.333 11.833 105 35.5s37 55.167 37 94.5c0 52 -32 78 -96 78zM408 236.001c0 31.333 -9.33301 54 -28 68s-47 21 -85 21h-93l-42 -238h87c107.333 0 161 49.667 161 149z" />
    <glyph glyph-name="Gamma" unicode="&#x393;" horiz-adv-x="465" 
d="M39 0l123 700h364l-16 -90h-257l-108 -610h-106z" />
    <glyph glyph-name="uni0394" unicode="&#x394;" horiz-adv-x="610" 
d="M-47 0l400 705h49l165 -705h-614zM116 87l325 0.000976562l-66 317l-23 114.999h-3c-28.667 -57.333 -49 -96 -61 -116z" />
    <glyph glyph-name="Epsilon" unicode="&#x395;" horiz-adv-x="518" 
d="M526 609h-274l-35 -198h254l-16 -90h-254l-40 -230h284l-16 -91h-390l123 700h381z" />
    <glyph glyph-name="Zeta" unicode="&#x396;" horiz-adv-x="561" 
d="M-13 0l6 43l343 455l86 111v2h-110h-197l16 89h456l-6 -43l-352 -467l-76 -99l1 -2c12.667 0.666992 50 1 112 1h236l-17 -90h-498z" />
    <glyph glyph-name="Eta" unicode="&#x397;" horiz-adv-x="652" 
d="M540 700h106l-122 -700h-106l56 319h-273l-56 -319h-106l123 700h106l-51 -290h272z" />
    <glyph glyph-name="Theta" unicode="&#x398;" horiz-adv-x="682" 
d="M56 259c-0.666992 81.333 13.167 156.669 41.5 226.002s70.166 125.166 125.499 167.499s118.333 62.833 189 61.5c82 0 143.333 -25.333 184 -76c42 -50.667 63 -116.334 63 -197.001c0.666992 -82 -13.166 -157.5 -41.499 -226.5s-70.333 -124.667 -126 -167
s-119.167 -62.833 -190.5 -61.5c-81.333 0 -142.333 25.333 -183 76c-41.333 51.333 -62 117 -62 197zM549.001 432.003c0 58 -11.8301 104.001 -35.4971 138.001s-59.834 51 -108.501 51c-46.667 1.33301 -88.667 -15.167 -126 -49.5s-65.5 -78.5 -84.5 -132.5
s-28.167 -111 -27.5 -171c0 -58.667 11.667 -104.834 35 -138.501s59.333 -50.5 108 -50.5c46.667 -1.33301 88.667 15.167 126 49.5s65.666 78.5 84.999 132.5s28.666 111 27.999 171zM234.004 318.004l14 77h236l-13 -77h-237z" />
    <glyph glyph-name="Iota" unicode="&#x399;" horiz-adv-x="275" 
d="M39 0l123 700h108l-123 -700h-108z" />
    <glyph glyph-name="Kappa" unicode="&#x39a;" horiz-adv-x="612" 
d="M671 700l-353 -340.999l253 -359h-123l-148 209l-95 132h-1l-27 -153l-33 -188h-106l124 700h106l-30 -166c-2.66699 -18.667 -7.66699 -46.334 -15 -83.001l-11 -61h1l141 134l182 176h135z" />
    <glyph glyph-name="Lambda" unicode="&#x39b;" horiz-adv-x="606" 
d="M-47 0l399 704h46l166 -704h-111l-84 395c-9.33301 52 -16 92.333 -20 121h-4c-21.333 -49.333 -41.333 -90 -60 -122l-218 -394h-114z" />
    <glyph glyph-name="Mu" unicode="&#x39c;" horiz-adv-x="818" 
d="M-4 0l240.001 705.001h38l100 -330c5.33301 -19.333 8.66602 -31 9.99902 -35l21 -78h2l76 120l216 323h39l-9 -705h-106l8 333c1.33301 41.333 3.33301 83 6 125h-2c-18 -32.667 -40 -68.334 -66 -107.001l-170 -255h-37l-76 259l-20 72l-9 31h-2
c-15.333 -54.667 -28.333 -98.667 -39 -132l-111 -326h-109z" />
    <glyph glyph-name="Nu" unicode="&#x39d;" horiz-adv-x="677" 
d="M500 -3l-231.001 390l-44 73h-2c-1.33301 -12 -5.66602 -37.667 -12.999 -77l-68 -383h-103l124 705h37l235 -398c14 -20.667 27 -43.667 39 -69h2c4 34.667 9 68 15 100l64 362h104l-124 -703h-35z" />
    <glyph glyph-name="Xi" unicode="&#x39e;" horiz-adv-x="486" 
d="M98 611l15 89h416l-15 -89h-416zM96 324l14 83h319l-14 -83h-319zM-11 0l15 89h419l-15 -89h-419z" />
    <glyph glyph-name="Omicron" unicode="&#x39f;" horiz-adv-x="682" 
d="M56 259c-1.33301 129.333 31.999 238 99.999 326s153.333 131 256 129c77.333 0 137.833 -24.167 181.5 -72.5s65.5 -115.166 65.5 -200.499c0.666992 -85.333 -14.166 -162.833 -44.499 -232.5s-73 -124.5 -128 -164.5s-116.833 -59.333 -185.5 -58
c-76.667 0 -136.667 24.167 -180 72.5s-65 115.166 -65 200.499zM548.999 432c0 60 -12.5 106.5 -37.5 139.5s-60.5 49.5 -106.5 49.5c-66 1.33301 -122.5 -33 -169.5 -103s-69.833 -153.333 -68.5 -250c0 -60 12.333 -106.5 37 -139.5s60 -49.5 106 -49.5
c66.667 -2 123.5 32 170.5 102s69.833 153.667 68.5 251z" />
    <glyph glyph-name="Pi" unicode="&#x3a0;" horiz-adv-x="645" 
d="M40 0l122 700h478l-123 -700h-106l108 610h-267l-107 -610h-105z" />
    <glyph glyph-name="Rho" unicode="&#x3a1;" horiz-adv-x="556" 
d="M571 538c0 -86.667 -27.333 -155.167 -82 -205.5s-128.667 -75.5 -222 -75.5h-77l-45 -257h-106l123 700h176c155.333 0 233 -54 233 -162zM462 522c0 32 -10 54.834 -30 68.501s-53.667 20.5 -101 20.5h-79l-46 -266h71c57.333 0 102.5 15.667 135.5 47
s49.5 74.666 49.5 129.999z" />
    <glyph glyph-name="Sigma" unicode="&#x3a3;" horiz-adv-x="534" 
d="M-29 0l6 35l267 319l-142 309l6 37h461l-18 -90h-279h-30l-1 -1c5.33301 -9.33301 11 -21.333 17 -36l94 -205l-9 -51l-169 -200c-2 -2 -5.33301 -5.83301 -10 -11.5s-9 -10.5 -13 -14.5v-1h41h287l-16 -90h-492z" />
    <glyph glyph-name="Tau" unicode="&#x3a4;" horiz-adv-x="508" 
d="M570 700l-16 -90h-184l-107 -610h-107l108 610h-185l16 90h475z" />
    <glyph glyph-name="Upsilon" unicode="&#x3a5;" horiz-adv-x="589" 
d="M204 0l51.999 297l-175 403h116l71 -176c16.667 -40.667 34.334 -81.667 53.001 -123h3l96 132l120 167h126l-304 -405l-53 -295h-105z" />
    <glyph glyph-name="Phi" unicode="&#x3a6;" horiz-adv-x="784" 
d="M776 422c0 -26 -2.33105 -50.333 -6.99805 -73c-17.333 -97.333 -58.333 -173 -123 -227c-66 -54 -145.667 -82.333 -239 -85l-12 -68h-106l12 68c-80.667 3.33301 -144 26.166 -190 68.499s-69 100.5 -69 174.5c0 25.333 2.33301 49.333 7 72
c17.333 94.667 57.666 169.334 120.999 224.001c65.333 55.333 145.666 85 240.999 89l12 67h106l-13 -67c80 -3.33301 143.333 -25.833 190 -67.5s70 -100.167 70 -175.5zM667.002 414c0 102.667 -55.999 156.668 -167.999 162.001l-79 -449
c135.333 7.33301 215.666 81.666 240.999 222.999c4 22.667 6 44 6 64zM150.003 288.001c0 -104 56.332 -158.333 168.999 -163l78 449c-135.333 -7.33301 -215.666 -82 -240.999 -224c-4 -22 -6 -42.667 -6 -62z" />
    <glyph glyph-name="Chi" unicode="&#x3a7;" horiz-adv-x="592" 
d="M-42 0l290 375l-148 325h117l66 -147l29 -65l10 -24h1l67 89l113 147h127l-254 -325l170 -375h-118l-88 197c-7.33301 15.333 -14 31.333 -20 48l-16 39h-1l-66 -87l-151 -197h-128z" />
    <glyph glyph-name="Psi" unicode="&#x3a8;" horiz-adv-x="797" 
d="M724 700l104.002 0.000976562l-34 -195c-18.667 -104 -57.334 -182.333 -116.001 -235s-139.334 -82.334 -242.001 -89.001l-31 -181h-103l32 181c-84.667 6 -147.667 28.167 -189 66.5s-62 94.166 -62 167.499c0 28.667 3 59.334 9 92.001l34 193h104l-33 -190
c-5.33301 -33.333 -8 -59.666 -8 -78.999c0 -49.333 12.833 -86.5 38.5 -111.5s66.5 -39.833 122.5 -44.5l75 425h102l-74 -423c73.333 6.66699 127.833 28.667 163.5 66s61.167 97.666 76.5 180.999z" />
    <glyph glyph-name="uni03A9" unicode="&#x3a9;" horiz-adv-x="726" 
d="M-10 0l14.9971 85.998h71h64v1c-34.667 66.667 -52 140 -52 220c-0.666992 49.333 7.16602 98.333 23.499 147s39.333 92.667 69 132s67 70.833 112 94.5s93.833 34.834 146.5 33.501c77.333 0 136.833 -25 178.5 -75s62.5 -112 62.5 -186
c0 -126.667 -49 -248.667 -147 -366v-1h74h54l-14 -86h-274l7 38c64.667 65.333 112.834 130.5 144.501 195.5s47.5 133.833 47.5 206.5c0 56.667 -11.667 101 -35 133s-59 48 -107 48c-48 1.33301 -90.667 -14.834 -128 -48.501s-65.166 -75.667 -83.499 -126
s-27.166 -103.166 -26.499 -158.499c0 -45.333 5.83301 -86.666 17.5 -123.999s31.834 -79.333 60.501 -126l-6 -38h-274z" />
    <glyph glyph-name="Iotadieresis" unicode="&#x3aa;" horiz-adv-x="275" 
d="M39 0l123 700h108l-123 -700h-108zM90 827c0.666992 2 1 5.33301 1 10c3.33301 16 11.666 29.5 24.999 40.5s28 16.5 44 16.5c14.667 0 26.667 -4.33301 36 -13s14 -19.667 14 -33v-3c0 -4 -0.333008 -6.66699 -1 -8c-2.66699 -16 -10.667 -29.667 -24 -41
s-28 -17 -44 -17c-15.333 0 -27.666 4.5 -36.999 13.5s-14 20.5 -14 34.5zM270 827c0.666992 1.33301 1.00195 4.66699 1.00195 10c3.33301 16 11.666 29.5 24.999 40.5s28.666 16.5 45.999 16.5c14 0 25.5 -4.5 34.5 -13.5s13.5 -20.167 13.5 -33.5
c0 -4.66699 -0.333008 -8 -1 -10c-2.66699 -16.667 -10.5 -30.5 -23.5 -41.5s-27.5 -16.5 -43.5 -16.5s-28.667 4.5 -38 13.5s-14 20.5 -14 34.5z" />
    <glyph glyph-name="Upsilondieresis" unicode="&#x3ab;" horiz-adv-x="589" 
d="M204 0l51.999 297l-175 403h116l71 -176c16.667 -40.667 34.334 -81.667 53.001 -123h3l96 132l120 167h126l-304 -405l-53 -295h-105zM241.999 827c0.666992 2 1 5.33301 1 10c3.33301 16 11.666 29.5 24.999 40.5s28 16.5 44 16.5c14.667 0 26.667 -4.33301 36 -13
s14 -19.667 14 -33v-3c0 -4 -0.333008 -6.66699 -1 -8c-2.66699 -16 -10.667 -29.667 -24 -41s-28 -17 -44 -17c-15.333 0 -27.666 4.5 -36.999 13.5s-14 20.5 -14 34.5zM421.999 827c0.666992 1.33301 1.00195 4.66699 1.00195 10c3.33301 16 11.666 29.5 24.999 40.5
s28.666 16.5 45.999 16.5c14 0 25.5 -4.5 34.5 -13.5s13.5 -20.167 13.5 -33.5c0 -4.66699 -0.333008 -8 -1 -10c-2.66699 -16.667 -10.5 -30.5 -23.5 -41.5s-27.5 -16.5 -43.5 -16.5s-28.667 4.5 -38 13.5s-14 20.5 -14 34.5z" />
    <glyph glyph-name="alphatonos" unicode="&#x3ac;" horiz-adv-x="558" 
d="M452 108c0 -20 8.33105 -29.998 24.998 -29.998c6.66699 0 14 1 22 3l-14 -84c-20 -7.33301 -39.667 -11 -59 -11c-20.667 0 -37.5 7.16699 -50.5 21.5s-19.167 33.166 -18.5 56.499h-1c-41.333 -52 -92 -78 -152 -78c-53.333 0 -94.666 18.333 -123.999 55
s-44 86 -44 148c-0.666992 94 23.333 173.5 72 238.5s108 96.833 178 95.5c56.667 0 99.667 -25.333 129 -76l14 62h92l-67 -378c0 -2.66699 -0.166992 -5.33398 -0.5 -8.00098s-0.666016 -5 -0.999023 -7s-0.5 -3.66699 -0.5 -5v-3zM381.998 316.002
c0 37.333 -7.66797 67.1641 -23.001 89.4971s-37.333 33.5 -66 33.5c-39.333 0 -74.166 -25 -104.499 -75s-45.5 -107.333 -45.5 -172c0 -37.333 7 -67.166 21 -89.499s35 -33.5 63 -33.5c40.667 -1.33301 77 23.334 109 74.001s47.333 108.334 46 173.001zM268.997 570
l65 152h99l-99 -152h-65z" />
    <glyph glyph-name="epsilontonos" unicode="&#x3ad;" horiz-adv-x="394" 
d="M13 122c0 36 10.833 66.666 32.5 91.999s52.5 43.333 92.5 54v1c-43.333 19.333 -65 54 -65 104c0 46.667 17.5 83.334 52.5 110.001s84.167 40 147.5 40c44.667 0 86.334 -7.66699 125.001 -23l-15 -82c-30.667 15.333 -64.334 23 -101.001 23
c-70 0 -105 -26.667 -105 -80c0 -42 29 -63 87 -63h68l-12 -72h-81c-37.333 0 -66.5 -8 -87.5 -24s-31.5 -38 -31.5 -66c0 -46 35 -69 105 -69c36.667 0 72 6.33301 106 19l-14 -82c-43.333 -12 -83 -18 -119 -18c-58 0 -103.333 11.833 -136 35.5s-49 57.167 -49 100.5z
M229 569.999l65 152h99l-99 -152h-65z" />
    <glyph glyph-name="etatonos" unicode="&#x3ae;" horiz-adv-x="559" 
d="M302 -212l92.001 524c6 30 9 54.333 9 73s-4 32.167 -12 40.5s-21 12.5 -39 12.5c-36 0 -70.167 -19.5 -102.5 -58.5s-53.5 -86.833 -63.5 -143.5l-42 -236h-102l65 370c2 10 3 18.667 3 26c0 20.667 -9.66699 31 -29 31c-6.66699 0 -13.334 -0.666992 -20.001 -2l15 84
c22 4 41.333 6 58 6c28.667 0 48.667 -6.83301 60 -20.5s16.333 -36.5 15 -68.5h3c52 64.667 110.667 97 176 97c80 0 120 -40.667 120 -122c0 -18 -2 -38 -6 -60l-98 -553h-102zM312.001 570l65 152h99l-99 -152h-65z" />
    <glyph glyph-name="iotatonos" unicode="&#x3af;" horiz-adv-x="298" 
d="M48 105c0 17.333 2 37 6 59l62 345h102l-58 -328c-4 -20.667 -6 -38 -6 -52c0 -37.333 15.333 -56 46 -56c22.667 0 42.667 3.33301 60 10l-15 -83c-29.333 -6.66699 -58.333 -10 -87 -10c-73.333 0 -110 38.333 -110 115zM137 570l65 152h99l-99 -152h-65z" />
    <glyph glyph-name="upsilondieresistonos" unicode="&#x3b0;" horiz-adv-x="532" 
d="M57 129c0 18.667 1.33398 34.666 4.00098 47.999l36 205l2 18c0 18 -9 27 -27 27c-7.33301 0 -14.333 -0.666992 -21 -2l14 84c27.333 4.66699 49 7 65 7c52.667 0 79 -22.333 79 -67c0 -8.66699 -1 -17.334 -3 -26.001l-41 -234c-2.66699 -12.667 -4 -27 -4 -43
c0 -50.667 25.333 -76 76 -76c37.333 0 66.666 15.333 87.999 46s38 78.334 50 143.001c10 58.667 18.667 142 26 250h100c-4.66699 -102.667 -12.334 -186 -23.001 -250c-16 -93.333 -44.167 -162.166 -84.5 -206.499s-97.5 -66.5 -171.5 -66.5
c-53.333 0 -94.166 12.167 -122.499 36.5s-42.5 59.833 -42.5 106.5zM261.001 569.999l42 152h89l-68 -152h-63zM130.001 634.999c0 19.333 7.16699 36 21.5 50s31.166 21 50.499 21c14.667 0 26.5 -4.5 35.5 -13.5s13.5 -20.5 13.5 -34.5c0 -20 -6.83301 -37 -20.5 -51
s-30.167 -21 -49.5 -21c-15.333 0 -27.666 4.5 -36.999 13.5s-14 20.833 -14 35.5zM389.001 634.999c0 19.333 7.16699 36 21.5 50s31.166 21 50.499 21c14.667 0 26.5 -4.66699 35.5 -14s13.5 -21.333 13.5 -36c0 -19.333 -7 -35.833 -21 -49.5s-30.333 -20.5 -49 -20.5
c-15.333 0 -27.666 4.5 -36.999 13.5s-14 20.833 -14 35.5z" />
    <glyph glyph-name="alpha" unicode="&#x3b1;" horiz-adv-x="558" 
d="M452 108c0 -20 8.33105 -29.998 24.998 -29.998c6.66699 0 14 1 22 3l-14 -84c-20 -7.33301 -39.667 -11 -59 -11c-20.667 0 -37.5 7.16699 -50.5 21.5s-19.167 33.166 -18.5 56.499h-1c-41.333 -52 -92 -78 -152 -78c-53.333 0 -94.666 18.333 -123.999 55
s-44 86 -44 148c-0.666992 94 23.333 173.5 72 238.5s108 96.833 178 95.5c56.667 0 99.667 -25.333 129 -76l14 62h92l-67 -378c0 -2.66699 -0.166992 -5.33398 -0.5 -8.00098s-0.666016 -5 -0.999023 -7s-0.5 -3.66699 -0.5 -5v-3zM381.998 316.002
c0 37.333 -7.66797 67.1641 -23.001 89.4971s-37.333 33.5 -66 33.5c-39.333 0 -74.166 -25 -104.499 -75s-45.5 -107.333 -45.5 -172c0 -37.333 7 -67.166 21 -89.499s35 -33.5 63 -33.5c40.667 -1.33301 77 23.334 109 74.001s47.333 108.334 46 173.001z" />
    <glyph glyph-name="beta" unicode="&#x3b2;" horiz-adv-x="542" 
d="M505 265c0 -82.667 -26.168 -149.834 -78.501 -201.501s-120.166 -77.5 -203.499 -77.5c-28.667 0 -58 4.66699 -88 14l-37 -212h-102l119 675c18 98 47 170.167 87 216.5s95.667 69.5 167 69.5c52.667 0 93.5 -13.667 122.5 -41s43.5 -63.666 43.5 -108.999
c0 -34.667 -11.667 -70.667 -35 -108c-23.333 -36 -55 -64.333 -95 -85v-1c66.667 -11.333 100 -58 100 -140zM398.999 264c0 30.667 -6.33203 53.333 -18.999 68s-33.667 22 -63 22c-16.667 0 -40.334 -3.66699 -71.001 -11l14 76l37 11c43.333 13.333 76 35.333 98 66
c22.667 30.667 34 61.334 34 92.001c0 51.333 -23 77 -69 77c-36 0 -65.5 -14.833 -88.5 -44.5s-38.833 -69.834 -47.5 -120.501l-74 -419c20 -7.33301 45.667 -11 77 -11c48 0 88.667 18.5 122 55.5s50 83.167 50 138.5z" />
    <glyph glyph-name="gamma" unicode="&#x3b3;" horiz-adv-x="491" 
d="M261 42l-42.999 -253.999h-102l32 186c4.66699 21.333 7 50.666 7 87.999c0 53.333 -5 110.333 -15 171c-8.66699 60 -20.334 112.667 -35.001 158c-9.33301 25.333 -24.666 38 -45.999 38c-8 0 -17.333 -1.33301 -28 -4l15 84c19.333 4.66699 39.666 7 60.999 7
c29.333 0 51.5 -9 66.5 -27s26.833 -49 35.5 -93c6.66699 -34 12.667 -73.333 18 -118c6 -50.667 9.33301 -88.667 10 -114h2c68.667 103.333 129 218.333 181 345h110c-88 -197.333 -177.667 -353 -269 -467z" />
    <glyph glyph-name="delta" unicode="&#x3b4;" horiz-adv-x="523" 
d="M488 291c0 -19.333 -1.66602 -38.3359 -4.99902 -57.0029c-14 -76.667 -44.667 -137.167 -92 -181.5s-106.333 -66.5 -177 -66.5c-61.333 0 -108.166 16.333 -140.499 49s-48.5 76.334 -48.5 131.001c0 12.667 1.66699 30 5 52c11.333 64 33.666 116.833 66.999 158.5
s81.666 71.834 144.999 90.501c-30 21.333 -51.667 41.833 -65 61.5s-20 41.5 -20 65.5c0 47.333 17.5 84 52.5 110s83.833 39 146.5 39c60 0 109.333 -10 148 -30l-16 -89c-34.667 23.333 -78.667 35 -132 35c-63.333 0 -95 -20 -95 -60
c0 -12.667 5.83301 -25.167 17.5 -37.5s31.5 -27.166 59.5 -44.499c45.333 -27.333 81.333 -58 108 -92c28 -34 42 -78.667 42 -134zM382.001 285.997c0 49.333 -20.332 91.666 -60.999 126.999c-56 -9.33301 -98.333 -29.666 -127 -60.999s-47.334 -73 -56.001 -125
c-3.33301 -23.333 -5 -40.333 -5 -51c0 -71.333 31.333 -107 94 -107c76.667 0 126.667 56.667 150 170c3.33301 21.333 5 37 5 47z" />
    <glyph glyph-name="epsilon" unicode="&#x3b5;" horiz-adv-x="394" 
d="M13 122c0 36 10.833 66.666 32.5 91.999s52.5 43.333 92.5 54v1c-43.333 19.333 -65 54 -65 104c0 46.667 17.5 83.334 52.5 110.001s84.167 40 147.5 40c44.667 0 86.334 -7.66699 125.001 -23l-15 -82c-30.667 15.333 -64.334 23 -101.001 23
c-70 0 -105 -26.667 -105 -80c0 -42 29 -63 87 -63h68l-12 -72h-81c-37.333 0 -66.5 -8 -87.5 -24s-31.5 -38 -31.5 -66c0 -46 35 -69 105 -69c36.667 0 72 6.33301 106 19l-14 -82c-43.333 -12 -83 -18 -119 -18c-58 0 -103.333 11.833 -136 35.5s-49 57.167 -49 100.5z
" />
    <glyph glyph-name="zeta" unicode="&#x3b6;" horiz-adv-x="383" 
d="M229 -34c0 19.333 -15.332 31.332 -45.999 35.999c-104.667 18 -157 72 -157 162c0 58.667 14.333 116.667 43 174c29.333 59.333 62.666 111.333 99.999 156c36 44.667 83.667 98.667 143 162l-1 1c-7.33301 -0.666992 -20 -1 -38 -1h-153l14 80h348l-6 -36
c-70 -71.333 -125.667 -130.666 -167 -177.999c-46.667 -54 -87.667 -111.333 -123 -172c-35.333 -61.333 -53 -118.666 -53 -171.999c0 -31.333 9.16699 -54.5 27.5 -69.5s47.5 -24.833 87.5 -29.5c54.667 -6.66699 82 -31.667 82 -75
c0 -24.667 -12.667 -72.334 -38 -143.001h-87c16 59.333 24 94.333 24 105z" />
    <glyph glyph-name="eta" unicode="&#x3b7;" horiz-adv-x="559" 
d="M302 -212l92.001 524c6 30 9 54.333 9 73s-4 32.167 -12 40.5s-21 12.5 -39 12.5c-36 0 -70.167 -19.5 -102.5 -58.5s-53.5 -86.833 -63.5 -143.5l-42 -236h-102l65 370c2 10 3 18.667 3 26c0 20.667 -9.66699 31 -29 31c-6.66699 0 -13.334 -0.666992 -20.001 -2l15 84
c22 4 41.333 6 58 6c28.667 0 48.667 -6.83301 60 -20.5s16.333 -36.5 15 -68.5h3c52 64.667 110.667 97 176 97c80 0 120 -40.667 120 -122c0 -18 -2 -38 -6 -60l-98 -553h-102z" />
    <glyph glyph-name="theta" unicode="&#x3b8;" horiz-adv-x="553" 
d="M536 512c0 -43.333 -4.66699 -94.666 -14 -153.999c-18 -109.333 -53 -198.333 -105 -267c-51.333 -69.333 -115.333 -104 -192 -104c-112 0 -168 78 -168 234c0 50 4.33301 99.667 13 149c18 111.333 53.167 202.166 105.5 272.499s116.5 105.5 192.5 105.5
c112 0 168 -78.667 168 -236zM183 408h240c6.66699 42 10 82 10 120c0 90.667 -25 136 -75 136c-38 0 -72.667 -23 -104 -69s-55 -108.333 -71 -187zM410 327h-239.999c-6.66699 -42.667 -10 -83 -10 -121c0 -90 25.333 -135 76 -135c38 0 72.667 23.167 104 69.5
s54.666 108.5 69.999 186.5z" />
    <glyph glyph-name="iota" unicode="&#x3b9;" horiz-adv-x="298" 
d="M48 105c0 17.333 2 37 6 59l62 345h102l-58 -328c-4 -20.667 -6 -38 -6 -52c0 -37.333 15.333 -56 46 -56c22.667 0 42.667 3.33301 60 10l-15 -83c-29.333 -6.66699 -58.333 -10 -87 -10c-73.333 0 -110 38.333 -110 115z" />
    <glyph glyph-name="kappa" unicode="&#x3ba;" horiz-adv-x="502" 
d="M540 509l-256 -248l175 -261h-116l-101 152l-64 92h-1l-11 -60l-8 -46l-24 -138h-101l90 509h101l-24 -134c-2 -8.66699 -5.33301 -28.667 -10 -60l-5 -30h1c24.667 26.667 52 53.667 82 81l144 143h128z" />
    <glyph glyph-name="lambda" unicode="&#x3bb;" horiz-adv-x="516" 
d="M293 140l-31.002 213h-2c-26 -56.667 -52.333 -110 -79 -160l-101 -193h-116l268 476l-11 55c-7.33301 39.333 -12.666 65 -15.999 77c-8.66699 32.667 -24.667 49 -48 49c-11.333 0 -20.666 -1 -27.999 -3l15 82c24 6 45.333 9 64 9c32.667 0 56.334 -11.333 71.001 -34
s27 -63 37 -121l76 -412c8 -40.667 16.167 -68 24.5 -82s22.166 -21 41.499 -21c9.33301 0 18.333 1.33301 27 4l-15 -84c-24 -6 -45.333 -9 -64 -9c-36.667 0 -63 11.5 -79 34.5s-27.333 62.833 -34 119.5z" />
    <glyph glyph-name="uni03BC" unicode="&#x3bc;" horiz-adv-x="562" 
d="M455 112c0 -24 9 -36.002 27 -36.002c4 0 11 1.33301 21 4l-15 -83c-17.333 -6.66699 -35.333 -10 -54 -10c-24 0 -41.833 6.16699 -53.5 18.5s-18.5 31.5 -20.5 57.5h-1c-17.333 -22 -39.5 -40 -66.5 -54s-53.5 -21 -79.5 -21c-35.333 0 -61 10.667 -77 32l-41 -232h-99
l127 721h102l-56 -315c-4 -22 -6 -41 -6 -57c0 -23.333 5 -40.166 15 -50.499s27 -15.5 51 -15.5c36.667 0 67 12.5 91 37.5s40 59.833 48 104.5l52 296h102l-64 -363c-2 -13.333 -3 -24.666 -3 -33.999z" />
    <glyph glyph-name="nu" unicode="&#x3bd;" horiz-adv-x="506" 
d="M190 -4l-84.999 396c-6 24.667 -21.667 37 -47 37c-9.33301 0 -18.333 -1.33301 -27 -4l14 82c27.333 6 48.666 9 63.999 9c54.667 0 85.667 -27.667 93 -83l46 -278h2c74 120 131.667 238 173 354h110c-70 -184 -167.667 -355 -293 -513h-50z" />
    <glyph glyph-name="xi" unicode="&#x3be;" horiz-adv-x="401" 
d="M222 514c0 -29.333 8.83301 -53.3311 26.5 -71.998s42.167 -28 73.5 -28h65l-13 -76h-87c-39.333 0 -72.5 -11.333 -99.5 -34s-43.833 -52.334 -50.5 -89.001c-2 -12 -3 -22.667 -3 -32c0 -31.333 10 -55 30 -71s51.667 -27.333 95 -34
c27.333 -4.66699 47.166 -12.5 59.499 -23.5s18.5 -26.167 18.5 -45.5c0 -14 -3.66699 -33 -11 -57l-28 -91h-89l18 64c4.66699 18 7 31 7 39c0 11.333 -3.66699 19.833 -11 25.5s-20.333 10.5 -39 14.5c-49.333 8.66699 -88.166 27 -116.499 55s-42.5 64.333 -42.5 109
c0 16.667 1.33301 30.667 4 42c8.66699 45.333 27.167 83.333 55.5 114s64.5 51.667 108.5 63v1c-52.667 20 -79 59.333 -79 118c0 11.333 1 23 3 35c10 47.333 33.667 85.666 71 114.999h-84l15 80h357l-15 -80h-100c-40.667 0 -74 -14.167 -100 -42.5s-39 -61.5 -39 -99.5
z" />
    <glyph glyph-name="omicron" unicode="&#x3bf;" horiz-adv-x="535" 
d="M37 184c0 99.333 25.668 180.667 77.001 244s117.666 95 198.999 95c60 0 105.5 -17 136.5 -51s46.5 -83.667 46.5 -149c0 -99.333 -25.667 -180.333 -77 -243s-118.333 -94 -201 -94c-59.333 0 -104.333 17 -135 51s-46 83 -46 147zM390.001 323.001
c0 40.667 -6.66797 70.167 -20.001 88.5s-34.666 27.5 -63.999 27.5c-46.667 0 -85.5 -24.167 -116.5 -72.5s-46.5 -108.833 -46.5 -181.5c0 -77.333 28 -116 84 -116c46.667 0 85.5 24 116.5 72s46.5 108.667 46.5 182z" />
    <glyph glyph-name="pi" unicode="&#x3c0;" horiz-adv-x="613" 
d="M361 83c0 16.667 1.66699 34 5 52l50 290h-172l-75 -425h-102l74 425h-90l15 84h558l-15 -84h-90l-50 -284c-2 -11.333 -3 -21 -3 -29c0 -27.333 13.667 -41 41 -41c10 0 20 1.33301 30 4l-16 -82c-14 -4.66699 -31.667 -7 -53 -7c-36.667 0 -63.667 7.83301 -81 23.5
s-26 40.167 -26 73.5z" />
    <glyph glyph-name="rho" unicode="&#x3c1;" horiz-adv-x="530" 
d="M495 336c0.666992 -62 -11 -119.831 -35 -173.498s-58 -96.834 -102 -129.501s-92.333 -48.334 -145 -47.001c-37.333 0 -71 4.33301 -101 13l-38 -211h-103l81 455c15.333 90 45.833 159.167 91.5 207.5s103.5 72.5 173.5 72.5c59.333 0 103.833 -16.667 133.5 -50
s44.5 -79 44.5 -137zM388 337.002c0 68 -26.667 102 -80 102c-41.333 0 -75 -20 -101 -60c-26 -38.667 -44 -88 -54 -148l-27 -149c22 -8 47.667 -12 77 -12c53.333 0 96.333 23.833 129 71.5s51 106.167 55 175.5c0.666992 3.33301 1 10 1 20z" />
    <glyph glyph-name="uni03C2" unicode="&#x3c2;" horiz-adv-x="415" 
d="M219 -139l9.99902 39.999c9.33301 32.667 14 54.667 14 66c0 10.667 -3.33301 18.5 -10 23.5s-18.667 8.5 -36 10.5c-49.333 6.66699 -88.166 28 -116.499 64s-42.5 81.333 -42.5 136c-1.33301 88.667 24.834 165 78.501 229s119.834 95 198.501 93
c38 0 71 -6.33301 99 -19l-14 -81c-24.667 9.33301 -49.334 14 -74.001 14c-51.333 0 -94.333 -22.333 -129 -67s-52 -97.667 -52 -159c0 -75.333 39.333 -118.666 118 -129.999c29.333 -4.66699 50.166 -12.667 62.499 -24s18.5 -28 18.5 -50
c0 -25.333 -12.333 -74 -37 -146h-88z" />
    <glyph glyph-name="sigma" unicode="&#x3c3;" horiz-adv-x="541" 
d="M36 179c-1.33301 94.667 24.166 173.668 76.499 237.001s117.5 94.333 195.5 93h270l-15 -84h-58c-23.333 0 -37.666 0.333008 -42.999 1v-1c18.667 -28.667 28 -66.334 28 -113.001c0 -93.333 -26.5 -171 -79.5 -233s-119.167 -93 -198.5 -93
c-56.667 0 -100.167 16.5 -130.5 49.5s-45.5 80.833 -45.5 143.5zM382.999 314.001c0 74 -28.0029 111 -84.0029 111c-43.333 0 -80.166 -23.833 -110.499 -71.5s-45.5 -106.5 -45.5 -176.5c0 -34.667 6.83301 -61.5 20.5 -80.5s32.834 -28.5 57.501 -28.5
c44.667 0 82.834 24 114.501 72s47.5 106 47.5 174z" />
    <glyph glyph-name="tau" unicode="&#x3c4;" horiz-adv-x="423" 
d="M134 91c0 16 1.33203 30.332 3.99902 42.999l51 291h-149l15 84h399l-15 -84h-149l-49 -276c-2 -11.333 -3 -20.666 -3 -27.999c0 -32 16.667 -48 50 -48c20.667 0 41 3.66699 61 11l-16 -82c-27.333 -8 -56.666 -12 -87.999 -12c-74 0 -111 33.667 -111 101z" />
    <glyph glyph-name="upsilon" unicode="&#x3c5;" horiz-adv-x="532" 
d="M57 129c0 18.667 1.33398 34.666 4.00098 47.999l36 205l2 18c0 18 -9 27 -27 27c-7.33301 0 -14.333 -0.666992 -21 -2l14 84c27.333 4.66699 49 7 65 7c52.667 0 79 -22.333 79 -67c0 -8.66699 -1 -17.334 -3 -26.001l-41 -234c-2.66699 -12.667 -4 -27 -4 -43
c0 -50.667 25.333 -76 76 -76c37.333 0 66.666 15.333 87.999 46s38 78.334 50 143.001c10 58.667 18.667 142 26 250h100c-4.66699 -102.667 -12.334 -186 -23.001 -250c-16 -93.333 -44.167 -162.166 -84.5 -206.499s-97.5 -66.5 -171.5 -66.5
c-53.333 0 -94.166 12.167 -122.499 36.5s-42.5 59.833 -42.5 106.5z" />
    <glyph glyph-name="phi" unicode="&#x3c6;" horiz-adv-x="720" 
d="M228 -212l35 198.001c-72.667 6.66699 -128.5 29.334 -167.5 68.001s-58.5 90.667 -58.5 156c0 84.667 29.5 155.667 88.5 213s136.167 90.666 231.5 99.999l38 213h100l-38 -213c72.667 -7.33301 128.5 -30.333 167.5 -69s58.5 -90.334 58.5 -155.001
c0 -85.333 -29.5 -156.833 -88.5 -214.5s-136.167 -90.5 -231.5 -98.5l-35 -198h-100zM276 70.001l65.999 370c-58 -6 -105.5 -30.333 -142.5 -73s-55.5 -93.667 -55.5 -153c0 -43.333 11.333 -77.333 34 -102s55.334 -38.667 98.001 -42zM575.999 294.001
c0 44 -11.5 78.333 -34.5 103s-55.833 38.334 -98.5 41.001l-66 -369c58 6 105.667 30.167 143 72.5s56 93.166 56 152.499z" />
    <glyph glyph-name="chi" unicode="&#x3c7;" horiz-adv-x="477" 
d="M243 -81l-27 149h-1c-12.667 -26.667 -26.667 -52.667 -42 -78l-135 -202h-115l254 378l-41 170c-8.66699 37.333 -16.667 61.833 -24 73.5s-19.333 17.5 -36 17.5c-12 0 -23 -1 -33 -3l15 84c30 5.33301 50.333 8 61 8c32 0 56 -10.5 72 -31.5s29 -57.833 39 -110.5
l22 -113h1l147 248h114l-220 -343l38 -165c14 -60 25 -98 33 -114s21.333 -24 40 -24c6 0 16 1.33301 30 4l-15 -84c-22 -6 -41.667 -9 -59 -9c-32 0 -57.333 11.5 -76 34.5s-32.667 59.833 -42 110.5z" />
    <glyph glyph-name="psi" unicode="&#x3c8;" horiz-adv-x="739" 
d="M613 509l98.0039 0.00195312c-2 -90 -8.66699 -170.667 -20 -242c-16.667 -100.667 -50.834 -171.667 -102.501 -213s-122.834 -64 -213.501 -68l-35 -198h-101l35 198c-76 3.33301 -132.167 21.166 -168.5 53.499s-54.5 81.166 -54.5 146.499c0 26.667 3 56 9 88l42 235
h102l-40 -226c-6 -32.667 -9 -61.667 -9 -87c0 -43.333 10.167 -74.5 30.5 -93.5s54.833 -30.167 103.5 -33.5l95 539h101l-95 -538c53.333 2.66699 96.666 19.667 129.999 51s56 81.333 68 150c13.333 82.667 21.666 162 24.999 238z" />
    <glyph glyph-name="omega" unicode="&#x3c9;" horiz-adv-x="779" 
d="M46 154c0 26.667 3.66797 62.665 11.001 107.998c5.33301 32.667 14.333 71.334 27 116.001c16 55.333 29.667 99 41 131h100c-14 -40 -26.333 -79.333 -37 -118c-10.667 -40.667 -20.334 -83 -29.001 -127c-7.33301 -44 -11 -77.333 -11 -100c0 -61.333 21 -92 63 -92
c62.667 0 103.667 51 123 153l32 183h99l-33 -183c-4 -21.333 -6 -40 -6 -56c0 -64.667 25.333 -97 76 -97c30.667 0 55.5 15 74.5 45s34.5 79 46.5 147c5.33301 32 10.333 70.667 15 116c5.33301 46.667 8.33301 89.667 9 129h100c-2 -48.667 -5.33301 -99 -10 -151
c-2.66699 -27.333 -7 -59.333 -13 -96c-16.667 -93.333 -43.667 -162.666 -81 -207.999s-86.333 -68 -147 -68c-65.333 0 -111 32.333 -137 97h-1c-50 -64.667 -107.333 -97 -172 -97c-93.333 0 -140 56 -140 168z" />
    <glyph glyph-name="iotadieresis" unicode="&#x3ca;" horiz-adv-x="298" 
d="M48 105c0 17.333 2 37 6 59l62 345h102l-58 -328c-4 -20.667 -6 -38 -6 -52c0 -37.333 15.333 -56 46 -56c22.667 0 42.667 3.33301 60 10l-15 -83c-29.333 -6.66699 -58.333 -10 -87 -10c-73.333 0 -110 38.333 -110 115zM47 634c0 19.333 6.66699 35.832 20 49.499
s29.333 20.5 48 20.5c14.667 0 26.334 -4.5 35.001 -13.5s13 -20.5 13 -34.5c0 -19.333 -6.83301 -35.666 -20.5 -48.999s-29.5 -20 -47.5 -20c-14.667 0 -26.334 4.33301 -35.001 13s-13 20 -13 34zM217 633.999c0 19.333 6.66797 35.833 20.001 49.5
s29.666 20.5 48.999 20.5c14 0 25.333 -4.33301 34 -13s13 -20 13 -34c0 -19.333 -6.66699 -35.833 -20 -49.5s-29 -20.5 -47 -20.5c-14.667 0 -26.5 4.33301 -35.5 13s-13.5 20 -13.5 34z" />
    <glyph glyph-name="upsilondieresis" unicode="&#x3cb;" horiz-adv-x="532" 
d="M57 129c0 18.667 1.33398 34.666 4.00098 47.999l36 205l2 18c0 18 -9 27 -27 27c-7.33301 0 -14.333 -0.666992 -21 -2l14 84c27.333 4.66699 49 7 65 7c52.667 0 79 -22.333 79 -67c0 -8.66699 -1 -17.334 -3 -26.001l-41 -234c-2.66699 -12.667 -4 -27 -4 -43
c0 -50.667 25.333 -76 76 -76c37.333 0 66.666 15.333 87.999 46s38 78.334 50 143.001c10 58.667 18.667 142 26 250h100c-4.66699 -102.667 -12.334 -186 -23.001 -250c-16 -93.333 -44.167 -162.166 -84.5 -206.499s-97.5 -66.5 -171.5 -66.5
c-53.333 0 -94.166 12.167 -122.499 36.5s-42.5 59.833 -42.5 106.5zM167.001 635.999c0.666992 2 1 5.33301 1 10c3.33301 16 11.666 29.5 24.999 40.5s28 16.5 44 16.5c14.667 0 26.667 -4.33301 36 -13s14 -19.667 14 -33v-3c0 -4 -0.333008 -6.66699 -1 -8
c-2.66699 -16 -10.667 -29.667 -24 -41s-28 -17 -44 -17c-15.333 0 -27.666 4.5 -36.999 13.5s-14 20.5 -14 34.5zM347.001 635.999c0.666992 1.33301 1.00195 4.66699 1.00195 10c3.33301 16 11.666 29.5 24.999 40.5s28.666 16.5 45.999 16.5c14 0 25.5 -4.5 34.5 -13.5
s13.5 -20.167 13.5 -33.5c0 -4.66699 -0.333008 -8 -1 -10c-2.66699 -16.667 -10.5 -30.5 -23.5 -41.5s-27.5 -16.5 -43.5 -16.5s-28.667 4.5 -38 13.5s-14 20.5 -14 34.5z" />
    <glyph glyph-name="omicrontonos" unicode="&#x3cc;" horiz-adv-x="535" 
d="M37 184c0 99.333 25.668 180.667 77.001 244s117.666 95 198.999 95c60 0 105.5 -17 136.5 -51s46.5 -83.667 46.5 -149c0 -99.333 -25.667 -180.333 -77 -243s-118.333 -94 -201 -94c-59.333 0 -104.333 17 -135 51s-46 83 -46 147zM390.001 323.001
c0 40.667 -6.66797 70.167 -20.001 88.5s-34.666 27.5 -63.999 27.5c-46.667 0 -85.5 -24.167 -116.5 -72.5s-46.5 -108.833 -46.5 -181.5c0 -77.333 28 -116 84 -116c46.667 0 85.5 24 116.5 72s46.5 108.667 46.5 182zM283 570.001l65 152h99l-99 -152h-65z" />
    <glyph glyph-name="upsilontonos" unicode="&#x3cd;" horiz-adv-x="532" 
d="M57 129c0 18.667 1.33398 34.666 4.00098 47.999l36 205l2 18c0 18 -9 27 -27 27c-7.33301 0 -14.333 -0.666992 -21 -2l14 84c27.333 4.66699 49 7 65 7c52.667 0 79 -22.333 79 -67c0 -8.66699 -1 -17.334 -3 -26.001l-41 -234c-2.66699 -12.667 -4 -27 -4 -43
c0 -50.667 25.333 -76 76 -76c37.333 0 66.666 15.333 87.999 46s38 78.334 50 143.001c10 58.667 18.667 142 26 250h100c-4.66699 -102.667 -12.334 -186 -23.001 -250c-16 -93.333 -44.167 -162.166 -84.5 -206.499s-97.5 -66.5 -171.5 -66.5
c-53.333 0 -94.166 12.167 -122.499 36.5s-42.5 59.833 -42.5 106.5zM264.001 569.999l65 152h99l-99 -152h-65z" />
    <glyph glyph-name="omegatonos" unicode="&#x3ce;" horiz-adv-x="779" 
d="M46 154c0 26.667 3.66797 62.665 11.001 107.998c5.33301 32.667 14.333 71.334 27 116.001c16 55.333 29.667 99 41 131h100c-14 -40 -26.333 -79.333 -37 -118c-10.667 -40.667 -20.334 -83 -29.001 -127c-7.33301 -44 -11 -77.333 -11 -100c0 -61.333 21 -92 63 -92
c62.667 0 103.667 51 123 153l32 183h99l-33 -183c-4 -21.333 -6 -40 -6 -56c0 -64.667 25.333 -97 76 -97c30.667 0 55.5 15 74.5 45s34.5 79 46.5 147c5.33301 32 10.333 70.667 15 116c5.33301 46.667 8.33301 89.667 9 129h100c-2 -48.667 -5.33301 -99 -10 -151
c-2.66699 -27.333 -7 -59.333 -13 -96c-16.667 -93.333 -43.667 -162.666 -81 -207.999s-86.333 -68 -147 -68c-65.333 0 -111 32.333 -137 97h-1c-50 -64.667 -107.333 -97 -172 -97c-93.333 0 -140 56 -140 168zM403.001 569.998l65 152h99l-99 -152h-65z" />
    <glyph glyph-name="uni0401" unicode="&#x401;" horiz-adv-x="518" 
d="M526 609h-274l-35 -198h254l-16 -90h-254l-40 -230h284l-16 -91h-390l123 700h381zM212 826c0 20 7.5 37.333 22.5 52s32.833 22 53.5 22c16 0 29 -4.83301 39 -14.5s15 -21.5 15 -35.5c0 -20 -7.66699 -37.333 -23 -52s-33 -22 -53 -22c-16 0 -29 4.66699 -39 14
s-15 21.333 -15 36zM407 826c0 20 7.66797 37.333 23.001 52s33.333 22 54 22c15.333 0 28.166 -4.66699 38.499 -14s15.5 -21 15.5 -35c0 -20 -7.66699 -37.5 -23 -52.5s-33 -22.5 -53 -22.5c-16.667 0 -30 4.66699 -40 14s-15 21.333 -15 36z" />
    <glyph glyph-name="uni0402" unicode="&#x402;" horiz-adv-x="697" 
d="M383 -8l14.999 87.001c84.667 3.33301 137 64 157 182c3.33301 24.667 5 42.667 5 54c0 70 -30.333 105 -91 105c-42 0 -76.667 -12.333 -104 -37s-45.333 -60.667 -54 -108l-48 -275h-107l108 610h-185l16 90h544l-16 -90h-253l-21 -124
c-2 -12.667 -5.66699 -28.334 -11 -47.001h2c41.333 46.667 97 70 167 70c108 0 162 -56.333 162 -169c0 -26.667 -2.33301 -52 -7 -76c-15.333 -88 -46.666 -155 -93.999 -201s-109 -69.667 -185 -71z" />
    <glyph glyph-name="uni0403" unicode="&#x403;" horiz-adv-x="465" 
d="M39 0l123 700h364l-16 -90h-257l-108 -610h-106zM311 764l97 145h115l-133 -145h-79z" />
    <glyph glyph-name="uni0404" unicode="&#x404;" horiz-adv-x="532" 
d="M182 391l226.002 0.000976562l-15 -82h-223c-0.666992 -4.66699 -1 -15.334 -1 -32.001c0 -65.333 14 -113.833 42 -145.5s70.667 -47.5 128 -47.5c45.333 0 88.333 9.66699 129 29l-18 -98c-36 -16 -78.333 -24 -127 -24c-86.667 0 -152.334 24.5 -197.001 73.5
s-67 120.5 -67 214.5c-1.33301 124.667 33.5 228 104.5 310s160.833 122.333 269.5 121c43.333 0 83 -8 119 -24l-16 -90c-36.667 14 -70.334 21 -101.001 21c-60.667 0 -113.667 -20.667 -159 -62c-46 -42 -77.333 -96.667 -94 -164z" />
    <glyph glyph-name="uni0405" unicode="&#x405;" horiz-adv-x="506" 
d="M-1 23l16.002 94.001c57.333 -22 113.666 -33 168.999 -33c44.667 0 81.5 9.5 110.5 28.5s46.833 45.167 53.5 78.5c1.33301 12 2 18.667 2 20c0 21.333 -8.66699 40 -26 56s-47.333 34 -90 54c-48 21.333 -83.333 46 -106 74s-34 61.667 -34 101c0 10 1.33301 24 4 42
c9.33301 53.333 34.666 95.5 75.999 126.5s93 46.5 155 46.5c70 0 129.333 -10 178 -30l-16 -92c-54.667 19.333 -110 29 -166 29c-33.333 0 -60.5 -7.83301 -81.5 -23.5s-34.167 -37.5 -39.5 -65.5c-1.33301 -12 -2 -18.667 -2 -20c0 -22 8 -41 24 -57s43.667 -33 83 -51
c54 -25.333 92.833 -51.833 116.5 -79.5s35.5 -60.5 35.5 -98.5c0 -16.667 -1.33301 -31.334 -4 -44.001c-10 -58 -39.667 -104.167 -89 -138.5s-111.333 -51.5 -186 -51.5c-70 0 -131 11.333 -183 34z" />
    <glyph glyph-name="uni0406" unicode="&#x406;" horiz-adv-x="275" 
d="M39 0l123 700h108l-123 -700h-108z" />
    <glyph glyph-name="uni0407" unicode="&#x407;" horiz-adv-x="275" 
d="M39 0l123 700h108l-123 -700h-108zM96 825c0 20.667 6.50098 37.667 19.501 51s29.167 20 48.5 20c14.667 0 26.167 -4 34.5 -12s12.5 -18.667 12.5 -32c0 -7.33301 -0.333008 -12 -1 -14c-2.66699 -18 -10.167 -32.333 -22.5 -43s-26.833 -16 -43.5 -16
c-14.667 0 -26.334 4.16699 -35.001 12.5s-13 19.5 -13 33.5zM268.001 825c0 20.667 6.33398 37.666 19.001 50.999s28.667 20 48 20c14.667 0 26.334 -4.16699 35.001 -12.5s13 -19.166 13 -32.499c0 -6.66699 -0.333008 -11 -1 -13
c-2.66699 -17.333 -10.334 -31.5 -23.001 -42.5s-27.334 -16.5 -44.001 -16.5c-14.667 0 -26.167 4.16699 -34.5 12.5s-12.5 19.5 -12.5 33.5z" />
    <glyph glyph-name="uni0408" unicode="&#x408;" horiz-adv-x="474" 
d="M-20 32l15.998 91.999c33.333 -27.333 76.666 -41 129.999 -41c42.667 0 77.334 13.333 104.001 40s44.334 64.334 53.001 113.001l82 464h106l-87 -493c-12 -69.333 -40 -122.833 -84 -160.5s-99.333 -56.5 -166 -56.5c-63.333 0 -114.666 14 -153.999 42z" />
    <glyph glyph-name="uni0409" unicode="&#x409;" horiz-adv-x="928" 
d="M898 273c0 -84 -26.499 -150.5 -79.499 -199.5s-124.5 -73.5 -214.5 -73.5h-192l107 610h-201l-84 -346c-22.667 -94 -51.334 -162 -86.001 -204s-82.334 -63 -143.001 -63c-1.33301 0 -13.333 0.666992 -36 2l16 93c2 -0.666992 7 -1 15 -1
c32.667 0 58.834 14.833 78.501 44.5s37.167 76.5 52.5 140.5l102 424h408l-46 -258h85c69.333 0 123 -14.333 161 -43s57 -70.667 57 -126zM789.001 255c0 35.333 -9.83105 61 -29.498 77s-51.834 24 -96.501 24h-83l-47 -268h79c57.333 0 101.166 14.333 131.499 43
s45.5 70 45.5 124z" />
    <glyph glyph-name="uni040A" unicode="&#x40a;" horiz-adv-x="936" 
d="M39 0l123 700.001h105l-48 -274h273l49 274h106l-48 -273h82c71.333 0 126.5 -14 165.5 -42s58.5 -69.333 58.5 -124c0 -80.667 -27 -144.334 -81 -191.001s-124.667 -70 -212 -70h-194l59 338h-272l-60 -338h-106zM539 88.001l84.999 0.00195312
c52.667 0 94.5 14.167 125.5 42.5s46.5 67.166 46.5 116.499c0 33.333 -10.167 57.166 -30.5 71.499s-52.166 21.5 -95.499 21.5h-86z" />
    <glyph glyph-name="uni040B" unicode="&#x40b;" horiz-adv-x="705" 
d="M156 0l108 609.999h-185l16 90h542l-16 -90h-251l-24 -136l-11 -59h2c46.667 63.333 106 95 178 95c44 0 77.833 -11.333 101.5 -34s35.5 -55 35.5 -97c0 -11.333 -1.66699 -27.666 -5 -48.999l-58 -330h-106l55 314c2 12 3 23.333 3 34c0 48 -22.667 72 -68 72
c-39.333 0 -75.333 -19.333 -108 -58s-54 -87.667 -64 -147l-38 -215h-107z" />
    <glyph glyph-name="uni040C" unicode="&#x40c;" horiz-adv-x="612" 
d="M671 700l-353 -340.999l253 -359h-123l-148 209l-95 132h-1l-27 -153l-33 -188h-106l124 700h106l-30 -166c-2.66699 -18.667 -7.66699 -46.334 -15 -83.001l-11 -61h1l141 134l182 176h135zM358 765.001l97 145h115l-133 -145h-79z" />
    <glyph glyph-name="uni040D" unicode="&#x40d;" horiz-adv-x="665" 
d="M38 -3l124 703h103l-61 -344c-6 -36 -15 -78 -27 -126h2c31.333 40 59.333 73.333 84 100l358 373h40l-124 -703h-104l62 349l22 113h-2c-36.667 -46 -69.667 -84.333 -99 -115l-339 -350h-39zM386 765l-82 145h115l47 -145h-80z" />
    </font>
</defs>
</svg>
