<svg width="12" height="24" viewBox="0 0 12 24" fill="none" xmlns="http://www.w3.org/2000/svg">
<g clip-path="url(#clip0)">
<path d="M7.70193 24H3.66926C3.36466 24 3.11746 23.7429 3.11746 23.4261V13.5759H0.295459C-0.00914478 13.5759 -0.256348 13.3188 -0.256348 13.002V8.94003C-0.256348 8.62324 -0.00914478 8.36615 0.295459 8.36615H3.11746V5.94549C3.11743 2.27718 5.25298 0 8.69188 0C10.2281 0 11.4653 0.122818 11.7776 0.166424C12.0524 0.204303 12.2566 0.447636 12.2566 0.735727V4.3673C12.2566 4.68409 12.0094 4.94118 11.7048 4.94118L9.63876 4.94348C8.44575 4.94348 8.2537 5.35667 8.2537 6.34721V8.3673H11.5701C11.729 8.3673 11.8802 8.43845 11.9839 8.56242C12.0888 8.68524 12.1374 8.85052 12.1175 9.01464L11.6143 13.0766C11.5789 13.3635 11.3439 13.5782 11.0669 13.5782H8.2537V23.4284C8.25373 23.7441 8.00653 24 7.70193 24ZM4.22107 22.8522H7.15009V13.002C7.15009 12.6852 7.39729 12.4281 7.7019 12.4281H10.5813L10.9433 9.51391H7.70193C7.39732 9.51391 7.15012 9.25682 7.15012 8.94003V6.34606C7.15012 5.25109 7.40837 3.79455 9.63881 3.79455L11.1541 3.79339V1.25336C10.5902 1.20285 9.68407 1.14776 8.6919 1.14776C5.89199 1.14776 4.2211 2.94061 4.2211 5.94545V8.94C4.2211 9.25679 3.9739 9.51388 3.66929 9.51388H0.847294V12.4281H3.66929C3.9739 12.4281 4.2211 12.6852 4.2211 13.002V22.8522H4.22107Z" fill="black"/>
</g>
<defs>
<clipPath id="clip0">
<rect width="12" height="24" fill="white"/>
</clipPath>
</defs>
</svg>
