<svg width="24" height="24" viewBox="0 0 24 24" fill="none" xmlns="http://www.w3.org/2000/svg">
<path d="M20.1326 3.3282H17.9303C17.2109 3.3282 16.6252 3.91393 16.6252 4.63334V6.83507C16.6252 7.55448 17.2109 8.1402 17.9303 8.1402H20.1326C20.852 8.1402 21.4377 7.55448 21.4377 6.83507V4.63334C21.4377 3.91389 20.852 3.3282 20.1326 3.3282ZM20.2949 6.83507C20.2949 6.92479 20.2223 6.99734 20.1326 6.99734H17.9303C17.8406 6.99734 17.768 6.92475 17.768 6.83507V4.63334C17.768 4.54361 17.8411 4.47107 17.9303 4.47107H20.1326C20.2217 4.47107 20.2949 4.54365 20.2949 4.63334V6.83507ZM18.8571 0.285889H5.14286C2.30741 0.285889 0 2.5933 0 5.42875V18.5716C0 21.4071 2.30741 23.7144 5.14286 23.7144H18.8571C21.6925 23.7144 24 21.4071 24 18.5716V5.42875C24 2.5933 21.6925 0.285889 18.8571 0.285889ZM22.8571 18.5716C22.8571 20.7773 21.0628 22.5716 18.8571 22.5716H5.14286C2.93714 22.5716 1.14286 20.7773 1.14286 18.5716V10.0002H6.90345C5.81318 11.215 5.14286 12.8144 5.14286 14.5716C5.14286 18.3528 8.21886 21.4287 12 21.4287C15.7811 21.4287 18.8571 18.3527 18.8571 14.5716C18.8571 12.8144 18.1868 11.215 17.0965 10.0002H22.8571V18.5716ZM12 8.8573C15.1509 8.8573 17.7143 11.4208 17.7143 14.5716C17.7143 17.7225 15.1509 20.2859 12 20.2859C8.84914 20.2859 6.28573 17.7225 6.28573 14.5716C6.28573 11.4208 8.84914 8.8573 12 8.8573ZM22.8571 8.8573H15.7823C14.6971 8.13671 13.3977 7.71444 12 7.71444C10.6029 7.71444 9.30286 8.13671 8.21773 8.8573H1.14286V5.42875C1.14286 3.22303 2.93714 1.42875 5.14286 1.42875H18.8571C21.0628 1.42875 22.8571 3.22303 22.8571 5.42875V8.8573ZM12 18.5716C14.2057 18.5716 16 16.7773 16 14.5716C16 12.3659 14.2057 10.5716 12 10.5716C9.79427 10.5716 8 12.3659 8 14.5716C8 16.7773 9.79427 18.5716 12 18.5716ZM12 11.7145C13.5755 11.7145 14.8571 12.9962 14.8571 14.5716C14.8571 16.147 13.5754 17.4287 12 17.4287C10.4246 17.4287 9.14286 16.147 9.14286 14.5716C9.14286 12.9962 10.4246 11.7145 12 11.7145Z" fill="black"/>
</svg>
