<svg width="24" height="24" viewBox="0 0 24 24" fill="none" xmlns="http://www.w3.org/2000/svg">
<g clip-path="url(#clip0)">
<path d="M21.4181 16.1557C21.6102 16.1557 21.8188 16.0139 21.8606 15.8185C22.5695 12.5347 23.2787 9.2508 23.9879 5.96694C24.0504 5.67825 23.8568 5.3859 23.5454 5.3859C17.8499 5.3859 12.1549 5.3859 6.45944 5.3859C5.76344 5.3859 5.06708 5.3859 4.37108 5.3859C4.23592 4.74683 4.10076 4.10813 3.96597 3.46906C3.81097 2.7367 3.65635 2.00434 3.50136 1.27161C3.45985 1.07622 3.25124 0.934814 3.05841 0.934814C2.18649 0.934814 1.31493 0.934814 0.443004 0.934814C-0.147952 0.934814 -0.148686 1.85302 0.443004 1.85302C1.19079 1.85302 1.93894 1.85302 2.68709 1.85302C3.2314 4.42729 3.77535 7.00157 4.31966 9.57621C4.32149 9.63681 4.33435 9.69631 4.35675 9.75177C4.85993 12.1314 5.36274 14.511 5.86591 16.8906C5.98969 17.4761 6.11346 18.0615 6.23723 18.647C5.36421 18.9694 4.72367 19.8164 4.72367 20.7875C4.72367 21.9911 5.70468 23.0117 6.90532 23.0628C8.18603 23.1175 9.1428 22.1387 9.27171 20.9241C9.28163 20.8822 9.28787 20.8378 9.2853 20.7875C9.28787 20.7375 9.282 20.6938 9.27208 20.6523C9.22397 20.1969 9.05979 19.7738 8.8038 19.4249C12.1618 19.4249 15.5195 19.4249 18.8776 19.4249C18.5867 19.8079 18.41 20.2803 18.41 20.7875C18.41 21.9911 19.391 23.0117 20.5917 23.0628C21.8724 23.1175 22.8292 22.1387 22.9581 20.9241C22.968 20.8822 22.9742 20.8378 22.9717 20.7875C22.9742 20.7375 22.9684 20.6938 22.9585 20.6523C22.8339 19.4763 21.9334 18.5067 20.6909 18.5067C16.1755 18.5067 11.6601 18.5067 7.14442 18.5067C6.97878 17.7229 6.81313 16.9395 6.64749 16.1557C11.5713 16.1557 16.4947 16.1557 21.4181 16.1557ZM5.35025 10.0177C6.38084 10.0177 7.41143 10.0177 8.44239 10.0177C8.7443 11.7575 9.0462 13.4977 9.34811 15.2375C8.38326 15.2375 7.41841 15.2375 6.45393 15.2375C6.08591 13.4977 5.7179 11.7579 5.35025 10.0177ZM14.1959 15.2375C14.1959 13.4977 14.1959 11.7575 14.1959 10.0177C15.5772 10.0177 16.9582 10.0177 18.3395 10.0177C18.0376 11.7575 17.7357 13.4977 17.4338 15.2375C16.3544 15.2375 15.2749 15.2375 14.1959 15.2375ZM13.2777 15.2375C12.2772 15.2375 11.2763 15.2375 10.2759 15.2375C9.97395 13.4977 9.67205 11.7575 9.37014 10.0177C10.6725 10.0177 11.9753 10.0177 13.2777 10.0177C13.2777 11.7579 13.2777 13.4977 13.2777 15.2375ZM21.0482 15.2375C20.1528 15.2375 19.257 15.2375 18.3616 15.2375C18.6635 13.4977 18.9654 11.7575 19.2673 10.0177C19.6764 10.0177 20.0856 10.0177 20.4951 10.0177C21.0552 10.0177 21.6153 10.0177 22.1754 10.0177C21.7997 11.7579 21.424 13.4977 21.0482 15.2375ZM21.0853 6.3041C21.7159 6.3041 22.3466 6.3041 22.9772 6.3041C22.7759 7.23589 22.5746 8.16769 22.3737 9.09948C17.2527 9.09948 12.1317 9.09948 7.01073 9.09948C6.39259 9.09948 5.77446 9.09948 5.15633 9.09948C4.95946 8.16769 4.76223 7.23589 4.56537 6.3041C10.0717 6.3041 15.5787 6.3041 21.0853 6.3041ZM5.64224 20.7878C5.64224 19.0264 8.27344 19.0418 8.36747 20.7878C8.27344 22.5332 5.64224 22.5486 5.64224 20.7878ZM22.0538 20.7878C21.9598 22.5332 19.3286 22.5486 19.3286 20.7878C19.3282 19.0264 21.9598 19.0418 22.0538 20.7878Z" fill="black"/>
</g>
<defs>
<clipPath id="clip0">
<rect width="24" height="24" fill="white"/>
</clipPath>
</defs>
</svg>
