<svg width="24" height="24" viewBox="0 0 24 24" fill="none" xmlns="http://www.w3.org/2000/svg">
<path d="M12 16.5C15.7222 16.5 18.75 12.798 18.75 8.25C18.75 3.702 15.7215 0 12 0C10.1647 0 8.4495 0.8805 7.1715 2.47875C5.93175 4.0275 5.25 6.078 5.25 8.25075C5.25 12.798 8.27775 16.5 12 16.5ZM12 1.50075C14.8942 1.50075 17.25 4.5285 17.25 8.25075C17.25 11.9723 14.8942 15.0007 12 15.0007C9.10575 15.0007 6.75 11.9723 6.74925 8.25075C6.74925 4.5285 9.105 1.50075 12 1.50075ZM17.25 15C16.8353 15 16.5 15.3353 16.5 15.75C16.5 16.1647 16.8353 16.5 17.25 16.5C20.1442 16.5 22.5 18.8558 22.5 21.75C22.5 22.1632 22.1632 22.5 21.75 22.5H2.25C1.83675 22.5 1.5 22.1632 1.5 21.75C1.5 18.8558 3.85575 16.5 6.75 16.5C7.16475 16.5 7.5 16.1647 7.5 15.75C7.5 15.3353 7.16475 15 6.75 15C3.02775 15 0 18.0278 0 21.75C0 22.9905 1.0095 24 2.25 24H21.75C22.9905 24 24 22.9905 24 21.75C24 18.0285 20.9722 15 17.25 15Z" fill="black"/>
</svg>
